<svg width="284" height="123" viewBox="0 0 284 123" fill="none" xmlns="http://www.w3.org/2000/svg">
<path d="M4.825 14L5.188 11.998H4.286V11.052H5.353L5.727 8.918H4.638V7.972H5.892L6.244 5.97H7.245L6.882 7.972H8.422L8.774 5.97H9.775L9.412 7.972H10.314V8.918H9.247L8.873 11.052H9.962V11.998H8.708L8.356 14H7.355L7.718 11.998H6.178L5.826 14H4.825ZM6.343 11.052H7.883L8.257 8.918H6.717L6.343 11.052ZM17.5764 14L19.6004 5.97H21.3714L23.4064 14H21.9984L21.5584 12.053H19.4244L18.9844 14H17.5764ZM19.6774 10.931H21.3054L20.8214 8.775C20.7407 8.41567 20.6711 8.093 20.6124 7.807C20.5537 7.51367 20.5134 7.301 20.4914 7.169C20.4694 7.301 20.4291 7.51367 20.3704 7.807C20.3191 8.093 20.2494 8.412 20.1614 8.764L19.6774 10.931ZM31.2298 14V5.97H32.6048V7.95L32.5718 9.105H32.9458L32.5718 9.424C32.5718 8.92533 32.7148 8.53667 33.0008 8.258C33.2941 7.97933 33.6938 7.84 34.1998 7.84C34.7938 7.84 35.2668 8.038 35.6188 8.434C35.9781 8.83 36.1578 9.36167 36.1578 10.029V14H34.7828V10.172C34.7828 9.80533 34.6875 9.523 34.4968 9.325C34.3061 9.127 34.0385 9.028 33.6938 9.028C33.3565 9.028 33.0888 9.13067 32.8908 9.336C32.7001 9.54133 32.6048 9.83467 32.6048 10.216V14H31.2298ZM40.2895 14.11C39.7762 14.11 39.3288 14.011 38.9475 13.813C38.5662 13.615 38.2692 13.34 38.0565 12.988C37.8512 12.6287 37.7485 12.2107 37.7485 11.734V10.216C37.7485 9.73933 37.8512 9.325 38.0565 8.973C38.2692 8.61367 38.5662 8.335 38.9475 8.137C39.3288 7.939 39.7762 7.84 40.2895 7.84C40.7955 7.84 41.2355 7.939 41.6095 8.137C41.9908 8.335 42.2842 8.61367 42.4895 8.973C42.7022 9.325 42.8085 9.73933 42.8085 10.216V11.305H39.0795V11.734C39.0795 12.1593 39.1822 12.482 39.3875 12.702C39.5928 12.9147 39.8972 13.021 40.3005 13.021C40.6085 13.021 40.8578 12.9697 41.0485 12.867C41.2392 12.757 41.3602 12.5993 41.4115 12.394H42.7645C42.6618 12.9147 42.3832 13.3327 41.9285 13.648C41.4812 13.956 40.9348 14.11 40.2895 14.11ZM41.4775 10.535V10.205C41.4775 9.787 41.3785 9.468 41.1805 9.248C40.9825 9.02067 40.6855 8.907 40.2895 8.907C39.8935 8.907 39.5928 9.02067 39.3875 9.248C39.1822 9.47533 39.0795 9.798 39.0795 10.216V10.447L41.5765 10.425L41.4775 10.535ZM46.2032 14.11C45.5799 14.11 45.0886 13.945 44.7292 13.615C44.3699 13.285 44.1902 12.8413 44.1902 12.284C44.1902 11.69 44.3882 11.2317 44.7842 10.909C45.1802 10.5863 45.7412 10.425 46.4672 10.425H47.9742V9.908C47.9742 9.61467 47.8789 9.38733 47.6882 9.226C47.4976 9.05733 47.2372 8.973 46.9072 8.973C46.6066 8.973 46.3572 9.039 46.1592 9.171C45.9612 9.303 45.8439 9.48267 45.8072 9.71H44.4652C44.5312 9.138 44.7879 8.68333 45.2352 8.346C45.6826 8.00867 46.2546 7.84 46.9512 7.84C47.6919 7.84 48.2749 8.027 48.7002 8.401C49.1329 8.76767 49.3492 9.26633 49.3492 9.897V14H48.0182V12.944H47.7982L48.0182 12.647C48.0182 13.0943 47.8532 13.45 47.5232 13.714C47.1932 13.978 46.7532 14.11 46.2032 14.11ZM46.6542 13.076C47.0429 13.076 47.3582 12.977 47.6002 12.779C47.8496 12.581 47.9742 12.3243 47.9742 12.009V11.272H46.4892C46.2106 11.272 45.9869 11.3527 45.8182 11.514C45.6496 11.6753 45.5652 11.888 45.5652 12.152C45.5652 12.438 45.6606 12.6653 45.8512 12.834C46.0492 12.9953 46.3169 13.076 46.6542 13.076ZM52.9529 14.11C52.3516 14.11 51.8639 13.901 51.4899 13.483C51.1233 13.065 50.9399 12.504 50.9399 11.8V10.161C50.9399 9.44967 51.1233 8.885 51.4899 8.467C51.8566 8.049 52.3443 7.84 52.9529 7.84C53.4516 7.84 53.8476 7.983 54.1409 8.269C54.4343 8.54767 54.5809 8.93267 54.5809 9.424L54.2729 9.105H54.5919L54.5479 7.664V5.97H55.9229V14H54.5809V12.845H54.2729L54.5809 12.526C54.5809 13.0173 54.4343 13.406 54.1409 13.692C53.8476 13.9707 53.4516 14.11 52.9529 14.11ZM53.4369 12.922C53.7889 12.922 54.0603 12.8193 54.2509 12.614C54.4489 12.4013 54.5479 12.108 54.5479 11.734V10.216C54.5479 9.842 54.4489 9.55233 54.2509 9.347C54.0603 9.13433 53.7889 9.028 53.4369 9.028C53.0849 9.028 52.8099 9.13067 52.6119 9.336C52.4139 9.54133 52.3149 9.83467 52.3149 10.216V11.734C52.3149 12.1153 52.4139 12.4087 52.6119 12.614C52.8099 12.8193 53.0849 12.922 53.4369 12.922ZM57.6016 14V12.746H59.7136V9.193H57.8766V7.95H61.0336V12.746H62.9036V14H57.6016ZM60.2636 6.938C59.985 6.938 59.765 6.86833 59.6036 6.729C59.4423 6.58233 59.3616 6.388 59.3616 6.146C59.3616 5.904 59.4423 5.71333 59.6036 5.574C59.765 5.42733 59.985 5.354 60.2636 5.354C60.5423 5.354 60.7623 5.42733 60.9236 5.574C61.085 5.71333 61.1656 5.904 61.1656 6.146C61.1656 6.388 61.085 6.58233 60.9236 6.729C60.7623 6.86833 60.5423 6.938 60.2636 6.938ZM64.2083 14V7.95H65.5503V9.105H65.9243L65.5503 9.424C65.5503 8.92533 65.6933 8.53667 65.9793 8.258C66.2727 7.97933 66.6723 7.84 67.1783 7.84C67.7723 7.84 68.2453 8.038 68.5973 8.434C68.9567 8.83 69.1363 9.36167 69.1363 10.029V14H67.7613V10.172C67.7613 9.80533 67.666 9.523 67.4753 9.325C67.2847 9.127 67.017 9.028 66.6723 9.028C66.335 9.028 66.0673 9.13067 65.8693 9.336C65.6787 9.54133 65.5833 9.83467 65.5833 10.216V14H64.2083ZM71.629 15.98V14.836H73.422C73.73 14.836 73.961 14.759 74.115 14.605C74.269 14.4583 74.346 14.2457 74.346 13.967V13.516L74.368 12.383H74.071L74.368 12.086C74.368 12.5773 74.2214 12.9623 73.928 13.241C73.642 13.5123 73.2534 13.648 72.762 13.648C72.146 13.648 71.6547 13.439 71.288 13.021C70.9287 12.603 70.749 12.0383 70.749 11.327V10.15C70.749 9.446 70.9287 8.885 71.288 8.467C71.6547 8.049 72.146 7.84 72.762 7.84C73.2534 7.84 73.642 7.97933 73.928 8.258C74.2214 8.52933 74.368 8.91067 74.368 9.402L74.071 9.105H74.368L74.335 7.95H75.71V14C75.71 14.6087 75.5084 15.089 75.105 15.441C74.7017 15.8003 74.148 15.98 73.444 15.98H71.629ZM73.224 12.46C73.576 12.46 73.8474 12.3573 74.038 12.152C74.236 11.9393 74.335 11.646 74.335 11.272V10.216C74.335 9.842 74.236 9.55233 74.038 9.347C73.8474 9.13433 73.576 9.028 73.224 9.028C72.872 9.028 72.6007 9.13067 72.41 9.336C72.2194 9.54133 72.124 9.83467 72.124 10.216V11.272C72.124 11.6533 72.2194 11.9467 72.41 12.152C72.6007 12.3573 72.872 12.46 73.224 12.46ZM5.1507 65L5.5137 62.998H4.6117V62.052H5.6787L6.0527 59.918H4.9637V58.972H6.2177L6.5697 56.97H7.5707L7.2077 58.972H8.7477L9.0997 56.97H10.1007L9.7377 58.972H12.1577L12.5097 56.97H13.5107L13.1477 58.972H14.6877L15.0397 56.97H16.0407L15.6777 58.972H16.5797V59.918H15.5127L15.1387 62.052H16.2277V62.998H14.9737L14.6217 65H13.6207L13.9837 62.998H12.4437L12.0917 65H11.0907L11.4537 62.998H9.0337L8.6817 65H7.6807L8.0437 62.998H6.5037L6.1517 65H5.1507ZM6.6687 62.052H8.2087L8.5827 59.918H7.0427L6.6687 62.052ZM9.1987 62.052H11.6187L11.9927 59.918H9.5727L9.1987 62.052ZM12.6087 62.052H14.1487L14.5227 59.918H12.9827L12.6087 62.052ZM25.8771 64.043L24.8651 63.339L25.3161 62.69C25.4261 62.5287 25.5618 62.371 25.7231 62.217C25.8918 62.063 26.0568 61.92 26.2181 61.788C26.3868 61.656 26.5298 61.546 26.6471 61.458L26.6251 61.392C26.4711 61.392 26.2878 61.3847 26.0751 61.37C25.8698 61.3553 25.6571 61.3297 25.4371 61.293C25.2244 61.249 25.0301 61.1977 24.8541 61.139L24.1171 60.875L24.5461 59.709L25.2721 59.973C25.4481 60.0317 25.6314 60.1197 25.8221 60.237C26.0128 60.3543 26.1924 60.4753 26.3611 60.6C26.5371 60.7247 26.6838 60.8383 26.8011 60.941L26.8561 60.897C26.8121 60.743 26.7571 60.5633 26.6911 60.358C26.6324 60.1527 26.5811 59.9363 26.5371 59.709C26.4931 59.4817 26.4711 59.2727 26.4711 59.082V58.29H27.7031V59.082C27.7031 59.2727 27.6811 59.4817 27.6371 59.709C27.5931 59.9363 27.5418 60.1527 27.4831 60.358C27.4244 60.5633 27.3658 60.743 27.3071 60.897L27.3621 60.93C27.4794 60.8273 27.6224 60.7173 27.7911 60.6C27.9671 60.4753 28.1504 60.3543 28.3411 60.237C28.5318 60.1197 28.7151 60.0317 28.8911 59.973L29.6281 59.709L30.0571 60.875L29.3091 61.139C29.1404 61.1977 28.9461 61.249 28.7261 61.293C28.5134 61.3297 28.3044 61.3553 28.0991 61.37C27.8938 61.3847 27.7104 61.392 27.5491 61.392L27.5271 61.458C27.6444 61.546 27.7838 61.6597 27.9451 61.799C28.1138 61.931 28.2788 62.074 28.4401 62.228C28.6088 62.382 28.7444 62.536 28.8471 62.69L29.2981 63.339L28.2861 64.043L27.8351 63.394C27.7251 63.24 27.6224 63.0603 27.5271 62.855C27.4391 62.6423 27.3584 62.4333 27.2851 62.228C27.2191 62.0227 27.1641 61.8503 27.1201 61.711H27.0541C27.0101 61.8503 26.9514 62.0227 26.8781 62.228C26.8121 62.4333 26.7314 62.6423 26.6361 62.855C26.5481 63.0603 26.4454 63.24 26.3281 63.394L25.8771 64.043ZM32.4728 64.043L31.4608 63.339L31.9118 62.69C32.0218 62.5287 32.1575 62.371 32.3188 62.217C32.4875 62.063 32.6525 61.92 32.8138 61.788C32.9825 61.656 33.1255 61.546 33.2428 61.458L33.2208 61.392C33.0668 61.392 32.8835 61.3847 32.6708 61.37C32.4655 61.3553 32.2528 61.3297 32.0328 61.293C31.8201 61.249 31.6258 61.1977 31.4498 61.139L30.7128 60.875L31.1418 59.709L31.8678 59.973C32.0438 60.0317 32.2271 60.1197 32.4178 60.237C32.6085 60.3543 32.7881 60.4753 32.9568 60.6C33.1328 60.7247 33.2795 60.8383 33.3968 60.941L33.4518 60.897C33.4078 60.743 33.3528 60.5633 33.2868 60.358C33.2281 60.1527 33.1768 59.9363 33.1328 59.709C33.0888 59.4817 33.0668 59.2727 33.0668 59.082V58.29H34.2988V59.082C34.2988 59.2727 34.2768 59.4817 34.2328 59.709C34.1888 59.9363 34.1375 60.1527 34.0788 60.358C34.0201 60.5633 33.9615 60.743 33.9028 60.897L33.9578 60.93C34.0751 60.8273 34.2181 60.7173 34.3868 60.6C34.5628 60.4753 34.7461 60.3543 34.9368 60.237C35.1275 60.1197 35.3108 60.0317 35.4868 59.973L36.2238 59.709L36.6528 60.875L35.9048 61.139C35.7361 61.1977 35.5418 61.249 35.3218 61.293C35.1091 61.3297 34.9001 61.3553 34.6948 61.37C34.4895 61.3847 34.3061 61.392 34.1448 61.392L34.1228 61.458C34.2401 61.546 34.3795 61.6597 34.5408 61.799C34.7095 61.931 34.8745 62.074 35.0358 62.228C35.2045 62.382 35.3401 62.536 35.4428 62.69L35.8938 63.339L34.8818 64.043L34.4308 63.394C34.3208 63.24 34.2181 63.0603 34.1228 62.855C34.0348 62.6423 33.9541 62.4333 33.8808 62.228C33.8148 62.0227 33.7598 61.8503 33.7158 61.711H33.6498C33.6058 61.8503 33.5471 62.0227 33.4738 62.228C33.4078 62.4333 33.3271 62.6423 33.2318 62.855C33.1438 63.0603 33.0411 63.24 32.9238 63.394L32.4728 64.043ZM37.8255 65V56.97H40.2895C41.0668 56.97 41.6828 57.157 42.1375 57.531C42.5922 57.8977 42.8195 58.4 42.8195 59.038C42.8195 59.3973 42.7388 59.709 42.5775 59.973C42.4162 60.237 42.1962 60.4423 41.9175 60.589C41.6462 60.7357 41.3308 60.809 40.9715 60.809V60.765C41.3602 60.7577 41.7048 60.831 42.0055 60.985C42.3135 61.1317 42.5555 61.3517 42.7315 61.645C42.9148 61.9383 43.0065 62.294 43.0065 62.712C43.0065 63.174 42.9002 63.5773 42.6875 63.922C42.4748 64.2667 42.1742 64.5343 41.7855 64.725C41.4042 64.9083 40.9458 65 40.4105 65H37.8255ZM39.1675 63.856H40.3225C40.7258 63.856 41.0412 63.7497 41.2685 63.537C41.5032 63.317 41.6205 63.02 41.6205 62.646C41.6205 62.272 41.5032 61.9713 41.2685 61.744C41.0412 61.5093 40.7258 61.392 40.3225 61.392H39.1675V63.856ZM39.1675 60.281H40.2675C40.6342 60.281 40.9202 60.1857 41.1255 59.995C41.3382 59.797 41.4445 59.5293 41.4445 59.192C41.4445 58.8547 41.3382 58.5907 41.1255 58.4C40.9202 58.2093 40.6342 58.114 40.2675 58.114H39.1675V60.281ZM46.8742 65.099C46.3609 65.099 45.9136 65.0037 45.5322 64.813C45.1582 64.615 44.8649 64.34 44.6522 63.988C44.4469 63.6287 44.3442 63.207 44.3442 62.723V61.227C44.3442 60.743 44.4469 60.325 44.6522 59.973C44.8649 59.6137 45.1582 59.3387 45.5322 59.148C45.9136 58.95 46.3609 58.851 46.8742 58.851C47.3949 58.851 47.8422 58.95 48.2162 59.148C48.5902 59.3387 48.8799 59.6137 49.0852 59.973C49.2979 60.325 49.4042 60.7393 49.4042 61.216V62.723C49.4042 63.207 49.2979 63.6287 49.0852 63.988C48.8799 64.34 48.5902 64.615 48.2162 64.813C47.8422 65.0037 47.3949 65.099 46.8742 65.099ZM46.8742 63.9C47.2409 63.9 47.5232 63.801 47.7212 63.603C47.9266 63.3977 48.0292 63.1043 48.0292 62.723V61.227C48.0292 60.8383 47.9266 60.545 47.7212 60.347C47.5232 60.149 47.2409 60.05 46.8742 60.05C46.5149 60.05 46.2326 60.149 46.0272 60.347C45.8219 60.545 45.7192 60.8383 45.7192 61.227V62.723C45.7192 63.1043 45.8219 63.3977 46.0272 63.603C46.2326 63.801 46.5149 63.9 46.8742 63.9ZM54.3939 65C53.9979 65 53.6496 64.9193 53.3489 64.758C53.0556 64.5967 52.8246 64.3693 52.6559 64.076C52.4873 63.7753 52.4029 63.4307 52.4029 63.042V58.213H50.4669V56.97H53.7779V63.042C53.7779 63.262 53.8403 63.438 53.9649 63.57C54.0969 63.6947 54.2729 63.757 54.4929 63.757H56.3189V65H54.3939ZM59.5486 65.11C58.9473 65.11 58.4596 64.901 58.0856 64.483C57.719 64.065 57.5356 63.504 57.5356 62.8V61.161C57.5356 60.4497 57.719 59.885 58.0856 59.467C58.4523 59.049 58.94 58.84 59.5486 58.84C60.0473 58.84 60.4433 58.983 60.7366 59.269C61.03 59.5477 61.1766 59.9327 61.1766 60.424L60.8686 60.105H61.1876L61.1436 58.664V56.97H62.5186V65H61.1766V63.845H60.8686L61.1766 63.526C61.1766 64.0173 61.03 64.406 60.7366 64.692C60.4433 64.9707 60.0473 65.11 59.5486 65.11ZM60.0326 63.922C60.3846 63.922 60.656 63.8193 60.8466 63.614C61.0446 63.4013 61.1436 63.108 61.1436 62.734V61.216C61.1436 60.842 61.0446 60.5523 60.8466 60.347C60.656 60.1343 60.3846 60.028 60.0326 60.028C59.6806 60.028 59.4056 60.1307 59.2076 60.336C59.0096 60.5413 58.9106 60.8347 58.9106 61.216V62.734C58.9106 63.1153 59.0096 63.4087 59.2076 63.614C59.4056 63.8193 59.6806 63.922 60.0326 63.922ZM73.917 65C73.3377 65 72.883 64.8387 72.553 64.516C72.2304 64.1933 72.069 63.7497 72.069 63.185V60.193H70.43V58.95H72.069V57.245H73.455V58.95H75.776V60.193H73.455V63.185C73.455 63.5663 73.642 63.757 74.016 63.757H75.666V65H73.917ZM79.8637 65.11C79.3504 65.11 78.9031 65.011 78.5217 64.813C78.1404 64.615 77.8434 64.34 77.6307 63.988C77.4254 63.6287 77.3227 63.2107 77.3227 62.734V61.216C77.3227 60.7393 77.4254 60.325 77.6307 59.973C77.8434 59.6137 78.1404 59.335 78.5217 59.137C78.9031 58.939 79.3504 58.84 79.8637 58.84C80.3697 58.84 80.8097 58.939 81.1837 59.137C81.5651 59.335 81.8584 59.6137 82.0637 59.973C82.2764 60.325 82.3827 60.7393 82.3827 61.216V62.305H78.6537V62.734C78.6537 63.1593 78.7564 63.482 78.9617 63.702C79.1671 63.9147 79.4714 64.021 79.8747 64.021C80.1827 64.021 80.4321 63.9697 80.6227 63.867C80.8134 63.757 80.9344 63.5993 80.9857 63.394H82.3387C82.2361 63.9147 81.9574 64.3327 81.5027 64.648C81.0554 64.956 80.5091 65.11 79.8637 65.11ZM81.0517 61.535V61.205C81.0517 60.787 80.9527 60.468 80.7547 60.248C80.5567 60.0207 80.2597 59.907 79.8637 59.907C79.4677 59.907 79.1671 60.0207 78.9617 60.248C78.7564 60.4753 78.6537 60.798 78.6537 61.216V61.447L81.1507 61.425L81.0517 61.535ZM83.5444 65L85.6564 61.876L83.6874 58.95H85.2384L86.1734 60.435C86.2321 60.523 86.2834 60.622 86.3274 60.732C86.3788 60.842 86.4191 60.93 86.4484 60.996C86.4778 60.93 86.5181 60.842 86.5694 60.732C86.6208 60.622 86.6721 60.523 86.7234 60.435L87.6694 58.95H89.2204L87.2514 61.876L89.3524 65H87.7904L86.7454 63.339C86.6868 63.2437 86.6318 63.141 86.5804 63.031C86.5291 62.921 86.4851 62.833 86.4484 62.767C86.4191 62.833 86.3788 62.921 86.3274 63.031C86.2761 63.141 86.2211 63.2437 86.1624 63.339L85.0954 65H83.5444ZM93.7041 65C93.1248 65 92.6701 64.8387 92.3401 64.516C92.0175 64.1933 91.8561 63.7497 91.8561 63.185V60.193H90.2171V58.95H91.8561V57.245H93.2421V58.95H95.5631V60.193H93.2421V63.185C93.2421 63.5663 93.4291 63.757 93.8031 63.757H95.4531V65H93.7041ZM98.4298 64.043L97.4178 63.339L97.8688 62.69C97.9788 62.5287 98.1145 62.371 98.2758 62.217C98.4445 62.063 98.6095 61.92 98.7708 61.788C98.9395 61.656 99.0825 61.546 99.1998 61.458L99.1778 61.392C99.0238 61.392 98.8405 61.3847 98.6278 61.37C98.4225 61.3553 98.2098 61.3297 97.9898 61.293C97.7772 61.249 97.5828 61.1977 97.4068 61.139L96.6698 60.875L97.0988 59.709L97.8248 59.973C98.0008 60.0317 98.1842 60.1197 98.3748 60.237C98.5655 60.3543 98.7452 60.4753 98.9138 60.6C99.0898 60.7247 99.2365 60.8383 99.3538 60.941L99.4088 60.897C99.3648 60.743 99.3098 60.5633 99.2438 60.358C99.1852 60.1527 99.1338 59.9363 99.0898 59.709C99.0458 59.4817 99.0238 59.2727 99.0238 59.082V58.29H100.256V59.082C100.256 59.2727 100.234 59.4817 100.19 59.709C100.146 59.9363 100.095 60.1527 100.036 60.358C99.9772 60.5633 99.9185 60.743 99.8598 60.897L99.9148 60.93C100.032 60.8273 100.175 60.7173 100.344 60.6C100.52 60.4753 100.703 60.3543 100.894 60.237C101.085 60.1197 101.268 60.0317 101.444 59.973L102.181 59.709L102.61 60.875L101.862 61.139C101.693 61.1977 101.499 61.249 101.279 61.293C101.066 61.3297 100.857 61.3553 100.652 61.37C100.447 61.3847 100.263 61.392 100.102 61.392L100.08 61.458C100.197 61.546 100.337 61.6597 100.498 61.799C100.667 61.931 100.832 62.074 100.993 62.228C101.162 62.382 101.297 62.536 101.4 62.69L101.851 63.339L100.839 64.043L100.388 63.394C100.278 63.24 100.175 63.0603 100.08 62.855C99.9918 62.6423 99.9112 62.4333 99.8378 62.228C99.7718 62.0227 99.7168 61.8503 99.6728 61.711H99.6068C99.5628 61.8503 99.5042 62.0227 99.4308 62.228C99.3648 62.4333 99.2842 62.6423 99.1888 62.855C99.1008 63.0603 98.9982 63.24 98.8808 63.394L98.4298 64.043ZM105.026 64.043L104.014 63.339L104.465 62.69C104.575 62.5287 104.71 62.371 104.872 62.217C105.04 62.063 105.205 61.92 105.367 61.788C105.535 61.656 105.678 61.546 105.796 61.458L105.774 61.392C105.62 61.392 105.436 61.3847 105.224 61.37C105.018 61.3553 104.806 61.3297 104.586 61.293C104.373 61.249 104.179 61.1977 104.003 61.139L103.266 60.875L103.695 59.709L104.421 59.973C104.597 60.0317 104.78 60.1197 104.971 60.237C105.161 60.3543 105.341 60.4753 105.51 60.6C105.686 60.7247 105.832 60.8383 105.95 60.941L106.005 60.897C105.961 60.743 105.906 60.5633 105.84 60.358C105.781 60.1527 105.73 59.9363 105.686 59.709C105.642 59.4817 105.62 59.2727 105.62 59.082V58.29H106.852V59.082C106.852 59.2727 106.83 59.4817 106.786 59.709C106.742 59.9363 106.69 60.1527 106.632 60.358C106.573 60.5633 106.514 60.743 106.456 60.897L106.511 60.93C106.628 60.8273 106.771 60.7173 106.94 60.6C107.116 60.4753 107.299 60.3543 107.49 60.237C107.68 60.1197 107.864 60.0317 108.04 59.973L108.777 59.709L109.206 60.875L108.458 61.139C108.289 61.1977 108.095 61.249 107.875 61.293C107.662 61.3297 107.453 61.3553 107.248 61.37C107.042 61.3847 106.859 61.392 106.698 61.392L106.676 61.458C106.793 61.546 106.932 61.6597 107.094 61.799C107.262 61.931 107.427 62.074 107.589 62.228C107.757 62.382 107.893 62.536 107.996 62.69L108.447 63.339L107.435 64.043L106.984 63.394C106.874 63.24 106.771 63.0603 106.676 62.855C106.588 62.6423 106.507 62.4333 106.434 62.228C106.368 62.0227 106.313 61.8503 106.269 61.711H106.203C106.159 61.8503 106.1 62.0227 106.027 62.228C105.961 62.4333 105.88 62.6423 105.785 62.855C105.697 63.0603 105.594 63.24 105.477 63.394L105.026 64.043Z" fill="#6F42C1"/>
<path d="M4.55 31L6.64 22.97H7.971L10.05 31H9.049L8.521 28.866H6.09L5.562 31H4.55ZM6.288 28.03H8.312L7.696 25.555C7.57867 25.0857 7.487 24.6933 7.421 24.378C7.355 24.0627 7.31467 23.8573 7.3 23.762C7.28533 23.8573 7.245 24.0627 7.179 24.378C7.113 24.6933 7.02133 25.082 6.904 25.544L6.288 28.03ZM20.3044 31.088C19.8937 31.088 19.5344 31.0257 19.2264 30.901C18.9257 30.769 18.6837 30.5857 18.5004 30.351C18.3244 30.1163 18.2181 29.8377 18.1814 29.515H19.1714C19.2154 29.7277 19.3327 29.8963 19.5234 30.021C19.7214 30.1457 19.9817 30.208 20.3044 30.208H20.7664C21.1551 30.208 21.4447 30.131 21.6354 29.977C21.8261 29.8157 21.9214 29.603 21.9214 29.339C21.9214 29.0823 21.8334 28.8807 21.6574 28.734C21.4887 28.58 21.2357 28.4773 20.8984 28.426L20.0844 28.294C19.4904 28.1913 19.0467 28.008 18.7534 27.744C18.4674 27.4727 18.3244 27.0803 18.3244 26.567C18.3244 26.0243 18.4967 25.6063 18.8414 25.313C19.1861 25.0123 19.7031 24.862 20.3924 24.862H20.8104C21.3897 24.862 21.8554 24.9977 22.2074 25.269C22.5594 25.5403 22.7721 25.907 22.8454 26.369H21.8554C21.8114 26.1783 21.7014 26.028 21.5254 25.918C21.3494 25.8007 21.1111 25.742 20.8104 25.742H20.3924C20.0184 25.742 19.7434 25.8117 19.5674 25.951C19.3987 26.0903 19.3144 26.2993 19.3144 26.578C19.3144 26.8273 19.3877 27.0107 19.5344 27.128C19.6811 27.2453 19.9121 27.3297 20.2274 27.381L21.0414 27.513C21.6941 27.6157 22.1671 27.8063 22.4604 28.085C22.7611 28.3637 22.9114 28.767 22.9114 29.295C22.9114 29.8523 22.7317 30.2923 22.3724 30.615C22.0204 30.9303 21.4851 31.088 20.7664 31.088H20.3044ZM24.7991 31V22.97H25.7891V24.95V26.105H25.9981L25.7891 26.336C25.7891 25.8593 25.9321 25.4927 26.2181 25.236C26.5041 24.972 26.9001 24.84 27.4061 24.84C28.0148 24.84 28.4988 25.027 28.8581 25.401C29.2174 25.775 29.3971 26.2847 29.3971 26.93V31H28.4071V27.04C28.4071 26.6073 28.2898 26.2737 28.0551 26.039C27.8278 25.797 27.5161 25.676 27.1201 25.676C26.7094 25.676 26.3831 25.8043 26.1411 26.061C25.9064 26.3177 25.7891 26.6807 25.7891 27.15V31H24.7991ZM33.6828 31.088C33.1988 31.088 32.7808 30.9963 32.4288 30.813C32.0768 30.6297 31.8018 30.3657 31.6038 30.021C31.4131 29.669 31.3178 29.2547 31.3178 28.778V27.172C31.3178 26.688 31.4131 26.2737 31.6038 25.929C31.8018 25.5843 32.0768 25.3203 32.4288 25.137C32.7808 24.9537 33.1988 24.862 33.6828 24.862C34.1668 24.862 34.5848 24.9537 34.9368 25.137C35.2888 25.3203 35.5601 25.5843 35.7508 25.929C35.9488 26.2737 36.0478 26.6843 36.0478 27.161V28.778C36.0478 29.2547 35.9488 29.669 35.7508 30.021C35.5601 30.3657 35.2888 30.6297 34.9368 30.813C34.5848 30.9963 34.1668 31.088 33.6828 31.088ZM33.6828 30.208C34.1155 30.208 34.4528 30.087 34.6948 29.845C34.9368 29.603 35.0578 29.2473 35.0578 28.778V27.172C35.0578 26.7027 34.9368 26.347 34.6948 26.105C34.4528 25.863 34.1155 25.742 33.6828 25.742C33.2575 25.742 32.9201 25.863 32.6708 26.105C32.4288 26.347 32.3078 26.7027 32.3078 27.172V28.778C32.3078 29.2473 32.4288 29.603 32.6708 29.845C32.9201 30.087 33.2575 30.208 33.6828 30.208ZM38.1995 31V24.95H39.1675V26.105H39.3985L39.0795 26.82C39.0795 26.1673 39.2188 25.676 39.4975 25.346C39.7835 25.0087 40.2052 24.84 40.7625 24.84C41.4005 24.84 41.9065 25.0417 42.2805 25.445C42.6618 25.841 42.8525 26.38 42.8525 27.062V27.425H41.8625V27.15C41.8625 26.6733 41.7452 26.3103 41.5105 26.061C41.2832 25.8043 40.9568 25.676 40.5315 25.676C40.1135 25.676 39.7835 25.8043 39.5415 26.061C39.3068 26.3177 39.1895 26.6807 39.1895 27.15V31H38.1995ZM47.5342 31C47.0136 31 46.6066 30.8607 46.3132 30.582C46.0272 30.3033 45.8842 29.911 45.8842 29.405V25.852H44.1792V24.95H45.8842V23.245H46.8742V24.95H49.2942V25.852H46.8742V29.405C46.8742 29.867 47.0942 30.098 47.5342 30.098H49.1842V31H47.5342ZM57.7776 32.98V24.95H58.7676V26.105H58.9656L58.7676 26.336C58.7676 25.874 58.918 25.511 59.2186 25.247C59.5266 24.9757 59.93 24.84 60.4286 24.84C61.0373 24.84 61.5213 25.0417 61.8806 25.445C62.2473 25.841 62.4306 26.3873 62.4306 27.084V28.855C62.4306 29.317 62.3463 29.7167 62.1776 30.054C62.0163 30.3913 61.7853 30.6517 61.4846 30.835C61.1913 31.0183 60.8393 31.11 60.4286 31.11C59.9373 31.11 59.5376 30.9743 59.2296 30.703C58.9216 30.4317 58.7676 30.0687 58.7676 29.614L58.9656 29.845H58.7456L58.7676 31.22V32.98H57.7776ZM60.0986 30.252C60.5166 30.252 60.843 30.1273 61.0776 29.878C61.3196 29.6287 61.4406 29.2693 61.4406 28.8V27.15C61.4406 26.6807 61.3196 26.3213 61.0776 26.072C60.843 25.8227 60.5166 25.698 60.0986 25.698C59.6953 25.698 59.3726 25.8263 59.1306 26.083C58.8886 26.3397 58.7676 26.6953 58.7676 27.15V28.8C58.7676 29.2547 58.8886 29.6103 59.1306 29.867C59.3726 30.1237 59.6953 30.252 60.0986 30.252ZM66.1333 31.11C65.4953 31.11 64.993 30.9487 64.6263 30.626C64.2597 30.296 64.0763 29.8523 64.0763 29.295C64.0763 28.7303 64.2597 28.2867 64.6263 27.964C64.993 27.6413 65.488 27.48 66.1113 27.48H67.9813V26.875C67.9813 26.501 67.8677 26.215 67.6403 26.017C67.4203 25.8117 67.105 25.709 66.6943 25.709C66.335 25.709 66.0343 25.786 65.7923 25.94C65.5503 26.0867 65.411 26.2883 65.3743 26.545H64.3843C64.4503 26.0243 64.696 25.61 65.1213 25.302C65.5467 24.994 66.0783 24.84 66.7163 24.84C67.413 24.84 67.963 25.0197 68.3663 25.379C68.7697 25.7383 68.9713 26.226 68.9713 26.842V31H68.0033V29.845H67.8383L68.0033 29.68C68.0033 30.12 67.831 30.4683 67.4863 30.725C67.149 30.9817 66.698 31.11 66.1333 31.11ZM66.3753 30.329C66.8447 30.329 67.2297 30.2117 67.5303 29.977C67.831 29.7423 67.9813 29.4417 67.9813 29.075V28.217H66.1333C65.8033 28.217 65.543 28.3087 65.3523 28.492C65.1617 28.6753 65.0663 28.9247 65.0663 29.24C65.0663 29.5773 65.18 29.845 65.4073 30.043C65.642 30.2337 65.9647 30.329 66.3753 30.329ZM71.178 31V24.95H72.146V26.105H72.377L72.058 26.82C72.058 26.1673 72.1974 25.676 72.476 25.346C72.762 25.0087 73.1837 24.84 73.741 24.84C74.379 24.84 74.885 25.0417 75.259 25.445C75.6404 25.841 75.831 26.38 75.831 27.062V27.425H74.841V27.15C74.841 26.6733 74.7237 26.3103 74.489 26.061C74.2617 25.8043 73.9354 25.676 73.51 25.676C73.092 25.676 72.762 25.8043 72.52 26.061C72.2854 26.3177 72.168 26.6807 72.168 27.15V31H71.178ZM79.3247 31.11C78.6867 31.11 78.1844 30.9487 77.8177 30.626C77.4511 30.296 77.2677 29.8523 77.2677 29.295C77.2677 28.7303 77.4511 28.2867 77.8177 27.964C78.1844 27.6413 78.6794 27.48 79.3027 27.48H81.1727V26.875C81.1727 26.501 81.0591 26.215 80.8317 26.017C80.6117 25.8117 80.2964 25.709 79.8857 25.709C79.5264 25.709 79.2257 25.786 78.9837 25.94C78.7417 26.0867 78.6024 26.2883 78.5657 26.545H77.5757C77.6417 26.0243 77.8874 25.61 78.3127 25.302C78.7381 24.994 79.2697 24.84 79.9077 24.84C80.6044 24.84 81.1544 25.0197 81.5577 25.379C81.9611 25.7383 82.1627 26.226 82.1627 26.842V31H81.1947V29.845H81.0297L81.1947 29.68C81.1947 30.12 81.0224 30.4683 80.6777 30.725C80.3404 30.9817 79.8894 31.11 79.3247 31.11ZM79.5667 30.329C80.0361 30.329 80.4211 30.2117 80.7217 29.977C81.0224 29.7423 81.1727 29.4417 81.1727 29.075V28.217H79.3247C78.9947 28.217 78.7344 28.3087 78.5437 28.492C78.3531 28.6753 78.2577 28.9247 78.2577 29.24C78.2577 29.5773 78.3714 29.845 78.5987 30.043C78.8334 30.2337 79.1561 30.329 79.5667 30.329ZM84.9194 32.98V32.078H86.8444C87.1524 32.078 87.3761 32.0083 87.5154 31.869C87.6621 31.7297 87.7354 31.5133 87.7354 31.22V30.45L87.7574 29.35H87.5594L87.7464 29.185C87.7464 29.625 87.5998 29.9733 87.3064 30.23C87.0131 30.4867 86.6208 30.615 86.1294 30.615C85.5061 30.615 85.0148 30.4133 84.6554 30.01C84.2961 29.5993 84.1164 29.0493 84.1164 28.36V27.084C84.1164 26.3947 84.2961 25.8483 84.6554 25.445C85.0148 25.0417 85.5061 24.84 86.1294 24.84C86.6208 24.84 87.0131 24.9683 87.3064 25.225C87.5998 25.4817 87.7464 25.83 87.7464 26.27L87.5594 26.105H87.7464V24.95H88.7254V31.22C88.7254 31.7627 88.5568 32.1917 88.2194 32.507C87.8894 32.8223 87.4274 32.98 86.8334 32.98H84.9194ZM86.4264 29.757C86.8371 29.757 87.1598 29.6287 87.3944 29.372C87.6291 29.1153 87.7464 28.7597 87.7464 28.305V27.15C87.7464 26.6953 87.6291 26.3397 87.3944 26.083C87.1598 25.8263 86.8371 25.698 86.4264 25.698C86.0084 25.698 85.6821 25.8227 85.4474 26.072C85.2201 26.3213 85.1064 26.6807 85.1064 27.15V28.305C85.1064 28.7743 85.2201 29.1337 85.4474 29.383C85.6821 29.6323 86.0084 29.757 86.4264 29.757ZM90.9651 31V24.95H91.9331V26.105H92.1641L91.8451 26.82C91.8451 26.1673 91.9845 25.676 92.2631 25.346C92.5491 25.0087 92.9708 24.84 93.5281 24.84C94.1661 24.84 94.6721 25.0417 95.0461 25.445C95.4275 25.841 95.6181 26.38 95.6181 27.062V27.425H94.6281V27.15C94.6281 26.6733 94.5108 26.3103 94.2761 26.061C94.0488 25.8043 93.7225 25.676 93.2971 25.676C92.8791 25.676 92.5491 25.8043 92.3071 26.061C92.0725 26.3177 91.9551 26.6807 91.9551 27.15V31H90.9651ZM99.1118 31.11C98.4738 31.11 97.9715 30.9487 97.6048 30.626C97.2382 30.296 97.0548 29.8523 97.0548 29.295C97.0548 28.7303 97.2382 28.2867 97.6048 27.964C97.9715 27.6413 98.4665 27.48 99.0898 27.48H100.96V26.875C100.96 26.501 100.846 26.215 100.619 26.017C100.399 25.8117 100.084 25.709 99.6728 25.709C99.3135 25.709 99.0128 25.786 98.7708 25.94C98.5288 26.0867 98.3895 26.2883 98.3528 26.545H97.3628C97.4288 26.0243 97.6745 25.61 98.0998 25.302C98.5252 24.994 99.0568 24.84 99.6948 24.84C100.392 24.84 100.942 25.0197 101.345 25.379C101.748 25.7383 101.95 26.226 101.95 26.842V31H100.982V29.845H100.817L100.982 29.68C100.982 30.12 100.81 30.4683 100.465 30.725C100.128 30.9817 99.6765 31.11 99.1118 31.11ZM99.3538 30.329C99.8232 30.329 100.208 30.2117 100.509 29.977C100.81 29.7423 100.96 29.4417 100.96 29.075V28.217H99.1118C98.7818 28.217 98.5215 28.3087 98.3308 28.492C98.1402 28.6753 98.0448 28.9247 98.0448 29.24C98.0448 29.5773 98.1585 29.845 98.3858 30.043C98.6205 30.2337 98.9432 30.329 99.3538 30.329ZM103.948 32.98V24.95H104.938V26.105H105.136L104.938 26.336C104.938 25.874 105.088 25.511 105.389 25.247C105.697 24.9757 106.1 24.84 106.599 24.84C107.207 24.84 107.691 25.0417 108.051 25.445C108.417 25.841 108.601 26.3873 108.601 27.084V28.855C108.601 29.317 108.516 29.7167 108.348 30.054C108.186 30.3913 107.955 30.6517 107.655 30.835C107.361 31.0183 107.009 31.11 106.599 31.11C106.107 31.11 105.708 30.9743 105.4 30.703C105.092 30.4317 104.938 30.0687 104.938 29.614L105.136 29.845H104.916L104.938 31.22V32.98H103.948ZM106.269 30.252C106.687 30.252 107.013 30.1273 107.248 29.878C107.49 29.6287 107.611 29.2693 107.611 28.8V27.15C107.611 26.6807 107.49 26.3213 107.248 26.072C107.013 25.8227 106.687 25.698 106.269 25.698C105.865 25.698 105.543 25.8263 105.301 26.083C105.059 26.3397 104.938 26.6953 104.938 27.15V28.8C104.938 29.2547 105.059 29.6103 105.301 29.867C105.543 30.1237 105.865 30.252 106.269 30.252ZM110.543 31V22.97H111.533V24.95V26.105H111.742L111.533 26.336C111.533 25.8593 111.676 25.4927 111.962 25.236C112.248 24.972 112.644 24.84 113.15 24.84C113.759 24.84 114.243 25.027 114.602 25.401C114.962 25.775 115.141 26.2847 115.141 26.93V31H114.151V27.04C114.151 26.6073 114.034 26.2737 113.799 26.039C113.572 25.797 113.26 25.676 112.864 25.676C112.454 25.676 112.127 25.8043 111.885 26.061C111.651 26.3177 111.533 26.6807 111.533 27.15V31H110.543ZM119.427 31.11C119.148 31.11 118.925 31.0293 118.756 30.868C118.595 30.7067 118.514 30.4903 118.514 30.219C118.514 29.933 118.595 29.7057 118.756 29.537C118.925 29.3683 119.148 29.284 119.427 29.284C119.706 29.284 119.926 29.3683 120.087 29.537C120.256 29.7057 120.34 29.933 120.34 30.219C120.34 30.4903 120.256 30.7067 120.087 30.868C119.926 31.0293 119.706 31.11 119.427 31.11ZM4.55 82L6.64 73.97H7.971L10.05 82H9.049L8.521 79.866H6.09L5.562 82H4.55ZM6.288 79.03H8.312L7.696 76.555C7.57867 76.0857 7.487 75.6933 7.421 75.378C7.355 75.0627 7.31467 74.8573 7.3 74.762C7.28533 74.8573 7.245 75.0627 7.179 75.378C7.113 75.6933 7.02133 76.082 6.904 76.544L6.288 79.03ZM11.6077 82V75.95H12.5977V77.105H12.8067L12.5977 77.336C12.5977 76.8593 12.7407 76.4927 13.0267 76.236C13.3127 75.972 13.7087 75.84 14.2147 75.84C14.8234 75.84 15.3074 76.027 15.6667 76.401C16.026 76.775 16.2057 77.2847 16.2057 77.93V82H15.2157V78.04C15.2157 77.6073 15.0984 77.2773 14.8637 77.05C14.6364 76.8153 14.3247 76.698 13.9287 76.698C13.518 76.698 13.1917 76.8227 12.9497 77.072C12.715 77.3213 12.5977 77.6807 12.5977 78.15V82H11.6077ZM20.4914 82.088C20.0074 82.088 19.5894 81.9963 19.2374 81.813C18.8854 81.6297 18.6104 81.3657 18.4124 81.021C18.2217 80.669 18.1264 80.2547 18.1264 79.778V78.172C18.1264 77.688 18.2217 77.2737 18.4124 76.929C18.6104 76.5843 18.8854 76.3203 19.2374 76.137C19.5894 75.9537 20.0074 75.862 20.4914 75.862C20.9754 75.862 21.3934 75.9537 21.7454 76.137C22.0974 76.3203 22.3687 76.5843 22.5594 76.929C22.7574 77.2737 22.8564 77.6843 22.8564 78.161V79.778C22.8564 80.2547 22.7574 80.669 22.5594 81.021C22.3687 81.3657 22.0974 81.6297 21.7454 81.813C21.3934 81.9963 20.9754 82.088 20.4914 82.088ZM20.4914 81.208C20.9241 81.208 21.2614 81.087 21.5034 80.845C21.7454 80.603 21.8664 80.2473 21.8664 79.778V78.172C21.8664 77.7027 21.7454 77.347 21.5034 77.105C21.2614 76.863 20.9241 76.742 20.4914 76.742C20.0661 76.742 19.7287 76.863 19.4794 77.105C19.2374 77.347 19.1164 77.7027 19.1164 78.172V79.778C19.1164 80.2473 19.2374 80.603 19.4794 80.845C19.7287 81.087 20.0661 81.208 20.4914 81.208ZM27.7471 82C27.2264 82 26.8194 81.8607 26.5261 81.582C26.2401 81.3033 26.0971 80.911 26.0971 80.405V76.852H24.3921V75.95H26.0971V74.245H27.0871V75.95H29.5071V76.852H27.0871V80.405C27.0871 80.867 27.3071 81.098 27.7471 81.098H29.3971V82H27.7471ZM31.3948 82V73.97H32.3848V75.95V77.105H32.5938L32.3848 77.336C32.3848 76.8593 32.5278 76.4927 32.8138 76.236C33.0998 75.972 33.4958 75.84 34.0018 75.84C34.6105 75.84 35.0945 76.027 35.4538 76.401C35.8131 76.775 35.9928 77.2847 35.9928 77.93V82H35.0028V78.04C35.0028 77.6073 34.8855 77.2737 34.6508 77.039C34.4235 76.797 34.1118 76.676 33.7158 76.676C33.3051 76.676 32.9788 76.8043 32.7368 77.061C32.5021 77.3177 32.3848 77.6807 32.3848 78.15V82H31.3948ZM40.2785 82.11C39.8018 82.11 39.3838 82.0147 39.0245 81.824C38.6725 81.6333 38.3975 81.3657 38.1995 81.021C38.0088 80.669 37.9135 80.262 37.9135 79.8V78.15C37.9135 77.6807 38.0088 77.2737 38.1995 76.929C38.3975 76.5843 38.6725 76.3167 39.0245 76.126C39.3838 75.9353 39.8018 75.84 40.2785 75.84C40.7552 75.84 41.1695 75.9353 41.5215 76.126C41.8808 76.3167 42.1558 76.5843 42.3465 76.929C42.5445 77.2737 42.6435 77.6807 42.6435 78.15V79.217H38.8815V79.8C38.8815 80.2767 39.0025 80.6433 39.2445 80.9C39.4865 81.1493 39.8312 81.274 40.2785 81.274C40.6598 81.274 40.9678 81.208 41.2025 81.076C41.4372 80.9367 41.5802 80.7313 41.6315 80.46H42.6215C42.5555 80.966 42.3062 81.3693 41.8735 81.67C41.4482 81.9633 40.9165 82.11 40.2785 82.11ZM41.6755 78.557V78.15C41.6755 77.6733 41.5545 77.3067 41.3125 77.05C41.0778 76.7933 40.7332 76.665 40.2785 76.665C39.8312 76.665 39.4865 76.7933 39.2445 77.05C39.0025 77.3067 38.8815 77.6733 38.8815 78.15V78.469H41.7525L41.6755 78.557ZM44.7952 82V75.95H45.7632V77.105H45.9942L45.6752 77.82C45.6752 77.1673 45.8146 76.676 46.0932 76.346C46.3792 76.0087 46.8009 75.84 47.3582 75.84C47.9962 75.84 48.5022 76.0417 48.8762 76.445C49.2576 76.841 49.4482 77.38 49.4482 78.062V78.425H48.4582V78.15C48.4582 77.6733 48.3409 77.3103 48.1062 77.061C47.8789 76.8043 47.5526 76.676 47.1272 76.676C46.7092 76.676 46.3792 76.8043 46.1372 77.061C45.9026 77.3177 45.7852 77.6807 45.7852 78.15V82H44.7952ZM57.7776 83.98V75.95H58.7676V77.105H58.9656L58.7676 77.336C58.7676 76.874 58.918 76.511 59.2186 76.247C59.5266 75.9757 59.93 75.84 60.4286 75.84C61.0373 75.84 61.5213 76.0417 61.8806 76.445C62.2473 76.841 62.4306 77.3873 62.4306 78.084V79.855C62.4306 80.317 62.3463 80.7167 62.1776 81.054C62.0163 81.3913 61.7853 81.6517 61.4846 81.835C61.1913 82.0183 60.8393 82.11 60.4286 82.11C59.9373 82.11 59.5376 81.9743 59.2296 81.703C58.9216 81.4317 58.7676 81.0687 58.7676 80.614L58.9656 80.845H58.7456L58.7676 82.22V83.98H57.7776ZM60.0986 81.252C60.5166 81.252 60.843 81.1273 61.0776 80.878C61.3196 80.6287 61.4406 80.2693 61.4406 79.8V78.15C61.4406 77.6807 61.3196 77.3213 61.0776 77.072C60.843 76.8227 60.5166 76.698 60.0986 76.698C59.6953 76.698 59.3726 76.8263 59.1306 77.083C58.8886 77.3397 58.7676 77.6953 58.7676 78.15V79.8C58.7676 80.2547 58.8886 80.6103 59.1306 80.867C59.3726 81.1237 59.6953 81.252 60.0986 81.252ZM66.1333 82.11C65.4953 82.11 64.993 81.9487 64.6263 81.626C64.2597 81.296 64.0763 80.8523 64.0763 80.295C64.0763 79.7303 64.2597 79.2867 64.6263 78.964C64.993 78.6413 65.488 78.48 66.1113 78.48H67.9813V77.875C67.9813 77.501 67.8677 77.215 67.6403 77.017C67.4203 76.8117 67.105 76.709 66.6943 76.709C66.335 76.709 66.0343 76.786 65.7923 76.94C65.5503 77.0867 65.411 77.2883 65.3743 77.545H64.3843C64.4503 77.0243 64.696 76.61 65.1213 76.302C65.5467 75.994 66.0783 75.84 66.7163 75.84C67.413 75.84 67.963 76.0197 68.3663 76.379C68.7697 76.7383 68.9713 77.226 68.9713 77.842V82H68.0033V80.845H67.8383L68.0033 80.68C68.0033 81.12 67.831 81.4683 67.4863 81.725C67.149 81.9817 66.698 82.11 66.1333 82.11ZM66.3753 81.329C66.8447 81.329 67.2297 81.2117 67.5303 80.977C67.831 80.7423 67.9813 80.4417 67.9813 80.075V79.217H66.1333C65.8033 79.217 65.543 79.3087 65.3523 79.492C65.1617 79.6753 65.0663 79.9247 65.0663 80.24C65.0663 80.5773 65.18 80.845 65.4073 81.043C65.642 81.2337 65.9647 81.329 66.3753 81.329ZM71.178 82V75.95H72.146V77.105H72.377L72.058 77.82C72.058 77.1673 72.1974 76.676 72.476 76.346C72.762 76.0087 73.1837 75.84 73.741 75.84C74.379 75.84 74.885 76.0417 75.259 76.445C75.6404 76.841 75.831 77.38 75.831 78.062V78.425H74.841V78.15C74.841 77.6733 74.7237 77.3103 74.489 77.061C74.2617 76.8043 73.9354 76.676 73.51 76.676C73.092 76.676 72.762 76.8043 72.52 77.061C72.2854 77.3177 72.168 77.6807 72.168 78.15V82H71.178ZM79.3247 82.11C78.6867 82.11 78.1844 81.9487 77.8177 81.626C77.4511 81.296 77.2677 80.8523 77.2677 80.295C77.2677 79.7303 77.4511 79.2867 77.8177 78.964C78.1844 78.6413 78.6794 78.48 79.3027 78.48H81.1727V77.875C81.1727 77.501 81.0591 77.215 80.8317 77.017C80.6117 76.8117 80.2964 76.709 79.8857 76.709C79.5264 76.709 79.2257 76.786 78.9837 76.94C78.7417 77.0867 78.6024 77.2883 78.5657 77.545H77.5757C77.6417 77.0243 77.8874 76.61 78.3127 76.302C78.7381 75.994 79.2697 75.84 79.9077 75.84C80.6044 75.84 81.1544 76.0197 81.5577 76.379C81.9611 76.7383 82.1627 77.226 82.1627 77.842V82H81.1947V80.845H81.0297L81.1947 80.68C81.1947 81.12 81.0224 81.4683 80.6777 81.725C80.3404 81.9817 79.8894 82.11 79.3247 82.11ZM79.5667 81.329C80.0361 81.329 80.4211 81.2117 80.7217 80.977C81.0224 80.7423 81.1727 80.4417 81.1727 80.075V79.217H79.3247C78.9947 79.217 78.7344 79.3087 78.5437 79.492C78.3531 79.6753 78.2577 79.9247 78.2577 80.24C78.2577 80.5773 78.3714 80.845 78.5987 81.043C78.8334 81.2337 79.1561 81.329 79.5667 81.329ZM84.9194 83.98V83.078H86.8444C87.1524 83.078 87.3761 83.0083 87.5154 82.869C87.6621 82.7297 87.7354 82.5133 87.7354 82.22V81.45L87.7574 80.35H87.5594L87.7464 80.185C87.7464 80.625 87.5998 80.9733 87.3064 81.23C87.0131 81.4867 86.6208 81.615 86.1294 81.615C85.5061 81.615 85.0148 81.4133 84.6554 81.01C84.2961 80.5993 84.1164 80.0493 84.1164 79.36V78.084C84.1164 77.3947 84.2961 76.8483 84.6554 76.445C85.0148 76.0417 85.5061 75.84 86.1294 75.84C86.6208 75.84 87.0131 75.9683 87.3064 76.225C87.5998 76.4817 87.7464 76.83 87.7464 77.27L87.5594 77.105H87.7464V75.95H88.7254V82.22C88.7254 82.7627 88.5568 83.1917 88.2194 83.507C87.8894 83.8223 87.4274 83.98 86.8334 83.98H84.9194ZM86.4264 80.757C86.8371 80.757 87.1598 80.6287 87.3944 80.372C87.6291 80.1153 87.7464 79.7597 87.7464 79.305V78.15C87.7464 77.6953 87.6291 77.3397 87.3944 77.083C87.1598 76.8263 86.8371 76.698 86.4264 76.698C86.0084 76.698 85.6821 76.8227 85.4474 77.072C85.2201 77.3213 85.1064 77.6807 85.1064 78.15V79.305C85.1064 79.7743 85.2201 80.1337 85.4474 80.383C85.6821 80.6323 86.0084 80.757 86.4264 80.757ZM90.9651 82V75.95H91.9331V77.105H92.1641L91.8451 77.82C91.8451 77.1673 91.9845 76.676 92.2631 76.346C92.5491 76.0087 92.9708 75.84 93.5281 75.84C94.1661 75.84 94.6721 76.0417 95.0461 76.445C95.4275 76.841 95.6181 77.38 95.6181 78.062V78.425H94.6281V78.15C94.6281 77.6733 94.5108 77.3103 94.2761 77.061C94.0488 76.8043 93.7225 76.676 93.2971 76.676C92.8791 76.676 92.5491 76.8043 92.3071 77.061C92.0725 77.3177 91.9551 77.6807 91.9551 78.15V82H90.9651ZM99.1118 82.11C98.4738 82.11 97.9715 81.9487 97.6048 81.626C97.2382 81.296 97.0548 80.8523 97.0548 80.295C97.0548 79.7303 97.2382 79.2867 97.6048 78.964C97.9715 78.6413 98.4665 78.48 99.0898 78.48H100.96V77.875C100.96 77.501 100.846 77.215 100.619 77.017C100.399 76.8117 100.084 76.709 99.6728 76.709C99.3135 76.709 99.0128 76.786 98.7708 76.94C98.5288 77.0867 98.3895 77.2883 98.3528 77.545H97.3628C97.4288 77.0243 97.6745 76.61 98.0998 76.302C98.5252 75.994 99.0568 75.84 99.6948 75.84C100.392 75.84 100.942 76.0197 101.345 76.379C101.748 76.7383 101.95 77.226 101.95 77.842V82H100.982V80.845H100.817L100.982 80.68C100.982 81.12 100.81 81.4683 100.465 81.725C100.128 81.9817 99.6765 82.11 99.1118 82.11ZM99.3538 81.329C99.8232 81.329 100.208 81.2117 100.509 80.977C100.81 80.7423 100.96 80.4417 100.96 80.075V79.217H99.1118C98.7818 79.217 98.5215 79.3087 98.3308 79.492C98.1402 79.6753 98.0448 79.9247 98.0448 80.24C98.0448 80.5773 98.1585 80.845 98.3858 81.043C98.6205 81.2337 98.9432 81.329 99.3538 81.329ZM103.948 83.98V75.95H104.938V77.105H105.136L104.938 77.336C104.938 76.874 105.088 76.511 105.389 76.247C105.697 75.9757 106.1 75.84 106.599 75.84C107.207 75.84 107.691 76.0417 108.051 76.445C108.417 76.841 108.601 77.3873 108.601 78.084V79.855C108.601 80.317 108.516 80.7167 108.348 81.054C108.186 81.3913 107.955 81.6517 107.655 81.835C107.361 82.0183 107.009 82.11 106.599 82.11C106.107 82.11 105.708 81.9743 105.4 81.703C105.092 81.4317 104.938 81.0687 104.938 80.614L105.136 80.845H104.916L104.938 82.22V83.98H103.948ZM106.269 81.252C106.687 81.252 107.013 81.1273 107.248 80.878C107.49 80.6287 107.611 80.2693 107.611 79.8V78.15C107.611 77.6807 107.49 77.3213 107.248 77.072C107.013 76.8227 106.687 76.698 106.269 76.698C105.865 76.698 105.543 76.8263 105.301 77.083C105.059 77.3397 104.938 77.6953 104.938 78.15V79.8C104.938 80.2547 105.059 80.6103 105.301 80.867C105.543 81.1237 105.865 81.252 106.269 81.252ZM110.543 82V73.97H111.533V75.95V77.105H111.742L111.533 77.336C111.533 76.8593 111.676 76.4927 111.962 76.236C112.248 75.972 112.644 75.84 113.15 75.84C113.759 75.84 114.243 76.027 114.602 76.401C114.962 76.775 115.141 77.2847 115.141 77.93V82H114.151V78.04C114.151 77.6073 114.034 77.2737 113.799 77.039C113.572 76.797 113.26 76.676 112.864 76.676C112.454 76.676 112.127 76.8043 111.885 77.061C111.651 77.3177 111.533 77.6807 111.533 78.15V82H110.543ZM126.067 82.11C125.583 82.11 125.157 82.0183 124.791 81.835C124.431 81.6517 124.153 81.3877 123.955 81.043C123.757 80.691 123.658 80.2767 123.658 79.8V78.15C123.658 77.666 123.757 77.2517 123.955 76.907C124.153 76.5623 124.431 76.2983 124.791 76.115C125.157 75.9317 125.583 75.84 126.067 75.84C126.763 75.84 127.324 76.027 127.75 76.401C128.175 76.775 128.399 77.2847 128.421 77.93H127.431C127.409 77.5413 127.277 77.2443 127.035 77.039C126.8 76.8263 126.477 76.72 126.067 76.72C125.634 76.72 125.289 76.8447 125.033 77.094C124.776 77.336 124.648 77.6843 124.648 78.139V79.8C124.648 80.2547 124.776 80.6067 125.033 80.856C125.289 81.1053 125.634 81.23 126.067 81.23C126.477 81.23 126.8 81.1237 127.035 80.911C127.277 80.6983 127.409 80.4013 127.431 80.02H128.421C128.399 80.6653 128.175 81.175 127.75 81.549C127.324 81.923 126.763 82.11 126.067 82.11ZM132.618 82.088C132.134 82.088 131.716 81.9963 131.364 81.813C131.012 81.6297 130.737 81.3657 130.539 81.021C130.349 80.669 130.253 80.2547 130.253 79.778V78.172C130.253 77.688 130.349 77.2737 130.539 76.929C130.737 76.5843 131.012 76.3203 131.364 76.137C131.716 75.9537 132.134 75.862 132.618 75.862C133.102 75.862 133.52 75.9537 133.872 76.137C134.224 76.3203 134.496 76.5843 134.686 76.929C134.884 77.2737 134.983 77.6843 134.983 78.161V79.778C134.983 80.2547 134.884 80.669 134.686 81.021C134.496 81.3657 134.224 81.6297 133.872 81.813C133.52 81.9963 133.102 82.088 132.618 82.088ZM132.618 81.208C133.051 81.208 133.388 81.087 133.63 80.845C133.872 80.603 133.993 80.2473 133.993 79.778V78.172C133.993 77.7027 133.872 77.347 133.63 77.105C133.388 76.863 133.051 76.742 132.618 76.742C132.193 76.742 131.856 76.863 131.606 77.105C131.364 77.347 131.243 77.7027 131.243 78.172V79.778C131.243 80.2473 131.364 80.603 131.606 80.845C131.856 81.087 132.193 81.208 132.618 81.208ZM136.926 82V75.95H137.916V77.105H138.125L137.916 77.336C137.916 76.8593 138.059 76.4927 138.345 76.236C138.631 75.972 139.027 75.84 139.533 75.84C140.142 75.84 140.626 76.027 140.985 76.401C141.344 76.775 141.524 77.2847 141.524 77.93V82H140.534V78.04C140.534 77.6073 140.417 77.2773 140.182 77.05C139.955 76.8153 139.643 76.698 139.247 76.698C138.836 76.698 138.51 76.8227 138.268 77.072C138.033 77.3213 137.916 77.6807 137.916 78.15V82H136.926ZM146.47 82C145.949 82 145.542 81.8607 145.249 81.582C144.963 81.3033 144.82 80.911 144.82 80.405V76.852H143.115V75.95H144.82V74.245H145.81V75.95H148.23V76.852H145.81V80.405C145.81 80.867 146.03 81.098 146.47 81.098H148.12V82H146.47ZM151.877 82.11C151.239 82.11 150.737 81.9487 150.37 81.626C150.004 81.296 149.82 80.8523 149.82 80.295C149.82 79.7303 150.004 79.2867 150.37 78.964C150.737 78.6413 151.232 78.48 151.855 78.48H153.725V77.875C153.725 77.501 153.612 77.215 153.384 77.017C153.164 76.8117 152.849 76.709 152.438 76.709C152.079 76.709 151.778 76.786 151.536 76.94C151.294 77.0867 151.155 77.2883 151.118 77.545H150.128C150.194 77.0243 150.44 76.61 150.865 76.302C151.291 75.994 151.822 75.84 152.46 75.84C153.157 75.84 153.707 76.0197 154.11 76.379C154.514 76.7383 154.715 77.226 154.715 77.842V82H153.747V80.845H153.582L153.747 80.68C153.747 81.12 153.575 81.4683 153.23 81.725C152.893 81.9817 152.442 82.11 151.877 82.11ZM152.119 81.329C152.589 81.329 152.974 81.2117 153.274 80.977C153.575 80.7423 153.725 80.4417 153.725 80.075V79.217H151.877C151.547 79.217 151.287 79.3087 151.096 79.492C150.906 79.6753 150.81 79.9247 150.81 80.24C150.81 80.5773 150.924 80.845 151.151 81.043C151.386 81.2337 151.709 81.329 152.119 81.329ZM156.636 82V81.098H158.781V76.852H156.911V75.95H159.771V81.098H161.806V82H156.636ZM159.166 74.861C158.924 74.861 158.734 74.7987 158.594 74.674C158.455 74.5493 158.385 74.3807 158.385 74.168C158.385 73.948 158.455 73.7757 158.594 73.651C158.734 73.519 158.924 73.453 159.166 73.453C159.408 73.453 159.599 73.519 159.738 73.651C159.878 73.7757 159.947 73.948 159.947 74.168C159.947 74.3807 159.878 74.5493 159.738 74.674C159.599 74.7987 159.408 74.861 159.166 74.861ZM163.309 82V75.95H164.299V77.105H164.508L164.299 77.336C164.299 76.8593 164.442 76.4927 164.728 76.236C165.014 75.972 165.41 75.84 165.916 75.84C166.525 75.84 167.009 76.027 167.368 76.401C167.727 76.775 167.907 77.2847 167.907 77.93V82H166.917V78.04C166.917 77.6073 166.8 77.2773 166.565 77.05C166.338 76.8153 166.026 76.698 165.63 76.698C165.219 76.698 164.893 76.8227 164.651 77.072C164.416 77.3213 164.299 77.6807 164.299 78.15V82H163.309ZM169.828 82V81.098H171.973V76.852H170.103V75.95H172.963V81.098H174.998V82H169.828ZM172.358 74.861C172.116 74.861 171.925 74.7987 171.786 74.674C171.646 74.5493 171.577 74.3807 171.577 74.168C171.577 73.948 171.646 73.7757 171.786 73.651C171.925 73.519 172.116 73.453 172.358 73.453C172.6 73.453 172.79 73.519 172.93 73.651C173.069 73.7757 173.139 73.948 173.139 74.168C173.139 74.3807 173.069 74.5493 172.93 74.674C172.79 74.7987 172.6 74.861 172.358 74.861ZM176.5 82V75.95H177.49V77.105H177.699L177.49 77.336C177.49 76.8593 177.633 76.4927 177.919 76.236C178.205 75.972 178.601 75.84 179.107 75.84C179.716 75.84 180.2 76.027 180.559 76.401C180.919 76.775 181.098 77.2847 181.098 77.93V82H180.108V78.04C180.108 77.6073 179.991 77.2773 179.756 77.05C179.529 76.8153 179.217 76.698 178.821 76.698C178.411 76.698 178.084 76.8227 177.842 77.072C177.608 77.3213 177.49 77.6807 177.49 78.15V82H176.5ZM183.855 83.98V83.078H185.78C186.088 83.078 186.312 83.0083 186.451 82.869C186.598 82.7297 186.671 82.5133 186.671 82.22V81.45L186.693 80.35H186.495L186.682 80.185C186.682 80.625 186.535 80.9733 186.242 81.23C185.949 81.4867 185.556 81.615 185.065 81.615C184.442 81.615 183.95 81.4133 183.591 81.01C183.232 80.5993 183.052 80.0493 183.052 79.36V78.084C183.052 77.3947 183.232 76.8483 183.591 76.445C183.95 76.0417 184.442 75.84 185.065 75.84C185.556 75.84 185.949 75.9683 186.242 76.225C186.535 76.4817 186.682 76.83 186.682 77.27L186.495 77.105H186.682V75.95H187.661V82.22C187.661 82.7627 187.492 83.1917 187.155 83.507C186.825 83.8223 186.363 83.98 185.769 83.98H183.855ZM185.362 80.757C185.773 80.757 186.095 80.6287 186.33 80.372C186.565 80.1153 186.682 79.7597 186.682 79.305V78.15C186.682 77.6953 186.565 77.3397 186.33 77.083C186.095 76.8263 185.773 76.698 185.362 76.698C184.944 76.698 184.618 76.8227 184.383 77.072C184.156 77.3213 184.042 77.6807 184.042 78.15V79.305C184.042 79.7743 184.156 80.1337 184.383 80.383C184.618 80.6323 184.944 80.757 185.362 80.757ZM10.5957 100.21L14.5007 89.87H15.5457L11.6407 100.21H10.5957ZM5.6457 100.21L9.5507 89.87H10.5957L6.6907 100.21H5.6457ZM17.5874 99L17.7304 98.098H19.8754L20.5464 93.852H18.6764L18.8194 92.95H21.6794L20.8654 98.098H22.9004L22.7574 99H17.5874ZM21.3054 91.861C21.0634 91.861 20.8837 91.7987 20.7664 91.674C20.6491 91.5493 20.6051 91.3807 20.6344 91.168C20.6711 90.948 20.7664 90.7757 20.9204 90.651C21.0817 90.519 21.2834 90.453 21.5254 90.453C21.7674 90.453 21.9471 90.519 22.0644 90.651C22.1891 90.7757 22.2331 90.948 22.1964 91.168C22.1671 91.3807 22.0717 91.5493 21.9104 91.674C21.7491 91.7987 21.5474 91.861 21.3054 91.861ZM27.2631 99C26.7424 99 26.3574 98.8607 26.1081 98.582C25.8661 98.3033 25.7854 97.911 25.8661 97.405L26.4271 93.852H24.7221L24.8651 92.95H26.5701L26.8341 91.3H27.8241L27.5601 92.95H29.9801L29.8371 93.852H27.4171L26.8561 97.405C26.7828 97.867 26.9661 98.098 27.4061 98.098H29.0561L28.9131 99H27.2631ZM32.8358 99.11C32.2345 99.11 31.7871 98.9083 31.4938 98.505C31.2005 98.1017 31.1088 97.5553 31.2188 96.866L31.4938 95.095C31.5671 94.6257 31.7101 94.226 31.9228 93.896C32.1428 93.5587 32.4141 93.2983 32.7368 93.115C33.0668 92.9317 33.4335 92.84 33.8368 92.84C34.3355 92.84 34.7131 92.9757 34.9698 93.247C35.2265 93.5183 35.3181 93.8813 35.2448 94.336L35.0798 94.105H35.2998L35.4648 92.95H36.4548L35.4978 99H34.5078L34.6948 97.845H34.4968L34.7278 97.614C34.6545 98.076 34.4455 98.4427 34.1008 98.714C33.7561 98.978 33.3345 99.11 32.8358 99.11ZM33.3088 98.252C33.7195 98.252 34.0605 98.1237 34.3318 97.867C34.6105 97.6103 34.7865 97.2547 34.8598 96.8L35.1128 95.15C35.1935 94.6953 35.1348 94.3397 34.9368 94.083C34.7388 93.8263 34.4345 93.698 34.0238 93.698C33.6058 93.698 33.2611 93.8227 32.9898 94.072C32.7258 94.3213 32.5535 94.6807 32.4728 95.15L32.2198 96.8C32.1465 97.2693 32.2051 97.6287 32.3958 97.878C32.5865 98.1273 32.8908 98.252 33.3088 98.252ZM40.5095 99C39.9742 99 39.5708 98.846 39.2995 98.538C39.0355 98.2227 38.9438 97.8083 39.0245 97.295L39.8825 91.872H38.0675L38.2105 90.97H41.0155L40.0145 97.295C39.9778 97.5443 40.0145 97.7423 40.1245 97.889C40.2418 98.0283 40.4178 98.098 40.6525 98.098H42.6875L42.5445 99H40.5095ZM43.9702 99L44.1132 98.098H46.2582L46.9292 93.852H45.0592L45.2022 92.95H48.0622L47.2482 98.098H49.2832L49.1402 99H43.9702ZM47.6882 91.861C47.4462 91.861 47.2666 91.7987 47.1492 91.674C47.0319 91.5493 46.9879 91.3807 47.0172 91.168C47.0539 90.948 47.1492 90.7757 47.3032 90.651C47.4646 90.519 47.6662 90.453 47.9082 90.453C48.1502 90.453 48.3299 90.519 48.4472 90.651C48.5719 90.7757 48.6159 90.948 48.5792 91.168C48.5499 91.3807 48.4546 91.5493 48.2932 91.674C48.1319 91.7987 47.9302 91.861 47.6882 91.861ZM53.0079 99.11C52.5239 99.11 52.1169 99.0183 51.7869 98.835C51.4643 98.6517 51.2333 98.3877 51.0939 98.043C50.9619 97.691 50.9326 97.2767 51.0059 96.8L51.2589 95.15C51.3396 94.666 51.5009 94.2517 51.7429 93.907C51.9923 93.5623 52.3113 93.2983 52.6999 93.115C53.0886 92.9317 53.5249 92.84 54.0089 92.84C54.7056 92.84 55.2373 93.027 55.6039 93.401C55.9706 93.775 56.1136 94.2847 56.0329 94.93H55.0429C55.0796 94.5413 54.9953 94.2443 54.7899 94.039C54.5846 93.8263 54.2766 93.72 53.8659 93.72C53.4333 93.72 53.0739 93.8447 52.7879 94.094C52.5093 94.336 52.3333 94.6843 52.2599 95.139L51.9959 96.8C51.9226 97.2547 51.9886 97.6067 52.1939 97.856C52.3993 98.1053 52.7183 98.23 53.1509 98.23C53.5616 98.23 53.9026 98.1237 54.1739 97.911C54.4453 97.6983 54.6249 97.4013 54.7129 97.02H55.7029C55.5783 97.6653 55.2703 98.175 54.7789 98.549C54.2949 98.923 53.7046 99.11 53.0079 99.11ZM66.8373 99C66.3167 99 65.9317 98.8607 65.6823 98.582C65.4403 98.3033 65.3597 97.911 65.4403 97.405L66.0013 93.852H64.2963L64.4393 92.95H66.1443L66.4083 91.3H67.3983L67.1343 92.95H69.5543L69.4113 93.852H66.9913L66.4303 97.405C66.357 97.867 66.5403 98.098 66.9803 98.098H68.6303L68.4873 99H66.8373ZM72.751 99.11C72.2744 99.11 71.8784 99.0147 71.563 98.824C71.2477 98.6333 71.0204 98.3657 70.881 98.021C70.749 97.669 70.7197 97.262 70.793 96.8L71.046 95.15C71.1267 94.6807 71.288 94.2737 71.53 93.929C71.7794 93.5843 72.091 93.3167 72.465 93.126C72.8464 92.9353 73.2754 92.84 73.752 92.84C74.2287 92.84 74.6247 92.9353 74.94 93.126C75.2627 93.3167 75.49 93.5843 75.622 93.929C75.7614 94.2737 75.7907 94.6807 75.71 95.15L75.545 96.217H71.849L71.761 96.8C71.6877 97.2767 71.7427 97.6433 71.926 97.9C72.1167 98.1493 72.4357 98.274 72.883 98.274C73.2644 98.274 73.576 98.208 73.818 98.076C74.0674 97.9367 74.2397 97.7313 74.335 97.46H75.325C75.2297 97.7973 75.061 98.0907 74.819 98.34C74.577 98.582 74.2764 98.7727 73.917 98.912C73.565 99.044 73.1764 99.11 72.751 99.11ZM74.687 95.557L74.742 95.15C74.8227 94.6733 74.7677 94.3067 74.577 94.05C74.3937 93.7933 74.0747 93.665 73.62 93.665C73.1727 93.665 72.8134 93.7933 72.542 94.05C72.2707 94.3067 72.0947 94.6733 72.014 95.15L71.97 95.469H74.775L74.687 95.557ZM76.6737 99L79.2587 95.854L77.7627 92.95H78.9067L79.7647 94.82C79.8014 94.9007 79.8381 94.9887 79.8747 95.084C79.9187 95.1793 79.9481 95.2563 79.9627 95.315C79.9994 95.2563 80.0471 95.1793 80.1057 95.084C80.1644 94.9887 80.2231 94.9007 80.2817 94.82L81.7227 92.95H82.8997L80.4797 95.931L82.0637 99H80.9197L79.9847 97.02C79.9481 96.9393 79.9077 96.8477 79.8637 96.745C79.8271 96.635 79.7977 96.547 79.7757 96.481C79.7317 96.547 79.6767 96.635 79.6107 96.745C79.5447 96.8477 79.4787 96.9393 79.4127 97.02L77.8507 99H76.6737ZM86.6244 99C86.1038 99 85.7188 98.8607 85.4694 98.582C85.2274 98.3033 85.1468 97.911 85.2274 97.405L85.7884 93.852H84.0834L84.2264 92.95H85.9314L86.1954 91.3H87.1854L86.9214 92.95H89.3414L89.1984 93.852H86.7784L86.2174 97.405C86.1441 97.867 86.3274 98.098 86.7674 98.098H88.4174L88.2744 99H86.6244ZM96.3398 100.21L100.245 89.87H101.29L97.3848 100.21H96.3398ZM91.3898 100.21L95.2948 89.87H96.3398L92.4348 100.21H91.3898ZM125.495 99.11C124.857 99.11 124.354 98.9487 123.988 98.626C123.621 98.296 123.438 97.8523 123.438 97.295C123.438 96.7303 123.621 96.2867 123.988 95.964C124.354 95.6413 124.849 95.48 125.473 95.48H127.343V94.875C127.343 94.501 127.229 94.215 127.002 94.017C126.782 93.8117 126.466 93.709 126.056 93.709C125.696 93.709 125.396 93.786 125.154 93.94C124.912 94.0867 124.772 94.2883 124.736 94.545H123.746C123.812 94.0243 124.057 93.61 124.483 93.302C124.908 92.994 125.44 92.84 126.078 92.84C126.774 92.84 127.324 93.0197 127.728 93.379C128.131 93.7383 128.333 94.226 128.333 94.842V99H127.365V97.845H127.2L127.365 97.68C127.365 98.12 127.192 98.4683 126.848 98.725C126.51 98.9817 126.059 99.11 125.495 99.11ZM125.737 98.329C126.206 98.329 126.591 98.2117 126.892 97.977C127.192 97.7423 127.343 97.4417 127.343 97.075V96.217H125.495C125.165 96.217 124.904 96.3087 124.714 96.492C124.523 96.6753 124.428 96.9247 124.428 97.24C124.428 97.5773 124.541 97.845 124.769 98.043C125.003 98.2337 125.326 98.329 125.737 98.329ZM130.33 99V92.95H131.32V94.105H131.529L131.32 94.336C131.32 93.8593 131.463 93.4927 131.749 93.236C132.035 92.972 132.431 92.84 132.937 92.84C133.546 92.84 134.03 93.027 134.389 93.401C134.749 93.775 134.928 94.2847 134.928 94.93V99H133.938V95.04C133.938 94.6073 133.821 94.2773 133.586 94.05C133.359 93.8153 133.047 93.698 132.651 93.698C132.241 93.698 131.914 93.8227 131.672 94.072C131.438 94.3213 131.32 94.6807 131.32 95.15V99H130.33ZM138.862 99.11C138.261 99.11 137.773 98.9083 137.399 98.505C137.032 98.1017 136.849 97.5553 136.849 96.866V95.095C136.849 94.3983 137.032 93.8483 137.399 93.445C137.766 93.0417 138.253 92.84 138.862 92.84C139.361 92.84 139.76 92.9757 140.061 93.247C140.362 93.5183 140.512 93.8813 140.512 94.336L140.314 94.105H140.534L140.512 92.73V90.97H141.502V99H140.512V97.845H140.314L140.512 97.614C140.512 98.076 140.362 98.4427 140.061 98.714C139.76 98.978 139.361 99.11 138.862 99.11ZM139.192 98.252C139.603 98.252 139.925 98.1237 140.16 97.867C140.395 97.6103 140.512 97.2547 140.512 96.8V95.15C140.512 94.6953 140.395 94.3397 140.16 94.083C139.925 93.8263 139.603 93.698 139.192 93.698C138.774 93.698 138.444 93.8227 138.202 94.072C137.96 94.3213 137.839 94.6807 137.839 95.15V96.8C137.839 97.2693 137.96 97.6287 138.202 97.878C138.444 98.1273 138.774 98.252 139.192 98.252ZM151.877 99.11C151.239 99.11 150.737 98.9487 150.37 98.626C150.004 98.296 149.82 97.8523 149.82 97.295C149.82 96.7303 150.004 96.2867 150.37 95.964C150.737 95.6413 151.232 95.48 151.855 95.48H153.725V94.875C153.725 94.501 153.612 94.215 153.384 94.017C153.164 93.8117 152.849 93.709 152.438 93.709C152.079 93.709 151.778 93.786 151.536 93.94C151.294 94.0867 151.155 94.2883 151.118 94.545H150.128C150.194 94.0243 150.44 93.61 150.865 93.302C151.291 92.994 151.822 92.84 152.46 92.84C153.157 92.84 153.707 93.0197 154.11 93.379C154.514 93.7383 154.715 94.226 154.715 94.842V99H153.747V97.845H153.582L153.747 97.68C153.747 98.12 153.575 98.4683 153.23 98.725C152.893 98.9817 152.442 99.11 151.877 99.11ZM152.119 98.329C152.589 98.329 152.974 98.2117 153.274 97.977C153.575 97.7423 153.725 97.4417 153.725 97.075V96.217H151.877C151.547 96.217 151.287 96.3087 151.096 96.492C150.906 96.6753 150.81 96.9247 150.81 97.24C150.81 97.5773 150.924 97.845 151.151 98.043C151.386 98.2337 151.709 98.329 152.119 98.329ZM166.422 99C166.07 99 165.762 98.9303 165.498 98.791C165.234 98.6517 165.029 98.4537 164.882 98.197C164.735 97.9403 164.662 97.6397 164.662 97.295V91.872H162.627V90.97H165.652V97.295C165.652 97.5443 165.722 97.7423 165.861 97.889C166 98.0283 166.187 98.098 166.422 98.098H168.347V99H166.422ZM169.828 99V98.098H171.973V93.852H170.103V92.95H172.963V98.098H174.998V99H169.828ZM172.358 91.861C172.116 91.861 171.925 91.7987 171.786 91.674C171.646 91.5493 171.577 91.3807 171.577 91.168C171.577 90.948 171.646 90.7757 171.786 90.651C171.925 90.519 172.116 90.453 172.358 90.453C172.6 90.453 172.79 90.519 172.93 90.651C173.069 90.7757 173.139 90.948 173.139 91.168C173.139 91.3807 173.069 91.5493 172.93 91.674C172.79 91.7987 172.6 91.861 172.358 91.861ZM176.5 99V92.95H177.49V94.105H177.699L177.49 94.336C177.49 93.8593 177.633 93.4927 177.919 93.236C178.205 92.972 178.601 92.84 179.107 92.84C179.716 92.84 180.2 93.027 180.559 93.401C180.919 93.775 181.098 94.2847 181.098 94.93V99H180.108V95.04C180.108 94.6073 179.991 94.2773 179.756 94.05C179.529 93.8153 179.217 93.698 178.821 93.698C178.411 93.698 178.084 93.8227 177.842 94.072C177.608 94.3213 177.49 94.6807 177.49 95.15V99H176.5ZM183.129 99V90.97H184.119V95.447H185.285L187.045 92.95H188.178L186.143 95.832L188.211 99H187.056L185.296 96.305H184.119V99H183.129ZM199.235 99C198.715 99 198.308 98.8607 198.014 98.582C197.728 98.3033 197.585 97.911 197.585 97.405V93.852H195.88V92.95H197.585V91.245H198.575V92.95H200.995V93.852H198.575V97.405C198.575 97.867 198.795 98.098 199.235 98.098H200.885V99H199.235ZM205.171 99.088C204.687 99.088 204.269 98.9963 203.917 98.813C203.565 98.6297 203.29 98.3657 203.092 98.021C202.901 97.669 202.806 97.2547 202.806 96.778V95.172C202.806 94.688 202.901 94.2737 203.092 93.929C203.29 93.5843 203.565 93.3203 203.917 93.137C204.269 92.9537 204.687 92.862 205.171 92.862C205.655 92.862 206.073 92.9537 206.425 93.137C206.777 93.3203 207.048 93.5843 207.239 93.929C207.437 94.2737 207.536 94.6843 207.536 95.161V96.778C207.536 97.2547 207.437 97.669 207.239 98.021C207.048 98.3657 206.777 98.6297 206.425 98.813C206.073 98.9963 205.655 99.088 205.171 99.088ZM205.171 98.208C205.604 98.208 205.941 98.087 206.183 97.845C206.425 97.603 206.546 97.2473 206.546 96.778V95.172C206.546 94.7027 206.425 94.347 206.183 94.105C205.941 93.863 205.604 93.742 205.171 93.742C204.746 93.742 204.408 93.863 204.159 94.105C203.917 94.347 203.796 94.7027 203.796 95.172V96.778C203.796 97.2473 203.917 97.603 204.159 97.845C204.408 98.087 204.746 98.208 205.171 98.208ZM6.255 117.21V106.87H8.95V107.75H7.245V116.33H8.95V117.21H6.255ZM14.7207 116C14.3687 116 14.0607 115.93 13.7967 115.791C13.5327 115.652 13.3274 115.454 13.1807 115.197C13.034 114.94 12.9607 114.64 12.9607 114.295V108.872H10.9257V107.97H13.9507V114.295C13.9507 114.544 14.0204 114.742 14.1597 114.889C14.299 115.028 14.486 115.098 14.7207 115.098H16.6457V116H14.7207ZM18.1264 116V115.098H20.2714V110.852H18.4014V109.95H21.2614V115.098H23.2964V116H18.1264ZM20.6564 108.861C20.4144 108.861 20.2237 108.799 20.0844 108.674C19.9451 108.549 19.8754 108.381 19.8754 108.168C19.8754 107.948 19.9451 107.776 20.0844 107.651C20.2237 107.519 20.4144 107.453 20.6564 107.453C20.8984 107.453 21.0891 107.519 21.2284 107.651C21.3677 107.776 21.4374 107.948 21.4374 108.168C21.4374 108.381 21.3677 108.549 21.2284 108.674C21.0891 108.799 20.8984 108.861 20.6564 108.861ZM24.7991 116V109.95H25.7891V111.105H25.9981L25.7891 111.336C25.7891 110.859 25.9321 110.493 26.2181 110.236C26.5041 109.972 26.9001 109.84 27.4061 109.84C28.0148 109.84 28.4988 110.027 28.8581 110.401C29.2174 110.775 29.3971 111.285 29.3971 111.93V116H28.4071V112.04C28.4071 111.607 28.2898 111.277 28.0551 111.05C27.8278 110.815 27.5161 110.698 27.1201 110.698C26.7094 110.698 26.3831 110.823 26.1411 111.072C25.9064 111.321 25.7891 111.681 25.7891 112.15V116H24.7991ZM31.4278 116V107.97H32.4178V112.447H33.5838L35.3438 109.95H36.4768L34.4418 112.832L36.5098 116H35.3548L33.5948 113.305H32.4178V116H31.4278ZM44.4102 116V107.97H45.7082L46.5442 110.566C46.6249 110.801 46.6982 111.035 46.7642 111.27C46.8302 111.497 46.8779 111.673 46.9072 111.798C46.9439 111.673 46.9916 111.497 47.0502 111.27C47.1089 111.035 47.1749 110.797 47.2482 110.555L48.0402 107.97H49.3382V116H48.3702V113.085C48.3702 112.762 48.3812 112.396 48.4032 111.985C48.4252 111.574 48.4546 111.156 48.4912 110.731C48.5279 110.298 48.5646 109.888 48.6012 109.499C48.6452 109.103 48.6819 108.758 48.7112 108.465L47.4132 112.48H46.3682L45.0592 108.465C45.0959 108.751 45.1326 109.085 45.1692 109.466C45.2059 109.84 45.2389 110.24 45.2682 110.665C45.2976 111.083 45.3232 111.501 45.3452 111.919C45.3672 112.337 45.3782 112.726 45.3782 113.085V116H44.4102ZM53.4699 116.088C52.9859 116.088 52.5679 115.996 52.2159 115.813C51.8639 115.63 51.5889 115.366 51.3909 115.021C51.2003 114.669 51.1049 114.255 51.1049 113.778V112.172C51.1049 111.688 51.2003 111.274 51.3909 110.929C51.5889 110.584 51.8639 110.32 52.2159 110.137C52.5679 109.954 52.9859 109.862 53.4699 109.862C53.9539 109.862 54.3719 109.954 54.7239 110.137C55.0759 110.32 55.3473 110.584 55.5379 110.929C55.7359 111.274 55.8349 111.684 55.8349 112.161V113.778C55.8349 114.255 55.7359 114.669 55.5379 115.021C55.3473 115.366 55.0759 115.63 54.7239 115.813C54.3719 115.996 53.9539 116.088 53.4699 116.088ZM53.4699 115.208C53.9026 115.208 54.2399 115.087 54.4819 114.845C54.7239 114.603 54.8449 114.247 54.8449 113.778V112.172C54.8449 111.703 54.7239 111.347 54.4819 111.105C54.2399 110.863 53.9026 110.742 53.4699 110.742C53.0446 110.742 52.7073 110.863 52.4579 111.105C52.2159 111.347 52.0949 111.703 52.0949 112.172V113.778C52.0949 114.247 52.2159 114.603 52.4579 114.845C52.7073 115.087 53.0446 115.208 53.4699 115.208ZM59.7136 116.11C59.1123 116.11 58.6246 115.908 58.2506 115.505C57.884 115.102 57.7006 114.555 57.7006 113.866V112.095C57.7006 111.398 57.884 110.848 58.2506 110.445C58.6173 110.042 59.105 109.84 59.7136 109.84C60.2123 109.84 60.612 109.976 60.9126 110.247C61.2133 110.518 61.3636 110.881 61.3636 111.336L61.1656 111.105H61.3856L61.3636 109.73V107.97H62.3536V116H61.3636V114.845H61.1656L61.3636 114.614C61.3636 115.076 61.2133 115.443 60.9126 115.714C60.612 115.978 60.2123 116.11 59.7136 116.11ZM60.0436 115.252C60.4543 115.252 60.777 115.124 61.0116 114.867C61.2463 114.61 61.3636 114.255 61.3636 113.8V112.15C61.3636 111.695 61.2463 111.34 61.0116 111.083C60.777 110.826 60.4543 110.698 60.0436 110.698C59.6256 110.698 59.2956 110.823 59.0536 111.072C58.8116 111.321 58.6906 111.681 58.6906 112.15V113.8C58.6906 114.269 58.8116 114.629 59.0536 114.878C59.2956 115.127 59.6256 115.252 60.0436 115.252ZM64.1973 116V107.97H65.4953L66.3313 110.566C66.412 110.801 66.4853 111.035 66.5513 111.27C66.6173 111.497 66.665 111.673 66.6943 111.798C66.731 111.673 66.7787 111.497 66.8373 111.27C66.896 111.035 66.962 110.797 67.0353 110.555L67.8273 107.97H69.1253V116H68.1573V113.085C68.1573 112.762 68.1683 112.396 68.1903 111.985C68.2123 111.574 68.2417 111.156 68.2783 110.731C68.315 110.298 68.3517 109.888 68.3883 109.499C68.4323 109.103 68.469 108.758 68.4983 108.465L67.2003 112.48H66.1553L64.8463 108.465C64.883 108.751 64.9197 109.085 64.9563 109.466C64.993 109.84 65.026 110.24 65.0553 110.665C65.0847 111.083 65.1103 111.501 65.1323 111.919C65.1543 112.337 65.1653 112.726 65.1653 113.085V116H64.1973ZM72.729 116.11C72.091 116.11 71.5887 115.949 71.222 115.626C70.8554 115.296 70.672 114.852 70.672 114.295C70.672 113.73 70.8554 113.287 71.222 112.964C71.5887 112.641 72.0837 112.48 72.707 112.48H74.577V111.875C74.577 111.501 74.4634 111.215 74.236 111.017C74.016 110.812 73.7007 110.709 73.29 110.709C72.9307 110.709 72.63 110.786 72.388 110.94C72.146 111.087 72.0067 111.288 71.97 111.545H70.98C71.046 111.024 71.2917 110.61 71.717 110.302C72.1424 109.994 72.674 109.84 73.312 109.84C74.0087 109.84 74.5587 110.02 74.962 110.379C75.3654 110.738 75.567 111.226 75.567 111.842V116H74.599V114.845H74.434L74.599 114.68C74.599 115.12 74.4267 115.468 74.082 115.725C73.7447 115.982 73.2937 116.11 72.729 116.11ZM72.971 115.329C73.4404 115.329 73.8254 115.212 74.126 114.977C74.4267 114.742 74.577 114.442 74.577 114.075V113.217H72.729C72.399 113.217 72.1387 113.309 71.948 113.492C71.7574 113.675 71.662 113.925 71.662 114.24C71.662 114.577 71.7757 114.845 72.003 115.043C72.2377 115.234 72.5604 115.329 72.971 115.329ZM77.7737 116V109.95H78.7417V111.105H78.9727L78.6537 111.82C78.6537 111.167 78.7931 110.676 79.0717 110.346C79.3577 110.009 79.7794 109.84 80.3367 109.84C80.9747 109.84 81.4807 110.042 81.8547 110.445C82.2361 110.841 82.4267 111.38 82.4267 112.062V112.425H81.4367V112.15C81.4367 111.673 81.3194 111.31 81.0847 111.061C80.8574 110.804 80.5311 110.676 80.1057 110.676C79.6877 110.676 79.3577 110.804 79.1157 111.061C78.8811 111.318 78.7637 111.681 78.7637 112.15V116H77.7737ZM84.1934 116V107.97H85.1834V112.447H86.3494L88.1094 109.95H89.2424L87.2074 112.832L89.2754 116H88.1204L86.3604 113.305H85.1834V116H84.1934ZM91.3941 117.21V116.33H93.0991V107.75H91.3941V106.87H94.0891V117.21H91.3941ZM103.948 116V107.97H104.938V109.95V111.105H105.147L104.938 111.336C104.938 110.859 105.081 110.493 105.367 110.236C105.653 109.972 106.049 109.84 106.555 109.84C107.163 109.84 107.647 110.027 108.007 110.401C108.366 110.775 108.546 111.285 108.546 111.93V116H107.556V112.04C107.556 111.607 107.438 111.274 107.204 111.039C106.976 110.797 106.665 110.676 106.269 110.676C105.858 110.676 105.532 110.804 105.29 111.061C105.055 111.318 104.938 111.681 104.938 112.15V116H103.948ZM113.491 116C112.971 116 112.564 115.861 112.27 115.582C111.984 115.303 111.841 114.911 111.841 114.405V110.852H110.136V109.95H111.841V108.245H112.831V109.95H115.251V110.852H112.831V114.405C112.831 114.867 113.051 115.098 113.491 115.098H115.141V116H113.491ZM120.087 116C119.566 116 119.159 115.861 118.866 115.582C118.58 115.303 118.437 114.911 118.437 114.405V110.852H116.732V109.95H118.437V108.245H119.427V109.95H121.847V110.852H119.427V114.405C119.427 114.867 119.647 115.098 120.087 115.098H121.737V116H120.087ZM123.735 117.98V109.95H124.725V111.105H124.923L124.725 111.336C124.725 110.874 124.875 110.511 125.176 110.247C125.484 109.976 125.887 109.84 126.386 109.84C126.994 109.84 127.478 110.042 127.838 110.445C128.204 110.841 128.388 111.387 128.388 112.084V113.855C128.388 114.317 128.303 114.717 128.135 115.054C127.973 115.391 127.742 115.652 127.442 115.835C127.148 116.018 126.796 116.11 126.386 116.11C125.894 116.11 125.495 115.974 125.187 115.703C124.879 115.432 124.725 115.069 124.725 114.614L124.923 114.845H124.703L124.725 116.22V117.98H123.735ZM126.056 115.252C126.474 115.252 126.8 115.127 127.035 114.878C127.277 114.629 127.398 114.269 127.398 113.8V112.15C127.398 111.681 127.277 111.321 127.035 111.072C126.8 110.823 126.474 110.698 126.056 110.698C125.652 110.698 125.33 110.826 125.088 111.083C124.846 111.34 124.725 111.695 124.725 112.15V113.8C124.725 114.255 124.846 114.61 125.088 114.867C125.33 115.124 125.652 115.252 126.056 115.252ZM132.431 116.088C132.021 116.088 131.661 116.026 131.353 115.901C131.053 115.769 130.811 115.586 130.627 115.351C130.451 115.116 130.345 114.838 130.308 114.515H131.298C131.342 114.728 131.46 114.896 131.65 115.021C131.848 115.146 132.109 115.208 132.431 115.208H132.893C133.282 115.208 133.572 115.131 133.762 114.977C133.953 114.816 134.048 114.603 134.048 114.339C134.048 114.082 133.96 113.881 133.784 113.734C133.616 113.58 133.363 113.477 133.025 113.426L132.211 113.294C131.617 113.191 131.174 113.008 130.88 112.744C130.594 112.473 130.451 112.08 130.451 111.567C130.451 111.024 130.624 110.606 130.968 110.313C131.313 110.012 131.83 109.862 132.519 109.862H132.937C133.517 109.862 133.982 109.998 134.334 110.269C134.686 110.54 134.899 110.907 134.972 111.369H133.982C133.938 111.178 133.828 111.028 133.652 110.918C133.476 110.801 133.238 110.742 132.937 110.742H132.519C132.145 110.742 131.87 110.812 131.694 110.951C131.526 111.09 131.441 111.299 131.441 111.578C131.441 111.827 131.515 112.011 131.661 112.128C131.808 112.245 132.039 112.33 132.354 112.381L133.168 112.513C133.821 112.616 134.294 112.806 134.587 113.085C134.888 113.364 135.038 113.767 135.038 114.295C135.038 114.852 134.859 115.292 134.499 115.615C134.147 115.93 133.612 116.088 132.893 116.088H132.431ZM139.214 111.49C138.943 111.49 138.723 111.417 138.554 111.27C138.385 111.116 138.301 110.914 138.301 110.665C138.301 110.416 138.385 110.218 138.554 110.071C138.723 109.917 138.943 109.84 139.214 109.84C139.493 109.84 139.713 109.917 139.874 110.071C140.043 110.218 140.127 110.416 140.127 110.665C140.127 110.914 140.043 111.116 139.874 111.27C139.713 111.417 139.493 111.49 139.214 111.49ZM139.214 116.11C138.943 116.11 138.723 116.037 138.554 115.89C138.385 115.736 138.301 115.534 138.301 115.285C138.301 115.036 138.385 114.838 138.554 114.691C138.723 114.537 138.943 114.46 139.214 114.46C139.493 114.46 139.713 114.537 139.874 114.691C140.043 114.838 140.127 115.036 140.127 115.285C140.127 115.534 140.043 115.736 139.874 115.89C139.713 116.037 139.493 116.11 139.214 116.11ZM149.105 117.21L153.01 106.87H154.055L150.15 117.21H149.105ZM144.155 117.21L148.06 106.87H149.105L145.2 117.21H144.155ZM157.054 116L156.086 109.95H156.966L157.571 114.24C157.593 114.401 157.615 114.577 157.637 114.768C157.667 114.951 157.689 115.105 157.703 115.23C157.718 115.105 157.74 114.951 157.769 114.768C157.806 114.577 157.835 114.401 157.857 114.24L158.528 109.95H159.474L160.145 114.24C160.167 114.401 160.193 114.577 160.222 114.768C160.259 114.951 160.285 115.105 160.299 115.23C160.314 115.105 160.336 114.951 160.365 114.768C160.402 114.577 160.431 114.401 160.453 114.24L161.08 109.95H161.916L160.904 116H159.815L159.166 111.82C159.137 111.615 159.104 111.409 159.067 111.204C159.031 110.999 159.005 110.837 158.99 110.72C158.976 110.837 158.954 110.999 158.924 111.204C158.895 111.409 158.862 111.615 158.825 111.82L158.143 116H157.054ZM163.65 116L162.682 109.95H163.562L164.167 114.24C164.189 114.401 164.211 114.577 164.233 114.768C164.262 114.951 164.284 115.105 164.299 115.23C164.314 115.105 164.336 114.951 164.365 114.768C164.402 114.577 164.431 114.401 164.453 114.24L165.124 109.95H166.07L166.741 114.24C166.763 114.401 166.789 114.577 166.818 114.768C166.855 114.951 166.88 115.105 166.895 115.23C166.91 115.105 166.932 114.951 166.961 114.768C166.998 114.577 167.027 114.401 167.049 114.24L167.676 109.95H168.512L167.5 116H166.411L165.762 111.82C165.733 111.615 165.7 111.409 165.663 111.204C165.626 110.999 165.601 110.837 165.586 110.72C165.571 110.837 165.549 110.999 165.52 111.204C165.491 111.409 165.458 111.615 165.421 111.82L164.739 116H163.65ZM170.246 116L169.278 109.95H170.158L170.763 114.24C170.785 114.401 170.807 114.577 170.829 114.768C170.858 114.951 170.88 115.105 170.895 115.23C170.909 115.105 170.931 114.951 170.961 114.768C170.997 114.577 171.027 114.401 171.049 114.24L171.72 109.95H172.666L173.337 114.24C173.359 114.401 173.384 114.577 173.414 114.768C173.45 114.951 173.476 115.105 173.491 115.23C173.505 115.105 173.527 114.951 173.557 114.768C173.593 114.577 173.623 114.401 173.645 114.24L174.272 109.95H175.108L174.096 116H173.007L172.358 111.82C172.328 111.615 172.295 111.409 172.259 111.204C172.222 110.999 172.196 110.837 172.182 110.72C172.167 110.837 172.145 110.999 172.116 111.204C172.086 111.409 172.053 111.615 172.017 111.82L171.335 116H170.246ZM178.788 116.11C178.51 116.11 178.286 116.029 178.117 115.868C177.956 115.707 177.875 115.49 177.875 115.219C177.875 114.933 177.956 114.706 178.117 114.537C178.286 114.368 178.51 114.284 178.788 114.284C179.067 114.284 179.287 114.368 179.448 114.537C179.617 114.706 179.701 114.933 179.701 115.219C179.701 115.49 179.617 115.707 179.448 115.868C179.287 116.029 179.067 116.11 178.788 116.11ZM182.81 116V109.95H183.679V110.676H183.877L183.723 110.94C183.723 110.603 183.811 110.335 183.987 110.137C184.17 109.939 184.416 109.84 184.724 109.84C185.061 109.84 185.322 109.965 185.505 110.214C185.688 110.463 185.78 110.815 185.78 111.27L185.483 110.676H185.945L185.736 110.94C185.736 110.603 185.828 110.335 186.011 110.137C186.202 109.939 186.451 109.84 186.759 109.84C187.14 109.84 187.434 109.983 187.639 110.269C187.852 110.555 187.958 110.933 187.958 111.402V116H187.045V111.391C187.045 111.142 186.99 110.947 186.88 110.808C186.777 110.669 186.623 110.599 186.418 110.599C186.22 110.599 186.062 110.669 185.945 110.808C185.835 110.94 185.78 111.131 185.78 111.38V116H184.988V111.391C184.988 111.134 184.929 110.94 184.812 110.808C184.702 110.669 184.544 110.599 184.339 110.599C184.134 110.599 183.98 110.669 183.877 110.808C183.774 110.94 183.723 111.131 183.723 111.38V116H182.81ZM191.98 116.088C191.496 116.088 191.078 115.996 190.726 115.813C190.374 115.63 190.099 115.366 189.901 115.021C189.71 114.669 189.615 114.255 189.615 113.778V112.172C189.615 111.688 189.71 111.274 189.901 110.929C190.099 110.584 190.374 110.32 190.726 110.137C191.078 109.954 191.496 109.862 191.98 109.862C192.464 109.862 192.882 109.954 193.234 110.137C193.586 110.32 193.857 110.584 194.048 110.929C194.246 111.274 194.345 111.684 194.345 112.161V113.778C194.345 114.255 194.246 114.669 194.048 115.021C193.857 115.366 193.586 115.63 193.234 115.813C192.882 115.996 192.464 116.088 191.98 116.088ZM191.98 115.208C192.412 115.208 192.75 115.087 192.992 114.845C193.234 114.603 193.355 114.247 193.355 113.778V112.172C193.355 111.703 193.234 111.347 192.992 111.105C192.75 110.863 192.412 110.742 191.98 110.742C191.554 110.742 191.217 110.863 190.968 111.105C190.726 111.347 190.605 111.703 190.605 112.172V113.778C190.605 114.247 190.726 114.603 190.968 114.845C191.217 115.087 191.554 115.208 191.98 115.208ZM198.223 116.11C197.622 116.11 197.134 115.908 196.76 115.505C196.394 115.102 196.21 114.555 196.21 113.866V112.095C196.21 111.398 196.394 110.848 196.76 110.445C197.127 110.042 197.615 109.84 198.223 109.84C198.722 109.84 199.122 109.976 199.422 110.247C199.723 110.518 199.873 110.881 199.873 111.336L199.675 111.105H199.895L199.873 109.73V107.97H200.863V116H199.873V114.845H199.675L199.873 114.614C199.873 115.076 199.723 115.443 199.422 115.714C199.122 115.978 198.722 116.11 198.223 116.11ZM198.553 115.252C198.964 115.252 199.287 115.124 199.521 114.867C199.756 114.61 199.873 114.255 199.873 113.8V112.15C199.873 111.695 199.756 111.34 199.521 111.083C199.287 110.826 198.964 110.698 198.553 110.698C198.135 110.698 197.805 110.823 197.563 111.072C197.321 111.321 197.2 111.681 197.2 112.15V113.8C197.2 114.269 197.321 114.629 197.563 114.878C197.805 115.127 198.135 115.252 198.553 115.252ZM202.597 116V109.95H203.466V110.676H203.664L203.51 110.94C203.51 110.603 203.598 110.335 203.774 110.137C203.957 109.939 204.203 109.84 204.511 109.84C204.848 109.84 205.109 109.965 205.292 110.214C205.475 110.463 205.567 110.815 205.567 111.27L205.27 110.676H205.732L205.523 110.94C205.523 110.603 205.615 110.335 205.798 110.137C205.989 109.939 206.238 109.84 206.546 109.84C206.927 109.84 207.221 109.983 207.426 110.269C207.639 110.555 207.745 110.933 207.745 111.402V116H206.832V111.391C206.832 111.142 206.777 110.947 206.667 110.808C206.564 110.669 206.41 110.599 206.205 110.599C206.007 110.599 205.849 110.669 205.732 110.808C205.622 110.94 205.567 111.131 205.567 111.38V116H204.775V111.391C204.775 111.134 204.716 110.94 204.599 110.808C204.489 110.669 204.331 110.599 204.126 110.599C203.921 110.599 203.767 110.669 203.664 110.808C203.561 110.94 203.51 111.131 203.51 111.38V116H202.597ZM211.239 116.11C210.601 116.11 210.098 115.949 209.732 115.626C209.365 115.296 209.182 114.852 209.182 114.295C209.182 113.73 209.365 113.287 209.732 112.964C210.098 112.641 210.593 112.48 211.217 112.48H213.087V111.875C213.087 111.501 212.973 111.215 212.746 111.017C212.526 110.812 212.21 110.709 211.8 110.709C211.44 110.709 211.14 110.786 210.898 110.94C210.656 111.087 210.516 111.288 210.48 111.545H209.49C209.556 111.024 209.801 110.61 210.227 110.302C210.652 109.994 211.184 109.84 211.822 109.84C212.518 109.84 213.068 110.02 213.472 110.379C213.875 110.738 214.077 111.226 214.077 111.842V116H213.109V114.845H212.944L213.109 114.68C213.109 115.12 212.936 115.468 212.592 115.725C212.254 115.982 211.803 116.11 211.239 116.11ZM211.481 115.329C211.95 115.329 212.335 115.212 212.636 114.977C212.936 114.742 213.087 114.442 213.087 114.075V113.217H211.239C210.909 113.217 210.648 113.309 210.458 113.492C210.267 113.675 210.172 113.925 210.172 114.24C210.172 114.577 210.285 114.845 210.513 115.043C210.747 115.234 211.07 115.329 211.481 115.329ZM216.284 116V109.95H217.252V111.105H217.483L217.164 111.82C217.164 111.167 217.303 110.676 217.582 110.346C217.868 110.009 218.289 109.84 218.847 109.84C219.485 109.84 219.991 110.042 220.365 110.445C220.746 110.841 220.937 111.38 220.937 112.062V112.425H219.947V112.15C219.947 111.673 219.829 111.31 219.595 111.061C219.367 110.804 219.041 110.676 218.616 110.676C218.198 110.676 217.868 110.804 217.626 111.061C217.391 111.318 217.274 111.681 217.274 112.15V116H216.284ZM222.703 116V107.97H223.693V112.447H224.859L226.619 109.95H227.752L225.717 112.832L227.785 116H226.63L224.87 113.305H223.693V116H222.703ZM231.554 116.11C231.275 116.11 231.052 116.029 230.883 115.868C230.722 115.707 230.641 115.49 230.641 115.219C230.641 114.933 230.722 114.706 230.883 114.537C231.052 114.368 231.275 114.284 231.554 114.284C231.833 114.284 232.053 114.368 232.214 114.537C232.383 114.706 232.467 114.933 232.467 115.219C232.467 115.49 232.383 115.707 232.214 115.868C232.053 116.029 231.833 116.11 231.554 116.11ZM238.15 116.088C237.666 116.088 237.248 115.996 236.896 115.813C236.544 115.63 236.269 115.366 236.071 115.021C235.88 114.669 235.785 114.255 235.785 113.778V112.172C235.785 111.688 235.88 111.274 236.071 110.929C236.269 110.584 236.544 110.32 236.896 110.137C237.248 109.954 237.666 109.862 238.15 109.862C238.634 109.862 239.052 109.954 239.404 110.137C239.756 110.32 240.027 110.584 240.218 110.929C240.416 111.274 240.515 111.684 240.515 112.161V113.778C240.515 114.255 240.416 114.669 240.218 115.021C240.027 115.366 239.756 115.63 239.404 115.813C239.052 115.996 238.634 116.088 238.15 116.088ZM238.15 115.208C238.582 115.208 238.92 115.087 239.162 114.845C239.404 114.603 239.525 114.247 239.525 113.778V112.172C239.525 111.703 239.404 111.347 239.162 111.105C238.92 110.863 238.582 110.742 238.15 110.742C237.724 110.742 237.387 110.863 237.138 111.105C236.896 111.347 236.775 111.703 236.775 112.172V113.778C236.775 114.247 236.896 114.603 237.138 114.845C237.387 115.087 237.724 115.208 238.15 115.208ZM242.666 116V109.95H243.634V111.105H243.865L243.546 111.82C243.546 111.167 243.686 110.676 243.964 110.346C244.25 110.009 244.672 109.84 245.229 109.84C245.867 109.84 246.373 110.042 246.747 110.445C247.129 110.841 247.319 111.38 247.319 112.062V112.425H246.329V112.15C246.329 111.673 246.212 111.31 245.977 111.061C245.75 110.804 245.424 110.676 244.998 110.676C244.58 110.676 244.25 110.804 244.008 111.061C243.774 111.318 243.656 111.681 243.656 112.15V116H242.666ZM249.812 117.98V117.078H251.737C252.045 117.078 252.269 117.008 252.408 116.869C252.555 116.73 252.628 116.513 252.628 116.22V115.45L252.65 114.35H252.452L252.639 114.185C252.639 114.625 252.492 114.973 252.199 115.23C251.906 115.487 251.513 115.615 251.022 115.615C250.399 115.615 249.907 115.413 249.548 115.01C249.189 114.599 249.009 114.049 249.009 113.36V112.084C249.009 111.395 249.189 110.848 249.548 110.445C249.907 110.042 250.399 109.84 251.022 109.84C251.513 109.84 251.906 109.968 252.199 110.225C252.492 110.482 252.639 110.83 252.639 111.27L252.452 111.105H252.639V109.95H253.618V116.22C253.618 116.763 253.449 117.192 253.112 117.507C252.782 117.822 252.32 117.98 251.726 117.98H249.812ZM251.319 114.757C251.73 114.757 252.052 114.629 252.287 114.372C252.522 114.115 252.639 113.76 252.639 113.305V112.15C252.639 111.695 252.522 111.34 252.287 111.083C252.052 110.826 251.73 110.698 251.319 110.698C250.901 110.698 250.575 110.823 250.34 111.072C250.113 111.321 249.999 111.681 249.999 112.15V113.305C249.999 113.774 250.113 114.134 250.34 114.383C250.575 114.632 250.901 114.757 251.319 114.757Z" fill="#24292E"/>
<path d="M88.3869 7.45455V14H87.5943V8.28551H87.5559L85.9579 9.34659V8.54119L87.5943 7.45455H88.3869Z" fill="black" fill-opacity="0.71"/>
<circle cx="88" cy="11" r="5.75" stroke="black" stroke-opacity="0.71" stroke-width="0.5"/>
<path d="M117.953 64V63.4247L120.113 61.0597C120.367 60.7827 120.576 60.5419 120.74 60.3374C120.904 60.1307 121.025 59.9368 121.104 59.7557C121.185 59.5724 121.226 59.3807 121.226 59.1804C121.226 58.9503 121.17 58.7511 121.059 58.5827C120.951 58.4144 120.802 58.2844 120.612 58.1928C120.422 58.1012 120.209 58.0554 119.973 58.0554C119.721 58.0554 119.502 58.1076 119.314 58.212C119.129 58.3143 118.985 58.4581 118.883 58.6435C118.783 58.8288 118.733 59.0462 118.733 59.2955H117.979C117.979 58.9119 118.067 58.5753 118.244 58.2855C118.421 57.9957 118.661 57.7699 118.966 57.608C119.273 57.446 119.617 57.3651 119.998 57.3651C120.382 57.3651 120.722 57.446 121.018 57.608C121.314 57.7699 121.546 57.9883 121.715 58.2631C121.883 58.538 121.967 58.8438 121.967 59.1804C121.967 59.4212 121.923 59.6566 121.836 59.8867C121.751 60.1147 121.602 60.3693 121.389 60.6506C121.178 60.9297 120.885 61.2706 120.51 61.6733L119.04 63.2457V63.2969H122.082V64H117.953Z" fill="black" fill-opacity="0.71"/>
<circle cx="120" cy="61" r="5.75" stroke="black" stroke-opacity="0.71" stroke-width="0.5"/>
<path d="M111.024 98.0895C110.602 98.0895 110.226 98.017 109.896 97.8722C109.568 97.7273 109.307 97.5259 109.113 97.2681C108.921 97.0082 108.817 96.7067 108.8 96.3636H109.605C109.622 96.5746 109.694 96.7567 109.822 96.9102C109.95 97.0614 110.117 97.1786 110.324 97.2617C110.531 97.3448 110.76 97.3864 111.011 97.3864C111.292 97.3864 111.542 97.3374 111.759 97.2393C111.976 97.1413 112.147 97.005 112.27 96.8303C112.394 96.6555 112.456 96.4531 112.456 96.223C112.456 95.9822 112.396 95.7702 112.277 95.587C112.157 95.4016 111.983 95.2567 111.753 95.1523C111.523 95.0479 111.241 94.9957 110.909 94.9957H110.385V94.2926H110.909C111.169 94.2926 111.397 94.2457 111.593 94.152C111.791 94.0582 111.945 93.9261 112.056 93.7557C112.169 93.5852 112.226 93.3849 112.226 93.1548C112.226 92.9332 112.177 92.7404 112.079 92.5763C111.981 92.4123 111.842 92.2844 111.663 92.1928C111.486 92.1012 111.278 92.0554 111.037 92.0554C110.811 92.0554 110.598 92.0969 110.398 92.18C110.199 92.261 110.037 92.3793 109.912 92.5348C109.786 92.6882 109.718 92.8736 109.707 93.0909H108.94C108.953 92.7479 109.056 92.4474 109.25 92.1896C109.444 91.9297 109.698 91.7273 110.011 91.5824C110.326 91.4375 110.672 91.3651 111.05 91.3651C111.454 91.3651 111.802 91.4471 112.091 91.6112C112.381 91.7731 112.604 91.9872 112.759 92.2536C112.915 92.5199 112.993 92.8075 112.993 93.1165C112.993 93.4851 112.896 93.7994 112.702 94.0593C112.51 94.3192 112.249 94.4993 111.919 94.5994V94.6506C112.332 94.7187 112.655 94.8945 112.887 95.1779C113.119 95.4592 113.236 95.8075 113.236 96.223C113.236 96.5788 113.139 96.8984 112.945 97.1818C112.753 97.4631 112.491 97.6847 112.159 97.8466C111.826 98.0085 111.448 98.0895 111.024 98.0895Z" fill="black" fill-opacity="0.71"/>
<circle cx="111" cy="95" r="5.75" stroke="black" stroke-opacity="0.71" stroke-width="0.5"/>
<path d="M261.637 114.658V114.006L264.513 109.455H264.986V110.464H264.667L262.493 113.903V113.955H266.367V114.658H261.637ZM264.718 116V114.46V114.156V109.455H265.472V116H264.718Z" fill="black" fill-opacity="0.71"/>
<circle cx="264" cy="113" r="5.75" stroke="black" stroke-opacity="0.71" stroke-width="0.5"/>
</svg>
