<svg width="276" height="164" viewBox="0 0 276 164" fill="none" xmlns="http://www.w3.org/2000/svg">
<rect width="276" height="164" fill="white"/>
<path d="M10.825 48L11.188 45.998H10.286V45.052H11.353L11.727 42.918H10.638V41.972H11.892L12.244 39.97H13.245L12.882 41.972H14.422L14.774 39.97H15.775L15.412 41.972H16.314V42.918H15.247L14.873 45.052H15.962V45.998H14.708L14.356 48H13.355L13.718 45.998H12.178L11.826 48H10.825ZM12.343 45.052H13.883L14.257 42.918H12.717L12.343 45.052ZM23.5764 48L25.6004 39.97H27.3714L29.4064 48H27.9984L27.5584 46.053H25.4244L24.9844 48H23.5764ZM25.6774 44.931H27.3054L26.8214 42.775C26.7407 42.4157 26.6711 42.093 26.6124 41.807C26.5537 41.5137 26.5134 41.301 26.4914 41.169C26.4694 41.301 26.4291 41.5137 26.3704 41.807C26.3191 42.093 26.2494 42.412 26.1614 42.764L25.6774 44.931ZM37.2298 48V39.97H38.6048V41.95L38.5718 43.105H38.9458L38.5718 43.424C38.5718 42.9253 38.7148 42.5367 39.0008 42.258C39.2941 41.9793 39.6938 41.84 40.1998 41.84C40.7938 41.84 41.2668 42.038 41.6188 42.434C41.9781 42.83 42.1578 43.3617 42.1578 44.029V48H40.7828V44.172C40.7828 43.8053 40.6875 43.523 40.4968 43.325C40.3061 43.127 40.0385 43.028 39.6938 43.028C39.3565 43.028 39.0888 43.1307 38.8908 43.336C38.7001 43.5413 38.6048 43.8347 38.6048 44.216V48H37.2298ZM46.2895 48.11C45.7762 48.11 45.3288 48.011 44.9475 47.813C44.5662 47.615 44.2692 47.34 44.0565 46.988C43.8512 46.6287 43.7485 46.2107 43.7485 45.734V44.216C43.7485 43.7393 43.8512 43.325 44.0565 42.973C44.2692 42.6137 44.5662 42.335 44.9475 42.137C45.3288 41.939 45.7762 41.84 46.2895 41.84C46.7955 41.84 47.2355 41.939 47.6095 42.137C47.9908 42.335 48.2842 42.6137 48.4895 42.973C48.7022 43.325 48.8085 43.7393 48.8085 44.216V45.305H45.0795V45.734C45.0795 46.1593 45.1822 46.482 45.3875 46.702C45.5928 46.9147 45.8972 47.021 46.3005 47.021C46.6085 47.021 46.8578 46.9697 47.0485 46.867C47.2392 46.757 47.3602 46.5993 47.4115 46.394H48.7645C48.6618 46.9147 48.3832 47.3327 47.9285 47.648C47.4812 47.956 46.9348 48.11 46.2895 48.11ZM47.4775 44.535V44.205C47.4775 43.787 47.3785 43.468 47.1805 43.248C46.9825 43.0207 46.6855 42.907 46.2895 42.907C45.8935 42.907 45.5928 43.0207 45.3875 43.248C45.1822 43.4753 45.0795 43.798 45.0795 44.216V44.447L47.5765 44.425L47.4775 44.535ZM52.2032 48.11C51.5799 48.11 51.0886 47.945 50.7292 47.615C50.3699 47.285 50.1902 46.8413 50.1902 46.284C50.1902 45.69 50.3882 45.2317 50.7842 44.909C51.1802 44.5863 51.7412 44.425 52.4672 44.425H53.9742V43.908C53.9742 43.6147 53.8789 43.3873 53.6882 43.226C53.4976 43.0573 53.2372 42.973 52.9072 42.973C52.6066 42.973 52.3572 43.039 52.1592 43.171C51.9612 43.303 51.8439 43.4827 51.8072 43.71H50.4652C50.5312 43.138 50.7879 42.6833 51.2352 42.346C51.6826 42.0087 52.2546 41.84 52.9512 41.84C53.6919 41.84 54.2749 42.027 54.7002 42.401C55.1329 42.7677 55.3492 43.2663 55.3492 43.897V48H54.0182V46.944H53.7982L54.0182 46.647C54.0182 47.0943 53.8532 47.45 53.5232 47.714C53.1932 47.978 52.7532 48.11 52.2032 48.11ZM52.6542 47.076C53.0429 47.076 53.3582 46.977 53.6002 46.779C53.8496 46.581 53.9742 46.3243 53.9742 46.009V45.272H52.4892C52.2106 45.272 51.9869 45.3527 51.8182 45.514C51.6496 45.6753 51.5652 45.888 51.5652 46.152C51.5652 46.438 51.6606 46.6653 51.8512 46.834C52.0492 46.9953 52.3169 47.076 52.6542 47.076ZM58.9529 48.11C58.3516 48.11 57.8639 47.901 57.4899 47.483C57.1233 47.065 56.9399 46.504 56.9399 45.8V44.161C56.9399 43.4497 57.1233 42.885 57.4899 42.467C57.8566 42.049 58.3443 41.84 58.9529 41.84C59.4516 41.84 59.8476 41.983 60.1409 42.269C60.4343 42.5477 60.5809 42.9327 60.5809 43.424L60.2729 43.105H60.5919L60.5479 41.664V39.97H61.9229V48H60.5809V46.845H60.2729L60.5809 46.526C60.5809 47.0173 60.4343 47.406 60.1409 47.692C59.8476 47.9707 59.4516 48.11 58.9529 48.11ZM59.4369 46.922C59.7889 46.922 60.0603 46.8193 60.2509 46.614C60.4489 46.4013 60.5479 46.108 60.5479 45.734V44.216C60.5479 43.842 60.4489 43.5523 60.2509 43.347C60.0603 43.1343 59.7889 43.028 59.4369 43.028C59.0849 43.028 58.8099 43.1307 58.6119 43.336C58.4139 43.5413 58.3149 43.8347 58.3149 44.216V45.734C58.3149 46.1153 58.4139 46.4087 58.6119 46.614C58.8099 46.8193 59.0849 46.922 59.4369 46.922ZM63.6016 48V46.746H65.7136V43.193H63.8766V41.95H67.0336V46.746H68.9036V48H63.6016ZM66.2636 40.938C65.985 40.938 65.765 40.8683 65.6036 40.729C65.4423 40.5823 65.3616 40.388 65.3616 40.146C65.3616 39.904 65.4423 39.7133 65.6036 39.574C65.765 39.4273 65.985 39.354 66.2636 39.354C66.5423 39.354 66.7623 39.4273 66.9236 39.574C67.085 39.7133 67.1656 39.904 67.1656 40.146C67.1656 40.388 67.085 40.5823 66.9236 40.729C66.7623 40.8683 66.5423 40.938 66.2636 40.938ZM70.2083 48V41.95H71.5503V43.105H71.9243L71.5503 43.424C71.5503 42.9253 71.6933 42.5367 71.9793 42.258C72.2727 41.9793 72.6723 41.84 73.1783 41.84C73.7723 41.84 74.2453 42.038 74.5973 42.434C74.9567 42.83 75.1363 43.3617 75.1363 44.029V48H73.7613V44.172C73.7613 43.8053 73.666 43.523 73.4753 43.325C73.2847 43.127 73.017 43.028 72.6723 43.028C72.335 43.028 72.0673 43.1307 71.8693 43.336C71.6787 43.5413 71.5833 43.8347 71.5833 44.216V48H70.2083ZM77.629 49.98V48.836H79.422C79.73 48.836 79.961 48.759 80.115 48.605C80.269 48.4583 80.346 48.2457 80.346 47.967V47.516L80.368 46.383H80.071L80.368 46.086C80.368 46.5773 80.2214 46.9623 79.928 47.241C79.642 47.5123 79.2534 47.648 78.762 47.648C78.146 47.648 77.6547 47.439 77.288 47.021C76.9287 46.603 76.749 46.0383 76.749 45.327V44.15C76.749 43.446 76.9287 42.885 77.288 42.467C77.6547 42.049 78.146 41.84 78.762 41.84C79.2534 41.84 79.642 41.9793 79.928 42.258C80.2214 42.5293 80.368 42.9107 80.368 43.402L80.071 43.105H80.368L80.335 41.95H81.71V48C81.71 48.6087 81.5084 49.089 81.105 49.441C80.7017 49.8003 80.148 49.98 79.444 49.98H77.629ZM79.224 46.46C79.576 46.46 79.8474 46.3573 80.038 46.152C80.236 45.9393 80.335 45.646 80.335 45.272V44.216C80.335 43.842 80.236 43.5523 80.038 43.347C79.8474 43.1343 79.576 43.028 79.224 43.028C78.872 43.028 78.6007 43.1307 78.41 43.336C78.2194 43.5413 78.124 43.8347 78.124 44.216V45.272C78.124 45.6533 78.2194 45.9467 78.41 46.152C78.6007 46.3573 78.872 46.46 79.224 46.46ZM11.1507 99L11.5137 96.998H10.6117V96.052H11.6787L12.0527 93.918H10.9637V92.972H12.2177L12.5697 90.97H13.5707L13.2077 92.972H14.7477L15.0997 90.97H16.1007L15.7377 92.972H18.1577L18.5097 90.97H19.5107L19.1477 92.972H20.6877L21.0397 90.97H22.0407L21.6777 92.972H22.5797V93.918H21.5127L21.1387 96.052H22.2277V96.998H20.9737L20.6217 99H19.6207L19.9837 96.998H18.4437L18.0917 99H17.0907L17.4537 96.998H15.0337L14.6817 99H13.6807L14.0437 96.998H12.5037L12.1517 99H11.1507ZM12.6687 96.052H14.2087L14.5827 93.918H13.0427L12.6687 96.052ZM15.1987 96.052H17.6187L17.9927 93.918H15.5727L15.1987 96.052ZM18.6087 96.052H20.1487L20.5227 93.918H18.9827L18.6087 96.052ZM31.8771 98.043L30.8651 97.339L31.3161 96.69C31.4261 96.5287 31.5618 96.371 31.7231 96.217C31.8918 96.063 32.0568 95.92 32.2181 95.788C32.3868 95.656 32.5298 95.546 32.6471 95.458L32.6251 95.392C32.4711 95.392 32.2878 95.3847 32.0751 95.37C31.8698 95.3553 31.6571 95.3297 31.4371 95.293C31.2244 95.249 31.0301 95.1977 30.8541 95.139L30.1171 94.875L30.5461 93.709L31.2721 93.973C31.4481 94.0317 31.6314 94.1197 31.8221 94.237C32.0128 94.3543 32.1924 94.4753 32.3611 94.6C32.5371 94.7247 32.6838 94.8383 32.8011 94.941L32.8561 94.897C32.8121 94.743 32.7571 94.5633 32.6911 94.358C32.6324 94.1527 32.5811 93.9363 32.5371 93.709C32.4931 93.4817 32.4711 93.2727 32.4711 93.082V92.29H33.7031V93.082C33.7031 93.2727 33.6811 93.4817 33.6371 93.709C33.5931 93.9363 33.5418 94.1527 33.4831 94.358C33.4244 94.5633 33.3658 94.743 33.3071 94.897L33.3621 94.93C33.4794 94.8273 33.6224 94.7173 33.7911 94.6C33.9671 94.4753 34.1504 94.3543 34.3411 94.237C34.5318 94.1197 34.7151 94.0317 34.8911 93.973L35.6281 93.709L36.0571 94.875L35.3091 95.139C35.1404 95.1977 34.9461 95.249 34.7261 95.293C34.5134 95.3297 34.3044 95.3553 34.0991 95.37C33.8938 95.3847 33.7104 95.392 33.5491 95.392L33.5271 95.458C33.6444 95.546 33.7838 95.6597 33.9451 95.799C34.1138 95.931 34.2788 96.074 34.4401 96.228C34.6088 96.382 34.7444 96.536 34.8471 96.69L35.2981 97.339L34.2861 98.043L33.8351 97.394C33.7251 97.24 33.6224 97.0603 33.5271 96.855C33.4391 96.6423 33.3584 96.4333 33.2851 96.228C33.2191 96.0227 33.1641 95.8503 33.1201 95.711H33.0541C33.0101 95.8503 32.9514 96.0227 32.8781 96.228C32.8121 96.4333 32.7314 96.6423 32.6361 96.855C32.5481 97.0603 32.4454 97.24 32.3281 97.394L31.8771 98.043ZM38.4728 98.043L37.4608 97.339L37.9118 96.69C38.0218 96.5287 38.1575 96.371 38.3188 96.217C38.4875 96.063 38.6525 95.92 38.8138 95.788C38.9825 95.656 39.1255 95.546 39.2428 95.458L39.2208 95.392C39.0668 95.392 38.8835 95.3847 38.6708 95.37C38.4655 95.3553 38.2528 95.3297 38.0328 95.293C37.8201 95.249 37.6258 95.1977 37.4498 95.139L36.7128 94.875L37.1418 93.709L37.8678 93.973C38.0438 94.0317 38.2271 94.1197 38.4178 94.237C38.6085 94.3543 38.7881 94.4753 38.9568 94.6C39.1328 94.7247 39.2795 94.8383 39.3968 94.941L39.4518 94.897C39.4078 94.743 39.3528 94.5633 39.2868 94.358C39.2281 94.1527 39.1768 93.9363 39.1328 93.709C39.0888 93.4817 39.0668 93.2727 39.0668 93.082V92.29H40.2988V93.082C40.2988 93.2727 40.2768 93.4817 40.2328 93.709C40.1888 93.9363 40.1375 94.1527 40.0788 94.358C40.0201 94.5633 39.9615 94.743 39.9028 94.897L39.9578 94.93C40.0751 94.8273 40.2181 94.7173 40.3868 94.6C40.5628 94.4753 40.7461 94.3543 40.9368 94.237C41.1275 94.1197 41.3108 94.0317 41.4868 93.973L42.2238 93.709L42.6528 94.875L41.9048 95.139C41.7361 95.1977 41.5418 95.249 41.3218 95.293C41.1091 95.3297 40.9001 95.3553 40.6948 95.37C40.4895 95.3847 40.3061 95.392 40.1448 95.392L40.1228 95.458C40.2401 95.546 40.3795 95.6597 40.5408 95.799C40.7095 95.931 40.8745 96.074 41.0358 96.228C41.2045 96.382 41.3401 96.536 41.4428 96.69L41.8938 97.339L40.8818 98.043L40.4308 97.394C40.3208 97.24 40.2181 97.0603 40.1228 96.855C40.0348 96.6423 39.9541 96.4333 39.8808 96.228C39.8148 96.0227 39.7598 95.8503 39.7158 95.711H39.6498C39.6058 95.8503 39.5471 96.0227 39.4738 96.228C39.4078 96.4333 39.3271 96.6423 39.2318 96.855C39.1438 97.0603 39.0411 97.24 38.9238 97.394L38.4728 98.043ZM43.8255 99V90.97H46.2895C47.0668 90.97 47.6828 91.157 48.1375 91.531C48.5922 91.8977 48.8195 92.4 48.8195 93.038C48.8195 93.3973 48.7388 93.709 48.5775 93.973C48.4162 94.237 48.1962 94.4423 47.9175 94.589C47.6462 94.7357 47.3308 94.809 46.9715 94.809V94.765C47.3602 94.7577 47.7048 94.831 48.0055 94.985C48.3135 95.1317 48.5555 95.3517 48.7315 95.645C48.9148 95.9383 49.0065 96.294 49.0065 96.712C49.0065 97.174 48.9002 97.5773 48.6875 97.922C48.4748 98.2667 48.1742 98.5343 47.7855 98.725C47.4042 98.9083 46.9458 99 46.4105 99H43.8255ZM45.1675 97.856H46.3225C46.7258 97.856 47.0412 97.7497 47.2685 97.537C47.5032 97.317 47.6205 97.02 47.6205 96.646C47.6205 96.272 47.5032 95.9713 47.2685 95.744C47.0412 95.5093 46.7258 95.392 46.3225 95.392H45.1675V97.856ZM45.1675 94.281H46.2675C46.6342 94.281 46.9202 94.1857 47.1255 93.995C47.3382 93.797 47.4445 93.5293 47.4445 93.192C47.4445 92.8547 47.3382 92.5907 47.1255 92.4C46.9202 92.2093 46.6342 92.114 46.2675 92.114H45.1675V94.281ZM52.8742 99.099C52.3609 99.099 51.9136 99.0037 51.5322 98.813C51.1582 98.615 50.8649 98.34 50.6522 97.988C50.4469 97.6287 50.3442 97.207 50.3442 96.723V95.227C50.3442 94.743 50.4469 94.325 50.6522 93.973C50.8649 93.6137 51.1582 93.3387 51.5322 93.148C51.9136 92.95 52.3609 92.851 52.8742 92.851C53.3949 92.851 53.8422 92.95 54.2162 93.148C54.5902 93.3387 54.8799 93.6137 55.0852 93.973C55.2979 94.325 55.4042 94.7393 55.4042 95.216V96.723C55.4042 97.207 55.2979 97.6287 55.0852 97.988C54.8799 98.34 54.5902 98.615 54.2162 98.813C53.8422 99.0037 53.3949 99.099 52.8742 99.099ZM52.8742 97.9C53.2409 97.9 53.5232 97.801 53.7212 97.603C53.9266 97.3977 54.0292 97.1043 54.0292 96.723V95.227C54.0292 94.8383 53.9266 94.545 53.7212 94.347C53.5232 94.149 53.2409 94.05 52.8742 94.05C52.5149 94.05 52.2326 94.149 52.0272 94.347C51.8219 94.545 51.7192 94.8383 51.7192 95.227V96.723C51.7192 97.1043 51.8219 97.3977 52.0272 97.603C52.2326 97.801 52.5149 97.9 52.8742 97.9ZM60.3939 99C59.9979 99 59.6496 98.9193 59.3489 98.758C59.0556 98.5967 58.8246 98.3693 58.6559 98.076C58.4873 97.7753 58.4029 97.4307 58.4029 97.042V92.213H56.4669V90.97H59.7779V97.042C59.7779 97.262 59.8403 97.438 59.9649 97.57C60.0969 97.6947 60.2729 97.757 60.4929 97.757H62.3189V99H60.3939ZM65.5486 99.11C64.9473 99.11 64.4596 98.901 64.0856 98.483C63.719 98.065 63.5356 97.504 63.5356 96.8V95.161C63.5356 94.4497 63.719 93.885 64.0856 93.467C64.4523 93.049 64.94 92.84 65.5486 92.84C66.0473 92.84 66.4433 92.983 66.7366 93.269C67.03 93.5477 67.1766 93.9327 67.1766 94.424L66.8686 94.105H67.1876L67.1436 92.664V90.97H68.5186V99H67.1766V97.845H66.8686L67.1766 97.526C67.1766 98.0173 67.03 98.406 66.7366 98.692C66.4433 98.9707 66.0473 99.11 65.5486 99.11ZM66.0326 97.922C66.3846 97.922 66.656 97.8193 66.8466 97.614C67.0446 97.4013 67.1436 97.108 67.1436 96.734V95.216C67.1436 94.842 67.0446 94.5523 66.8466 94.347C66.656 94.1343 66.3846 94.028 66.0326 94.028C65.6806 94.028 65.4056 94.1307 65.2076 94.336C65.0096 94.5413 64.9106 94.8347 64.9106 95.216V96.734C64.9106 97.1153 65.0096 97.4087 65.2076 97.614C65.4056 97.8193 65.6806 97.922 66.0326 97.922ZM79.917 99C79.3377 99 78.883 98.8387 78.553 98.516C78.2304 98.1933 78.069 97.7497 78.069 97.185V94.193H76.43V92.95H78.069V91.245H79.455V92.95H81.776V94.193H79.455V97.185C79.455 97.5663 79.642 97.757 80.016 97.757H81.666V99H79.917ZM85.8637 99.11C85.3504 99.11 84.9031 99.011 84.5217 98.813C84.1404 98.615 83.8434 98.34 83.6307 97.988C83.4254 97.6287 83.3227 97.2107 83.3227 96.734V95.216C83.3227 94.7393 83.4254 94.325 83.6307 93.973C83.8434 93.6137 84.1404 93.335 84.5217 93.137C84.9031 92.939 85.3504 92.84 85.8637 92.84C86.3697 92.84 86.8097 92.939 87.1837 93.137C87.5651 93.335 87.8584 93.6137 88.0637 93.973C88.2764 94.325 88.3827 94.7393 88.3827 95.216V96.305H84.6537V96.734C84.6537 97.1593 84.7564 97.482 84.9617 97.702C85.1671 97.9147 85.4714 98.021 85.8747 98.021C86.1827 98.021 86.4321 97.9697 86.6227 97.867C86.8134 97.757 86.9344 97.5993 86.9857 97.394H88.3387C88.2361 97.9147 87.9574 98.3327 87.5027 98.648C87.0554 98.956 86.5091 99.11 85.8637 99.11ZM87.0517 95.535V95.205C87.0517 94.787 86.9527 94.468 86.7547 94.248C86.5567 94.0207 86.2597 93.907 85.8637 93.907C85.4677 93.907 85.1671 94.0207 84.9617 94.248C84.7564 94.4753 84.6537 94.798 84.6537 95.216V95.447L87.1507 95.425L87.0517 95.535ZM89.5444 99L91.6564 95.876L89.6874 92.95H91.2384L92.1734 94.435C92.2321 94.523 92.2834 94.622 92.3274 94.732C92.3788 94.842 92.4191 94.93 92.4484 94.996C92.4778 94.93 92.5181 94.842 92.5694 94.732C92.6208 94.622 92.6721 94.523 92.7234 94.435L93.6694 92.95H95.2204L93.2514 95.876L95.3524 99H93.7904L92.7454 97.339C92.6868 97.2437 92.6318 97.141 92.5804 97.031C92.5291 96.921 92.4851 96.833 92.4484 96.767C92.4191 96.833 92.3788 96.921 92.3274 97.031C92.2761 97.141 92.2211 97.2437 92.1624 97.339L91.0954 99H89.5444ZM99.7041 99C99.1248 99 98.6701 98.8387 98.3401 98.516C98.0175 98.1933 97.8561 97.7497 97.8561 97.185V94.193H96.2171V92.95H97.8561V91.245H99.2421V92.95H101.563V94.193H99.2421V97.185C99.2421 97.5663 99.4291 97.757 99.8031 97.757H101.453V99H99.7041ZM104.43 98.043L103.418 97.339L103.869 96.69C103.979 96.5287 104.115 96.371 104.276 96.217C104.445 96.063 104.61 95.92 104.771 95.788C104.94 95.656 105.083 95.546 105.2 95.458L105.178 95.392C105.024 95.392 104.841 95.3847 104.628 95.37C104.423 95.3553 104.21 95.3297 103.99 95.293C103.777 95.249 103.583 95.1977 103.407 95.139L102.67 94.875L103.099 93.709L103.825 93.973C104.001 94.0317 104.184 94.1197 104.375 94.237C104.566 94.3543 104.745 94.4753 104.914 94.6C105.09 94.7247 105.237 94.8383 105.354 94.941L105.409 94.897C105.365 94.743 105.31 94.5633 105.244 94.358C105.185 94.1527 105.134 93.9363 105.09 93.709C105.046 93.4817 105.024 93.2727 105.024 93.082V92.29H106.256V93.082C106.256 93.2727 106.234 93.4817 106.19 93.709C106.146 93.9363 106.095 94.1527 106.036 94.358C105.977 94.5633 105.919 94.743 105.86 94.897L105.915 94.93C106.032 94.8273 106.175 94.7173 106.344 94.6C106.52 94.4753 106.703 94.3543 106.894 94.237C107.085 94.1197 107.268 94.0317 107.444 93.973L108.181 93.709L108.61 94.875L107.862 95.139C107.693 95.1977 107.499 95.249 107.279 95.293C107.066 95.3297 106.857 95.3553 106.652 95.37C106.447 95.3847 106.263 95.392 106.102 95.392L106.08 95.458C106.197 95.546 106.337 95.6597 106.498 95.799C106.667 95.931 106.832 96.074 106.993 96.228C107.162 96.382 107.297 96.536 107.4 96.69L107.851 97.339L106.839 98.043L106.388 97.394C106.278 97.24 106.175 97.0603 106.08 96.855C105.992 96.6423 105.911 96.4333 105.838 96.228C105.772 96.0227 105.717 95.8503 105.673 95.711H105.607C105.563 95.8503 105.504 96.0227 105.431 96.228C105.365 96.4333 105.284 96.6423 105.189 96.855C105.101 97.0603 104.998 97.24 104.881 97.394L104.43 98.043ZM111.026 98.043L110.014 97.339L110.465 96.69C110.575 96.5287 110.71 96.371 110.872 96.217C111.04 96.063 111.205 95.92 111.367 95.788C111.535 95.656 111.678 95.546 111.796 95.458L111.774 95.392C111.62 95.392 111.436 95.3847 111.224 95.37C111.018 95.3553 110.806 95.3297 110.586 95.293C110.373 95.249 110.179 95.1977 110.003 95.139L109.266 94.875L109.695 93.709L110.421 93.973C110.597 94.0317 110.78 94.1197 110.971 94.237C111.161 94.3543 111.341 94.4753 111.51 94.6C111.686 94.7247 111.832 94.8383 111.95 94.941L112.005 94.897C111.961 94.743 111.906 94.5633 111.84 94.358C111.781 94.1527 111.73 93.9363 111.686 93.709C111.642 93.4817 111.62 93.2727 111.62 93.082V92.29H112.852V93.082C112.852 93.2727 112.83 93.4817 112.786 93.709C112.742 93.9363 112.69 94.1527 112.632 94.358C112.573 94.5633 112.514 94.743 112.456 94.897L112.511 94.93C112.628 94.8273 112.771 94.7173 112.94 94.6C113.116 94.4753 113.299 94.3543 113.49 94.237C113.68 94.1197 113.864 94.0317 114.04 93.973L114.777 93.709L115.206 94.875L114.458 95.139C114.289 95.1977 114.095 95.249 113.875 95.293C113.662 95.3297 113.453 95.3553 113.248 95.37C113.042 95.3847 112.859 95.392 112.698 95.392L112.676 95.458C112.793 95.546 112.932 95.6597 113.094 95.799C113.262 95.931 113.427 96.074 113.589 96.228C113.757 96.382 113.893 96.536 113.996 96.69L114.447 97.339L113.435 98.043L112.984 97.394C112.874 97.24 112.771 97.0603 112.676 96.855C112.588 96.6423 112.507 96.4333 112.434 96.228C112.368 96.0227 112.313 95.8503 112.269 95.711H112.203C112.159 95.8503 112.1 96.0227 112.027 96.228C111.961 96.4333 111.88 96.6423 111.785 96.855C111.697 97.0603 111.594 97.24 111.477 97.394L111.026 98.043Z" fill="#6F42C1"/>
<path d="M10.55 65L12.64 56.97H13.971L16.05 65H15.049L14.521 62.866H12.09L11.562 65H10.55ZM12.288 62.03H14.312L13.696 59.555C13.5787 59.0857 13.487 58.6933 13.421 58.378C13.355 58.0627 13.3147 57.8573 13.3 57.762C13.2853 57.8573 13.245 58.0627 13.179 58.378C13.113 58.6933 13.0213 59.082 12.904 59.544L12.288 62.03ZM26.3044 65.088C25.8937 65.088 25.5344 65.0257 25.2264 64.901C24.9257 64.769 24.6837 64.5857 24.5004 64.351C24.3244 64.1163 24.2181 63.8377 24.1814 63.515H25.1714C25.2154 63.7277 25.3327 63.8963 25.5234 64.021C25.7214 64.1457 25.9817 64.208 26.3044 64.208H26.7664C27.1551 64.208 27.4447 64.131 27.6354 63.977C27.8261 63.8157 27.9214 63.603 27.9214 63.339C27.9214 63.0823 27.8334 62.8807 27.6574 62.734C27.4887 62.58 27.2357 62.4773 26.8984 62.426L26.0844 62.294C25.4904 62.1913 25.0467 62.008 24.7534 61.744C24.4674 61.4727 24.3244 61.0803 24.3244 60.567C24.3244 60.0243 24.4967 59.6063 24.8414 59.313C25.1861 59.0123 25.7031 58.862 26.3924 58.862H26.8104C27.3897 58.862 27.8554 58.9977 28.2074 59.269C28.5594 59.5403 28.7721 59.907 28.8454 60.369H27.8554C27.8114 60.1783 27.7014 60.028 27.5254 59.918C27.3494 59.8007 27.1111 59.742 26.8104 59.742H26.3924C26.0184 59.742 25.7434 59.8117 25.5674 59.951C25.3987 60.0903 25.3144 60.2993 25.3144 60.578C25.3144 60.8273 25.3877 61.0107 25.5344 61.128C25.6811 61.2453 25.9121 61.3297 26.2274 61.381L27.0414 61.513C27.6941 61.6157 28.1671 61.8063 28.4604 62.085C28.7611 62.3637 28.9114 62.767 28.9114 63.295C28.9114 63.8523 28.7317 64.2923 28.3724 64.615C28.0204 64.9303 27.4851 65.088 26.7664 65.088H26.3044ZM30.7991 65V56.97H31.7891V58.95V60.105H31.9981L31.7891 60.336C31.7891 59.8593 31.9321 59.4927 32.2181 59.236C32.5041 58.972 32.9001 58.84 33.4061 58.84C34.0148 58.84 34.4988 59.027 34.8581 59.401C35.2174 59.775 35.3971 60.2847 35.3971 60.93V65H34.4071V61.04C34.4071 60.6073 34.2898 60.2737 34.0551 60.039C33.8278 59.797 33.5161 59.676 33.1201 59.676C32.7094 59.676 32.3831 59.8043 32.1411 60.061C31.9064 60.3177 31.7891 60.6807 31.7891 61.15V65H30.7991ZM39.6828 65.088C39.1988 65.088 38.7808 64.9963 38.4288 64.813C38.0768 64.6297 37.8018 64.3657 37.6038 64.021C37.4131 63.669 37.3178 63.2547 37.3178 62.778V61.172C37.3178 60.688 37.4131 60.2737 37.6038 59.929C37.8018 59.5843 38.0768 59.3203 38.4288 59.137C38.7808 58.9537 39.1988 58.862 39.6828 58.862C40.1668 58.862 40.5848 58.9537 40.9368 59.137C41.2888 59.3203 41.5601 59.5843 41.7508 59.929C41.9488 60.2737 42.0478 60.6843 42.0478 61.161V62.778C42.0478 63.2547 41.9488 63.669 41.7508 64.021C41.5601 64.3657 41.2888 64.6297 40.9368 64.813C40.5848 64.9963 40.1668 65.088 39.6828 65.088ZM39.6828 64.208C40.1155 64.208 40.4528 64.087 40.6948 63.845C40.9368 63.603 41.0578 63.2473 41.0578 62.778V61.172C41.0578 60.7027 40.9368 60.347 40.6948 60.105C40.4528 59.863 40.1155 59.742 39.6828 59.742C39.2575 59.742 38.9201 59.863 38.6708 60.105C38.4288 60.347 38.3078 60.7027 38.3078 61.172V62.778C38.3078 63.2473 38.4288 63.603 38.6708 63.845C38.9201 64.087 39.2575 64.208 39.6828 64.208ZM44.1995 65V58.95H45.1675V60.105H45.3985L45.0795 60.82C45.0795 60.1673 45.2188 59.676 45.4975 59.346C45.7835 59.0087 46.2052 58.84 46.7625 58.84C47.4005 58.84 47.9065 59.0417 48.2805 59.445C48.6618 59.841 48.8525 60.38 48.8525 61.062V61.425H47.8625V61.15C47.8625 60.6733 47.7452 60.3103 47.5105 60.061C47.2832 59.8043 46.9568 59.676 46.5315 59.676C46.1135 59.676 45.7835 59.8043 45.5415 60.061C45.3068 60.3177 45.1895 60.6807 45.1895 61.15V65H44.1995ZM53.5342 65C53.0136 65 52.6066 64.8607 52.3132 64.582C52.0272 64.3033 51.8842 63.911 51.8842 63.405V59.852H50.1792V58.95H51.8842V57.245H52.8742V58.95H55.2942V59.852H52.8742V63.405C52.8742 63.867 53.0942 64.098 53.5342 64.098H55.1842V65H53.5342ZM63.7776 66.98V58.95H64.7676V60.105H64.9656L64.7676 60.336C64.7676 59.874 64.918 59.511 65.2186 59.247C65.5266 58.9757 65.93 58.84 66.4286 58.84C67.0373 58.84 67.5213 59.0417 67.8806 59.445C68.2473 59.841 68.4306 60.3873 68.4306 61.084V62.855C68.4306 63.317 68.3463 63.7167 68.1776 64.054C68.0163 64.3913 67.7853 64.6517 67.4846 64.835C67.1913 65.0183 66.8393 65.11 66.4286 65.11C65.9373 65.11 65.5376 64.9743 65.2296 64.703C64.9216 64.4317 64.7676 64.0687 64.7676 63.614L64.9656 63.845H64.7456L64.7676 65.22V66.98H63.7776ZM66.0986 64.252C66.5166 64.252 66.843 64.1273 67.0776 63.878C67.3196 63.6287 67.4406 63.2693 67.4406 62.8V61.15C67.4406 60.6807 67.3196 60.3213 67.0776 60.072C66.843 59.8227 66.5166 59.698 66.0986 59.698C65.6953 59.698 65.3726 59.8263 65.1306 60.083C64.8886 60.3397 64.7676 60.6953 64.7676 61.15V62.8C64.7676 63.2547 64.8886 63.6103 65.1306 63.867C65.3726 64.1237 65.6953 64.252 66.0986 64.252ZM72.1333 65.11C71.4953 65.11 70.993 64.9487 70.6263 64.626C70.2597 64.296 70.0763 63.8523 70.0763 63.295C70.0763 62.7303 70.2597 62.2867 70.6263 61.964C70.993 61.6413 71.488 61.48 72.1113 61.48H73.9813V60.875C73.9813 60.501 73.8677 60.215 73.6403 60.017C73.4203 59.8117 73.105 59.709 72.6943 59.709C72.335 59.709 72.0343 59.786 71.7923 59.94C71.5503 60.0867 71.411 60.2883 71.3743 60.545H70.3843C70.4503 60.0243 70.696 59.61 71.1213 59.302C71.5467 58.994 72.0783 58.84 72.7163 58.84C73.413 58.84 73.963 59.0197 74.3663 59.379C74.7697 59.7383 74.9713 60.226 74.9713 60.842V65H74.0033V63.845H73.8383L74.0033 63.68C74.0033 64.12 73.831 64.4683 73.4863 64.725C73.149 64.9817 72.698 65.11 72.1333 65.11ZM72.3753 64.329C72.8447 64.329 73.2297 64.2117 73.5303 63.977C73.831 63.7423 73.9813 63.4417 73.9813 63.075V62.217H72.1333C71.8033 62.217 71.543 62.3087 71.3523 62.492C71.1617 62.6753 71.0663 62.9247 71.0663 63.24C71.0663 63.5773 71.18 63.845 71.4073 64.043C71.642 64.2337 71.9647 64.329 72.3753 64.329ZM77.178 65V58.95H78.146V60.105H78.377L78.058 60.82C78.058 60.1673 78.1974 59.676 78.476 59.346C78.762 59.0087 79.1837 58.84 79.741 58.84C80.379 58.84 80.885 59.0417 81.259 59.445C81.6404 59.841 81.831 60.38 81.831 61.062V61.425H80.841V61.15C80.841 60.6733 80.7237 60.3103 80.489 60.061C80.2617 59.8043 79.9354 59.676 79.51 59.676C79.092 59.676 78.762 59.8043 78.52 60.061C78.2854 60.3177 78.168 60.6807 78.168 61.15V65H77.178ZM85.3247 65.11C84.6867 65.11 84.1844 64.9487 83.8177 64.626C83.4511 64.296 83.2677 63.8523 83.2677 63.295C83.2677 62.7303 83.4511 62.2867 83.8177 61.964C84.1844 61.6413 84.6794 61.48 85.3027 61.48H87.1727V60.875C87.1727 60.501 87.0591 60.215 86.8317 60.017C86.6117 59.8117 86.2964 59.709 85.8857 59.709C85.5264 59.709 85.2257 59.786 84.9837 59.94C84.7417 60.0867 84.6024 60.2883 84.5657 60.545H83.5757C83.6417 60.0243 83.8874 59.61 84.3127 59.302C84.7381 58.994 85.2697 58.84 85.9077 58.84C86.6044 58.84 87.1544 59.0197 87.5577 59.379C87.9611 59.7383 88.1627 60.226 88.1627 60.842V65H87.1947V63.845H87.0297L87.1947 63.68C87.1947 64.12 87.0224 64.4683 86.6777 64.725C86.3404 64.9817 85.8894 65.11 85.3247 65.11ZM85.5667 64.329C86.0361 64.329 86.4211 64.2117 86.7217 63.977C87.0224 63.7423 87.1727 63.4417 87.1727 63.075V62.217H85.3247C84.9947 62.217 84.7344 62.3087 84.5437 62.492C84.3531 62.6753 84.2577 62.9247 84.2577 63.24C84.2577 63.5773 84.3714 63.845 84.5987 64.043C84.8334 64.2337 85.1561 64.329 85.5667 64.329ZM90.9194 66.98V66.078H92.8444C93.1524 66.078 93.3761 66.0083 93.5154 65.869C93.6621 65.7297 93.7354 65.5133 93.7354 65.22V64.45L93.7574 63.35H93.5594L93.7464 63.185C93.7464 63.625 93.5998 63.9733 93.3064 64.23C93.0131 64.4867 92.6208 64.615 92.1294 64.615C91.5061 64.615 91.0148 64.4133 90.6554 64.01C90.2961 63.5993 90.1164 63.0493 90.1164 62.36V61.084C90.1164 60.3947 90.2961 59.8483 90.6554 59.445C91.0148 59.0417 91.5061 58.84 92.1294 58.84C92.6208 58.84 93.0131 58.9683 93.3064 59.225C93.5998 59.4817 93.7464 59.83 93.7464 60.27L93.5594 60.105H93.7464V58.95H94.7254V65.22C94.7254 65.7627 94.5568 66.1917 94.2194 66.507C93.8894 66.8223 93.4274 66.98 92.8334 66.98H90.9194ZM92.4264 63.757C92.8371 63.757 93.1598 63.6287 93.3944 63.372C93.6291 63.1153 93.7464 62.7597 93.7464 62.305V61.15C93.7464 60.6953 93.6291 60.3397 93.3944 60.083C93.1598 59.8263 92.8371 59.698 92.4264 59.698C92.0084 59.698 91.6821 59.8227 91.4474 60.072C91.2201 60.3213 91.1064 60.6807 91.1064 61.15V62.305C91.1064 62.7743 91.2201 63.1337 91.4474 63.383C91.6821 63.6323 92.0084 63.757 92.4264 63.757ZM96.9651 65V58.95H97.9331V60.105H98.1641L97.8451 60.82C97.8451 60.1673 97.9845 59.676 98.2631 59.346C98.5491 59.0087 98.9708 58.84 99.5281 58.84C100.166 58.84 100.672 59.0417 101.046 59.445C101.427 59.841 101.618 60.38 101.618 61.062V61.425H100.628V61.15C100.628 60.6733 100.511 60.3103 100.276 60.061C100.049 59.8043 99.7225 59.676 99.2971 59.676C98.8791 59.676 98.5491 59.8043 98.3071 60.061C98.0725 60.3177 97.9551 60.6807 97.9551 61.15V65H96.9651ZM105.112 65.11C104.474 65.11 103.972 64.9487 103.605 64.626C103.238 64.296 103.055 63.8523 103.055 63.295C103.055 62.7303 103.238 62.2867 103.605 61.964C103.972 61.6413 104.467 61.48 105.09 61.48H106.96V60.875C106.96 60.501 106.846 60.215 106.619 60.017C106.399 59.8117 106.084 59.709 105.673 59.709C105.314 59.709 105.013 59.786 104.771 59.94C104.529 60.0867 104.39 60.2883 104.353 60.545H103.363C103.429 60.0243 103.675 59.61 104.1 59.302C104.525 58.994 105.057 58.84 105.695 58.84C106.392 58.84 106.942 59.0197 107.345 59.379C107.748 59.7383 107.95 60.226 107.95 60.842V65H106.982V63.845H106.817L106.982 63.68C106.982 64.12 106.81 64.4683 106.465 64.725C106.128 64.9817 105.677 65.11 105.112 65.11ZM105.354 64.329C105.823 64.329 106.208 64.2117 106.509 63.977C106.81 63.7423 106.96 63.4417 106.96 63.075V62.217H105.112C104.782 62.217 104.522 62.3087 104.331 62.492C104.14 62.6753 104.045 62.9247 104.045 63.24C104.045 63.5773 104.159 63.845 104.386 64.043C104.621 64.2337 104.943 64.329 105.354 64.329ZM109.948 66.98V58.95H110.938V60.105H111.136L110.938 60.336C110.938 59.874 111.088 59.511 111.389 59.247C111.697 58.9757 112.1 58.84 112.599 58.84C113.207 58.84 113.691 59.0417 114.051 59.445C114.417 59.841 114.601 60.3873 114.601 61.084V62.855C114.601 63.317 114.516 63.7167 114.348 64.054C114.186 64.3913 113.955 64.6517 113.655 64.835C113.361 65.0183 113.009 65.11 112.599 65.11C112.107 65.11 111.708 64.9743 111.4 64.703C111.092 64.4317 110.938 64.0687 110.938 63.614L111.136 63.845H110.916L110.938 65.22V66.98H109.948ZM112.269 64.252C112.687 64.252 113.013 64.1273 113.248 63.878C113.49 63.6287 113.611 63.2693 113.611 62.8V61.15C113.611 60.6807 113.49 60.3213 113.248 60.072C113.013 59.8227 112.687 59.698 112.269 59.698C111.865 59.698 111.543 59.8263 111.301 60.083C111.059 60.3397 110.938 60.6953 110.938 61.15V62.8C110.938 63.2547 111.059 63.6103 111.301 63.867C111.543 64.1237 111.865 64.252 112.269 64.252ZM116.543 65V56.97H117.533V58.95V60.105H117.742L117.533 60.336C117.533 59.8593 117.676 59.4927 117.962 59.236C118.248 58.972 118.644 58.84 119.15 58.84C119.759 58.84 120.243 59.027 120.602 59.401C120.962 59.775 121.141 60.2847 121.141 60.93V65H120.151V61.04C120.151 60.6073 120.034 60.2737 119.799 60.039C119.572 59.797 119.26 59.676 118.864 59.676C118.454 59.676 118.127 59.8043 117.885 60.061C117.651 60.3177 117.533 60.6807 117.533 61.15V65H116.543ZM125.427 65.11C125.148 65.11 124.925 65.0293 124.756 64.868C124.595 64.7067 124.514 64.4903 124.514 64.219C124.514 63.933 124.595 63.7057 124.756 63.537C124.925 63.3683 125.148 63.284 125.427 63.284C125.706 63.284 125.926 63.3683 126.087 63.537C126.256 63.7057 126.34 63.933 126.34 64.219C126.34 64.4903 126.256 64.7067 126.087 64.868C125.926 65.0293 125.706 65.11 125.427 65.11ZM10.55 116L12.64 107.97H13.971L16.05 116H15.049L14.521 113.866H12.09L11.562 116H10.55ZM12.288 113.03H14.312L13.696 110.555C13.5787 110.086 13.487 109.693 13.421 109.378C13.355 109.063 13.3147 108.857 13.3 108.762C13.2853 108.857 13.245 109.063 13.179 109.378C13.113 109.693 13.0213 110.082 12.904 110.544L12.288 113.03ZM17.6077 116V109.95H18.5977V111.105H18.8067L18.5977 111.336C18.5977 110.859 18.7407 110.493 19.0267 110.236C19.3127 109.972 19.7087 109.84 20.2147 109.84C20.8234 109.84 21.3074 110.027 21.6667 110.401C22.026 110.775 22.2057 111.285 22.2057 111.93V116H21.2157V112.04C21.2157 111.607 21.0984 111.277 20.8637 111.05C20.6364 110.815 20.3247 110.698 19.9287 110.698C19.518 110.698 19.1917 110.823 18.9497 111.072C18.715 111.321 18.5977 111.681 18.5977 112.15V116H17.6077ZM26.4914 116.088C26.0074 116.088 25.5894 115.996 25.2374 115.813C24.8854 115.63 24.6104 115.366 24.4124 115.021C24.2217 114.669 24.1264 114.255 24.1264 113.778V112.172C24.1264 111.688 24.2217 111.274 24.4124 110.929C24.6104 110.584 24.8854 110.32 25.2374 110.137C25.5894 109.954 26.0074 109.862 26.4914 109.862C26.9754 109.862 27.3934 109.954 27.7454 110.137C28.0974 110.32 28.3687 110.584 28.5594 110.929C28.7574 111.274 28.8564 111.684 28.8564 112.161V113.778C28.8564 114.255 28.7574 114.669 28.5594 115.021C28.3687 115.366 28.0974 115.63 27.7454 115.813C27.3934 115.996 26.9754 116.088 26.4914 116.088ZM26.4914 115.208C26.9241 115.208 27.2614 115.087 27.5034 114.845C27.7454 114.603 27.8664 114.247 27.8664 113.778V112.172C27.8664 111.703 27.7454 111.347 27.5034 111.105C27.2614 110.863 26.9241 110.742 26.4914 110.742C26.0661 110.742 25.7287 110.863 25.4794 111.105C25.2374 111.347 25.1164 111.703 25.1164 112.172V113.778C25.1164 114.247 25.2374 114.603 25.4794 114.845C25.7287 115.087 26.0661 115.208 26.4914 115.208ZM33.7471 116C33.2264 116 32.8194 115.861 32.5261 115.582C32.2401 115.303 32.0971 114.911 32.0971 114.405V110.852H30.3921V109.95H32.0971V108.245H33.0871V109.95H35.5071V110.852H33.0871V114.405C33.0871 114.867 33.3071 115.098 33.7471 115.098H35.3971V116H33.7471ZM37.3948 116V107.97H38.3848V109.95V111.105H38.5938L38.3848 111.336C38.3848 110.859 38.5278 110.493 38.8138 110.236C39.0998 109.972 39.4958 109.84 40.0018 109.84C40.6105 109.84 41.0945 110.027 41.4538 110.401C41.8131 110.775 41.9928 111.285 41.9928 111.93V116H41.0028V112.04C41.0028 111.607 40.8855 111.274 40.6508 111.039C40.4235 110.797 40.1118 110.676 39.7158 110.676C39.3051 110.676 38.9788 110.804 38.7368 111.061C38.5021 111.318 38.3848 111.681 38.3848 112.15V116H37.3948ZM46.2785 116.11C45.8018 116.11 45.3838 116.015 45.0245 115.824C44.6725 115.633 44.3975 115.366 44.1995 115.021C44.0088 114.669 43.9135 114.262 43.9135 113.8V112.15C43.9135 111.681 44.0088 111.274 44.1995 110.929C44.3975 110.584 44.6725 110.317 45.0245 110.126C45.3838 109.935 45.8018 109.84 46.2785 109.84C46.7552 109.84 47.1695 109.935 47.5215 110.126C47.8808 110.317 48.1558 110.584 48.3465 110.929C48.5445 111.274 48.6435 111.681 48.6435 112.15V113.217H44.8815V113.8C44.8815 114.277 45.0025 114.643 45.2445 114.9C45.4865 115.149 45.8312 115.274 46.2785 115.274C46.6598 115.274 46.9678 115.208 47.2025 115.076C47.4372 114.937 47.5802 114.731 47.6315 114.46H48.6215C48.5555 114.966 48.3062 115.369 47.8735 115.67C47.4482 115.963 46.9165 116.11 46.2785 116.11ZM47.6755 112.557V112.15C47.6755 111.673 47.5545 111.307 47.3125 111.05C47.0778 110.793 46.7332 110.665 46.2785 110.665C45.8312 110.665 45.4865 110.793 45.2445 111.05C45.0025 111.307 44.8815 111.673 44.8815 112.15V112.469H47.7525L47.6755 112.557ZM50.7952 116V109.95H51.7632V111.105H51.9942L51.6752 111.82C51.6752 111.167 51.8146 110.676 52.0932 110.346C52.3792 110.009 52.8009 109.84 53.3582 109.84C53.9962 109.84 54.5022 110.042 54.8762 110.445C55.2576 110.841 55.4482 111.38 55.4482 112.062V112.425H54.4582V112.15C54.4582 111.673 54.3409 111.31 54.1062 111.061C53.8789 110.804 53.5526 110.676 53.1272 110.676C52.7092 110.676 52.3792 110.804 52.1372 111.061C51.9026 111.318 51.7852 111.681 51.7852 112.15V116H50.7952ZM63.7776 117.98V109.95H64.7676V111.105H64.9656L64.7676 111.336C64.7676 110.874 64.918 110.511 65.2186 110.247C65.5266 109.976 65.93 109.84 66.4286 109.84C67.0373 109.84 67.5213 110.042 67.8806 110.445C68.2473 110.841 68.4306 111.387 68.4306 112.084V113.855C68.4306 114.317 68.3463 114.717 68.1776 115.054C68.0163 115.391 67.7853 115.652 67.4846 115.835C67.1913 116.018 66.8393 116.11 66.4286 116.11C65.9373 116.11 65.5376 115.974 65.2296 115.703C64.9216 115.432 64.7676 115.069 64.7676 114.614L64.9656 114.845H64.7456L64.7676 116.22V117.98H63.7776ZM66.0986 115.252C66.5166 115.252 66.843 115.127 67.0776 114.878C67.3196 114.629 67.4406 114.269 67.4406 113.8V112.15C67.4406 111.681 67.3196 111.321 67.0776 111.072C66.843 110.823 66.5166 110.698 66.0986 110.698C65.6953 110.698 65.3726 110.826 65.1306 111.083C64.8886 111.34 64.7676 111.695 64.7676 112.15V113.8C64.7676 114.255 64.8886 114.61 65.1306 114.867C65.3726 115.124 65.6953 115.252 66.0986 115.252ZM72.1333 116.11C71.4953 116.11 70.993 115.949 70.6263 115.626C70.2597 115.296 70.0763 114.852 70.0763 114.295C70.0763 113.73 70.2597 113.287 70.6263 112.964C70.993 112.641 71.488 112.48 72.1113 112.48H73.9813V111.875C73.9813 111.501 73.8677 111.215 73.6403 111.017C73.4203 110.812 73.105 110.709 72.6943 110.709C72.335 110.709 72.0343 110.786 71.7923 110.94C71.5503 111.087 71.411 111.288 71.3743 111.545H70.3843C70.4503 111.024 70.696 110.61 71.1213 110.302C71.5467 109.994 72.0783 109.84 72.7163 109.84C73.413 109.84 73.963 110.02 74.3663 110.379C74.7697 110.738 74.9713 111.226 74.9713 111.842V116H74.0033V114.845H73.8383L74.0033 114.68C74.0033 115.12 73.831 115.468 73.4863 115.725C73.149 115.982 72.698 116.11 72.1333 116.11ZM72.3753 115.329C72.8447 115.329 73.2297 115.212 73.5303 114.977C73.831 114.742 73.9813 114.442 73.9813 114.075V113.217H72.1333C71.8033 113.217 71.543 113.309 71.3523 113.492C71.1617 113.675 71.0663 113.925 71.0663 114.24C71.0663 114.577 71.18 114.845 71.4073 115.043C71.642 115.234 71.9647 115.329 72.3753 115.329ZM77.178 116V109.95H78.146V111.105H78.377L78.058 111.82C78.058 111.167 78.1974 110.676 78.476 110.346C78.762 110.009 79.1837 109.84 79.741 109.84C80.379 109.84 80.885 110.042 81.259 110.445C81.6404 110.841 81.831 111.38 81.831 112.062V112.425H80.841V112.15C80.841 111.673 80.7237 111.31 80.489 111.061C80.2617 110.804 79.9354 110.676 79.51 110.676C79.092 110.676 78.762 110.804 78.52 111.061C78.2854 111.318 78.168 111.681 78.168 112.15V116H77.178ZM85.3247 116.11C84.6867 116.11 84.1844 115.949 83.8177 115.626C83.4511 115.296 83.2677 114.852 83.2677 114.295C83.2677 113.73 83.4511 113.287 83.8177 112.964C84.1844 112.641 84.6794 112.48 85.3027 112.48H87.1727V111.875C87.1727 111.501 87.0591 111.215 86.8317 111.017C86.6117 110.812 86.2964 110.709 85.8857 110.709C85.5264 110.709 85.2257 110.786 84.9837 110.94C84.7417 111.087 84.6024 111.288 84.5657 111.545H83.5757C83.6417 111.024 83.8874 110.61 84.3127 110.302C84.7381 109.994 85.2697 109.84 85.9077 109.84C86.6044 109.84 87.1544 110.02 87.5577 110.379C87.9611 110.738 88.1627 111.226 88.1627 111.842V116H87.1947V114.845H87.0297L87.1947 114.68C87.1947 115.12 87.0224 115.468 86.6777 115.725C86.3404 115.982 85.8894 116.11 85.3247 116.11ZM85.5667 115.329C86.0361 115.329 86.4211 115.212 86.7217 114.977C87.0224 114.742 87.1727 114.442 87.1727 114.075V113.217H85.3247C84.9947 113.217 84.7344 113.309 84.5437 113.492C84.3531 113.675 84.2577 113.925 84.2577 114.24C84.2577 114.577 84.3714 114.845 84.5987 115.043C84.8334 115.234 85.1561 115.329 85.5667 115.329ZM90.9194 117.98V117.078H92.8444C93.1524 117.078 93.3761 117.008 93.5154 116.869C93.6621 116.73 93.7354 116.513 93.7354 116.22V115.45L93.7574 114.35H93.5594L93.7464 114.185C93.7464 114.625 93.5998 114.973 93.3064 115.23C93.0131 115.487 92.6208 115.615 92.1294 115.615C91.5061 115.615 91.0148 115.413 90.6554 115.01C90.2961 114.599 90.1164 114.049 90.1164 113.36V112.084C90.1164 111.395 90.2961 110.848 90.6554 110.445C91.0148 110.042 91.5061 109.84 92.1294 109.84C92.6208 109.84 93.0131 109.968 93.3064 110.225C93.5998 110.482 93.7464 110.83 93.7464 111.27L93.5594 111.105H93.7464V109.95H94.7254V116.22C94.7254 116.763 94.5568 117.192 94.2194 117.507C93.8894 117.822 93.4274 117.98 92.8334 117.98H90.9194ZM92.4264 114.757C92.8371 114.757 93.1598 114.629 93.3944 114.372C93.6291 114.115 93.7464 113.76 93.7464 113.305V112.15C93.7464 111.695 93.6291 111.34 93.3944 111.083C93.1598 110.826 92.8371 110.698 92.4264 110.698C92.0084 110.698 91.6821 110.823 91.4474 111.072C91.2201 111.321 91.1064 111.681 91.1064 112.15V113.305C91.1064 113.774 91.2201 114.134 91.4474 114.383C91.6821 114.632 92.0084 114.757 92.4264 114.757ZM96.9651 116V109.95H97.9331V111.105H98.1641L97.8451 111.82C97.8451 111.167 97.9845 110.676 98.2631 110.346C98.5491 110.009 98.9708 109.84 99.5281 109.84C100.166 109.84 100.672 110.042 101.046 110.445C101.427 110.841 101.618 111.38 101.618 112.062V112.425H100.628V112.15C100.628 111.673 100.511 111.31 100.276 111.061C100.049 110.804 99.7225 110.676 99.2971 110.676C98.8791 110.676 98.5491 110.804 98.3071 111.061C98.0725 111.318 97.9551 111.681 97.9551 112.15V116H96.9651ZM105.112 116.11C104.474 116.11 103.972 115.949 103.605 115.626C103.238 115.296 103.055 114.852 103.055 114.295C103.055 113.73 103.238 113.287 103.605 112.964C103.972 112.641 104.467 112.48 105.09 112.48H106.96V111.875C106.96 111.501 106.846 111.215 106.619 111.017C106.399 110.812 106.084 110.709 105.673 110.709C105.314 110.709 105.013 110.786 104.771 110.94C104.529 111.087 104.39 111.288 104.353 111.545H103.363C103.429 111.024 103.675 110.61 104.1 110.302C104.525 109.994 105.057 109.84 105.695 109.84C106.392 109.84 106.942 110.02 107.345 110.379C107.748 110.738 107.95 111.226 107.95 111.842V116H106.982V114.845H106.817L106.982 114.68C106.982 115.12 106.81 115.468 106.465 115.725C106.128 115.982 105.677 116.11 105.112 116.11ZM105.354 115.329C105.823 115.329 106.208 115.212 106.509 114.977C106.81 114.742 106.96 114.442 106.96 114.075V113.217H105.112C104.782 113.217 104.522 113.309 104.331 113.492C104.14 113.675 104.045 113.925 104.045 114.24C104.045 114.577 104.159 114.845 104.386 115.043C104.621 115.234 104.943 115.329 105.354 115.329ZM109.948 117.98V109.95H110.938V111.105H111.136L110.938 111.336C110.938 110.874 111.088 110.511 111.389 110.247C111.697 109.976 112.1 109.84 112.599 109.84C113.207 109.84 113.691 110.042 114.051 110.445C114.417 110.841 114.601 111.387 114.601 112.084V113.855C114.601 114.317 114.516 114.717 114.348 115.054C114.186 115.391 113.955 115.652 113.655 115.835C113.361 116.018 113.009 116.11 112.599 116.11C112.107 116.11 111.708 115.974 111.4 115.703C111.092 115.432 110.938 115.069 110.938 114.614L111.136 114.845H110.916L110.938 116.22V117.98H109.948ZM112.269 115.252C112.687 115.252 113.013 115.127 113.248 114.878C113.49 114.629 113.611 114.269 113.611 113.8V112.15C113.611 111.681 113.49 111.321 113.248 111.072C113.013 110.823 112.687 110.698 112.269 110.698C111.865 110.698 111.543 110.826 111.301 111.083C111.059 111.34 110.938 111.695 110.938 112.15V113.8C110.938 114.255 111.059 114.61 111.301 114.867C111.543 115.124 111.865 115.252 112.269 115.252ZM116.543 116V107.97H117.533V109.95V111.105H117.742L117.533 111.336C117.533 110.859 117.676 110.493 117.962 110.236C118.248 109.972 118.644 109.84 119.15 109.84C119.759 109.84 120.243 110.027 120.602 110.401C120.962 110.775 121.141 111.285 121.141 111.93V116H120.151V112.04C120.151 111.607 120.034 111.274 119.799 111.039C119.572 110.797 119.26 110.676 118.864 110.676C118.454 110.676 118.127 110.804 117.885 111.061C117.651 111.318 117.533 111.681 117.533 112.15V116H116.543ZM132.067 116.11C131.583 116.11 131.157 116.018 130.791 115.835C130.431 115.652 130.153 115.388 129.955 115.043C129.757 114.691 129.658 114.277 129.658 113.8V112.15C129.658 111.666 129.757 111.252 129.955 110.907C130.153 110.562 130.431 110.298 130.791 110.115C131.157 109.932 131.583 109.84 132.067 109.84C132.763 109.84 133.324 110.027 133.75 110.401C134.175 110.775 134.399 111.285 134.421 111.93H133.431C133.409 111.541 133.277 111.244 133.035 111.039C132.8 110.826 132.477 110.72 132.067 110.72C131.634 110.72 131.289 110.845 131.033 111.094C130.776 111.336 130.648 111.684 130.648 112.139V113.8C130.648 114.255 130.776 114.607 131.033 114.856C131.289 115.105 131.634 115.23 132.067 115.23C132.477 115.23 132.8 115.124 133.035 114.911C133.277 114.698 133.409 114.401 133.431 114.02H134.421C134.399 114.665 134.175 115.175 133.75 115.549C133.324 115.923 132.763 116.11 132.067 116.11ZM138.618 116.088C138.134 116.088 137.716 115.996 137.364 115.813C137.012 115.63 136.737 115.366 136.539 115.021C136.349 114.669 136.253 114.255 136.253 113.778V112.172C136.253 111.688 136.349 111.274 136.539 110.929C136.737 110.584 137.012 110.32 137.364 110.137C137.716 109.954 138.134 109.862 138.618 109.862C139.102 109.862 139.52 109.954 139.872 110.137C140.224 110.32 140.496 110.584 140.686 110.929C140.884 111.274 140.983 111.684 140.983 112.161V113.778C140.983 114.255 140.884 114.669 140.686 115.021C140.496 115.366 140.224 115.63 139.872 115.813C139.52 115.996 139.102 116.088 138.618 116.088ZM138.618 115.208C139.051 115.208 139.388 115.087 139.63 114.845C139.872 114.603 139.993 114.247 139.993 113.778V112.172C139.993 111.703 139.872 111.347 139.63 111.105C139.388 110.863 139.051 110.742 138.618 110.742C138.193 110.742 137.856 110.863 137.606 111.105C137.364 111.347 137.243 111.703 137.243 112.172V113.778C137.243 114.247 137.364 114.603 137.606 114.845C137.856 115.087 138.193 115.208 138.618 115.208ZM142.926 116V109.95H143.916V111.105H144.125L143.916 111.336C143.916 110.859 144.059 110.493 144.345 110.236C144.631 109.972 145.027 109.84 145.533 109.84C146.142 109.84 146.626 110.027 146.985 110.401C147.344 110.775 147.524 111.285 147.524 111.93V116H146.534V112.04C146.534 111.607 146.417 111.277 146.182 111.05C145.955 110.815 145.643 110.698 145.247 110.698C144.836 110.698 144.51 110.823 144.268 111.072C144.033 111.321 143.916 111.681 143.916 112.15V116H142.926ZM152.47 116C151.949 116 151.542 115.861 151.249 115.582C150.963 115.303 150.82 114.911 150.82 114.405V110.852H149.115V109.95H150.82V108.245H151.81V109.95H154.23V110.852H151.81V114.405C151.81 114.867 152.03 115.098 152.47 115.098H154.12V116H152.47ZM157.877 116.11C157.239 116.11 156.737 115.949 156.37 115.626C156.004 115.296 155.82 114.852 155.82 114.295C155.82 113.73 156.004 113.287 156.37 112.964C156.737 112.641 157.232 112.48 157.855 112.48H159.725V111.875C159.725 111.501 159.612 111.215 159.384 111.017C159.164 110.812 158.849 110.709 158.438 110.709C158.079 110.709 157.778 110.786 157.536 110.94C157.294 111.087 157.155 111.288 157.118 111.545H156.128C156.194 111.024 156.44 110.61 156.865 110.302C157.291 109.994 157.822 109.84 158.46 109.84C159.157 109.84 159.707 110.02 160.11 110.379C160.514 110.738 160.715 111.226 160.715 111.842V116H159.747V114.845H159.582L159.747 114.68C159.747 115.12 159.575 115.468 159.23 115.725C158.893 115.982 158.442 116.11 157.877 116.11ZM158.119 115.329C158.589 115.329 158.974 115.212 159.274 114.977C159.575 114.742 159.725 114.442 159.725 114.075V113.217H157.877C157.547 113.217 157.287 113.309 157.096 113.492C156.906 113.675 156.81 113.925 156.81 114.24C156.81 114.577 156.924 114.845 157.151 115.043C157.386 115.234 157.709 115.329 158.119 115.329ZM162.636 116V115.098H164.781V110.852H162.911V109.95H165.771V115.098H167.806V116H162.636ZM165.166 108.861C164.924 108.861 164.734 108.799 164.594 108.674C164.455 108.549 164.385 108.381 164.385 108.168C164.385 107.948 164.455 107.776 164.594 107.651C164.734 107.519 164.924 107.453 165.166 107.453C165.408 107.453 165.599 107.519 165.738 107.651C165.878 107.776 165.947 107.948 165.947 108.168C165.947 108.381 165.878 108.549 165.738 108.674C165.599 108.799 165.408 108.861 165.166 108.861ZM169.309 116V109.95H170.299V111.105H170.508L170.299 111.336C170.299 110.859 170.442 110.493 170.728 110.236C171.014 109.972 171.41 109.84 171.916 109.84C172.525 109.84 173.009 110.027 173.368 110.401C173.727 110.775 173.907 111.285 173.907 111.93V116H172.917V112.04C172.917 111.607 172.8 111.277 172.565 111.05C172.338 110.815 172.026 110.698 171.63 110.698C171.219 110.698 170.893 110.823 170.651 111.072C170.416 111.321 170.299 111.681 170.299 112.15V116H169.309ZM175.828 116V115.098H177.973V110.852H176.103V109.95H178.963V115.098H180.998V116H175.828ZM178.358 108.861C178.116 108.861 177.925 108.799 177.786 108.674C177.646 108.549 177.577 108.381 177.577 108.168C177.577 107.948 177.646 107.776 177.786 107.651C177.925 107.519 178.116 107.453 178.358 107.453C178.6 107.453 178.79 107.519 178.93 107.651C179.069 107.776 179.139 107.948 179.139 108.168C179.139 108.381 179.069 108.549 178.93 108.674C178.79 108.799 178.6 108.861 178.358 108.861ZM182.5 116V109.95H183.49V111.105H183.699L183.49 111.336C183.49 110.859 183.633 110.493 183.919 110.236C184.205 109.972 184.601 109.84 185.107 109.84C185.716 109.84 186.2 110.027 186.559 110.401C186.919 110.775 187.098 111.285 187.098 111.93V116H186.108V112.04C186.108 111.607 185.991 111.277 185.756 111.05C185.529 110.815 185.217 110.698 184.821 110.698C184.411 110.698 184.084 110.823 183.842 111.072C183.608 111.321 183.49 111.681 183.49 112.15V116H182.5ZM189.855 117.98V117.078H191.78C192.088 117.078 192.312 117.008 192.451 116.869C192.598 116.73 192.671 116.513 192.671 116.22V115.45L192.693 114.35H192.495L192.682 114.185C192.682 114.625 192.535 114.973 192.242 115.23C191.949 115.487 191.556 115.615 191.065 115.615C190.442 115.615 189.95 115.413 189.591 115.01C189.232 114.599 189.052 114.049 189.052 113.36V112.084C189.052 111.395 189.232 110.848 189.591 110.445C189.95 110.042 190.442 109.84 191.065 109.84C191.556 109.84 191.949 109.968 192.242 110.225C192.535 110.482 192.682 110.83 192.682 111.27L192.495 111.105H192.682V109.95H193.661V116.22C193.661 116.763 193.492 117.192 193.155 117.507C192.825 117.822 192.363 117.98 191.769 117.98H189.855ZM191.362 114.757C191.773 114.757 192.095 114.629 192.33 114.372C192.565 114.115 192.682 113.76 192.682 113.305V112.15C192.682 111.695 192.565 111.34 192.33 111.083C192.095 110.826 191.773 110.698 191.362 110.698C190.944 110.698 190.618 110.823 190.383 111.072C190.156 111.321 190.042 111.681 190.042 112.15V113.305C190.042 113.774 190.156 114.134 190.383 114.383C190.618 114.632 190.944 114.757 191.362 114.757ZM16.5957 134.21L20.5007 123.87H21.5457L17.6407 134.21H16.5957ZM11.6457 134.21L15.5507 123.87H16.5957L12.6907 134.21H11.6457ZM23.5874 133L23.7304 132.098H25.8754L26.5464 127.852H24.6764L24.8194 126.95H27.6794L26.8654 132.098H28.9004L28.7574 133H23.5874ZM27.3054 125.861C27.0634 125.861 26.8837 125.799 26.7664 125.674C26.6491 125.549 26.6051 125.381 26.6344 125.168C26.6711 124.948 26.7664 124.776 26.9204 124.651C27.0817 124.519 27.2834 124.453 27.5254 124.453C27.7674 124.453 27.9471 124.519 28.0644 124.651C28.1891 124.776 28.2331 124.948 28.1964 125.168C28.1671 125.381 28.0717 125.549 27.9104 125.674C27.7491 125.799 27.5474 125.861 27.3054 125.861ZM33.2631 133C32.7424 133 32.3574 132.861 32.1081 132.582C31.8661 132.303 31.7854 131.911 31.8661 131.405L32.4271 127.852H30.7221L30.8651 126.95H32.5701L32.8341 125.3H33.8241L33.5601 126.95H35.9801L35.8371 127.852H33.4171L32.8561 131.405C32.7828 131.867 32.9661 132.098 33.4061 132.098H35.0561L34.9131 133H33.2631ZM38.8358 133.11C38.2345 133.11 37.7871 132.908 37.4938 132.505C37.2005 132.102 37.1088 131.555 37.2188 130.866L37.4938 129.095C37.5671 128.626 37.7101 128.226 37.9228 127.896C38.1428 127.559 38.4141 127.298 38.7368 127.115C39.0668 126.932 39.4335 126.84 39.8368 126.84C40.3355 126.84 40.7131 126.976 40.9698 127.247C41.2265 127.518 41.3181 127.881 41.2448 128.336L41.0798 128.105H41.2998L41.4648 126.95H42.4548L41.4978 133H40.5078L40.6948 131.845H40.4968L40.7278 131.614C40.6545 132.076 40.4455 132.443 40.1008 132.714C39.7561 132.978 39.3345 133.11 38.8358 133.11ZM39.3088 132.252C39.7195 132.252 40.0605 132.124 40.3318 131.867C40.6105 131.61 40.7865 131.255 40.8598 130.8L41.1128 129.15C41.1935 128.695 41.1348 128.34 40.9368 128.083C40.7388 127.826 40.4345 127.698 40.0238 127.698C39.6058 127.698 39.2611 127.823 38.9898 128.072C38.7258 128.321 38.5535 128.681 38.4728 129.15L38.2198 130.8C38.1465 131.269 38.2051 131.629 38.3958 131.878C38.5865 132.127 38.8908 132.252 39.3088 132.252ZM46.5095 133C45.9742 133 45.5708 132.846 45.2995 132.538C45.0355 132.223 44.9438 131.808 45.0245 131.295L45.8825 125.872H44.0675L44.2105 124.97H47.0155L46.0145 131.295C45.9778 131.544 46.0145 131.742 46.1245 131.889C46.2418 132.028 46.4178 132.098 46.6525 132.098H48.6875L48.5445 133H46.5095ZM49.9702 133L50.1132 132.098H52.2582L52.9292 127.852H51.0592L51.2022 126.95H54.0622L53.2482 132.098H55.2832L55.1402 133H49.9702ZM53.6882 125.861C53.4462 125.861 53.2666 125.799 53.1492 125.674C53.0319 125.549 52.9879 125.381 53.0172 125.168C53.0539 124.948 53.1492 124.776 53.3032 124.651C53.4646 124.519 53.6662 124.453 53.9082 124.453C54.1502 124.453 54.3299 124.519 54.4472 124.651C54.5719 124.776 54.6159 124.948 54.5792 125.168C54.5499 125.381 54.4546 125.549 54.2932 125.674C54.1319 125.799 53.9302 125.861 53.6882 125.861ZM59.0079 133.11C58.5239 133.11 58.1169 133.018 57.7869 132.835C57.4643 132.652 57.2333 132.388 57.0939 132.043C56.9619 131.691 56.9326 131.277 57.0059 130.8L57.2589 129.15C57.3396 128.666 57.5009 128.252 57.7429 127.907C57.9923 127.562 58.3113 127.298 58.6999 127.115C59.0886 126.932 59.5249 126.84 60.0089 126.84C60.7056 126.84 61.2373 127.027 61.6039 127.401C61.9706 127.775 62.1136 128.285 62.0329 128.93H61.0429C61.0796 128.541 60.9953 128.244 60.7899 128.039C60.5846 127.826 60.2766 127.72 59.8659 127.72C59.4333 127.72 59.0739 127.845 58.7879 128.094C58.5093 128.336 58.3333 128.684 58.2599 129.139L57.9959 130.8C57.9226 131.255 57.9886 131.607 58.1939 131.856C58.3993 132.105 58.7183 132.23 59.1509 132.23C59.5616 132.23 59.9026 132.124 60.1739 131.911C60.4453 131.698 60.6249 131.401 60.7129 131.02H61.7029C61.5783 131.665 61.2703 132.175 60.7789 132.549C60.2949 132.923 59.7046 133.11 59.0079 133.11ZM72.8373 133C72.3167 133 71.9317 132.861 71.6823 132.582C71.4403 132.303 71.3597 131.911 71.4403 131.405L72.0013 127.852H70.2963L70.4393 126.95H72.1443L72.4083 125.3H73.3983L73.1343 126.95H75.5543L75.4113 127.852H72.9913L72.4303 131.405C72.357 131.867 72.5403 132.098 72.9803 132.098H74.6303L74.4873 133H72.8373ZM78.751 133.11C78.2744 133.11 77.8784 133.015 77.563 132.824C77.2477 132.633 77.0204 132.366 76.881 132.021C76.749 131.669 76.7197 131.262 76.793 130.8L77.046 129.15C77.1267 128.681 77.288 128.274 77.53 127.929C77.7794 127.584 78.091 127.317 78.465 127.126C78.8464 126.935 79.2754 126.84 79.752 126.84C80.2287 126.84 80.6247 126.935 80.94 127.126C81.2627 127.317 81.49 127.584 81.622 127.929C81.7614 128.274 81.7907 128.681 81.71 129.15L81.545 130.217H77.849L77.761 130.8C77.6877 131.277 77.7427 131.643 77.926 131.9C78.1167 132.149 78.4357 132.274 78.883 132.274C79.2644 132.274 79.576 132.208 79.818 132.076C80.0674 131.937 80.2397 131.731 80.335 131.46H81.325C81.2297 131.797 81.061 132.091 80.819 132.34C80.577 132.582 80.2764 132.773 79.917 132.912C79.565 133.044 79.1764 133.11 78.751 133.11ZM80.687 129.557L80.742 129.15C80.8227 128.673 80.7677 128.307 80.577 128.05C80.3937 127.793 80.0747 127.665 79.62 127.665C79.1727 127.665 78.8134 127.793 78.542 128.05C78.2707 128.307 78.0947 128.673 78.014 129.15L77.97 129.469H80.775L80.687 129.557ZM82.6737 133L85.2587 129.854L83.7627 126.95H84.9067L85.7647 128.82C85.8014 128.901 85.8381 128.989 85.8747 129.084C85.9187 129.179 85.9481 129.256 85.9627 129.315C85.9994 129.256 86.0471 129.179 86.1057 129.084C86.1644 128.989 86.2231 128.901 86.2817 128.82L87.7227 126.95H88.8997L86.4797 129.931L88.0637 133H86.9197L85.9847 131.02C85.9481 130.939 85.9077 130.848 85.8637 130.745C85.8271 130.635 85.7977 130.547 85.7757 130.481C85.7317 130.547 85.6767 130.635 85.6107 130.745C85.5447 130.848 85.4787 130.939 85.4127 131.02L83.8507 133H82.6737ZM92.6244 133C92.1038 133 91.7188 132.861 91.4694 132.582C91.2274 132.303 91.1468 131.911 91.2274 131.405L91.7884 127.852H90.0834L90.2264 126.95H91.9314L92.1954 125.3H93.1854L92.9214 126.95H95.3414L95.1984 127.852H92.7784L92.2174 131.405C92.1441 131.867 92.3274 132.098 92.7674 132.098H94.4174L94.2744 133H92.6244ZM102.34 134.21L106.245 123.87H107.29L103.385 134.21H102.34ZM97.3898 134.21L101.295 123.87H102.34L98.4348 134.21H97.3898ZM118.303 133.11C117.665 133.11 117.163 132.949 116.796 132.626C116.43 132.296 116.246 131.852 116.246 131.295C116.246 130.73 116.43 130.287 116.796 129.964C117.163 129.641 117.658 129.48 118.281 129.48H120.151V128.875C120.151 128.501 120.038 128.215 119.81 128.017C119.59 127.812 119.275 127.709 118.864 127.709C118.505 127.709 118.204 127.786 117.962 127.94C117.72 128.087 117.581 128.288 117.544 128.545H116.554C116.62 128.024 116.866 127.61 117.291 127.302C117.717 126.994 118.248 126.84 118.886 126.84C119.583 126.84 120.133 127.02 120.536 127.379C120.94 127.738 121.141 128.226 121.141 128.842V133H120.173V131.845H120.008L120.173 131.68C120.173 132.12 120.001 132.468 119.656 132.725C119.319 132.982 118.868 133.11 118.303 133.11ZM118.545 132.329C119.015 132.329 119.4 132.212 119.7 131.977C120.001 131.742 120.151 131.442 120.151 131.075V130.217H118.303C117.973 130.217 117.713 130.309 117.522 130.492C117.332 130.675 117.236 130.925 117.236 131.24C117.236 131.577 117.35 131.845 117.577 132.043C117.812 132.234 118.135 132.329 118.545 132.329ZM123.139 133V126.95H124.129V128.105H124.338L124.129 128.336C124.129 127.859 124.272 127.493 124.558 127.236C124.844 126.972 125.24 126.84 125.746 126.84C126.355 126.84 126.839 127.027 127.198 127.401C127.557 127.775 127.737 128.285 127.737 128.93V133H126.747V129.04C126.747 128.607 126.63 128.277 126.395 128.05C126.168 127.815 125.856 127.698 125.46 127.698C125.049 127.698 124.723 127.823 124.481 128.072C124.246 128.321 124.129 128.681 124.129 129.15V133H123.139ZM131.671 133.11C131.069 133.11 130.582 132.908 130.208 132.505C129.841 132.102 129.658 131.555 129.658 130.866V129.095C129.658 128.398 129.841 127.848 130.208 127.445C130.574 127.042 131.062 126.84 131.671 126.84C132.169 126.84 132.569 126.976 132.87 127.247C133.17 127.518 133.321 127.881 133.321 128.336L133.123 128.105H133.343L133.321 126.73V124.97H134.311V133H133.321V131.845H133.123L133.321 131.614C133.321 132.076 133.17 132.443 132.87 132.714C132.569 132.978 132.169 133.11 131.671 133.11ZM132.001 132.252C132.411 132.252 132.734 132.124 132.969 131.867C133.203 131.61 133.321 131.255 133.321 130.8V129.15C133.321 128.695 133.203 128.34 132.969 128.083C132.734 127.826 132.411 127.698 132.001 127.698C131.583 127.698 131.253 127.823 131.011 128.072C130.769 128.321 130.648 128.681 130.648 129.15V130.8C130.648 131.269 130.769 131.629 131.011 131.878C131.253 132.127 131.583 132.252 132.001 132.252ZM144.686 133.11C144.048 133.11 143.546 132.949 143.179 132.626C142.812 132.296 142.629 131.852 142.629 131.295C142.629 130.73 142.812 130.287 143.179 129.964C143.546 129.641 144.041 129.48 144.664 129.48H146.534V128.875C146.534 128.501 146.42 128.215 146.193 128.017C145.973 127.812 145.658 127.709 145.247 127.709C144.888 127.709 144.587 127.786 144.345 127.94C144.103 128.087 143.964 128.288 143.927 128.545H142.937C143.003 128.024 143.249 127.61 143.674 127.302C144.099 126.994 144.631 126.84 145.269 126.84C145.966 126.84 146.516 127.02 146.919 127.379C147.322 127.738 147.524 128.226 147.524 128.842V133H146.556V131.845H146.391L146.556 131.68C146.556 132.12 146.384 132.468 146.039 132.725C145.702 132.982 145.251 133.11 144.686 133.11ZM144.928 132.329C145.397 132.329 145.782 132.212 146.083 131.977C146.384 131.742 146.534 131.442 146.534 131.075V130.217H144.686C144.356 130.217 144.096 130.309 143.905 130.492C143.714 130.675 143.619 130.925 143.619 131.24C143.619 131.577 143.733 131.845 143.96 132.043C144.195 132.234 144.517 132.329 144.928 132.329ZM159.23 133C158.878 133 158.57 132.93 158.306 132.791C158.042 132.652 157.837 132.454 157.69 132.197C157.544 131.94 157.47 131.64 157.47 131.295V125.872H155.435V124.97H158.46V131.295C158.46 131.544 158.53 131.742 158.669 131.889C158.809 132.028 158.996 132.098 159.23 132.098H161.155V133H159.23ZM162.636 133V132.098H164.781V127.852H162.911V126.95H165.771V132.098H167.806V133H162.636ZM165.166 125.861C164.924 125.861 164.734 125.799 164.594 125.674C164.455 125.549 164.385 125.381 164.385 125.168C164.385 124.948 164.455 124.776 164.594 124.651C164.734 124.519 164.924 124.453 165.166 124.453C165.408 124.453 165.599 124.519 165.738 124.651C165.878 124.776 165.947 124.948 165.947 125.168C165.947 125.381 165.878 125.549 165.738 125.674C165.599 125.799 165.408 125.861 165.166 125.861ZM169.309 133V126.95H170.299V128.105H170.508L170.299 128.336C170.299 127.859 170.442 127.493 170.728 127.236C171.014 126.972 171.41 126.84 171.916 126.84C172.525 126.84 173.009 127.027 173.368 127.401C173.727 127.775 173.907 128.285 173.907 128.93V133H172.917V129.04C172.917 128.607 172.8 128.277 172.565 128.05C172.338 127.815 172.026 127.698 171.63 127.698C171.219 127.698 170.893 127.823 170.651 128.072C170.416 128.321 170.299 128.681 170.299 129.15V133H169.309ZM175.938 133V124.97H176.928V129.447H178.094L179.854 126.95H180.987L178.952 129.832L181.02 133H179.865L178.105 130.305H176.928V133H175.938ZM192.044 133C191.523 133 191.116 132.861 190.823 132.582C190.537 132.303 190.394 131.911 190.394 131.405V127.852H188.689V126.95H190.394V125.245H191.384V126.95H193.804V127.852H191.384V131.405C191.384 131.867 191.604 132.098 192.044 132.098H193.694V133H192.044ZM197.98 133.088C197.496 133.088 197.078 132.996 196.726 132.813C196.374 132.63 196.099 132.366 195.901 132.021C195.71 131.669 195.615 131.255 195.615 130.778V129.172C195.615 128.688 195.71 128.274 195.901 127.929C196.099 127.584 196.374 127.32 196.726 127.137C197.078 126.954 197.496 126.862 197.98 126.862C198.464 126.862 198.882 126.954 199.234 127.137C199.586 127.32 199.857 127.584 200.048 127.929C200.246 128.274 200.345 128.684 200.345 129.161V130.778C200.345 131.255 200.246 131.669 200.048 132.021C199.857 132.366 199.586 132.63 199.234 132.813C198.882 132.996 198.464 133.088 197.98 133.088ZM197.98 132.208C198.412 132.208 198.75 132.087 198.992 131.845C199.234 131.603 199.355 131.247 199.355 130.778V129.172C199.355 128.703 199.234 128.347 198.992 128.105C198.75 127.863 198.412 127.742 197.98 127.742C197.554 127.742 197.217 127.863 196.968 128.105C196.726 128.347 196.605 128.703 196.605 129.172V130.778C196.605 131.247 196.726 131.603 196.968 131.845C197.217 132.087 197.554 132.208 197.98 132.208ZM12.255 151.21V140.87H14.95V141.75H13.245V150.33H14.95V151.21H12.255ZM20.7207 150C20.3687 150 20.0607 149.93 19.7967 149.791C19.5327 149.652 19.3274 149.454 19.1807 149.197C19.034 148.94 18.9607 148.64 18.9607 148.295V142.872H16.9257V141.97H19.9507V148.295C19.9507 148.544 20.0204 148.742 20.1597 148.889C20.299 149.028 20.486 149.098 20.7207 149.098H22.6457V150H20.7207ZM24.1264 150V149.098H26.2714V144.852H24.4014V143.95H27.2614V149.098H29.2964V150H24.1264ZM26.6564 142.861C26.4144 142.861 26.2237 142.799 26.0844 142.674C25.9451 142.549 25.8754 142.381 25.8754 142.168C25.8754 141.948 25.9451 141.776 26.0844 141.651C26.2237 141.519 26.4144 141.453 26.6564 141.453C26.8984 141.453 27.0891 141.519 27.2284 141.651C27.3677 141.776 27.4374 141.948 27.4374 142.168C27.4374 142.381 27.3677 142.549 27.2284 142.674C27.0891 142.799 26.8984 142.861 26.6564 142.861ZM30.7991 150V143.95H31.7891V145.105H31.9981L31.7891 145.336C31.7891 144.859 31.9321 144.493 32.2181 144.236C32.5041 143.972 32.9001 143.84 33.4061 143.84C34.0148 143.84 34.4988 144.027 34.8581 144.401C35.2174 144.775 35.3971 145.285 35.3971 145.93V150H34.4071V146.04C34.4071 145.607 34.2898 145.277 34.0551 145.05C33.8278 144.815 33.5161 144.698 33.1201 144.698C32.7094 144.698 32.3831 144.823 32.1411 145.072C31.9064 145.321 31.7891 145.681 31.7891 146.15V150H30.7991ZM37.4278 150V141.97H38.4178V146.447H39.5838L41.3438 143.95H42.4768L40.4418 146.832L42.5098 150H41.3548L39.5948 147.305H38.4178V150H37.4278ZM50.4102 150V141.97H51.7082L52.5442 144.566C52.6249 144.801 52.6982 145.035 52.7642 145.27C52.8302 145.497 52.8779 145.673 52.9072 145.798C52.9439 145.673 52.9916 145.497 53.0502 145.27C53.1089 145.035 53.1749 144.797 53.2482 144.555L54.0402 141.97H55.3382V150H54.3702V147.085C54.3702 146.762 54.3812 146.396 54.4032 145.985C54.4252 145.574 54.4546 145.156 54.4912 144.731C54.5279 144.298 54.5646 143.888 54.6012 143.499C54.6452 143.103 54.6819 142.758 54.7112 142.465L53.4132 146.48H52.3682L51.0592 142.465C51.0959 142.751 51.1326 143.085 51.1692 143.466C51.2059 143.84 51.2389 144.24 51.2682 144.665C51.2976 145.083 51.3232 145.501 51.3452 145.919C51.3672 146.337 51.3782 146.726 51.3782 147.085V150H50.4102ZM59.4699 150.088C58.9859 150.088 58.5679 149.996 58.2159 149.813C57.8639 149.63 57.5889 149.366 57.3909 149.021C57.2003 148.669 57.1049 148.255 57.1049 147.778V146.172C57.1049 145.688 57.2003 145.274 57.3909 144.929C57.5889 144.584 57.8639 144.32 58.2159 144.137C58.5679 143.954 58.9859 143.862 59.4699 143.862C59.9539 143.862 60.3719 143.954 60.7239 144.137C61.0759 144.32 61.3473 144.584 61.5379 144.929C61.7359 145.274 61.8349 145.684 61.8349 146.161V147.778C61.8349 148.255 61.7359 148.669 61.5379 149.021C61.3473 149.366 61.0759 149.63 60.7239 149.813C60.3719 149.996 59.9539 150.088 59.4699 150.088ZM59.4699 149.208C59.9026 149.208 60.2399 149.087 60.4819 148.845C60.7239 148.603 60.8449 148.247 60.8449 147.778V146.172C60.8449 145.703 60.7239 145.347 60.4819 145.105C60.2399 144.863 59.9026 144.742 59.4699 144.742C59.0446 144.742 58.7073 144.863 58.4579 145.105C58.2159 145.347 58.0949 145.703 58.0949 146.172V147.778C58.0949 148.247 58.2159 148.603 58.4579 148.845C58.7073 149.087 59.0446 149.208 59.4699 149.208ZM65.7136 150.11C65.1123 150.11 64.6246 149.908 64.2506 149.505C63.884 149.102 63.7006 148.555 63.7006 147.866V146.095C63.7006 145.398 63.884 144.848 64.2506 144.445C64.6173 144.042 65.105 143.84 65.7136 143.84C66.2123 143.84 66.612 143.976 66.9126 144.247C67.2133 144.518 67.3636 144.881 67.3636 145.336L67.1656 145.105H67.3856L67.3636 143.73V141.97H68.3536V150H67.3636V148.845H67.1656L67.3636 148.614C67.3636 149.076 67.2133 149.443 66.9126 149.714C66.612 149.978 66.2123 150.11 65.7136 150.11ZM66.0436 149.252C66.4543 149.252 66.777 149.124 67.0116 148.867C67.2463 148.61 67.3636 148.255 67.3636 147.8V146.15C67.3636 145.695 67.2463 145.34 67.0116 145.083C66.777 144.826 66.4543 144.698 66.0436 144.698C65.6256 144.698 65.2956 144.823 65.0536 145.072C64.8116 145.321 64.6906 145.681 64.6906 146.15V147.8C64.6906 148.269 64.8116 148.629 65.0536 148.878C65.2956 149.127 65.6256 149.252 66.0436 149.252ZM70.1973 150V141.97H71.4953L72.3313 144.566C72.412 144.801 72.4853 145.035 72.5513 145.27C72.6173 145.497 72.665 145.673 72.6943 145.798C72.731 145.673 72.7787 145.497 72.8373 145.27C72.896 145.035 72.962 144.797 73.0353 144.555L73.8273 141.97H75.1253V150H74.1573V147.085C74.1573 146.762 74.1683 146.396 74.1903 145.985C74.2123 145.574 74.2417 145.156 74.2783 144.731C74.315 144.298 74.3517 143.888 74.3883 143.499C74.4323 143.103 74.469 142.758 74.4983 142.465L73.2003 146.48H72.1553L70.8463 142.465C70.883 142.751 70.9197 143.085 70.9563 143.466C70.993 143.84 71.026 144.24 71.0553 144.665C71.0847 145.083 71.1103 145.501 71.1323 145.919C71.1543 146.337 71.1653 146.726 71.1653 147.085V150H70.1973ZM78.729 150.11C78.091 150.11 77.5887 149.949 77.222 149.626C76.8554 149.296 76.672 148.852 76.672 148.295C76.672 147.73 76.8554 147.287 77.222 146.964C77.5887 146.641 78.0837 146.48 78.707 146.48H80.577V145.875C80.577 145.501 80.4634 145.215 80.236 145.017C80.016 144.812 79.7007 144.709 79.29 144.709C78.9307 144.709 78.63 144.786 78.388 144.94C78.146 145.087 78.0067 145.288 77.97 145.545H76.98C77.046 145.024 77.2917 144.61 77.717 144.302C78.1424 143.994 78.674 143.84 79.312 143.84C80.0087 143.84 80.5587 144.02 80.962 144.379C81.3654 144.738 81.567 145.226 81.567 145.842V150H80.599V148.845H80.434L80.599 148.68C80.599 149.12 80.4267 149.468 80.082 149.725C79.7447 149.982 79.2937 150.11 78.729 150.11ZM78.971 149.329C79.4404 149.329 79.8254 149.212 80.126 148.977C80.4267 148.742 80.577 148.442 80.577 148.075V147.217H78.729C78.399 147.217 78.1387 147.309 77.948 147.492C77.7574 147.675 77.662 147.925 77.662 148.24C77.662 148.577 77.7757 148.845 78.003 149.043C78.2377 149.234 78.5604 149.329 78.971 149.329ZM83.7737 150V143.95H84.7417V145.105H84.9727L84.6537 145.82C84.6537 145.167 84.7931 144.676 85.0717 144.346C85.3577 144.009 85.7794 143.84 86.3367 143.84C86.9747 143.84 87.4807 144.042 87.8547 144.445C88.2361 144.841 88.4267 145.38 88.4267 146.062V146.425H87.4367V146.15C87.4367 145.673 87.3194 145.31 87.0847 145.061C86.8574 144.804 86.5311 144.676 86.1057 144.676C85.6877 144.676 85.3577 144.804 85.1157 145.061C84.8811 145.318 84.7637 145.681 84.7637 146.15V150H83.7737ZM90.1934 150V141.97H91.1834V146.447H92.3494L94.1094 143.95H95.2424L93.2074 146.832L95.2754 150H94.1204L92.3604 147.305H91.1834V150H90.1934ZM97.3941 151.21V150.33H99.0991V141.75H97.3941V140.87H100.089V151.21H97.3941ZM109.948 150V141.97H110.938V143.95V145.105H111.147L110.938 145.336C110.938 144.859 111.081 144.493 111.367 144.236C111.653 143.972 112.049 143.84 112.555 143.84C113.163 143.84 113.647 144.027 114.007 144.401C114.366 144.775 114.546 145.285 114.546 145.93V150H113.556V146.04C113.556 145.607 113.438 145.274 113.204 145.039C112.976 144.797 112.665 144.676 112.269 144.676C111.858 144.676 111.532 144.804 111.29 145.061C111.055 145.318 110.938 145.681 110.938 146.15V150H109.948ZM119.491 150C118.971 150 118.564 149.861 118.27 149.582C117.984 149.303 117.841 148.911 117.841 148.405V144.852H116.136V143.95H117.841V142.245H118.831V143.95H121.251V144.852H118.831V148.405C118.831 148.867 119.051 149.098 119.491 149.098H121.141V150H119.491ZM126.087 150C125.566 150 125.159 149.861 124.866 149.582C124.58 149.303 124.437 148.911 124.437 148.405V144.852H122.732V143.95H124.437V142.245H125.427V143.95H127.847V144.852H125.427V148.405C125.427 148.867 125.647 149.098 126.087 149.098H127.737V150H126.087ZM129.735 151.98V143.95H130.725V145.105H130.923L130.725 145.336C130.725 144.874 130.875 144.511 131.176 144.247C131.484 143.976 131.887 143.84 132.386 143.84C132.994 143.84 133.478 144.042 133.838 144.445C134.204 144.841 134.388 145.387 134.388 146.084V147.855C134.388 148.317 134.303 148.717 134.135 149.054C133.973 149.391 133.742 149.652 133.442 149.835C133.148 150.018 132.796 150.11 132.386 150.11C131.894 150.11 131.495 149.974 131.187 149.703C130.879 149.432 130.725 149.069 130.725 148.614L130.923 148.845H130.703L130.725 150.22V151.98H129.735ZM132.056 149.252C132.474 149.252 132.8 149.127 133.035 148.878C133.277 148.629 133.398 148.269 133.398 147.8V146.15C133.398 145.681 133.277 145.321 133.035 145.072C132.8 144.823 132.474 144.698 132.056 144.698C131.652 144.698 131.33 144.826 131.088 145.083C130.846 145.34 130.725 145.695 130.725 146.15V147.8C130.725 148.255 130.846 148.61 131.088 148.867C131.33 149.124 131.652 149.252 132.056 149.252ZM138.431 150.088C138.021 150.088 137.661 150.026 137.353 149.901C137.053 149.769 136.811 149.586 136.627 149.351C136.451 149.116 136.345 148.838 136.308 148.515H137.298C137.342 148.728 137.46 148.896 137.65 149.021C137.848 149.146 138.109 149.208 138.431 149.208H138.893C139.282 149.208 139.572 149.131 139.762 148.977C139.953 148.816 140.048 148.603 140.048 148.339C140.048 148.082 139.96 147.881 139.784 147.734C139.616 147.58 139.363 147.477 139.025 147.426L138.211 147.294C137.617 147.191 137.174 147.008 136.88 146.744C136.594 146.473 136.451 146.08 136.451 145.567C136.451 145.024 136.624 144.606 136.968 144.313C137.313 144.012 137.83 143.862 138.519 143.862H138.937C139.517 143.862 139.982 143.998 140.334 144.269C140.686 144.54 140.899 144.907 140.972 145.369H139.982C139.938 145.178 139.828 145.028 139.652 144.918C139.476 144.801 139.238 144.742 138.937 144.742H138.519C138.145 144.742 137.87 144.812 137.694 144.951C137.526 145.09 137.441 145.299 137.441 145.578C137.441 145.827 137.515 146.011 137.661 146.128C137.808 146.245 138.039 146.33 138.354 146.381L139.168 146.513C139.821 146.616 140.294 146.806 140.587 147.085C140.888 147.364 141.038 147.767 141.038 148.295C141.038 148.852 140.859 149.292 140.499 149.615C140.147 149.93 139.612 150.088 138.893 150.088H138.431ZM145.214 145.49C144.943 145.49 144.723 145.417 144.554 145.27C144.385 145.116 144.301 144.914 144.301 144.665C144.301 144.416 144.385 144.218 144.554 144.071C144.723 143.917 144.943 143.84 145.214 143.84C145.493 143.84 145.713 143.917 145.874 144.071C146.043 144.218 146.127 144.416 146.127 144.665C146.127 144.914 146.043 145.116 145.874 145.27C145.713 145.417 145.493 145.49 145.214 145.49ZM145.214 150.11C144.943 150.11 144.723 150.037 144.554 149.89C144.385 149.736 144.301 149.534 144.301 149.285C144.301 149.036 144.385 148.838 144.554 148.691C144.723 148.537 144.943 148.46 145.214 148.46C145.493 148.46 145.713 148.537 145.874 148.691C146.043 148.838 146.127 149.036 146.127 149.285C146.127 149.534 146.043 149.736 145.874 149.89C145.713 150.037 145.493 150.11 145.214 150.11ZM155.105 151.21L159.01 140.87H160.055L156.15 151.21H155.105ZM150.155 151.21L154.06 140.87H155.105L151.2 151.21H150.155ZM163.054 150L162.086 143.95H162.966L163.571 148.24C163.593 148.401 163.615 148.577 163.637 148.768C163.667 148.951 163.689 149.105 163.703 149.23C163.718 149.105 163.74 148.951 163.769 148.768C163.806 148.577 163.835 148.401 163.857 148.24L164.528 143.95H165.474L166.145 148.24C166.167 148.401 166.193 148.577 166.222 148.768C166.259 148.951 166.285 149.105 166.299 149.23C166.314 149.105 166.336 148.951 166.365 148.768C166.402 148.577 166.431 148.401 166.453 148.24L167.08 143.95H167.916L166.904 150H165.815L165.166 145.82C165.137 145.615 165.104 145.409 165.067 145.204C165.031 144.999 165.005 144.837 164.99 144.72C164.976 144.837 164.954 144.999 164.924 145.204C164.895 145.409 164.862 145.615 164.825 145.82L164.143 150H163.054ZM169.65 150L168.682 143.95H169.562L170.167 148.24C170.189 148.401 170.211 148.577 170.233 148.768C170.262 148.951 170.284 149.105 170.299 149.23C170.314 149.105 170.336 148.951 170.365 148.768C170.402 148.577 170.431 148.401 170.453 148.24L171.124 143.95H172.07L172.741 148.24C172.763 148.401 172.789 148.577 172.818 148.768C172.855 148.951 172.88 149.105 172.895 149.23C172.91 149.105 172.932 148.951 172.961 148.768C172.998 148.577 173.027 148.401 173.049 148.24L173.676 143.95H174.512L173.5 150H172.411L171.762 145.82C171.733 145.615 171.7 145.409 171.663 145.204C171.626 144.999 171.601 144.837 171.586 144.72C171.571 144.837 171.549 144.999 171.52 145.204C171.491 145.409 171.458 145.615 171.421 145.82L170.739 150H169.65ZM176.246 150L175.278 143.95H176.158L176.763 148.24C176.785 148.401 176.807 148.577 176.829 148.768C176.858 148.951 176.88 149.105 176.895 149.23C176.909 149.105 176.931 148.951 176.961 148.768C176.997 148.577 177.027 148.401 177.049 148.24L177.72 143.95H178.666L179.337 148.24C179.359 148.401 179.384 148.577 179.414 148.768C179.45 148.951 179.476 149.105 179.491 149.23C179.505 149.105 179.527 148.951 179.557 148.768C179.593 148.577 179.623 148.401 179.645 148.24L180.272 143.95H181.108L180.096 150H179.007L178.358 145.82C178.328 145.615 178.295 145.409 178.259 145.204C178.222 144.999 178.196 144.837 178.182 144.72C178.167 144.837 178.145 144.999 178.116 145.204C178.086 145.409 178.053 145.615 178.017 145.82L177.335 150H176.246ZM184.788 150.11C184.51 150.11 184.286 150.029 184.117 149.868C183.956 149.707 183.875 149.49 183.875 149.219C183.875 148.933 183.956 148.706 184.117 148.537C184.286 148.368 184.51 148.284 184.788 148.284C185.067 148.284 185.287 148.368 185.448 148.537C185.617 148.706 185.701 148.933 185.701 149.219C185.701 149.49 185.617 149.707 185.448 149.868C185.287 150.029 185.067 150.11 184.788 150.11ZM188.81 150V143.95H189.679V144.676H189.877L189.723 144.94C189.723 144.603 189.811 144.335 189.987 144.137C190.17 143.939 190.416 143.84 190.724 143.84C191.061 143.84 191.322 143.965 191.505 144.214C191.688 144.463 191.78 144.815 191.78 145.27L191.483 144.676H191.945L191.736 144.94C191.736 144.603 191.828 144.335 192.011 144.137C192.202 143.939 192.451 143.84 192.759 143.84C193.14 143.84 193.434 143.983 193.639 144.269C193.852 144.555 193.958 144.933 193.958 145.402V150H193.045V145.391C193.045 145.142 192.99 144.947 192.88 144.808C192.777 144.669 192.623 144.599 192.418 144.599C192.22 144.599 192.062 144.669 191.945 144.808C191.835 144.94 191.78 145.131 191.78 145.38V150H190.988V145.391C190.988 145.134 190.929 144.94 190.812 144.808C190.702 144.669 190.544 144.599 190.339 144.599C190.134 144.599 189.98 144.669 189.877 144.808C189.774 144.94 189.723 145.131 189.723 145.38V150H188.81ZM197.98 150.088C197.496 150.088 197.078 149.996 196.726 149.813C196.374 149.63 196.099 149.366 195.901 149.021C195.71 148.669 195.615 148.255 195.615 147.778V146.172C195.615 145.688 195.71 145.274 195.901 144.929C196.099 144.584 196.374 144.32 196.726 144.137C197.078 143.954 197.496 143.862 197.98 143.862C198.464 143.862 198.882 143.954 199.234 144.137C199.586 144.32 199.857 144.584 200.048 144.929C200.246 145.274 200.345 145.684 200.345 146.161V147.778C200.345 148.255 200.246 148.669 200.048 149.021C199.857 149.366 199.586 149.63 199.234 149.813C198.882 149.996 198.464 150.088 197.98 150.088ZM197.98 149.208C198.412 149.208 198.75 149.087 198.992 148.845C199.234 148.603 199.355 148.247 199.355 147.778V146.172C199.355 145.703 199.234 145.347 198.992 145.105C198.75 144.863 198.412 144.742 197.98 144.742C197.554 144.742 197.217 144.863 196.968 145.105C196.726 145.347 196.605 145.703 196.605 146.172V147.778C196.605 148.247 196.726 148.603 196.968 148.845C197.217 149.087 197.554 149.208 197.98 149.208ZM204.223 150.11C203.622 150.11 203.134 149.908 202.76 149.505C202.394 149.102 202.21 148.555 202.21 147.866V146.095C202.21 145.398 202.394 144.848 202.76 144.445C203.127 144.042 203.615 143.84 204.223 143.84C204.722 143.84 205.122 143.976 205.422 144.247C205.723 144.518 205.873 144.881 205.873 145.336L205.675 145.105H205.895L205.873 143.73V141.97H206.863V150H205.873V148.845H205.675L205.873 148.614C205.873 149.076 205.723 149.443 205.422 149.714C205.122 149.978 204.722 150.11 204.223 150.11ZM204.553 149.252C204.964 149.252 205.287 149.124 205.521 148.867C205.756 148.61 205.873 148.255 205.873 147.8V146.15C205.873 145.695 205.756 145.34 205.521 145.083C205.287 144.826 204.964 144.698 204.553 144.698C204.135 144.698 203.805 144.823 203.563 145.072C203.321 145.321 203.2 145.681 203.2 146.15V147.8C203.2 148.269 203.321 148.629 203.563 148.878C203.805 149.127 204.135 149.252 204.553 149.252ZM208.597 150V143.95H209.466V144.676H209.664L209.51 144.94C209.51 144.603 209.598 144.335 209.774 144.137C209.957 143.939 210.203 143.84 210.511 143.84C210.848 143.84 211.109 143.965 211.292 144.214C211.475 144.463 211.567 144.815 211.567 145.27L211.27 144.676H211.732L211.523 144.94C211.523 144.603 211.615 144.335 211.798 144.137C211.989 143.939 212.238 143.84 212.546 143.84C212.927 143.84 213.221 143.983 213.426 144.269C213.639 144.555 213.745 144.933 213.745 145.402V150H212.832V145.391C212.832 145.142 212.777 144.947 212.667 144.808C212.564 144.669 212.41 144.599 212.205 144.599C212.007 144.599 211.849 144.669 211.732 144.808C211.622 144.94 211.567 145.131 211.567 145.38V150H210.775V145.391C210.775 145.134 210.716 144.94 210.599 144.808C210.489 144.669 210.331 144.599 210.126 144.599C209.921 144.599 209.767 144.669 209.664 144.808C209.561 144.94 209.51 145.131 209.51 145.38V150H208.597ZM217.239 150.11C216.601 150.11 216.098 149.949 215.732 149.626C215.365 149.296 215.182 148.852 215.182 148.295C215.182 147.73 215.365 147.287 215.732 146.964C216.098 146.641 216.593 146.48 217.217 146.48H219.087V145.875C219.087 145.501 218.973 145.215 218.746 145.017C218.526 144.812 218.21 144.709 217.8 144.709C217.44 144.709 217.14 144.786 216.898 144.94C216.656 145.087 216.516 145.288 216.48 145.545H215.49C215.556 145.024 215.801 144.61 216.227 144.302C216.652 143.994 217.184 143.84 217.822 143.84C218.518 143.84 219.068 144.02 219.472 144.379C219.875 144.738 220.077 145.226 220.077 145.842V150H219.109V148.845H218.944L219.109 148.68C219.109 149.12 218.936 149.468 218.592 149.725C218.254 149.982 217.803 150.11 217.239 150.11ZM217.481 149.329C217.95 149.329 218.335 149.212 218.636 148.977C218.936 148.742 219.087 148.442 219.087 148.075V147.217H217.239C216.909 147.217 216.648 147.309 216.458 147.492C216.267 147.675 216.172 147.925 216.172 148.24C216.172 148.577 216.285 148.845 216.513 149.043C216.747 149.234 217.07 149.329 217.481 149.329ZM222.284 150V143.95H223.252V145.105H223.483L223.164 145.82C223.164 145.167 223.303 144.676 223.582 144.346C223.868 144.009 224.289 143.84 224.847 143.84C225.485 143.84 225.991 144.042 226.365 144.445C226.746 144.841 226.937 145.38 226.937 146.062V146.425H225.947V146.15C225.947 145.673 225.829 145.31 225.595 145.061C225.367 144.804 225.041 144.676 224.616 144.676C224.198 144.676 223.868 144.804 223.626 145.061C223.391 145.318 223.274 145.681 223.274 146.15V150H222.284ZM228.703 150V141.97H229.693V146.447H230.859L232.619 143.95H233.752L231.717 146.832L233.785 150H232.63L230.87 147.305H229.693V150H228.703ZM237.554 150.11C237.275 150.11 237.052 150.029 236.883 149.868C236.722 149.707 236.641 149.49 236.641 149.219C236.641 148.933 236.722 148.706 236.883 148.537C237.052 148.368 237.275 148.284 237.554 148.284C237.833 148.284 238.053 148.368 238.214 148.537C238.383 148.706 238.467 148.933 238.467 149.219C238.467 149.49 238.383 149.707 238.214 149.868C238.053 150.029 237.833 150.11 237.554 150.11ZM244.15 150.088C243.666 150.088 243.248 149.996 242.896 149.813C242.544 149.63 242.269 149.366 242.071 149.021C241.88 148.669 241.785 148.255 241.785 147.778V146.172C241.785 145.688 241.88 145.274 242.071 144.929C242.269 144.584 242.544 144.32 242.896 144.137C243.248 143.954 243.666 143.862 244.15 143.862C244.634 143.862 245.052 143.954 245.404 144.137C245.756 144.32 246.027 144.584 246.218 144.929C246.416 145.274 246.515 145.684 246.515 146.161V147.778C246.515 148.255 246.416 148.669 246.218 149.021C246.027 149.366 245.756 149.63 245.404 149.813C245.052 149.996 244.634 150.088 244.15 150.088ZM244.15 149.208C244.582 149.208 244.92 149.087 245.162 148.845C245.404 148.603 245.525 148.247 245.525 147.778V146.172C245.525 145.703 245.404 145.347 245.162 145.105C244.92 144.863 244.582 144.742 244.15 144.742C243.724 144.742 243.387 144.863 243.138 145.105C242.896 145.347 242.775 145.703 242.775 146.172V147.778C242.775 148.247 242.896 148.603 243.138 148.845C243.387 149.087 243.724 149.208 244.15 149.208ZM248.666 150V143.95H249.634V145.105H249.865L249.546 145.82C249.546 145.167 249.686 144.676 249.964 144.346C250.25 144.009 250.672 143.84 251.229 143.84C251.867 143.84 252.373 144.042 252.747 144.445C253.129 144.841 253.319 145.38 253.319 146.062V146.425H252.329V146.15C252.329 145.673 252.212 145.31 251.977 145.061C251.75 144.804 251.424 144.676 250.998 144.676C250.58 144.676 250.25 144.804 250.008 145.061C249.774 145.318 249.656 145.681 249.656 146.15V150H248.666ZM255.812 151.98V151.078H257.737C258.045 151.078 258.269 151.008 258.408 150.869C258.555 150.73 258.628 150.513 258.628 150.22V149.45L258.65 148.35H258.452L258.639 148.185C258.639 148.625 258.492 148.973 258.199 149.23C257.906 149.487 257.513 149.615 257.022 149.615C256.399 149.615 255.907 149.413 255.548 149.01C255.189 148.599 255.009 148.049 255.009 147.36V146.084C255.009 145.395 255.189 144.848 255.548 144.445C255.907 144.042 256.399 143.84 257.022 143.84C257.513 143.84 257.906 143.968 258.199 144.225C258.492 144.482 258.639 144.83 258.639 145.27L258.452 145.105H258.639V143.95H259.618V150.22C259.618 150.763 259.449 151.192 259.112 151.507C258.782 151.822 258.32 151.98 257.726 151.98H255.812ZM257.319 148.757C257.73 148.757 258.052 148.629 258.287 148.372C258.522 148.115 258.639 147.76 258.639 147.305V146.15C258.639 145.695 258.522 145.34 258.287 145.083C258.052 144.826 257.73 144.698 257.319 144.698C256.901 144.698 256.575 144.823 256.34 145.072C256.113 145.321 255.999 145.681 255.999 146.15V147.305C255.999 147.774 256.113 148.134 256.34 148.383C256.575 148.632 256.901 148.757 257.319 148.757Z" fill="#24292E"/>
<path d="M15.184 21.12C14.832 20.32 14.476 19.524 14.116 18.732C13.756 17.932 13.404 17.124 13.06 16.308C12.948 16.052 12.836 15.796 12.724 15.54C12.62 15.276 12.516 15.012 12.412 14.748C12.316 14.484 12.216 14.22 12.112 13.956C12.112 14.044 12.108 14.132 12.1 14.22C12.1 14.308 12.1 14.396 12.1 14.484C12.092 14.772 12.08 15.12 12.064 15.528C12.056 15.928 12.044 16.36 12.028 16.824C12.012 17.28 12 17.74 11.992 18.204C11.984 18.66 11.976 19.092 11.968 19.5C11.96 19.676 11.952 19.852 11.944 20.028C11.944 20.204 11.936 20.368 11.92 20.52C12.072 20.512 12.22 20.504 12.364 20.496C12.516 20.488 12.668 20.48 12.82 20.472V21H10.528V20.604C10.776 20.596 10.956 20.544 11.068 20.448C11.188 20.344 11.264 20.208 11.296 20.04C11.328 19.872 11.348 19.692 11.356 19.5L11.584 14.028C11.592 13.868 11.596 13.708 11.596 13.548C11.604 13.388 11.612 13.232 11.62 13.08C11.476 13.088 11.332 13.096 11.188 13.104C11.044 13.104 10.9 13.108 10.756 13.116V12.6H12.592L14.656 17.364C14.76 17.604 14.86 17.844 14.956 18.084C15.06 18.324 15.164 18.564 15.268 18.804C15.38 19.044 15.488 19.288 15.592 19.536H15.616C15.704 19.32 15.808 19.064 15.928 18.768C16.048 18.464 16.148 18.204 16.228 17.988C16.58 17.108 16.944 16.228 17.32 15.348C17.704 14.46 18.08 13.544 18.448 12.6H20.224V12.996C20.024 12.988 19.86 13.028 19.732 13.116C19.604 13.196 19.512 13.332 19.456 13.524C19.4 13.716 19.38 13.976 19.396 14.304L19.708 19.764C19.724 19.9 19.732 20.032 19.732 20.16C19.732 20.288 19.732 20.404 19.732 20.508C19.876 20.5 20.02 20.496 20.164 20.496C20.316 20.488 20.464 20.48 20.608 20.472V21H17.92V20.604C18.168 20.596 18.352 20.536 18.472 20.424C18.592 20.312 18.664 20.152 18.688 19.944C18.72 19.736 18.728 19.48 18.712 19.176L18.472 15.216C18.464 15.088 18.456 14.96 18.448 14.832C18.44 14.704 18.432 14.576 18.424 14.448C18.416 14.32 18.408 14.192 18.4 14.064C18.376 14.12 18.348 14.18 18.316 14.244C18.292 14.308 18.268 14.376 18.244 14.448L15.544 21.12H15.184ZM24.4376 21.192C23.8776 21.192 23.3696 21.064 22.9136 20.808C22.4576 20.544 22.0936 20.184 21.8216 19.728C21.5576 19.264 21.4256 18.736 21.4256 18.144C21.4256 17.512 21.5576 16.944 21.8216 16.44C22.0856 15.936 22.4456 15.54 22.9016 15.252C23.3576 14.956 23.8696 14.808 24.4376 14.808C24.9976 14.808 25.5056 14.944 25.9616 15.216C26.4176 15.48 26.7816 15.84 27.0536 16.296C27.3256 16.752 27.4616 17.272 27.4616 17.856C27.4616 18.472 27.3256 19.036 27.0536 19.548C26.7896 20.052 26.4296 20.452 25.9736 20.748C25.5176 21.044 25.0056 21.192 24.4376 21.192ZM24.5336 20.712C24.9576 20.712 25.2936 20.592 25.5416 20.352C25.7896 20.112 25.9656 19.8 26.0696 19.416C26.1816 19.032 26.2376 18.628 26.2376 18.204C26.2376 17.844 26.2016 17.492 26.1296 17.148C26.0656 16.796 25.9616 16.48 25.8176 16.2C25.6736 15.912 25.4856 15.684 25.2536 15.516C25.0296 15.348 24.7576 15.264 24.4376 15.264C24.0216 15.264 23.6816 15.384 23.4176 15.624C23.1536 15.864 22.9576 16.176 22.8296 16.56C22.7096 16.944 22.6496 17.356 22.6496 17.796C22.6496 18.292 22.7176 18.764 22.8536 19.212C22.9896 19.652 23.1976 20.012 23.4776 20.292C23.7576 20.572 24.1096 20.712 24.5336 20.712ZM31.0491 21.192C30.5611 21.192 30.1211 21.072 29.7291 20.832C29.3371 20.584 29.0251 20.232 28.7931 19.776C28.5691 19.32 28.4571 18.784 28.4571 18.168C28.4571 17.512 28.5891 16.932 28.8531 16.428C29.1171 15.924 29.4811 15.528 29.9451 15.24C30.4171 14.952 30.9491 14.808 31.5411 14.808C31.8051 14.808 32.0651 14.844 32.3211 14.916C32.5851 14.98 32.7931 15.056 32.9451 15.144V13.5C32.9451 13.372 32.9451 13.252 32.9451 13.14C32.9531 13.02 32.9651 12.88 32.9811 12.72C32.8371 12.728 32.6931 12.736 32.5491 12.744C32.4131 12.752 32.2731 12.76 32.1291 12.768V12.264C32.4811 12.264 32.7531 12.248 32.9451 12.216C33.1371 12.184 33.2811 12.144 33.3771 12.096C33.4811 12.048 33.5611 11.996 33.6171 11.94H33.9651V19.728C33.9651 19.856 33.9611 19.984 33.9531 20.112C33.9451 20.24 33.9331 20.384 33.9171 20.544C34.0611 20.536 34.2011 20.528 34.3371 20.52C34.4811 20.512 34.6251 20.504 34.7691 20.496V21H33.0531C33.0291 20.88 33.0091 20.772 32.9931 20.676C32.9851 20.572 32.9771 20.472 32.9691 20.376C32.7451 20.624 32.4691 20.824 32.1411 20.976C31.8131 21.12 31.4491 21.192 31.0491 21.192ZM31.4811 20.604C31.7451 20.604 32.0091 20.528 32.2731 20.376C32.5451 20.224 32.7691 20.036 32.9451 19.812C32.9371 19.716 32.9331 19.616 32.9331 19.512C32.9331 19.4 32.9331 19.28 32.9331 19.152L32.9451 15.696C32.7531 15.552 32.5411 15.448 32.3091 15.384C32.0851 15.312 31.8531 15.276 31.6131 15.276C31.2131 15.276 30.8651 15.392 30.5691 15.624C30.2731 15.856 30.0491 16.18 29.8971 16.596C29.7451 17.012 29.6771 17.5 29.6931 18.06C29.7091 18.548 29.7851 18.984 29.9211 19.368C30.0651 19.752 30.2651 20.056 30.5211 20.28C30.7851 20.496 31.1051 20.604 31.4811 20.604ZM40.2621 21.12C39.9101 20.32 39.5541 19.524 39.1941 18.732C38.8341 17.932 38.4821 17.124 38.1381 16.308C38.0261 16.052 37.9141 15.796 37.8021 15.54C37.6981 15.276 37.5941 15.012 37.4901 14.748C37.3941 14.484 37.2941 14.22 37.1901 13.956C37.1901 14.044 37.1861 14.132 37.1781 14.22C37.1781 14.308 37.1781 14.396 37.1781 14.484C37.1701 14.772 37.1581 15.12 37.1421 15.528C37.1341 15.928 37.1221 16.36 37.1061 16.824C37.0901 17.28 37.0781 17.74 37.0701 18.204C37.0621 18.66 37.0541 19.092 37.0461 19.5C37.0381 19.676 37.0301 19.852 37.0221 20.028C37.0221 20.204 37.0141 20.368 36.9981 20.52C37.1501 20.512 37.2981 20.504 37.4421 20.496C37.5941 20.488 37.7461 20.48 37.8981 20.472V21H35.6061V20.604C35.8541 20.596 36.0341 20.544 36.1461 20.448C36.2661 20.344 36.3421 20.208 36.3741 20.04C36.4061 19.872 36.4261 19.692 36.4341 19.5L36.6621 14.028C36.6701 13.868 36.6741 13.708 36.6741 13.548C36.6821 13.388 36.6901 13.232 36.6981 13.08C36.5541 13.088 36.4101 13.096 36.2661 13.104C36.1221 13.104 35.9781 13.108 35.8341 13.116V12.6H37.6701L39.7341 17.364C39.8381 17.604 39.9381 17.844 40.0341 18.084C40.1381 18.324 40.2421 18.564 40.3461 18.804C40.4581 19.044 40.5661 19.288 40.6701 19.536H40.6941C40.7821 19.32 40.8861 19.064 41.0061 18.768C41.1261 18.464 41.2261 18.204 41.3061 17.988C41.6581 17.108 42.0221 16.228 42.3981 15.348C42.7821 14.46 43.1581 13.544 43.5261 12.6H45.3021V12.996C45.1021 12.988 44.9381 13.028 44.8101 13.116C44.6821 13.196 44.5901 13.332 44.5341 13.524C44.4781 13.716 44.4581 13.976 44.4741 14.304L44.7861 19.764C44.8021 19.9 44.8101 20.032 44.8101 20.16C44.8101 20.288 44.8101 20.404 44.8101 20.508C44.9541 20.5 45.0981 20.496 45.2421 20.496C45.3941 20.488 45.5421 20.48 45.6861 20.472V21H42.9981V20.604C43.2461 20.596 43.4301 20.536 43.5501 20.424C43.6701 20.312 43.7421 20.152 43.7661 19.944C43.7981 19.736 43.8061 19.48 43.7901 19.176L43.5501 15.216C43.5421 15.088 43.5341 14.96 43.5261 14.832C43.5181 14.704 43.5101 14.576 43.5021 14.448C43.4941 14.32 43.4861 14.192 43.4781 14.064C43.4541 14.12 43.4261 14.18 43.3941 14.244C43.3701 14.308 43.3461 14.376 43.3221 14.448L40.6221 21.12H40.2621ZM50.2698 21C50.2458 20.864 50.2298 20.744 50.2218 20.64C50.2138 20.536 50.2018 20.428 50.1858 20.316C49.9138 20.588 49.6178 20.804 49.2978 20.964C48.9858 21.116 48.6538 21.192 48.3018 21.192C47.6938 21.192 47.2418 21.056 46.9458 20.784C46.6498 20.504 46.5018 20.164 46.5018 19.764C46.5018 19.396 46.6138 19.08 46.8378 18.816C47.0698 18.544 47.3658 18.324 47.7258 18.156C48.0938 17.98 48.4898 17.852 48.9138 17.772C49.3458 17.684 49.7618 17.644 50.1618 17.652V16.908C50.1618 16.628 50.1378 16.364 50.0898 16.116C50.0418 15.868 49.9378 15.664 49.7778 15.504C49.6178 15.344 49.3618 15.26 49.0098 15.252C48.7778 15.244 48.5378 15.288 48.2898 15.384C48.0498 15.48 47.8738 15.644 47.7618 15.876C47.8258 15.94 47.8658 16.016 47.8818 16.104C47.9058 16.184 47.9178 16.26 47.9178 16.332C47.9178 16.428 47.8778 16.54 47.7978 16.668C47.7178 16.788 47.5778 16.844 47.3778 16.836C47.2098 16.836 47.0818 16.78 46.9938 16.668C46.9058 16.548 46.8618 16.408 46.8618 16.248C46.8618 15.976 46.9618 15.732 47.1618 15.516C47.3698 15.3 47.6538 15.128 48.0138 15C48.3738 14.872 48.7818 14.808 49.2378 14.808C49.9098 14.808 50.4058 14.988 50.7258 15.348C51.0458 15.7 51.2018 16.26 51.1938 17.028C51.1938 17.324 51.1938 17.624 51.1938 17.928C51.1938 18.224 51.1898 18.524 51.1818 18.828C51.1818 19.124 51.1818 19.424 51.1818 19.728C51.1818 19.856 51.1778 19.984 51.1698 20.112C51.1618 20.24 51.1498 20.384 51.1338 20.544C51.2778 20.536 51.4178 20.528 51.5538 20.52C51.6978 20.512 51.8418 20.504 51.9858 20.496V21H50.2698ZM50.1618 18.06C49.8898 18.068 49.6018 18.104 49.2978 18.168C49.0018 18.224 48.7258 18.312 48.4698 18.432C48.2218 18.552 48.0178 18.712 47.8577 18.912C47.7058 19.104 47.6338 19.34 47.6418 19.62C47.6578 19.916 47.7538 20.14 47.9298 20.292C48.1138 20.436 48.3298 20.508 48.5778 20.508C48.9058 20.508 49.1898 20.448 49.4298 20.328C49.6778 20.2 49.9218 20.024 50.1618 19.8C50.1538 19.712 50.1498 19.616 50.1498 19.512C50.1498 19.408 50.1498 19.3 50.1498 19.188C50.1498 19.148 50.1498 19.02 50.1498 18.804C50.1578 18.588 50.1618 18.34 50.1618 18.06ZM52.8093 20.64C53.0573 20.64 53.2293 20.58 53.3253 20.46C53.4213 20.332 53.4773 20.16 53.4933 19.944C53.5093 19.72 53.5173 19.464 53.5173 19.176V16.44C53.5173 16.312 53.5173 16.184 53.5173 16.056C53.5253 15.928 53.5413 15.796 53.5653 15.66C53.4213 15.668 53.2773 15.676 53.1333 15.684C52.9973 15.684 52.8573 15.688 52.7133 15.696V15.204H53.0853C53.4293 15.204 53.6653 15.172 53.7933 15.108C53.9293 15.036 54.0413 14.96 54.1293 14.88H54.4773C54.4933 15.008 54.5053 15.168 54.5133 15.36C54.5213 15.544 54.5293 15.78 54.5373 16.068C54.6573 15.868 54.8213 15.672 55.0293 15.48C55.2373 15.288 55.4693 15.128 55.7253 15C55.9893 14.872 56.2653 14.808 56.5533 14.808C56.7773 14.808 56.9733 14.868 57.1413 14.988C57.3093 15.108 57.3933 15.3 57.3933 15.564C57.3933 15.628 57.3733 15.708 57.3333 15.804C57.2933 15.892 57.2293 15.972 57.1413 16.044C57.0533 16.108 56.9373 16.14 56.7933 16.14C56.6173 16.132 56.4773 16.064 56.3733 15.936C56.2693 15.8 56.2293 15.644 56.2533 15.468C56.0533 15.46 55.8453 15.512 55.6293 15.624C55.4213 15.736 55.2253 15.892 55.0413 16.092C54.8573 16.284 54.6933 16.512 54.5493 16.776L54.5613 19.728C54.5613 19.888 54.5573 20.032 54.5493 20.16C54.5493 20.28 54.5373 20.408 54.5133 20.544C54.6413 20.536 54.7653 20.532 54.8853 20.532C55.0133 20.524 55.1413 20.516 55.2693 20.508V21H52.8093V20.64ZM57.8458 21V20.64C58.0938 20.64 58.2618 20.58 58.3498 20.46C58.4458 20.332 58.5018 20.16 58.5178 19.944C58.5338 19.72 58.5418 19.464 58.5418 19.176L58.5538 13.5C58.5538 13.372 58.5538 13.252 58.5538 13.14C58.5618 13.02 58.5738 12.88 58.5898 12.72C58.4458 12.728 58.3018 12.736 58.1578 12.744C58.0218 12.752 57.8818 12.76 57.7378 12.768V12.264C58.0898 12.264 58.3618 12.248 58.5538 12.216C58.7458 12.184 58.8898 12.144 58.9858 12.096C59.0898 12.048 59.1698 11.996 59.2258 11.94H59.5738V17.616H60.0538L61.5178 16.08C61.6538 15.944 61.7778 15.824 61.8898 15.72C62.0018 15.608 62.1138 15.516 62.2258 15.444L61.4098 15.48V15H63.5938V15.36C63.3218 15.384 63.0658 15.472 62.8258 15.624C62.5938 15.768 62.3778 15.932 62.1778 16.116C61.9858 16.3 61.8178 16.468 61.6738 16.62L60.7378 17.604C60.8978 17.676 61.0338 17.768 61.1458 17.88C61.2578 17.992 61.3698 18.116 61.4818 18.252L62.3338 19.344C62.3738 19.392 62.4418 19.484 62.5378 19.62C62.6418 19.756 62.7618 19.904 62.8978 20.064C63.0418 20.224 63.1898 20.36 63.3418 20.472C63.5018 20.584 63.6498 20.64 63.7858 20.64V21H62.6938C62.4698 21 62.2578 20.884 62.0578 20.652C61.8578 20.42 61.6458 20.16 61.4218 19.872C61.2138 19.584 61.0258 19.324 60.8578 19.092C60.6978 18.852 60.5498 18.644 60.4138 18.468C60.2858 18.292 60.1698 18.156 60.0658 18.06L59.5738 18.084V19.728C59.5738 19.888 59.5698 20.032 59.5618 20.16C59.5618 20.28 59.5498 20.408 59.5258 20.544C59.6538 20.536 59.7818 20.532 59.9098 20.532C60.0378 20.524 60.1658 20.516 60.2938 20.508V21H57.8458Z" fill="#777777"/>
</svg>
