<svg width="626" height="250" viewBox="0 0 626 250" fill="none" xmlns="http://www.w3.org/2000/svg">
<rect x="306" y="17" width="249" height="221" rx="4" stroke="#ADADAD" stroke-width="2" stroke-linecap="square" stroke-dasharray="9 9"/>
<rect x="443.5" y="54.5" width="93" height="35" rx="4.5" fill="#FED766" stroke="black"/>
<rect x="102.5" y="54.5" width="73" height="35" rx="4.5" fill="#B8D4E3" stroke="black"/>
<rect x="441.5" y="191.5" width="93" height="35" rx="4.5" fill="#F7A9A8" stroke="black"/>
<path d="M13.5621 69.12C12.9861 69.12 12.4901 69.024 12.0741 68.832C11.6661 68.64 11.3501 68.364 11.1261 68.004C10.9021 67.644 10.7861 67.216 10.7781 66.72H11.8581C11.8581 67.16 12.0061 67.508 12.3021 67.764C12.6061 68.02 13.0261 68.148 13.5621 68.148C14.0661 68.148 14.4581 68.024 14.7381 67.776C15.0261 67.528 15.1701 67.184 15.1701 66.744C15.1701 66.392 15.0741 66.084 14.8821 65.82C14.6981 65.556 14.4301 65.372 14.0781 65.268L12.8901 64.896C12.2901 64.712 11.8261 64.404 11.4981 63.972C11.1781 63.54 11.0181 63.032 11.0181 62.448C11.0181 61.976 11.1221 61.568 11.3301 61.224C11.5461 60.872 11.8461 60.6 12.2301 60.408C12.6141 60.208 13.0661 60.108 13.5861 60.108C14.3541 60.108 14.9701 60.324 15.4341 60.756C15.8981 61.18 16.1341 61.748 16.1421 62.46H15.0621C15.0621 62.028 14.9301 61.692 14.6661 61.452C14.4101 61.204 14.0461 61.08 13.5741 61.08C13.1101 61.08 12.7461 61.192 12.4821 61.416C12.2261 61.64 12.0981 61.952 12.0981 62.352C12.0981 62.712 12.1941 63.024 12.3861 63.288C12.5781 63.552 12.8541 63.74 13.2141 63.852L14.4141 64.236C14.9981 64.42 15.4501 64.732 15.7701 65.172C16.0901 65.612 16.2501 66.128 16.2501 66.72C16.2501 67.2 16.1381 67.62 15.9141 67.98C15.6901 68.34 15.3741 68.62 14.9661 68.82C14.5661 69.02 14.0981 69.12 13.5621 69.12ZM20.7094 69.096C20.1814 69.096 19.7254 68.996 19.3414 68.796C18.9574 68.596 18.6574 68.308 18.4414 67.932C18.2334 67.548 18.1294 67.096 18.1294 66.576V64.824C18.1294 64.296 18.2334 63.844 18.4414 63.468C18.6574 63.092 18.9574 62.804 19.3414 62.604C19.7254 62.404 20.1814 62.304 20.7094 62.304C21.2374 62.304 21.6934 62.404 22.0774 62.604C22.4614 62.804 22.7574 63.092 22.9654 63.468C23.1814 63.844 23.2894 64.292 23.2894 64.812V66.576C23.2894 67.096 23.1814 67.548 22.9654 67.932C22.7574 68.308 22.4614 68.596 22.0774 68.796C21.6934 68.996 21.2374 69.096 20.7094 69.096ZM20.7094 68.136C21.1814 68.136 21.5494 68.004 21.8134 67.74C22.0774 67.476 22.2094 67.088 22.2094 66.576V64.824C22.2094 64.312 22.0774 63.924 21.8134 63.66C21.5494 63.396 21.1814 63.264 20.7094 63.264C20.2454 63.264 19.8774 63.396 19.6054 63.66C19.3414 63.924 19.2094 64.312 19.2094 64.824V66.576C19.2094 67.088 19.3414 67.476 19.6054 67.74C19.8774 68.004 20.2454 68.136 20.7094 68.136ZM27.8927 69.12C27.1327 69.12 26.5247 68.896 26.0687 68.448C25.6127 67.992 25.3847 67.376 25.3847 66.6V62.4H26.4647V66.6C26.4647 67.096 26.5927 67.484 26.8487 67.764C27.1047 68.036 27.4527 68.172 27.8927 68.172C28.3407 68.172 28.6927 68.036 28.9487 67.764C29.2127 67.484 29.3447 67.096 29.3447 66.6V62.4H30.4247V66.6C30.4247 67.376 30.1927 67.992 29.7287 68.448C29.2647 68.896 28.6527 69.12 27.8927 69.12ZM32.832 69V62.4H33.888V63.66H34.14L33.792 64.44C33.792 63.728 33.944 63.192 34.248 62.832C34.56 62.464 35.02 62.28 35.628 62.28C36.324 62.28 36.876 62.5 37.284 62.94C37.7 63.372 37.908 63.96 37.908 64.704V65.1H36.828V64.8C36.828 64.28 36.7 63.884 36.444 63.612C36.196 63.332 35.84 63.192 35.376 63.192C34.92 63.192 34.56 63.332 34.296 63.612C34.04 63.892 33.912 64.288 33.912 64.8V69H32.832ZM42.3433 69.12C41.8153 69.12 41.3513 69.02 40.9513 68.82C40.5593 68.62 40.2553 68.332 40.0393 67.956C39.8233 67.572 39.7153 67.12 39.7153 66.6V64.8C39.7153 64.272 39.8233 63.82 40.0393 63.444C40.2553 63.068 40.5593 62.78 40.9513 62.58C41.3513 62.38 41.8153 62.28 42.3433 62.28C43.1033 62.28 43.7153 62.484 44.1793 62.892C44.6433 63.3 44.8873 63.856 44.9113 64.56H43.8313C43.8073 64.136 43.6633 63.812 43.3993 63.588C43.1433 63.356 42.7913 63.24 42.3433 63.24C41.8713 63.24 41.4953 63.376 41.2153 63.648C40.9353 63.912 40.7953 64.292 40.7953 64.788V66.6C40.7953 67.096 40.9353 67.48 41.2153 67.752C41.4953 68.024 41.8713 68.16 42.3433 68.16C42.7913 68.16 43.1433 68.044 43.3993 67.812C43.6633 67.58 43.8073 67.256 43.8313 66.84H44.9113C44.8873 67.544 44.6433 68.1 44.1793 68.508C43.7153 68.916 43.1033 69.12 42.3433 69.12ZM49.4906 69.12C48.9706 69.12 48.5146 69.016 48.1226 68.808C47.7386 68.6 47.4386 68.308 47.2226 67.932C47.0146 67.548 46.9106 67.104 46.9106 66.6V64.8C46.9106 64.288 47.0146 63.844 47.2226 63.468C47.4386 63.092 47.7386 62.8 48.1226 62.592C48.5146 62.384 48.9706 62.28 49.4906 62.28C50.0106 62.28 50.4626 62.384 50.8466 62.592C51.2386 62.8 51.5386 63.092 51.7466 63.468C51.9626 63.844 52.0706 64.288 52.0706 64.8V65.964H47.9666V66.6C47.9666 67.12 48.0986 67.52 48.3626 67.8C48.6266 68.072 49.0026 68.208 49.4906 68.208C49.9066 68.208 50.2426 68.136 50.4986 67.992C50.7546 67.84 50.9106 67.616 50.9666 67.32H52.0466C51.9746 67.872 51.7026 68.312 51.2306 68.64C50.7666 68.96 50.1866 69.12 49.4906 69.12ZM51.0146 65.244V64.8C51.0146 64.28 50.8826 63.88 50.6186 63.6C50.3626 63.32 49.9866 63.18 49.4906 63.18C49.0026 63.18 48.6266 63.32 48.3626 63.6C48.0986 63.88 47.9666 64.28 47.9666 64.8V65.148H51.0986L51.0146 65.244ZM21.4294 85C20.8614 85 20.4174 84.848 20.0974 84.544C19.7854 84.24 19.6294 83.812 19.6294 83.26V79.384H17.7694V78.4H19.6294V76.54H20.7094V78.4H23.3494V79.384H20.7094V83.26C20.7094 83.764 20.9494 84.016 21.4294 84.016H23.2294V85H21.4294ZM27.9047 85.12C27.3847 85.12 26.9287 85.016 26.5367 84.808C26.1527 84.6 25.8527 84.308 25.6367 83.932C25.4287 83.548 25.3247 83.104 25.3247 82.6V80.8C25.3247 80.288 25.4287 79.844 25.6367 79.468C25.8527 79.092 26.1527 78.8 26.5367 78.592C26.9287 78.384 27.3847 78.28 27.9047 78.28C28.4247 78.28 28.8767 78.384 29.2607 78.592C29.6527 78.8 29.9527 79.092 30.1607 79.468C30.3767 79.844 30.4847 80.288 30.4847 80.8V81.964H26.3807V82.6C26.3807 83.12 26.5127 83.52 26.7767 83.8C27.0407 84.072 27.4167 84.208 27.9047 84.208C28.3207 84.208 28.6567 84.136 28.9127 83.992C29.1687 83.84 29.3247 83.616 29.3807 83.32H30.4607C30.3887 83.872 30.1167 84.312 29.6447 84.64C29.1807 84.96 28.6007 85.12 27.9047 85.12ZM29.4287 81.244V80.8C29.4287 80.28 29.2967 79.88 29.0327 79.6C28.7767 79.32 28.4007 79.18 27.9047 79.18C27.4167 79.18 27.0407 79.32 26.7767 79.6C26.5127 79.88 26.3807 80.28 26.3807 80.8V81.148H29.5127L29.4287 81.244ZM32.1 85L34.44 81.604L32.244 78.4H33.516L34.824 80.44C34.88 80.528 34.932 80.624 34.98 80.728C35.036 80.832 35.08 80.916 35.112 80.98C35.136 80.916 35.172 80.832 35.22 80.728C35.276 80.624 35.332 80.528 35.388 80.44L36.708 78.4H37.968L35.772 81.616L38.1 85H36.828L35.412 82.84C35.356 82.752 35.3 82.652 35.244 82.54C35.196 82.42 35.152 82.324 35.112 82.252C35.08 82.324 35.032 82.42 34.968 82.54C34.912 82.652 34.852 82.752 34.788 82.84L33.36 85H32.1ZM43.0153 85C42.4473 85 42.0033 84.848 41.6833 84.544C41.3713 84.24 41.2153 83.812 41.2153 83.26V79.384H39.3553V78.4H41.2153V76.54H42.2953V78.4H44.9353V79.384H42.2953V83.26C42.2953 83.764 42.5353 84.016 43.0153 84.016H44.8153V85H43.0153Z" fill="black"/>
<path d="M224.819 68L227.099 59.24H228.551L230.819 68H229.727L229.151 65.672H226.499L225.923 68H224.819ZM226.715 64.76H228.923L228.251 62.06C228.123 61.548 228.023 61.12 227.951 60.776C227.879 60.432 227.835 60.208 227.819 60.104C227.803 60.208 227.759 60.432 227.687 60.776C227.615 61.12 227.515 61.544 227.387 62.048L226.715 64.76ZM235.398 68.12C234.854 68.12 234.418 67.976 234.09 67.688C233.762 67.392 233.598 66.992 233.598 66.488L233.814 66.74H233.598V68H232.518V59.24H233.598V61.16L233.574 62.66H233.814L233.598 62.912C233.598 62.416 233.762 62.02 234.09 61.724C234.426 61.428 234.862 61.28 235.398 61.28C236.062 61.28 236.594 61.5 236.994 61.94C237.394 62.38 237.594 62.98 237.594 63.74V65.672C237.594 66.424 237.394 67.02 236.994 67.46C236.594 67.9 236.062 68.12 235.398 68.12ZM235.038 67.184C235.494 67.184 235.854 67.048 236.118 66.776C236.382 66.504 236.514 66.112 236.514 65.6V63.8C236.514 63.288 236.382 62.896 236.118 62.624C235.854 62.352 235.494 62.216 235.038 62.216C234.598 62.216 234.246 62.356 233.982 62.636C233.726 62.916 233.598 63.304 233.598 63.8V65.6C233.598 66.096 233.726 66.484 233.982 66.764C234.246 67.044 234.598 67.184 235.038 67.184ZM242.005 68.096C241.557 68.096 241.165 68.028 240.829 67.892C240.501 67.748 240.237 67.548 240.037 67.292C239.845 67.036 239.729 66.732 239.689 66.38H240.769C240.817 66.612 240.945 66.796 241.153 66.932C241.369 67.068 241.653 67.136 242.005 67.136H242.509C242.933 67.136 243.249 67.052 243.457 66.884C243.665 66.708 243.769 66.476 243.769 66.188C243.769 65.908 243.673 65.688 243.481 65.528C243.297 65.36 243.021 65.248 242.653 65.192L241.765 65.048C241.117 64.936 240.633 64.736 240.313 64.448C240.001 64.152 239.845 63.724 239.845 63.164C239.845 62.572 240.033 62.116 240.409 61.796C240.785 61.468 241.349 61.304 242.101 61.304H242.557C243.189 61.304 243.697 61.452 244.081 61.748C244.465 62.044 244.697 62.444 244.777 62.948H243.697C243.649 62.74 243.529 62.576 243.337 62.456C243.145 62.328 242.885 62.264 242.557 62.264H242.101C241.693 62.264 241.393 62.34 241.201 62.492C241.017 62.644 240.925 62.872 240.925 63.176C240.925 63.448 241.005 63.648 241.165 63.776C241.325 63.904 241.577 63.996 241.921 64.052L242.809 64.196C243.521 64.308 244.037 64.516 244.357 64.82C244.685 65.124 244.849 65.564 244.849 66.14C244.849 66.748 244.653 67.228 244.261 67.58C243.877 67.924 243.293 68.096 242.509 68.096H242.005ZM250.125 68C249.557 68 249.113 67.848 248.793 67.544C248.481 67.24 248.325 66.812 248.325 66.26V62.384H246.465V61.4H248.325V59.54H249.405V61.4H252.045V62.384H249.405V66.26C249.405 66.764 249.645 67.016 250.125 67.016H251.925V68H250.125ZM254.332 68V61.4H255.388V62.66H255.64L255.292 63.44C255.292 62.728 255.444 62.192 255.748 61.832C256.06 61.464 256.52 61.28 257.128 61.28C257.824 61.28 258.376 61.5 258.784 61.94C259.2 62.372 259.408 62.96 259.408 63.704V64.1H258.328V63.8C258.328 63.28 258.2 62.884 257.944 62.612C257.696 62.332 257.34 62.192 256.876 62.192C256.42 62.192 256.06 62.332 255.796 62.612C255.54 62.892 255.412 63.288 255.412 63.8V68H254.332ZM263.219 68.12C262.523 68.12 261.975 67.944 261.575 67.592C261.175 67.232 260.975 66.748 260.975 66.14C260.975 65.524 261.175 65.04 261.575 64.688C261.975 64.336 262.515 64.16 263.195 64.16H265.235V63.5C265.235 63.092 265.111 62.78 264.863 62.564C264.623 62.34 264.279 62.228 263.831 62.228C263.439 62.228 263.111 62.312 262.847 62.48C262.583 62.64 262.431 62.86 262.391 63.14H261.311C261.383 62.572 261.651 62.12 262.115 61.784C262.579 61.448 263.159 61.28 263.855 61.28C264.615 61.28 265.215 61.476 265.655 61.868C266.095 62.26 266.315 62.792 266.315 63.464V68H265.259V66.74H265.079L265.259 66.56C265.259 67.04 265.071 67.42 264.695 67.7C264.327 67.98 263.835 68.12 263.219 68.12ZM263.483 67.268C263.995 67.268 264.415 67.14 264.743 66.884C265.071 66.628 265.235 66.3 265.235 65.9V64.964H263.219C262.859 64.964 262.575 65.064 262.367 65.264C262.159 65.464 262.055 65.736 262.055 66.08C262.055 66.448 262.179 66.74 262.427 66.956C262.683 67.164 263.035 67.268 263.483 67.268ZM271.039 68.12C270.511 68.12 270.047 68.02 269.647 67.82C269.255 67.62 268.951 67.332 268.735 66.956C268.519 66.572 268.411 66.12 268.411 65.6V63.8C268.411 63.272 268.519 62.82 268.735 62.444C268.951 62.068 269.255 61.78 269.647 61.58C270.047 61.38 270.511 61.28 271.039 61.28C271.799 61.28 272.411 61.484 272.875 61.892C273.339 62.3 273.583 62.856 273.607 63.56H272.527C272.503 63.136 272.359 62.812 272.095 62.588C271.839 62.356 271.487 62.24 271.039 62.24C270.567 62.24 270.191 62.376 269.911 62.648C269.631 62.912 269.491 63.292 269.491 63.788V65.6C269.491 66.096 269.631 66.48 269.911 66.752C270.191 67.024 270.567 67.16 271.039 67.16C271.487 67.16 271.839 67.044 272.095 66.812C272.359 66.58 272.503 66.256 272.527 65.84H273.607C273.583 66.544 273.339 67.1 272.875 67.508C272.411 67.916 271.799 68.12 271.039 68.12ZM278.906 68C278.338 68 277.894 67.848 277.574 67.544C277.262 67.24 277.106 66.812 277.106 66.26V62.384H275.246V61.4H277.106V59.54H278.186V61.4H280.826V62.384H278.186V66.26C278.186 66.764 278.426 67.016 278.906 67.016H280.706V68H278.906ZM216.822 84.096C216.374 84.096 215.982 84.028 215.646 83.892C215.318 83.748 215.054 83.548 214.854 83.292C214.662 83.036 214.546 82.732 214.506 82.38H215.586C215.634 82.612 215.762 82.796 215.97 82.932C216.186 83.068 216.47 83.136 216.822 83.136H217.326C217.75 83.136 218.066 83.052 218.274 82.884C218.482 82.708 218.586 82.476 218.586 82.188C218.586 81.908 218.49 81.688 218.298 81.528C218.114 81.36 217.838 81.248 217.47 81.192L216.582 81.048C215.934 80.936 215.45 80.736 215.13 80.448C214.818 80.152 214.662 79.724 214.662 79.164C214.662 78.572 214.85 78.116 215.226 77.796C215.602 77.468 216.166 77.304 216.918 77.304H217.374C218.006 77.304 218.514 77.452 218.898 77.748C219.282 78.044 219.514 78.444 219.594 78.948H218.514C218.466 78.74 218.346 78.576 218.154 78.456C217.962 78.328 217.702 78.264 217.374 78.264H216.918C216.51 78.264 216.21 78.34 216.018 78.492C215.834 78.644 215.742 78.872 215.742 79.176C215.742 79.448 215.822 79.648 215.982 79.776C216.142 79.904 216.394 79.996 216.738 80.052L217.626 80.196C218.338 80.308 218.854 80.516 219.174 80.82C219.502 81.124 219.666 81.564 219.666 82.14C219.666 82.748 219.47 83.228 219.078 83.58C218.694 83.924 218.11 84.096 217.326 84.096H216.822ZM222.757 86.16L223.729 83.592L221.281 77.4H222.481L224.017 81.48C224.073 81.616 224.125 81.78 224.173 81.972C224.221 82.156 224.261 82.312 224.293 82.44C224.325 82.312 224.365 82.156 224.413 81.972C224.461 81.78 224.509 81.616 224.557 81.48L225.997 77.4H227.161L223.909 86.16H222.757ZM228.92 84V77.4H230V78.66H230.228L230 78.912C230 78.392 230.156 77.992 230.468 77.712C230.78 77.424 231.212 77.28 231.764 77.28C232.428 77.28 232.956 77.484 233.348 77.892C233.74 78.3 233.936 78.856 233.936 79.56V84H232.856V79.68C232.856 79.208 232.728 78.848 232.472 78.6C232.224 78.344 231.884 78.216 231.452 78.216C231.004 78.216 230.648 78.352 230.384 78.624C230.128 78.896 230 79.288 230 79.8V84H228.92ZM239.332 84C238.764 84 238.32 83.848 238 83.544C237.688 83.24 237.532 82.812 237.532 82.26V78.384H235.672V77.4H237.532V75.54H238.612V77.4H241.252V78.384H238.612V82.26C238.612 82.764 238.852 83.016 239.332 83.016H241.132V84H239.332ZM245.231 84.12C244.535 84.12 243.987 83.944 243.587 83.592C243.187 83.232 242.987 82.748 242.987 82.14C242.987 81.524 243.187 81.04 243.587 80.688C243.987 80.336 244.527 80.16 245.207 80.16H247.247V79.5C247.247 79.092 247.123 78.78 246.875 78.564C246.635 78.34 246.291 78.228 245.843 78.228C245.451 78.228 245.123 78.312 244.859 78.48C244.595 78.64 244.443 78.86 244.403 79.14H243.323C243.395 78.572 243.663 78.12 244.127 77.784C244.591 77.448 245.171 77.28 245.867 77.28C246.627 77.28 247.227 77.476 247.667 77.868C248.107 78.26 248.327 78.792 248.327 79.464V84H247.271V82.74H247.091L247.271 82.56C247.271 83.04 247.083 83.42 246.707 83.7C246.339 83.98 245.847 84.12 245.231 84.12ZM245.495 83.268C246.007 83.268 246.427 83.14 246.755 82.884C247.083 82.628 247.247 82.3 247.247 81.9V80.964H245.231C244.871 80.964 244.587 81.064 244.379 81.264C244.171 81.464 244.067 81.736 244.067 82.08C244.067 82.448 244.191 82.74 244.439 82.956C244.695 83.164 245.047 83.268 245.495 83.268ZM250.002 84L252.342 80.604L250.146 77.4H251.418L252.726 79.44C252.782 79.528 252.834 79.624 252.882 79.728C252.938 79.832 252.982 79.916 253.014 79.98C253.038 79.916 253.074 79.832 253.122 79.728C253.178 79.624 253.234 79.528 253.29 79.44L254.61 77.4H255.87L253.674 80.616L256.002 84H254.73L253.314 81.84C253.258 81.752 253.202 81.652 253.146 81.54C253.098 81.42 253.054 81.324 253.014 81.252C252.982 81.324 252.934 81.42 252.87 81.54C252.814 81.652 252.754 81.752 252.69 81.84L251.262 84H250.002ZM268.113 84C267.545 84 267.101 83.848 266.781 83.544C266.469 83.24 266.313 82.812 266.313 82.26V78.384H264.453V77.4H266.313V75.54H267.393V77.4H270.033V78.384H267.393V82.26C267.393 82.764 267.633 83.016 268.113 83.016H269.913V84H268.113ZM272.32 84V77.4H273.376V78.66H273.628L273.28 79.44C273.28 78.728 273.432 78.192 273.736 77.832C274.048 77.464 274.508 77.28 275.116 77.28C275.812 77.28 276.364 77.5 276.772 77.94C277.188 78.372 277.396 78.96 277.396 79.704V80.1H276.316V79.8C276.316 79.28 276.188 78.884 275.932 78.612C275.684 78.332 275.328 78.192 274.864 78.192C274.408 78.192 274.048 78.332 273.784 78.612C273.528 78.892 273.4 79.288 273.4 79.8V84H272.32ZM281.784 84.12C281.264 84.12 280.808 84.016 280.416 83.808C280.032 83.6 279.732 83.308 279.516 82.932C279.308 82.548 279.204 82.104 279.204 81.6V79.8C279.204 79.288 279.308 78.844 279.516 78.468C279.732 78.092 280.032 77.8 280.416 77.592C280.808 77.384 281.264 77.28 281.784 77.28C282.304 77.28 282.756 77.384 283.14 77.592C283.532 77.8 283.832 78.092 284.04 78.468C284.256 78.844 284.364 79.288 284.364 79.8V80.964H280.26V81.6C280.26 82.12 280.392 82.52 280.656 82.8C280.92 83.072 281.296 83.208 281.784 83.208C282.2 83.208 282.536 83.136 282.792 82.992C283.048 82.84 283.204 82.616 283.26 82.32H284.34C284.268 82.872 283.996 83.312 283.524 83.64C283.06 83.96 282.48 84.12 281.784 84.12ZM283.308 80.244V79.8C283.308 79.28 283.176 78.88 282.912 78.6C282.656 78.32 282.28 78.18 281.784 78.18C281.296 78.18 280.92 78.32 280.656 78.6C280.392 78.88 280.26 79.28 280.26 79.8V80.148H283.392L283.308 80.244ZM288.979 84.12C288.459 84.12 288.003 84.016 287.611 83.808C287.227 83.6 286.927 83.308 286.711 82.932C286.503 82.548 286.399 82.104 286.399 81.6V79.8C286.399 79.288 286.503 78.844 286.711 78.468C286.927 78.092 287.227 77.8 287.611 77.592C288.003 77.384 288.459 77.28 288.979 77.28C289.499 77.28 289.951 77.384 290.335 77.592C290.727 77.8 291.027 78.092 291.235 78.468C291.451 78.844 291.559 79.288 291.559 79.8V80.964H287.455V81.6C287.455 82.12 287.587 82.52 287.851 82.8C288.115 83.072 288.491 83.208 288.979 83.208C289.395 83.208 289.731 83.136 289.987 82.992C290.243 82.84 290.399 82.616 290.455 82.32H291.535C291.463 82.872 291.191 83.312 290.719 83.64C290.255 83.96 289.675 84.12 288.979 84.12ZM290.503 80.244V79.8C290.503 79.28 290.371 78.88 290.107 78.6C289.851 78.32 289.475 78.18 288.979 78.18C288.491 78.18 288.115 78.32 287.851 78.6C287.587 78.88 287.455 79.28 287.455 79.8V80.148H290.587L290.503 80.244Z" fill="black"/>
<path d="M338.016 68V59.24H343.056V60.224H339.084V62.936H342.636V63.908H339.084V67.016H343.056V68H338.016ZM348.512 68C348.128 68 347.792 67.924 347.504 67.772C347.216 67.62 346.992 67.404 346.832 67.124C346.672 66.844 346.592 66.516 346.592 66.14V60.224H344.372V59.24H347.672V66.14C347.672 66.412 347.748 66.628 347.9 66.788C348.052 66.94 348.256 67.016 348.512 67.016H350.612V68H348.512ZM354.807 68.12C354.287 68.12 353.831 68.016 353.439 67.808C353.055 67.6 352.755 67.308 352.539 66.932C352.331 66.548 352.227 66.104 352.227 65.6V63.8C352.227 63.288 352.331 62.844 352.539 62.468C352.755 62.092 353.055 61.8 353.439 61.592C353.831 61.384 354.287 61.28 354.807 61.28C355.327 61.28 355.779 61.384 356.163 61.592C356.555 61.8 356.855 62.092 357.063 62.468C357.279 62.844 357.387 63.288 357.387 63.8V64.964H353.283V65.6C353.283 66.12 353.415 66.52 353.679 66.8C353.943 67.072 354.319 67.208 354.807 67.208C355.223 67.208 355.559 67.136 355.815 66.992C356.071 66.84 356.227 66.616 356.283 66.32H357.363C357.291 66.872 357.019 67.312 356.547 67.64C356.083 67.96 355.503 68.12 354.807 68.12ZM356.331 64.244V63.8C356.331 63.28 356.199 62.88 355.935 62.6C355.679 62.32 355.303 62.18 354.807 62.18C354.319 62.18 353.943 62.32 353.679 62.6C353.415 62.88 353.283 63.28 353.283 63.8V64.148H356.415L356.331 64.244ZM359.194 68V61.4H360.142V62.192H360.358L360.19 62.48C360.19 62.112 360.286 61.82 360.478 61.604C360.678 61.388 360.946 61.28 361.282 61.28C361.65 61.28 361.934 61.416 362.134 61.688C362.334 61.96 362.434 62.344 362.434 62.84L362.11 62.192H362.614L362.386 62.48C362.386 62.112 362.486 61.82 362.686 61.604C362.894 61.388 363.166 61.28 363.502 61.28C363.918 61.28 364.238 61.436 364.462 61.748C364.694 62.06 364.81 62.472 364.81 62.984V68H363.814V62.972C363.814 62.7 363.754 62.488 363.634 62.336C363.522 62.184 363.354 62.108 363.13 62.108C362.914 62.108 362.742 62.184 362.614 62.336C362.494 62.48 362.434 62.688 362.434 62.96V68H361.57V62.972C361.57 62.692 361.506 62.48 361.378 62.336C361.258 62.184 361.086 62.108 360.862 62.108C360.638 62.108 360.47 62.184 360.358 62.336C360.246 62.48 360.19 62.688 360.19 62.96V68H359.194ZM369.198 68.12C368.678 68.12 368.222 68.016 367.83 67.808C367.446 67.6 367.146 67.308 366.93 66.932C366.722 66.548 366.618 66.104 366.618 65.6V63.8C366.618 63.288 366.722 62.844 366.93 62.468C367.146 62.092 367.446 61.8 367.83 61.592C368.222 61.384 368.678 61.28 369.198 61.28C369.718 61.28 370.17 61.384 370.554 61.592C370.946 61.8 371.246 62.092 371.454 62.468C371.67 62.844 371.778 63.288 371.778 63.8V64.964H367.674V65.6C367.674 66.12 367.806 66.52 368.07 66.8C368.334 67.072 368.71 67.208 369.198 67.208C369.614 67.208 369.95 67.136 370.206 66.992C370.462 66.84 370.618 66.616 370.674 66.32H371.754C371.682 66.872 371.41 67.312 370.938 67.64C370.474 67.96 369.894 68.12 369.198 68.12ZM370.722 64.244V63.8C370.722 63.28 370.59 62.88 370.326 62.6C370.07 62.32 369.694 62.18 369.198 62.18C368.71 62.18 368.334 62.32 368.07 62.6C367.806 62.88 367.674 63.28 367.674 63.8V64.148H370.806L370.722 64.244ZM373.897 68V61.4H374.977V62.66H375.205L374.977 62.912C374.977 62.392 375.133 61.992 375.445 61.712C375.757 61.424 376.189 61.28 376.741 61.28C377.405 61.28 377.933 61.484 378.325 61.892C378.717 62.3 378.913 62.856 378.913 63.56V68H377.833V63.68C377.833 63.208 377.705 62.848 377.449 62.6C377.201 62.344 376.861 62.216 376.429 62.216C375.981 62.216 375.625 62.352 375.361 62.624C375.105 62.896 374.977 63.288 374.977 63.8V68H373.897ZM384.308 68C383.74 68 383.296 67.848 382.976 67.544C382.664 67.24 382.508 66.812 382.508 66.26V62.384H380.648V61.4H382.508V59.54H383.588V61.4H386.228V62.384H383.588V66.26C383.588 66.764 383.828 67.016 384.308 67.016H386.108V68H384.308ZM351.929 84C351.361 84 350.917 83.848 350.597 83.544C350.285 83.24 350.129 82.812 350.129 82.26V78.384H348.269V77.4H350.129V75.54H351.209V77.4H353.849V78.384H351.209V82.26C351.209 82.764 351.449 83.016 351.929 83.016H353.729V84H351.929ZM356.137 84V77.4H357.193V78.66H357.445L357.097 79.44C357.097 78.728 357.249 78.192 357.553 77.832C357.865 77.464 358.325 77.28 358.933 77.28C359.629 77.28 360.181 77.5 360.589 77.94C361.005 78.372 361.213 78.96 361.213 79.704V80.1H360.133V79.8C360.133 79.28 360.005 78.884 359.749 78.612C359.501 78.332 359.145 78.192 358.681 78.192C358.225 78.192 357.865 78.332 357.601 78.612C357.345 78.892 357.217 79.288 357.217 79.8V84H356.137ZM365.6 84.12C365.08 84.12 364.624 84.016 364.232 83.808C363.848 83.6 363.548 83.308 363.332 82.932C363.124 82.548 363.02 82.104 363.02 81.6V79.8C363.02 79.288 363.124 78.844 363.332 78.468C363.548 78.092 363.848 77.8 364.232 77.592C364.624 77.384 365.08 77.28 365.6 77.28C366.12 77.28 366.572 77.384 366.956 77.592C367.348 77.8 367.648 78.092 367.856 78.468C368.072 78.844 368.18 79.288 368.18 79.8V80.964H364.076V81.6C364.076 82.12 364.208 82.52 364.472 82.8C364.736 83.072 365.112 83.208 365.6 83.208C366.016 83.208 366.352 83.136 366.608 82.992C366.864 82.84 367.02 82.616 367.076 82.32H368.156C368.084 82.872 367.812 83.312 367.34 83.64C366.876 83.96 366.296 84.12 365.6 84.12ZM367.124 80.244V79.8C367.124 79.28 366.992 78.88 366.728 78.6C366.472 78.32 366.096 78.18 365.6 78.18C365.112 78.18 364.736 78.32 364.472 78.6C364.208 78.88 364.076 79.28 364.076 79.8V80.148H367.208L367.124 80.244ZM372.795 84.12C372.275 84.12 371.819 84.016 371.427 83.808C371.043 83.6 370.743 83.308 370.527 82.932C370.319 82.548 370.215 82.104 370.215 81.6V79.8C370.215 79.288 370.319 78.844 370.527 78.468C370.743 78.092 371.043 77.8 371.427 77.592C371.819 77.384 372.275 77.28 372.795 77.28C373.315 77.28 373.767 77.384 374.151 77.592C374.543 77.8 374.843 78.092 375.051 78.468C375.267 78.844 375.375 79.288 375.375 79.8V80.964H371.271V81.6C371.271 82.12 371.403 82.52 371.667 82.8C371.931 83.072 372.307 83.208 372.795 83.208C373.211 83.208 373.547 83.136 373.803 82.992C374.059 82.84 374.215 82.616 374.271 82.32H375.351C375.279 82.872 375.007 83.312 374.535 83.64C374.071 83.96 373.491 84.12 372.795 84.12ZM374.319 80.244V79.8C374.319 79.28 374.187 78.88 373.923 78.6C373.667 78.32 373.291 78.18 372.795 78.18C372.307 78.18 371.931 78.32 371.667 78.6C371.403 78.88 371.271 79.28 371.271 79.8V80.148H374.403L374.319 80.244Z" fill="black"/>
<path d="M445.528 137V128.24H450.568V129.224H446.596V131.936H450.148V132.908H446.596V136.016H450.568V137H445.528ZM456.023 137C455.639 137 455.303 136.924 455.015 136.772C454.727 136.62 454.503 136.404 454.343 136.124C454.183 135.844 454.103 135.516 454.103 135.14V129.224H451.883V128.24H455.183V135.14C455.183 135.412 455.259 135.628 455.411 135.788C455.563 135.94 455.767 136.016 456.023 136.016H458.123V137H456.023ZM462.319 137.12C461.799 137.12 461.343 137.016 460.951 136.808C460.567 136.6 460.267 136.308 460.051 135.932C459.843 135.548 459.739 135.104 459.739 134.6V132.8C459.739 132.288 459.843 131.844 460.051 131.468C460.267 131.092 460.567 130.8 460.951 130.592C461.343 130.384 461.799 130.28 462.319 130.28C462.839 130.28 463.291 130.384 463.675 130.592C464.067 130.8 464.367 131.092 464.575 131.468C464.791 131.844 464.899 132.288 464.899 132.8V133.964H460.795V134.6C460.795 135.12 460.927 135.52 461.191 135.8C461.455 136.072 461.831 136.208 462.319 136.208C462.735 136.208 463.071 136.136 463.327 135.992C463.583 135.84 463.739 135.616 463.795 135.32H464.875C464.803 135.872 464.531 136.312 464.059 136.64C463.595 136.96 463.015 137.12 462.319 137.12ZM463.843 133.244V132.8C463.843 132.28 463.711 131.88 463.447 131.6C463.191 131.32 462.815 131.18 462.319 131.18C461.831 131.18 461.455 131.32 461.191 131.6C460.927 131.88 460.795 132.28 460.795 132.8V133.148H463.927L463.843 133.244ZM466.706 137V130.4H467.654V131.192H467.87L467.702 131.48C467.702 131.112 467.798 130.82 467.99 130.604C468.19 130.388 468.458 130.28 468.794 130.28C469.162 130.28 469.446 130.416 469.646 130.688C469.846 130.96 469.946 131.344 469.946 131.84L469.622 131.192H470.126L469.898 131.48C469.898 131.112 469.998 130.82 470.198 130.604C470.406 130.388 470.678 130.28 471.014 130.28C471.43 130.28 471.75 130.436 471.974 130.748C472.206 131.06 472.322 131.472 472.322 131.984V137H471.326V131.972C471.326 131.7 471.266 131.488 471.146 131.336C471.034 131.184 470.866 131.108 470.642 131.108C470.426 131.108 470.254 131.184 470.126 131.336C470.006 131.48 469.946 131.688 469.946 131.96V137H469.082V131.972C469.082 131.692 469.018 131.48 468.89 131.336C468.77 131.184 468.598 131.108 468.374 131.108C468.15 131.108 467.982 131.184 467.87 131.336C467.758 131.48 467.702 131.688 467.702 131.96V137H466.706ZM476.709 137.12C476.189 137.12 475.733 137.016 475.341 136.808C474.957 136.6 474.657 136.308 474.441 135.932C474.233 135.548 474.129 135.104 474.129 134.6V132.8C474.129 132.288 474.233 131.844 474.441 131.468C474.657 131.092 474.957 130.8 475.341 130.592C475.733 130.384 476.189 130.28 476.709 130.28C477.229 130.28 477.681 130.384 478.065 130.592C478.457 130.8 478.757 131.092 478.965 131.468C479.181 131.844 479.289 132.288 479.289 132.8V133.964H475.185V134.6C475.185 135.12 475.317 135.52 475.581 135.8C475.845 136.072 476.221 136.208 476.709 136.208C477.125 136.208 477.461 136.136 477.717 135.992C477.973 135.84 478.129 135.616 478.185 135.32H479.265C479.193 135.872 478.921 136.312 478.449 136.64C477.985 136.96 477.405 137.12 476.709 137.12ZM478.233 133.244V132.8C478.233 132.28 478.101 131.88 477.837 131.6C477.581 131.32 477.205 131.18 476.709 131.18C476.221 131.18 475.845 131.32 475.581 131.6C475.317 131.88 475.185 132.28 475.185 132.8V133.148H478.317L478.233 133.244ZM481.409 137V130.4H482.489V131.66H482.717L482.489 131.912C482.489 131.392 482.645 130.992 482.957 130.712C483.269 130.424 483.701 130.28 484.253 130.28C484.917 130.28 485.445 130.484 485.837 130.892C486.229 131.3 486.425 131.856 486.425 132.56V137H485.345V132.68C485.345 132.208 485.217 131.848 484.961 131.6C484.713 131.344 484.373 131.216 483.941 131.216C483.493 131.216 483.137 131.352 482.873 131.624C482.617 131.896 482.489 132.288 482.489 132.8V137H481.409ZM491.82 137C491.252 137 490.808 136.848 490.488 136.544C490.176 136.24 490.02 135.812 490.02 135.26V131.384H488.16V130.4H490.02V128.54H491.1V130.4H493.74V131.384H491.1V135.26C491.1 135.764 491.34 136.016 491.82 136.016H493.62V137H491.82ZM506.211 137C505.643 137 505.199 136.848 504.879 136.544C504.567 136.24 504.411 135.812 504.411 135.26V131.384H502.551V130.4H504.411V128.54H505.491V130.4H508.131V131.384H505.491V135.26C505.491 135.764 505.731 136.016 506.211 136.016H508.011V137H506.211ZM510.418 137V130.4H511.474V131.66H511.726L511.378 132.44C511.378 131.728 511.53 131.192 511.834 130.832C512.146 130.464 512.606 130.28 513.214 130.28C513.91 130.28 514.462 130.5 514.87 130.94C515.286 131.372 515.494 131.96 515.494 132.704V133.1H514.414V132.8C514.414 132.28 514.286 131.884 514.03 131.612C513.782 131.332 513.426 131.192 512.962 131.192C512.506 131.192 512.146 131.332 511.882 131.612C511.626 131.892 511.498 132.288 511.498 132.8V137H510.418ZM519.881 137.12C519.361 137.12 518.905 137.016 518.513 136.808C518.129 136.6 517.829 136.308 517.613 135.932C517.405 135.548 517.301 135.104 517.301 134.6V132.8C517.301 132.288 517.405 131.844 517.613 131.468C517.829 131.092 518.129 130.8 518.513 130.592C518.905 130.384 519.361 130.28 519.881 130.28C520.401 130.28 520.853 130.384 521.237 130.592C521.629 130.8 521.929 131.092 522.137 131.468C522.353 131.844 522.461 132.288 522.461 132.8V133.964H518.357V134.6C518.357 135.12 518.489 135.52 518.753 135.8C519.017 136.072 519.393 136.208 519.881 136.208C520.297 136.208 520.633 136.136 520.889 135.992C521.145 135.84 521.301 135.616 521.357 135.32H522.437C522.365 135.872 522.093 136.312 521.621 136.64C521.157 136.96 520.577 137.12 519.881 137.12ZM521.405 133.244V132.8C521.405 132.28 521.273 131.88 521.009 131.6C520.753 131.32 520.377 131.18 519.881 131.18C519.393 131.18 519.017 131.32 518.753 131.6C518.489 131.88 518.357 132.28 518.357 132.8V133.148H521.489L521.405 133.244ZM527.077 137.12C526.557 137.12 526.101 137.016 525.709 136.808C525.325 136.6 525.025 136.308 524.809 135.932C524.601 135.548 524.497 135.104 524.497 134.6V132.8C524.497 132.288 524.601 131.844 524.809 131.468C525.025 131.092 525.325 130.8 525.709 130.592C526.101 130.384 526.557 130.28 527.077 130.28C527.597 130.28 528.049 130.384 528.433 130.592C528.825 130.8 529.125 131.092 529.333 131.468C529.549 131.844 529.657 132.288 529.657 132.8V133.964H525.553V134.6C525.553 135.12 525.685 135.52 525.949 135.8C526.213 136.072 526.589 136.208 527.077 136.208C527.493 136.208 527.829 136.136 528.085 135.992C528.341 135.84 528.497 135.616 528.553 135.32H529.633C529.561 135.872 529.289 136.312 528.817 136.64C528.353 136.96 527.773 137.12 527.077 137.12ZM528.601 133.244V132.8C528.601 132.28 528.469 131.88 528.205 131.6C527.949 131.32 527.573 131.18 527.077 131.18C526.589 131.18 526.213 131.32 525.949 131.6C525.685 131.88 525.553 132.28 525.553 132.8V133.148H528.685L528.601 133.244ZM442.953 154.44C441.817 154.16 440.933 153.608 440.301 152.784C439.669 151.96 439.353 150.952 439.353 149.76V147.6C439.353 146.816 439.497 146.108 439.785 145.476C440.081 144.836 440.497 144.296 441.033 143.856C441.577 143.416 442.217 143.104 442.953 142.92V143.94C442.441 144.06 441.997 144.292 441.621 144.636C441.245 144.972 440.953 145.392 440.745 145.896C440.537 146.4 440.433 146.968 440.433 147.6V149.76C440.433 150.376 440.533 150.936 440.733 151.44C440.941 151.944 441.233 152.364 441.609 152.7C441.993 153.028 442.441 153.252 442.953 153.372V154.44ZM445.348 153V152.016H447.688V147.384H445.648V146.4H448.768V152.016H450.988V153H445.348ZM448.108 145.212C447.844 145.212 447.636 145.144 447.484 145.008C447.332 144.872 447.256 144.688 447.256 144.456C447.256 144.216 447.332 144.028 447.484 143.892C447.636 143.748 447.844 143.676 448.108 143.676C448.372 143.676 448.58 143.748 448.732 143.892C448.884 144.028 448.96 144.216 448.96 144.456C448.96 144.688 448.884 144.872 448.732 145.008C448.58 145.144 448.372 145.212 448.108 145.212ZM452.627 153V146.4H453.707V147.66H453.935L453.707 147.912C453.707 147.392 453.863 146.992 454.175 146.712C454.487 146.424 454.919 146.28 455.471 146.28C456.135 146.28 456.663 146.484 457.055 146.892C457.447 147.3 457.643 147.856 457.643 148.56V153H456.563V148.68C456.563 148.208 456.435 147.848 456.179 147.6C455.931 147.344 455.591 147.216 455.159 147.216C454.711 147.216 454.355 147.352 454.091 147.624C453.835 147.896 453.707 148.288 453.707 148.8V153H452.627ZM469.154 153.12C468.314 153.12 467.654 152.884 467.174 152.412C466.694 151.94 466.454 151.296 466.454 150.48H467.534C467.534 151.016 467.674 151.432 467.954 151.728C468.242 152.016 468.642 152.16 469.154 152.16C469.666 152.16 470.062 152.016 470.342 151.728C470.63 151.432 470.774 151.016 470.774 150.48V145.224H468.674V144.24H471.854V150.48C471.854 151.296 471.61 151.94 471.122 152.412C470.642 152.884 469.986 153.12 469.154 153.12ZM476.757 153.12C476.181 153.12 475.685 153.024 475.269 152.832C474.861 152.64 474.545 152.364 474.321 152.004C474.097 151.644 473.981 151.216 473.973 150.72H475.053C475.053 151.16 475.201 151.508 475.497 151.764C475.801 152.02 476.221 152.148 476.757 152.148C477.261 152.148 477.653 152.024 477.933 151.776C478.221 151.528 478.365 151.184 478.365 150.744C478.365 150.392 478.269 150.084 478.077 149.82C477.893 149.556 477.625 149.372 477.273 149.268L476.085 148.896C475.485 148.712 475.021 148.404 474.693 147.972C474.373 147.54 474.213 147.032 474.213 146.448C474.213 145.976 474.317 145.568 474.525 145.224C474.741 144.872 475.041 144.6 475.425 144.408C475.809 144.208 476.261 144.108 476.781 144.108C477.549 144.108 478.165 144.324 478.629 144.756C479.093 145.18 479.329 145.748 479.337 146.46H478.257C478.257 146.028 478.125 145.692 477.861 145.452C477.605 145.204 477.241 145.08 476.769 145.08C476.305 145.08 475.941 145.192 475.677 145.416C475.421 145.64 475.293 145.952 475.293 146.352C475.293 146.712 475.389 147.024 475.581 147.288C475.773 147.552 476.049 147.74 476.409 147.852L477.609 148.236C478.193 148.42 478.645 148.732 478.965 149.172C479.285 149.612 479.445 150.128 479.445 150.72C479.445 151.2 479.333 151.62 479.109 151.98C478.885 152.34 478.569 152.62 478.161 152.82C477.761 153.02 477.293 153.12 476.757 153.12ZM483.905 153.12C483.377 153.12 482.921 153.02 482.537 152.82C482.161 152.62 481.869 152.332 481.661 151.956C481.461 151.572 481.361 151.12 481.361 150.6V146.64C481.361 146.112 481.461 145.66 481.661 145.284C481.869 144.908 482.161 144.62 482.537 144.42C482.921 144.22 483.377 144.12 483.905 144.12C484.433 144.12 484.885 144.22 485.261 144.42C485.645 144.62 485.937 144.908 486.137 145.284C486.345 145.66 486.449 146.108 486.449 146.628V150.6C486.449 151.12 486.345 151.572 486.137 151.956C485.937 152.332 485.645 152.62 485.261 152.82C484.885 153.02 484.433 153.12 483.905 153.12ZM483.905 152.148C484.377 152.148 484.737 152.016 484.985 151.752C485.241 151.48 485.369 151.096 485.369 150.6V146.64C485.369 146.144 485.241 145.764 484.985 145.5C484.737 145.228 484.377 145.092 483.905 145.092C483.441 145.092 483.081 145.228 482.825 145.5C482.569 145.764 482.441 146.144 482.441 146.64V150.6C482.441 151.096 482.569 151.48 482.825 151.752C483.081 152.016 483.441 152.148 483.905 152.148ZM488.58 153V144.24H490.02L492.696 151.74C492.68 151.54 492.66 151.296 492.636 151.008C492.62 150.712 492.604 150.404 492.588 150.084C492.58 149.756 492.576 149.448 492.576 149.16V144.24H493.62V153H492.18L489.516 145.5C489.532 145.692 489.548 145.936 489.564 146.232C489.58 146.52 489.592 146.828 489.6 147.156C489.616 147.476 489.624 147.784 489.624 148.08V153H488.58ZM504.531 153V148.044H502.611V147.06H504.531V145.92C504.531 145.4 504.695 144.992 505.023 144.696C505.351 144.392 505.803 144.24 506.379 144.24H508.311V145.224H506.379C506.131 145.224 505.939 145.284 505.803 145.404C505.675 145.516 505.611 145.688 505.611 145.92V147.06H508.311V148.044H505.611V153H504.531ZM512.686 153.096C512.158 153.096 511.702 152.996 511.318 152.796C510.934 152.596 510.634 152.308 510.418 151.932C510.21 151.548 510.106 151.096 510.106 150.576V148.824C510.106 148.296 510.21 147.844 510.418 147.468C510.634 147.092 510.934 146.804 511.318 146.604C511.702 146.404 512.158 146.304 512.686 146.304C513.214 146.304 513.67 146.404 514.054 146.604C514.438 146.804 514.734 147.092 514.942 147.468C515.158 147.844 515.266 148.292 515.266 148.812V150.576C515.266 151.096 515.158 151.548 514.942 151.932C514.734 152.308 514.438 152.596 514.054 152.796C513.67 152.996 513.214 153.096 512.686 153.096ZM512.686 152.136C513.158 152.136 513.526 152.004 513.79 151.74C514.054 151.476 514.186 151.088 514.186 150.576V148.824C514.186 148.312 514.054 147.924 513.79 147.66C513.526 147.396 513.158 147.264 512.686 147.264C512.222 147.264 511.854 147.396 511.582 147.66C511.318 147.924 511.186 148.312 511.186 148.824V150.576C511.186 151.088 511.318 151.476 511.582 151.74C511.854 152.004 512.222 152.136 512.686 152.136ZM517.613 153V146.4H518.669V147.66H518.921L518.573 148.44C518.573 147.728 518.725 147.192 519.029 146.832C519.341 146.464 519.801 146.28 520.409 146.28C521.105 146.28 521.657 146.5 522.065 146.94C522.481 147.372 522.689 147.96 522.689 148.704V149.1H521.609V148.8C521.609 148.28 521.481 147.884 521.225 147.612C520.977 147.332 520.621 147.192 520.157 147.192C519.701 147.192 519.341 147.332 519.077 147.612C518.821 147.892 518.693 148.288 518.693 148.8V153H517.613ZM524.269 153V146.4H525.217V147.192H525.433L525.265 147.48C525.265 147.112 525.361 146.82 525.553 146.604C525.753 146.388 526.021 146.28 526.357 146.28C526.725 146.28 527.009 146.416 527.209 146.688C527.409 146.96 527.509 147.344 527.509 147.84L527.185 147.192H527.689L527.461 147.48C527.461 147.112 527.561 146.82 527.761 146.604C527.969 146.388 528.241 146.28 528.577 146.28C528.993 146.28 529.313 146.436 529.537 146.748C529.769 147.06 529.885 147.472 529.885 147.984V153H528.889V147.972C528.889 147.7 528.829 147.488 528.709 147.336C528.597 147.184 528.429 147.108 528.205 147.108C527.989 147.108 527.817 147.184 527.689 147.336C527.569 147.48 527.509 147.688 527.509 147.96V153H526.645V147.972C526.645 147.692 526.581 147.48 526.453 147.336C526.333 147.184 526.161 147.108 525.937 147.108C525.713 147.108 525.545 147.184 525.433 147.336C525.321 147.48 525.265 147.688 525.265 147.96V153H524.269ZM532.052 154.44V153.372C532.572 153.252 533.02 153.028 533.396 152.7C533.772 152.364 534.06 151.944 534.26 151.44C534.468 150.936 534.572 150.376 534.572 149.76V147.6C534.572 146.968 534.468 146.4 534.26 145.896C534.052 145.392 533.76 144.972 533.384 144.636C533.008 144.292 532.564 144.06 532.052 143.94V142.92C532.796 143.104 533.436 143.416 533.972 143.856C534.508 144.296 534.92 144.836 535.208 145.476C535.504 146.108 535.652 146.816 535.652 147.6V149.76C535.652 150.952 535.336 151.96 534.704 152.784C534.072 153.608 533.188 154.16 532.052 154.44Z" fill="black"/>
<path d="M467.434 212V204.7H469.784C470.237 204.7 470.63 204.79 470.964 204.97C471.297 205.143 471.554 205.39 471.734 205.71C471.92 206.03 472.014 206.41 472.014 206.85C472.014 207.283 471.92 207.663 471.734 207.99C471.554 208.31 471.297 208.56 470.964 208.74C470.63 208.913 470.237 209 469.784 209H468.334V212H467.434ZM468.334 208.19H469.784C470.177 208.19 470.49 208.07 470.724 207.83C470.964 207.583 471.084 207.257 471.084 206.85C471.084 206.437 470.964 206.11 470.724 205.87C470.49 205.63 470.177 205.51 469.784 205.51H468.334V208.19ZM475.03 212.1C474.45 212.1 473.993 211.953 473.66 211.66C473.326 211.36 473.16 210.957 473.16 210.45C473.16 209.937 473.326 209.533 473.66 209.24C473.993 208.947 474.443 208.8 475.01 208.8H476.71V208.25C476.71 207.91 476.606 207.65 476.4 207.47C476.2 207.283 475.913 207.19 475.54 207.19C475.213 207.19 474.94 207.26 474.72 207.4C474.5 207.533 474.373 207.717 474.34 207.95H473.44C473.5 207.477 473.723 207.1 474.11 206.82C474.496 206.54 474.98 206.4 475.56 206.4C476.193 206.4 476.693 206.563 477.06 206.89C477.426 207.217 477.61 207.66 477.61 208.22V212H476.73V210.95H476.58L476.73 210.8C476.73 211.2 476.573 211.517 476.26 211.75C475.953 211.983 475.543 212.1 475.03 212.1ZM475.25 211.39C475.676 211.39 476.026 211.283 476.3 211.07C476.573 210.857 476.71 210.583 476.71 210.25V209.47H475.03C474.73 209.47 474.493 209.553 474.32 209.72C474.146 209.887 474.06 210.113 474.06 210.4C474.06 210.707 474.163 210.95 474.37 211.13C474.583 211.303 474.876 211.39 475.25 211.39ZM481.546 212.1C481.106 212.1 480.719 212.017 480.386 211.85C480.059 211.683 479.806 211.443 479.626 211.13C479.446 210.81 479.356 210.433 479.356 210V208.5C479.356 208.06 479.446 207.683 479.626 207.37C479.806 207.057 480.059 206.817 480.386 206.65C480.719 206.483 481.106 206.4 481.546 206.4C482.179 206.4 482.689 206.57 483.076 206.91C483.463 207.25 483.666 207.713 483.686 208.3H482.786C482.766 207.947 482.646 207.677 482.426 207.49C482.213 207.297 481.919 207.2 481.546 207.2C481.153 207.2 480.839 207.313 480.606 207.54C480.373 207.76 480.256 208.077 480.256 208.49V210C480.256 210.413 480.373 210.733 480.606 210.96C480.839 211.187 481.153 211.3 481.546 211.3C481.919 211.3 482.213 211.203 482.426 211.01C482.646 210.817 482.766 210.547 482.786 210.2H483.686C483.666 210.787 483.463 211.25 483.076 211.59C482.689 211.93 482.179 212.1 481.546 212.1ZM485.452 212V204.7H486.352V208.77H487.412L489.012 206.5H490.042L488.192 209.12L490.072 212H489.022L487.422 209.55H486.352V212H485.452ZM493.018 212.1C492.438 212.1 491.981 211.953 491.648 211.66C491.315 211.36 491.148 210.957 491.148 210.45C491.148 209.937 491.315 209.533 491.648 209.24C491.981 208.947 492.431 208.8 492.998 208.8H494.698V208.25C494.698 207.91 494.595 207.65 494.388 207.47C494.188 207.283 493.901 207.19 493.528 207.19C493.201 207.19 492.928 207.26 492.708 207.4C492.488 207.533 492.361 207.717 492.328 207.95H491.428C491.488 207.477 491.711 207.1 492.098 206.82C492.485 206.54 492.968 206.4 493.548 206.4C494.181 206.4 494.681 206.563 495.048 206.89C495.415 207.217 495.598 207.66 495.598 208.22V212H494.718V210.95H494.568L494.718 210.8C494.718 211.2 494.561 211.517 494.248 211.75C493.941 211.983 493.531 212.1 493.018 212.1ZM493.238 211.39C493.665 211.39 494.015 211.283 494.288 211.07C494.561 210.857 494.698 210.583 494.698 210.25V209.47H493.018C492.718 209.47 492.481 209.553 492.308 209.72C492.135 209.887 492.048 210.113 492.048 210.4C492.048 210.707 492.151 210.95 492.358 211.13C492.571 211.303 492.865 211.39 493.238 211.39ZM498.104 213.8V212.98H499.854C500.134 212.98 500.337 212.917 500.464 212.79C500.597 212.663 500.664 212.467 500.664 212.2V211.5L500.684 210.5H500.504L500.674 210.35C500.674 210.75 500.541 211.067 500.274 211.3C500.007 211.533 499.651 211.65 499.204 211.65C498.637 211.65 498.191 211.467 497.864 211.1C497.537 210.727 497.374 210.227 497.374 209.6V208.44C497.374 207.813 497.537 207.317 497.864 206.95C498.191 206.583 498.637 206.4 499.204 206.4C499.651 206.4 500.007 206.517 500.274 206.75C500.541 206.983 500.674 207.3 500.674 207.7L500.504 207.55H500.674V206.5H501.564V212.2C501.564 212.693 501.411 213.083 501.104 213.37C500.804 213.657 500.384 213.8 499.844 213.8H498.104ZM499.474 210.87C499.847 210.87 500.141 210.753 500.354 210.52C500.567 210.287 500.674 209.963 500.674 209.55V208.5C500.674 208.087 500.567 207.763 500.354 207.53C500.141 207.297 499.847 207.18 499.474 207.18C499.094 207.18 498.797 207.293 498.584 207.52C498.377 207.747 498.274 208.073 498.274 208.5V209.55C498.274 209.977 498.377 210.303 498.584 210.53C498.797 210.757 499.094 210.87 499.474 210.87ZM505.49 212.1C505.057 212.1 504.677 212.013 504.35 211.84C504.03 211.667 503.78 211.423 503.6 211.11C503.427 210.79 503.34 210.42 503.34 210V208.5C503.34 208.073 503.427 207.703 503.6 207.39C503.78 207.077 504.03 206.833 504.35 206.66C504.677 206.487 505.057 206.4 505.49 206.4C505.924 206.4 506.3 206.487 506.62 206.66C506.947 206.833 507.197 207.077 507.37 207.39C507.55 207.703 507.64 208.073 507.64 208.5V209.47H504.22V210C504.22 210.433 504.33 210.767 504.55 211C504.77 211.227 505.084 211.34 505.49 211.34C505.837 211.34 506.117 211.28 506.33 211.16C506.544 211.033 506.674 210.847 506.72 210.6H507.62C507.56 211.06 507.334 211.427 506.94 211.7C506.554 211.967 506.07 212.1 505.49 212.1ZM506.76 208.87V208.5C506.76 208.067 506.65 207.733 506.43 207.5C506.217 207.267 505.904 207.15 505.49 207.15C505.084 207.15 504.77 207.267 504.55 207.5C504.33 207.733 504.22 208.067 504.22 208.5V208.79H506.83L506.76 208.87Z" fill="black"/>
<path d="M576.014 68.12C575.486 68.12 575.03 68.02 574.646 67.82C574.27 67.62 573.978 67.332 573.77 66.956C573.57 66.572 573.47 66.12 573.47 65.6V61.64C573.47 61.112 573.57 60.66 573.77 60.284C573.978 59.908 574.27 59.62 574.646 59.42C575.03 59.22 575.486 59.12 576.014 59.12C576.542 59.12 576.994 59.22 577.37 59.42C577.754 59.62 578.046 59.908 578.246 60.284C578.454 60.66 578.558 61.108 578.558 61.628V65.6C578.558 66.12 578.454 66.572 578.246 66.956C578.046 67.332 577.754 67.62 577.37 67.82C576.994 68.02 576.542 68.12 576.014 68.12ZM576.014 67.148C576.486 67.148 576.846 67.016 577.094 66.752C577.35 66.48 577.478 66.096 577.478 65.6V61.64C577.478 61.144 577.35 60.764 577.094 60.5C576.846 60.228 576.486 60.092 576.014 60.092C575.55 60.092 575.19 60.228 574.934 60.5C574.678 60.764 574.55 61.144 574.55 61.64V65.6C574.55 66.096 574.678 66.48 574.934 66.752C575.19 67.016 575.55 67.148 576.014 67.148ZM583.197 68.12C582.437 68.12 581.829 67.896 581.373 67.448C580.917 66.992 580.689 66.376 580.689 65.6V61.4H581.769V65.6C581.769 66.096 581.897 66.484 582.153 66.764C582.409 67.036 582.757 67.172 583.197 67.172C583.645 67.172 583.997 67.036 584.253 66.764C584.517 66.484 584.649 66.096 584.649 65.6V61.4H585.729V65.6C585.729 66.376 585.497 66.992 585.033 67.448C584.569 67.896 583.957 68.12 583.197 68.12ZM591.125 68C590.557 68 590.113 67.848 589.793 67.544C589.481 67.24 589.325 66.812 589.325 66.26V62.384H587.465V61.4H589.325V59.54H590.405V61.4H593.045V62.384H590.405V66.26C590.405 66.764 590.645 67.016 591.125 67.016H592.925V68H591.125ZM595.104 70.16V61.4H596.184V62.66H596.4L596.184 62.912C596.184 62.408 596.348 62.012 596.676 61.724C597.012 61.428 597.452 61.28 597.996 61.28C598.66 61.28 599.188 61.5 599.58 61.94C599.98 62.372 600.18 62.968 600.18 63.728V65.66C600.18 66.164 600.088 66.6 599.904 66.968C599.728 67.336 599.476 67.62 599.148 67.82C598.828 68.02 598.444 68.12 597.996 68.12C597.46 68.12 597.024 67.972 596.688 67.676C596.352 67.38 596.184 66.984 596.184 66.488L596.4 66.74H596.16L596.184 68.24V70.16H595.104ZM597.636 67.184C598.092 67.184 598.448 67.048 598.704 66.776C598.968 66.504 599.1 66.112 599.1 65.6V63.8C599.1 63.288 598.968 62.896 598.704 62.624C598.448 62.352 598.092 62.216 597.636 62.216C597.196 62.216 596.844 62.356 596.58 62.636C596.316 62.916 596.184 63.304 596.184 63.8V65.6C596.184 66.096 596.316 66.484 596.58 66.764C596.844 67.044 597.196 67.184 597.636 67.184ZM604.783 68.12C604.023 68.12 603.415 67.896 602.959 67.448C602.503 66.992 602.275 66.376 602.275 65.6V61.4H603.355V65.6C603.355 66.096 603.483 66.484 603.739 66.764C603.995 67.036 604.343 67.172 604.783 67.172C605.231 67.172 605.583 67.036 605.839 66.764C606.103 66.484 606.235 66.096 606.235 65.6V61.4H607.315V65.6C607.315 66.376 607.083 66.992 606.619 67.448C606.155 67.896 605.543 68.12 604.783 68.12ZM612.711 68C612.143 68 611.699 67.848 611.379 67.544C611.067 67.24 610.911 66.812 610.911 66.26V62.384H609.051V61.4H610.911V59.54H611.991V61.4H614.631V62.384H611.991V66.26C611.991 66.764 612.231 67.016 612.711 67.016H614.511V68H612.711ZM583.929 84C583.361 84 582.917 83.848 582.597 83.544C582.285 83.24 582.129 82.812 582.129 82.26V78.384H580.269V77.4H582.129V75.54H583.209V77.4H585.849V78.384H583.209V82.26C583.209 82.764 583.449 83.016 583.929 83.016H585.729V84H583.929ZM590.405 84.12C589.885 84.12 589.429 84.016 589.037 83.808C588.653 83.6 588.353 83.308 588.137 82.932C587.929 82.548 587.825 82.104 587.825 81.6V79.8C587.825 79.288 587.929 78.844 588.137 78.468C588.353 78.092 588.653 77.8 589.037 77.592C589.429 77.384 589.885 77.28 590.405 77.28C590.925 77.28 591.377 77.384 591.761 77.592C592.153 77.8 592.453 78.092 592.661 78.468C592.877 78.844 592.985 79.288 592.985 79.8V80.964H588.881V81.6C588.881 82.12 589.013 82.52 589.277 82.8C589.541 83.072 589.917 83.208 590.405 83.208C590.821 83.208 591.157 83.136 591.413 82.992C591.669 82.84 591.825 82.616 591.881 82.32H592.961C592.889 82.872 592.617 83.312 592.145 83.64C591.681 83.96 591.101 84.12 590.405 84.12ZM591.929 80.244V79.8C591.929 79.28 591.797 78.88 591.533 78.6C591.277 78.32 590.901 78.18 590.405 78.18C589.917 78.18 589.541 78.32 589.277 78.6C589.013 78.88 588.881 79.28 588.881 79.8V80.148H592.013L591.929 80.244ZM594.6 84L596.94 80.604L594.744 77.4H596.016L597.324 79.44C597.38 79.528 597.432 79.624 597.48 79.728C597.536 79.832 597.58 79.916 597.612 79.98C597.636 79.916 597.672 79.832 597.72 79.728C597.776 79.624 597.832 79.528 597.888 79.44L599.208 77.4H600.468L598.272 80.616L600.6 84H599.328L597.912 81.84C597.856 81.752 597.8 81.652 597.744 81.54C597.696 81.42 597.652 81.324 597.612 81.252C597.58 81.324 597.532 81.42 597.468 81.54C597.412 81.652 597.352 81.752 597.288 81.84L595.86 84H594.6ZM605.515 84C604.947 84 604.503 83.848 604.183 83.544C603.871 83.24 603.715 82.812 603.715 82.26V78.384H601.855V77.4H603.715V75.54H604.795V77.4H607.435V78.384H604.795V82.26C604.795 82.764 605.035 83.016 605.515 83.016H607.315V84H605.515Z" fill="black"/>
<path d="M121.932 75V67.7H124.282C124.735 67.7 125.128 67.79 125.462 67.97C125.795 68.1433 126.052 68.39 126.232 68.71C126.418 69.03 126.512 69.41 126.512 69.85C126.512 70.2833 126.418 70.6633 126.232 70.99C126.052 71.31 125.795 71.56 125.462 71.74C125.128 71.9133 124.735 72 124.282 72H122.832V75H121.932ZM122.832 71.19H124.282C124.675 71.19 124.988 71.07 125.222 70.83C125.462 70.5833 125.582 70.2567 125.582 69.85C125.582 69.4367 125.462 69.11 125.222 68.87C124.988 68.63 124.675 68.51 124.282 68.51H122.832V71.19ZM129.528 75.1C128.948 75.1 128.491 74.9533 128.158 74.66C127.824 74.36 127.658 73.9567 127.658 73.45C127.658 72.9367 127.824 72.5333 128.158 72.24C128.491 71.9467 128.941 71.8 129.508 71.8H131.208V71.25C131.208 70.91 131.104 70.65 130.898 70.47C130.698 70.2833 130.411 70.19 130.038 70.19C129.711 70.19 129.438 70.26 129.218 70.4C128.998 70.5333 128.871 70.7167 128.838 70.95H127.938C127.998 70.4767 128.221 70.1 128.608 69.82C128.994 69.54 129.478 69.4 130.058 69.4C130.691 69.4 131.191 69.5633 131.558 69.89C131.924 70.2167 132.108 70.66 132.108 71.22V75H131.228V73.95H131.078L131.228 73.8C131.228 74.2 131.071 74.5167 130.758 74.75C130.451 74.9833 130.041 75.1 129.528 75.1ZM129.748 74.39C130.174 74.39 130.524 74.2833 130.798 74.07C131.071 73.8567 131.208 73.5833 131.208 73.25V72.47H129.528C129.228 72.47 128.991 72.5533 128.818 72.72C128.644 72.8867 128.558 73.1133 128.558 73.4C128.558 73.7067 128.661 73.95 128.868 74.13C129.081 74.3033 129.374 74.39 129.748 74.39ZM134.114 75V69.5H134.994V70.55H135.204L134.914 71.2C134.914 70.6067 135.041 70.16 135.294 69.86C135.554 69.5533 135.937 69.4 136.444 69.4C137.024 69.4 137.484 69.5833 137.824 69.95C138.171 70.31 138.344 70.8 138.344 71.42V71.75H137.444V71.5C137.444 71.0667 137.337 70.7367 137.124 70.51C136.917 70.2767 136.621 70.16 136.234 70.16C135.854 70.16 135.554 70.2767 135.334 70.51C135.121 70.7433 135.014 71.0733 135.014 71.5V75H134.114ZM141.83 75.08C141.457 75.08 141.13 75.0233 140.85 74.91C140.577 74.79 140.357 74.6233 140.19 74.41C140.03 74.1967 139.933 73.9433 139.9 73.65H140.8C140.84 73.8433 140.947 73.9967 141.12 74.11C141.3 74.2233 141.537 74.28 141.83 74.28H142.25C142.603 74.28 142.867 74.21 143.04 74.07C143.213 73.9233 143.3 73.73 143.3 73.49C143.3 73.2567 143.22 73.0733 143.06 72.94C142.907 72.8 142.677 72.7067 142.37 72.66L141.63 72.54C141.09 72.4467 140.687 72.28 140.42 72.04C140.16 71.7933 140.03 71.4367 140.03 70.97C140.03 70.4767 140.187 70.0967 140.5 69.83C140.813 69.5567 141.283 69.42 141.91 69.42H142.29C142.817 69.42 143.24 69.5433 143.56 69.79C143.88 70.0367 144.073 70.37 144.14 70.79H143.24C143.2 70.6167 143.1 70.48 142.94 70.38C142.78 70.2733 142.563 70.22 142.29 70.22H141.91C141.57 70.22 141.32 70.2833 141.16 70.41C141.007 70.5367 140.93 70.7267 140.93 70.98C140.93 71.2067 140.997 71.3733 141.13 71.48C141.263 71.5867 141.473 71.6633 141.76 71.71L142.5 71.83C143.093 71.9233 143.523 72.0967 143.79 72.35C144.063 72.6033 144.2 72.97 144.2 73.45C144.2 73.9567 144.037 74.3567 143.71 74.65C143.39 74.9367 142.903 75.08 142.25 75.08H141.83ZM147.996 75.1C147.563 75.1 147.183 75.0133 146.856 74.84C146.536 74.6667 146.286 74.4233 146.106 74.11C145.933 73.79 145.846 73.42 145.846 73V71.5C145.846 71.0733 145.933 70.7033 146.106 70.39C146.286 70.0767 146.536 69.8333 146.856 69.66C147.183 69.4867 147.563 69.4 147.996 69.4C148.429 69.4 148.806 69.4867 149.126 69.66C149.453 69.8333 149.703 70.0767 149.876 70.39C150.056 70.7033 150.146 71.0733 150.146 71.5V72.47H146.726V73C146.726 73.4333 146.836 73.7667 147.056 74C147.276 74.2267 147.589 74.34 147.996 74.34C148.343 74.34 148.623 74.28 148.836 74.16C149.049 74.0333 149.179 73.8467 149.226 73.6H150.126C150.066 74.06 149.839 74.4267 149.446 74.7C149.059 74.9667 148.576 75.1 147.996 75.1ZM149.266 71.87V71.5C149.266 71.0667 149.156 70.7333 148.936 70.5C148.723 70.2667 148.409 70.15 147.996 70.15C147.589 70.15 147.276 70.2667 147.056 70.5C146.836 70.7333 146.726 71.0667 146.726 71.5V71.79H149.336L149.266 71.87ZM152.102 75V69.5H152.982V70.55H153.192L152.902 71.2C152.902 70.6067 153.029 70.16 153.282 69.86C153.542 69.5533 153.926 69.4 154.432 69.4C155.012 69.4 155.472 69.5833 155.812 69.95C156.159 70.31 156.332 70.8 156.332 71.42V71.75H155.432V71.5C155.432 71.0667 155.326 70.7367 155.112 70.51C154.906 70.2767 154.609 70.16 154.222 70.16C153.842 70.16 153.542 70.2767 153.322 70.51C153.109 70.7433 153.002 71.0733 153.002 71.5V75H152.102Z" fill="black"/>
<path d="M451.525 69V61.7H455.725V62.52H452.415V64.78H455.375V65.59H452.415V68.18H455.725V69H451.525ZM458.911 69L457.071 63.5H457.991L459.211 67.2C459.285 67.42 459.351 67.6333 459.411 67.84C459.471 68.04 459.515 68.1967 459.541 68.31C459.575 68.1967 459.621 68.04 459.681 67.84C459.741 67.6333 459.805 67.42 459.871 67.2L461.061 63.5H461.971L460.131 69H458.911ZM465.038 69.1C464.458 69.1 464.001 68.9533 463.668 68.66C463.334 68.36 463.168 67.9567 463.168 67.45C463.168 66.9367 463.334 66.5333 463.668 66.24C464.001 65.9467 464.451 65.8 465.018 65.8H466.718V65.25C466.718 64.91 466.614 64.65 466.408 64.47C466.208 64.2833 465.921 64.19 465.548 64.19C465.221 64.19 464.948 64.26 464.728 64.4C464.508 64.5333 464.381 64.7167 464.348 64.95H463.448C463.508 64.4767 463.731 64.1 464.118 63.82C464.504 63.54 464.988 63.4 465.568 63.4C466.201 63.4 466.701 63.5633 467.068 63.89C467.434 64.2167 467.618 64.66 467.618 65.22V69H466.738V67.95H466.588L466.738 67.8C466.738 68.2 466.581 68.5167 466.268 68.75C465.961 68.9833 465.551 69.1 465.038 69.1ZM465.258 68.39C465.684 68.39 466.034 68.2833 466.308 68.07C466.581 67.8567 466.718 67.5833 466.718 67.25V66.47H465.038C464.738 66.47 464.501 66.5533 464.328 66.72C464.154 66.8867 464.068 67.1133 464.068 67.4C464.068 67.7067 464.171 67.95 464.378 68.13C464.591 68.3033 464.884 68.39 465.258 68.39ZM472.264 69C471.944 69 471.664 68.9367 471.424 68.81C471.184 68.6833 470.997 68.5033 470.864 68.27C470.73 68.0367 470.664 67.7633 470.664 67.45V62.52H468.814V61.7H471.564V67.45C471.564 67.6767 471.627 67.8567 471.754 67.99C471.88 68.1167 472.05 68.18 472.264 68.18H474.014V69H472.264ZM477.5 69.1C476.866 69.1 476.36 68.9133 475.98 68.54C475.6 68.16 475.41 67.6467 475.41 67V63.5H476.31V67C476.31 67.4133 476.416 67.7367 476.63 67.97C476.843 68.1967 477.133 68.31 477.5 68.31C477.873 68.31 478.166 68.1967 478.38 67.97C478.6 67.7367 478.71 67.4133 478.71 67V63.5H479.61V67C479.61 67.6467 479.416 68.16 479.03 68.54C478.643 68.9133 478.133 69.1 477.5 69.1ZM483.026 69.1C482.446 69.1 481.989 68.9533 481.656 68.66C481.323 68.36 481.156 67.9567 481.156 67.45C481.156 66.9367 481.323 66.5333 481.656 66.24C481.989 65.9467 482.439 65.8 483.006 65.8H484.706V65.25C484.706 64.91 484.603 64.65 484.396 64.47C484.196 64.2833 483.909 64.19 483.536 64.19C483.209 64.19 482.936 64.26 482.716 64.4C482.496 64.5333 482.369 64.7167 482.336 64.95H481.436C481.496 64.4767 481.719 64.1 482.106 63.82C482.493 63.54 482.976 63.4 483.556 63.4C484.189 63.4 484.689 63.5633 485.056 63.89C485.423 64.2167 485.606 64.66 485.606 65.22V69H484.726V67.95H484.576L484.726 67.8C484.726 68.2 484.569 68.5167 484.256 68.75C483.949 68.9833 483.539 69.1 483.026 69.1ZM483.246 68.39C483.673 68.39 484.023 68.2833 484.296 68.07C484.569 67.8567 484.706 67.5833 484.706 67.25V66.47H483.026C482.726 66.47 482.489 66.5533 482.316 66.72C482.143 66.8867 482.056 67.1133 482.056 67.4C482.056 67.7067 482.159 67.95 482.366 68.13C482.579 68.3033 482.873 68.39 483.246 68.39ZM490.102 69C489.629 69 489.259 68.8733 488.992 68.62C488.732 68.3667 488.602 68.01 488.602 67.55V64.32H487.052V63.5H488.602V61.95H489.502V63.5H491.702V64.32H489.502V67.55C489.502 67.97 489.702 68.18 490.102 68.18H491.602V69H490.102ZM495.498 69.08C495.058 69.08 494.678 68.9967 494.358 68.83C494.038 68.6633 493.788 68.4233 493.608 68.11C493.435 67.79 493.348 67.4133 493.348 66.98V65.52C493.348 65.08 493.435 64.7033 493.608 64.39C493.788 64.0767 494.038 63.8367 494.358 63.67C494.678 63.5033 495.058 63.42 495.498 63.42C495.938 63.42 496.318 63.5033 496.638 63.67C496.958 63.8367 497.205 64.0767 497.378 64.39C497.558 64.7033 497.648 65.0767 497.648 65.51V66.98C497.648 67.4133 497.558 67.79 497.378 68.11C497.205 68.4233 496.958 68.6633 496.638 68.83C496.318 68.9967 495.938 69.08 495.498 69.08ZM495.498 68.28C495.891 68.28 496.198 68.17 496.418 67.95C496.638 67.73 496.748 67.4067 496.748 66.98V65.52C496.748 65.0933 496.638 64.77 496.418 64.55C496.198 64.33 495.891 64.22 495.498 64.22C495.111 64.22 494.805 64.33 494.578 64.55C494.358 64.77 494.248 65.0933 494.248 65.52V66.98C494.248 67.4067 494.358 67.73 494.578 67.95C494.805 68.17 495.111 68.28 495.498 68.28ZM499.604 69V63.5H500.484V64.55H500.694L500.404 65.2C500.404 64.6067 500.531 64.16 500.784 63.86C501.044 63.5533 501.427 63.4 501.934 63.4C502.514 63.4 502.974 63.5833 503.314 63.95C503.661 64.31 503.834 64.8 503.834 65.42V65.75H502.934V65.5C502.934 65.0667 502.827 64.7367 502.614 64.51C502.407 64.2767 502.111 64.16 501.724 64.16C501.344 64.16 501.044 64.2767 500.824 64.51C500.611 64.7433 500.504 65.0733 500.504 65.5V69H499.604ZM513.006 69.1C512.426 69.1 511.97 68.9533 511.636 68.66C511.303 68.36 511.136 67.9567 511.136 67.45C511.136 66.9367 511.303 66.5333 511.636 66.24C511.97 65.9467 512.42 65.8 512.986 65.8H514.686V65.25C514.686 64.91 514.583 64.65 514.376 64.47C514.176 64.2833 513.89 64.19 513.516 64.19C513.19 64.19 512.916 64.26 512.696 64.4C512.476 64.5333 512.35 64.7167 512.316 64.95H511.416C511.476 64.4767 511.7 64.1 512.086 63.82C512.473 63.54 512.956 63.4 513.536 63.4C514.17 63.4 514.67 63.5633 515.036 63.89C515.403 64.2167 515.586 64.66 515.586 65.22V69H514.706V67.95H514.556L514.706 67.8C514.706 68.2 514.55 68.5167 514.236 68.75C513.93 68.9833 513.52 69.1 513.006 69.1ZM513.226 68.39C513.653 68.39 514.003 68.2833 514.276 68.07C514.55 67.8567 514.686 67.5833 514.686 67.25V66.47H513.006C512.706 66.47 512.47 66.5533 512.296 66.72C512.123 66.8867 512.036 67.1133 512.036 67.4C512.036 67.7067 512.14 67.95 512.346 68.13C512.56 68.3033 512.853 68.39 513.226 68.39ZM517.402 69V63.5H518.302V64.55H518.492L518.302 64.76C518.302 64.3267 518.432 63.9933 518.692 63.76C518.952 63.52 519.312 63.4 519.772 63.4C520.326 63.4 520.766 63.57 521.092 63.91C521.419 64.25 521.582 64.7133 521.582 65.3V69H520.682V65.4C520.682 65.0067 520.576 64.7067 520.362 64.5C520.156 64.2867 519.872 64.18 519.512 64.18C519.139 64.18 518.842 64.2933 518.622 64.52C518.409 64.7467 518.302 65.0733 518.302 65.5V69H517.402ZM525.159 69.1C524.612 69.1 524.169 68.9167 523.829 68.55C523.495 68.1833 523.329 67.6867 523.329 67.06V65.45C523.329 64.8167 523.495 64.3167 523.829 63.95C524.162 63.5833 524.605 63.4 525.159 63.4C525.612 63.4 525.975 63.5233 526.249 63.77C526.522 64.0167 526.659 64.3467 526.659 64.76L526.479 64.55H526.679L526.659 63.3V61.7H527.559V69H526.659V67.95H526.479L526.659 67.74C526.659 68.16 526.522 68.4933 526.249 68.74C525.975 68.98 525.612 69.1 525.159 69.1ZM525.459 68.32C525.832 68.32 526.125 68.2033 526.339 67.97C526.552 67.7367 526.659 67.4133 526.659 67V65.5C526.659 65.0867 526.552 64.7633 526.339 64.53C526.125 64.2967 525.832 64.18 525.459 64.18C525.079 64.18 524.779 64.2933 524.559 64.52C524.339 64.7467 524.229 65.0733 524.229 65.5V67C524.229 67.4267 524.339 67.7533 524.559 67.98C524.779 68.2067 525.079 68.32 525.459 68.32ZM465.348 82.08C464.974 82.08 464.648 82.0233 464.368 81.91C464.094 81.79 463.874 81.6233 463.708 81.41C463.548 81.1967 463.451 80.9433 463.418 80.65H464.318C464.358 80.8433 464.464 80.9967 464.638 81.11C464.818 81.2233 465.054 81.28 465.348 81.28H465.768C466.121 81.28 466.384 81.21 466.558 81.07C466.731 80.9233 466.818 80.73 466.818 80.49C466.818 80.2567 466.738 80.0733 466.578 79.94C466.424 79.8 466.194 79.7067 465.888 79.66L465.148 79.54C464.608 79.4467 464.204 79.28 463.938 79.04C463.678 78.7933 463.548 78.4367 463.548 77.97C463.548 77.4767 463.704 77.0967 464.018 76.83C464.331 76.5567 464.801 76.42 465.428 76.42H465.808C466.334 76.42 466.758 76.5433 467.078 76.79C467.398 77.0367 467.591 77.37 467.658 77.79H466.758C466.718 77.6167 466.618 77.48 466.458 77.38C466.298 77.2733 466.081 77.22 465.808 77.22H465.428C465.088 77.22 464.838 77.2833 464.678 77.41C464.524 77.5367 464.448 77.7267 464.448 77.98C464.448 78.2067 464.514 78.3733 464.648 78.48C464.781 78.5867 464.991 78.6633 465.278 78.71L466.018 78.83C466.611 78.9233 467.041 79.0967 467.308 79.35C467.581 79.6033 467.718 79.97 467.718 80.45C467.718 80.9567 467.554 81.3567 467.228 81.65C466.908 81.9367 466.421 82.08 465.768 82.08H465.348ZM471.554 82.1C471.114 82.1 470.727 82.0167 470.394 81.85C470.067 81.6833 469.814 81.4433 469.634 81.13C469.454 80.81 469.364 80.4333 469.364 80V78.5C469.364 78.06 469.454 77.6833 469.634 77.37C469.814 77.0567 470.067 76.8167 470.394 76.65C470.727 76.4833 471.114 76.4 471.554 76.4C472.187 76.4 472.697 76.57 473.084 76.91C473.47 77.25 473.674 77.7133 473.694 78.3H472.794C472.774 77.9467 472.654 77.6767 472.434 77.49C472.22 77.2967 471.927 77.2 471.554 77.2C471.16 77.2 470.847 77.3133 470.614 77.54C470.38 77.76 470.264 78.0767 470.264 78.49V80C470.264 80.4133 470.38 80.7333 470.614 80.96C470.847 81.1867 471.16 81.3 471.554 81.3C471.927 81.3 472.22 81.2033 472.434 81.01C472.654 80.8167 472.774 80.5467 472.794 80.2H473.694C473.674 80.7867 473.47 81.25 473.084 81.59C472.697 81.93 472.187 82.1 471.554 82.1ZM475.43 82V74.7H476.33V76.5V77.55H476.52L476.33 77.76C476.33 77.3267 476.46 76.9933 476.72 76.76C476.98 76.52 477.34 76.4 477.8 76.4C478.353 76.4 478.793 76.57 479.12 76.91C479.446 77.25 479.61 77.7133 479.61 78.3V82H478.71V78.4C478.71 78.0067 478.603 77.7033 478.39 77.49C478.183 77.27 477.9 77.16 477.54 77.16C477.166 77.16 476.87 77.2767 476.65 77.51C476.436 77.7433 476.33 78.0733 476.33 78.5V82H475.43ZM483.506 82.1C483.073 82.1 482.693 82.0133 482.366 81.84C482.046 81.6667 481.796 81.4233 481.616 81.11C481.443 80.79 481.356 80.42 481.356 80V78.5C481.356 78.0733 481.443 77.7033 481.616 77.39C481.796 77.0767 482.046 76.8333 482.366 76.66C482.693 76.4867 483.073 76.4 483.506 76.4C483.939 76.4 484.316 76.4867 484.636 76.66C484.963 76.8333 485.213 77.0767 485.386 77.39C485.566 77.7033 485.656 78.0733 485.656 78.5V79.47H482.236V80C482.236 80.4333 482.346 80.7667 482.566 81C482.786 81.2267 483.099 81.34 483.506 81.34C483.853 81.34 484.133 81.28 484.346 81.16C484.559 81.0333 484.689 80.8467 484.736 80.6H485.636C485.576 81.06 485.349 81.4267 484.956 81.7C484.569 81.9667 484.086 82.1 483.506 82.1ZM484.776 78.87V78.5C484.776 78.0667 484.666 77.7333 484.446 77.5C484.233 77.2667 483.919 77.15 483.506 77.15C483.099 77.15 482.786 77.2667 482.566 77.5C482.346 77.7333 482.236 78.0667 482.236 78.5V78.79H484.846L484.776 78.87ZM489.182 82.1C488.635 82.1 488.192 81.9167 487.852 81.55C487.519 81.1833 487.352 80.6867 487.352 80.06V78.45C487.352 77.8167 487.519 77.3167 487.852 76.95C488.185 76.5833 488.629 76.4 489.182 76.4C489.635 76.4 489.999 76.5233 490.272 76.77C490.545 77.0167 490.682 77.3467 490.682 77.76L490.502 77.55H490.702L490.682 76.3V74.7H491.582V82H490.682V80.95H490.502L490.682 80.74C490.682 81.16 490.545 81.4933 490.272 81.74C489.999 81.98 489.635 82.1 489.182 82.1ZM489.482 81.32C489.855 81.32 490.149 81.2033 490.362 80.97C490.575 80.7367 490.682 80.4133 490.682 80V78.5C490.682 78.0867 490.575 77.7633 490.362 77.53C490.149 77.2967 489.855 77.18 489.482 77.18C489.102 77.18 488.802 77.2933 488.582 77.52C488.362 77.7467 488.252 78.0733 488.252 78.5V80C488.252 80.4267 488.362 80.7533 488.582 80.98C488.802 81.2067 489.102 81.32 489.482 81.32ZM495.488 82.1C494.855 82.1 494.348 81.9133 493.968 81.54C493.588 81.16 493.398 80.6467 493.398 80V76.5H494.298V80C494.298 80.4133 494.405 80.7367 494.618 80.97C494.831 81.1967 495.121 81.31 495.488 81.31C495.861 81.31 496.155 81.1967 496.368 80.97C496.588 80.7367 496.698 80.4133 496.698 80V76.5H497.598V80C497.598 80.6467 497.405 81.16 497.018 81.54C496.631 81.9133 496.121 82.1 495.488 82.1ZM502.244 82C501.924 82 501.644 81.9367 501.404 81.81C501.164 81.6833 500.977 81.5033 500.844 81.27C500.711 81.0367 500.644 80.7633 500.644 80.45V75.52H498.794V74.7H501.544V80.45C501.544 80.6767 501.607 80.8567 501.734 80.99C501.861 81.1167 502.031 81.18 502.244 81.18H503.994V82H502.244ZM507.49 82.1C507.057 82.1 506.677 82.0133 506.35 81.84C506.03 81.6667 505.78 81.4233 505.6 81.11C505.427 80.79 505.34 80.42 505.34 80V78.5C505.34 78.0733 505.427 77.7033 505.6 77.39C505.78 77.0767 506.03 76.8333 506.35 76.66C506.677 76.4867 507.057 76.4 507.49 76.4C507.924 76.4 508.3 76.4867 508.62 76.66C508.947 76.8333 509.197 77.0767 509.37 77.39C509.55 77.7033 509.64 78.0733 509.64 78.5V79.47H506.22V80C506.22 80.4333 506.33 80.7667 506.55 81C506.77 81.2267 507.084 81.34 507.49 81.34C507.837 81.34 508.117 81.28 508.33 81.16C508.544 81.0333 508.674 80.8467 508.72 80.6H509.62C509.56 81.06 509.334 81.4267 508.94 81.7C508.554 81.9667 508.07 82.1 507.49 82.1ZM508.76 78.87V78.5C508.76 78.0667 508.65 77.7333 508.43 77.5C508.217 77.2667 507.904 77.15 507.49 77.15C507.084 77.15 506.77 77.2667 506.55 77.5C506.33 77.7333 506.22 78.0667 506.22 78.5V78.79H508.83L508.76 78.87ZM511.596 82V76.5H512.476V77.55H512.686L512.396 78.2C512.396 77.6067 512.523 77.16 512.776 76.86C513.036 76.5533 513.42 76.4 513.926 76.4C514.506 76.4 514.966 76.5833 515.306 76.95C515.653 77.31 515.826 77.8 515.826 78.42V78.75H514.926V78.5C514.926 78.0667 514.82 77.7367 514.606 77.51C514.4 77.2767 514.103 77.16 513.716 77.16C513.336 77.16 513.036 77.2767 512.816 77.51C512.603 77.7433 512.496 78.0733 512.496 78.5V82H511.596Z" fill="black"/>
<path d="M91.7071 72.7071C92.0976 72.3166 92.0976 71.6834 91.7071 71.2929L85.3431 64.9289C84.9526 64.5384 84.3195 64.5384 83.9289 64.9289C83.5384 65.3195 83.5384 65.9526 83.9289 66.3431L89.5858 72L83.9289 77.6569C83.5384 78.0474 83.5384 78.6805 83.9289 79.0711C84.3195 79.4616 84.9526 79.4616 85.3431 79.0711L91.7071 72.7071ZM65 73H91V71H65V73Z" fill="black"/>
<path d="M318.707 71.7071C319.098 71.3166 319.098 70.6834 318.707 70.2929L312.343 63.9289C311.953 63.5384 311.319 63.5384 310.929 63.9289C310.538 64.3195 310.538 64.9526 310.929 65.3431L316.586 71L310.929 76.6569C310.538 77.0474 310.538 77.6805 310.929 78.0711C311.319 78.4616 311.953 78.4616 312.343 78.0711L318.707 71.7071ZM292 72H318V70H292V72Z" fill="black"/>
<path d="M487.293 120.707C487.683 121.098 488.317 121.098 488.707 120.707L495.071 114.343C495.462 113.953 495.462 113.319 495.071 112.929C494.681 112.538 494.047 112.538 493.657 112.929L488 118.586L482.343 112.929C481.953 112.538 481.319 112.538 480.929 112.929C480.538 113.319 480.538 113.953 480.929 114.343L487.293 120.707ZM487 94L487 120L489 120L489 94L487 94Z" fill="black"/>
<path d="M487.293 187.707C487.683 188.098 488.317 188.098 488.707 187.707L495.071 181.343C495.462 180.953 495.462 180.319 495.071 179.929C494.681 179.538 494.047 179.538 493.657 179.929L488 185.586L482.343 179.929C481.953 179.538 481.319 179.538 480.929 179.929C480.538 180.319 480.538 180.953 480.929 181.343L487.293 187.707ZM487 161L487 187L489 187L489 161L487 161Z" fill="black"/>
<path d="M569.707 71.7071C570.098 71.3166 570.098 70.6834 569.707 70.2929L563.343 63.9289C562.953 63.5384 562.319 63.5384 561.929 63.9289C561.538 64.3195 561.538 64.9526 561.929 65.3431L567.586 71L561.929 76.6569C561.538 77.0474 561.538 77.6805 561.929 78.0711C562.319 78.4616 562.953 78.4616 563.343 78.0711L569.707 71.7071ZM543 72H569V70H543V72Z" fill="black"/>
<path d="M434.707 72.7071C435.098 72.3166 435.098 71.6834 434.707 71.2929L428.343 64.9289C427.953 64.5384 427.319 64.5384 426.929 64.9289C426.538 65.3195 426.538 65.9526 426.929 66.3431L432.586 72L426.929 77.6569C426.538 78.0474 426.538 78.6805 426.929 79.0711C427.319 79.4616 427.953 79.4616 428.343 79.0711L434.707 72.7071ZM408 73H434V71H408V73Z" fill="black"/>
<path d="M208.707 71.7071C209.098 71.3166 209.098 70.6834 208.707 70.2929L202.343 63.9289C201.953 63.5384 201.319 63.5384 200.929 63.9289C200.538 64.3195 200.538 64.9526 200.929 65.3431L206.586 71L200.929 76.6569C200.538 77.0474 200.538 77.6805 200.929 78.0711C201.319 78.4616 201.953 78.4616 202.343 78.0711L208.707 71.7071ZM182 72H208V70H182V72Z" fill="black"/>
<path d="M363 94C363 168 409.333 202.833 432.5 211H219C192.833 210.667 140.5 186.8 140.5 94M363 94L355.5 101.5M363 94L370.5 101.5M140.5 94L133.5 101M140.5 94L147.5 101" stroke="black" stroke-width="2"/>
<path d="M316.574 35.12C316.046 35.12 315.582 35.02 315.182 34.82C314.79 34.62 314.486 34.332 314.27 33.956C314.054 33.572 313.946 33.12 313.946 32.6V30.8C313.946 30.272 314.054 29.82 314.27 29.444C314.486 29.068 314.79 28.78 315.182 28.58C315.582 28.38 316.046 28.28 316.574 28.28C317.334 28.28 317.946 28.484 318.41 28.892C318.874 29.3 319.118 29.856 319.142 30.56H318.062C318.038 30.136 317.894 29.812 317.63 29.588C317.374 29.356 317.022 29.24 316.574 29.24C316.102 29.24 315.726 29.376 315.446 29.648C315.166 29.912 315.026 30.292 315.026 30.788V32.6C315.026 33.096 315.166 33.48 315.446 33.752C315.726 34.024 316.102 34.16 316.574 34.16C317.022 34.16 317.374 34.044 317.63 33.812C317.894 33.58 318.038 33.256 318.062 32.84H319.142C319.118 33.544 318.874 34.1 318.41 34.508C317.946 34.916 317.334 35.12 316.574 35.12ZM323.721 35.096C323.193 35.096 322.737 34.996 322.353 34.796C321.969 34.596 321.669 34.308 321.453 33.932C321.245 33.548 321.141 33.096 321.141 32.576V30.824C321.141 30.296 321.245 29.844 321.453 29.468C321.669 29.092 321.969 28.804 322.353 28.604C322.737 28.404 323.193 28.304 323.721 28.304C324.249 28.304 324.705 28.404 325.089 28.604C325.473 28.804 325.769 29.092 325.977 29.468C326.193 29.844 326.301 30.292 326.301 30.812V32.576C326.301 33.096 326.193 33.548 325.977 33.932C325.769 34.308 325.473 34.596 325.089 34.796C324.705 34.996 324.249 35.096 323.721 35.096ZM323.721 34.136C324.193 34.136 324.561 34.004 324.825 33.74C325.089 33.476 325.221 33.088 325.221 32.576V30.824C325.221 30.312 325.089 29.924 324.825 29.66C324.561 29.396 324.193 29.264 323.721 29.264C323.257 29.264 322.889 29.396 322.617 29.66C322.353 29.924 322.221 30.312 322.221 30.824V32.576C322.221 33.088 322.353 33.476 322.617 33.74C322.889 34.004 323.257 34.136 323.721 34.136ZM328.648 35V28.4H329.704V29.66H329.956L329.608 30.44C329.608 29.728 329.76 29.192 330.064 28.832C330.376 28.464 330.836 28.28 331.444 28.28C332.14 28.28 332.692 28.5 333.1 28.94C333.516 29.372 333.724 29.96 333.724 30.704V31.1H332.644V30.8C332.644 30.28 332.516 29.884 332.26 29.612C332.012 29.332 331.656 29.192 331.192 29.192C330.736 29.192 330.376 29.332 330.112 29.612C329.856 29.892 329.728 30.288 329.728 30.8V35H328.648ZM338.112 35.12C337.592 35.12 337.136 35.016 336.744 34.808C336.36 34.6 336.06 34.308 335.844 33.932C335.636 33.548 335.532 33.104 335.532 32.6V30.8C335.532 30.288 335.636 29.844 335.844 29.468C336.06 29.092 336.36 28.8 336.744 28.592C337.136 28.384 337.592 28.28 338.112 28.28C338.632 28.28 339.084 28.384 339.468 28.592C339.86 28.8 340.16 29.092 340.368 29.468C340.584 29.844 340.692 30.288 340.692 30.8V31.964H336.588V32.6C336.588 33.12 336.72 33.52 336.984 33.8C337.248 34.072 337.624 34.208 338.112 34.208C338.528 34.208 338.864 34.136 339.12 33.992C339.376 33.84 339.532 33.616 339.588 33.32H340.668C340.596 33.872 340.324 34.312 339.852 34.64C339.388 34.96 338.808 35.12 338.112 35.12ZM339.636 31.244V30.8C339.636 30.28 339.504 29.88 339.24 29.6C338.984 29.32 338.608 29.18 338.112 29.18C337.624 29.18 337.248 29.32 336.984 29.6C336.72 29.88 336.588 30.28 336.588 30.8V31.148H339.72L339.636 31.244ZM352.298 35.096C351.85 35.096 351.458 35.028 351.122 34.892C350.794 34.748 350.53 34.548 350.33 34.292C350.138 34.036 350.022 33.732 349.982 33.38H351.062C351.11 33.612 351.238 33.796 351.446 33.932C351.662 34.068 351.946 34.136 352.298 34.136H352.802C353.226 34.136 353.542 34.052 353.75 33.884C353.958 33.708 354.062 33.476 354.062 33.188C354.062 32.908 353.966 32.688 353.774 32.528C353.59 32.36 353.314 32.248 352.946 32.192L352.058 32.048C351.41 31.936 350.926 31.736 350.606 31.448C350.294 31.152 350.138 30.724 350.138 30.164C350.138 29.572 350.326 29.116 350.702 28.796C351.078 28.468 351.642 28.304 352.394 28.304H352.85C353.482 28.304 353.99 28.452 354.374 28.748C354.758 29.044 354.99 29.444 355.07 29.948H353.99C353.942 29.74 353.822 29.576 353.63 29.456C353.438 29.328 353.178 29.264 352.85 29.264H352.394C351.986 29.264 351.686 29.34 351.494 29.492C351.31 29.644 351.218 29.872 351.218 30.176C351.218 30.448 351.298 30.648 351.458 30.776C351.618 30.904 351.87 30.996 352.214 31.052L353.102 31.196C353.814 31.308 354.33 31.516 354.65 31.82C354.978 32.124 355.142 32.564 355.142 33.14C355.142 33.748 354.946 34.228 354.554 34.58C354.17 34.924 353.586 35.096 352.802 35.096H352.298ZM358.234 37.16L359.206 34.592L356.758 28.4H357.958L359.494 32.48C359.55 32.616 359.602 32.78 359.65 32.972C359.698 33.156 359.738 33.312 359.77 33.44C359.802 33.312 359.842 33.156 359.89 32.972C359.938 32.78 359.986 32.616 360.034 32.48L361.474 28.4H362.638L359.386 37.16H358.234ZM366.689 35.096C366.241 35.096 365.849 35.028 365.513 34.892C365.185 34.748 364.921 34.548 364.721 34.292C364.529 34.036 364.413 33.732 364.373 33.38H365.453C365.501 33.612 365.629 33.796 365.837 33.932C366.053 34.068 366.337 34.136 366.689 34.136H367.193C367.617 34.136 367.933 34.052 368.141 33.884C368.349 33.708 368.453 33.476 368.453 33.188C368.453 32.908 368.357 32.688 368.165 32.528C367.981 32.36 367.705 32.248 367.337 32.192L366.449 32.048C365.801 31.936 365.317 31.736 364.997 31.448C364.685 31.152 364.529 30.724 364.529 30.164C364.529 29.572 364.717 29.116 365.093 28.796C365.469 28.468 366.033 28.304 366.785 28.304H367.241C367.873 28.304 368.381 28.452 368.765 28.748C369.149 29.044 369.381 29.444 369.461 29.948H368.381C368.333 29.74 368.213 29.576 368.021 29.456C367.829 29.328 367.569 29.264 367.241 29.264H366.785C366.377 29.264 366.077 29.34 365.885 29.492C365.701 29.644 365.609 29.872 365.609 30.176C365.609 30.448 365.689 30.648 365.849 30.776C366.009 30.904 366.261 30.996 366.605 31.052L367.493 31.196C368.205 31.308 368.721 31.516 369.041 31.82C369.369 32.124 369.533 32.564 369.533 33.14C369.533 33.748 369.337 34.228 368.945 34.58C368.561 34.924 367.977 35.096 367.193 35.096H366.689ZM374.808 35C374.24 35 373.796 34.848 373.476 34.544C373.164 34.24 373.008 33.812 373.008 33.26V29.384H371.148V28.4H373.008V26.54H374.088V28.4H376.728V29.384H374.088V33.26C374.088 33.764 374.328 34.016 374.808 34.016H376.608V35H374.808ZM381.284 35.12C380.764 35.12 380.308 35.016 379.916 34.808C379.532 34.6 379.232 34.308 379.016 33.932C378.808 33.548 378.704 33.104 378.704 32.6V30.8C378.704 30.288 378.808 29.844 379.016 29.468C379.232 29.092 379.532 28.8 379.916 28.592C380.308 28.384 380.764 28.28 381.284 28.28C381.804 28.28 382.256 28.384 382.64 28.592C383.032 28.8 383.332 29.092 383.54 29.468C383.756 29.844 383.864 30.288 383.864 30.8V31.964H379.76V32.6C379.76 33.12 379.892 33.52 380.156 33.8C380.42 34.072 380.796 34.208 381.284 34.208C381.7 34.208 382.036 34.136 382.292 33.992C382.548 33.84 382.704 33.616 382.76 33.32H383.84C383.768 33.872 383.496 34.312 383.024 34.64C382.56 34.96 381.98 35.12 381.284 35.12ZM382.808 31.244V30.8C382.808 30.28 382.676 29.88 382.412 29.6C382.156 29.32 381.78 29.18 381.284 29.18C380.796 29.18 380.42 29.32 380.156 29.6C379.892 29.88 379.76 30.28 379.76 30.8V31.148H382.892L382.808 31.244ZM385.671 35V28.4H386.619V29.192H386.835L386.667 29.48C386.667 29.112 386.763 28.82 386.955 28.604C387.155 28.388 387.423 28.28 387.759 28.28C388.127 28.28 388.411 28.416 388.611 28.688C388.811 28.96 388.911 29.344 388.911 29.84L388.587 29.192H389.091L388.863 29.48C388.863 29.112 388.963 28.82 389.163 28.604C389.371 28.388 389.643 28.28 389.979 28.28C390.395 28.28 390.715 28.436 390.939 28.748C391.171 29.06 391.287 29.472 391.287 29.984V35H390.291V29.972C390.291 29.7 390.231 29.488 390.111 29.336C389.999 29.184 389.831 29.108 389.607 29.108C389.391 29.108 389.219 29.184 389.091 29.336C388.971 29.48 388.911 29.688 388.911 29.96V35H388.047V29.972C388.047 29.692 387.983 29.48 387.855 29.336C387.735 29.184 387.563 29.108 387.339 29.108C387.115 29.108 386.947 29.184 386.835 29.336C386.723 29.48 386.667 29.688 386.667 29.96V35H385.671Z" fill="#ADADAD"/>
</svg>
