<svg width="375" height="137" viewBox="0 0 375 137" fill="none" xmlns="http://www.w3.org/2000/svg">
<rect width="375" height="137" fill="white"/>
<path d="M40.255 48.21V37.87H42.95V38.75H41.245V47.33H42.95V48.21H40.255ZM48.5557 47C48.035 47 47.628 46.8607 47.3347 46.582C47.0487 46.3033 46.9057 45.911 46.9057 45.405V41.852H45.2007V40.95H46.9057V39.245H47.8957V40.95H50.3157V41.852H47.8957V45.405C47.8957 45.867 48.1157 46.098 48.5557 46.098H50.2057V47H48.5557ZM53.9634 47.11C53.3254 47.11 52.8231 46.9487 52.4564 46.626C52.0897 46.296 51.9064 45.8523 51.9064 45.295C51.9064 44.7303 52.0897 44.2867 52.4564 43.964C52.8231 43.6413 53.3181 43.48 53.9414 43.48H55.8114V42.875C55.8114 42.501 55.6977 42.215 55.4704 42.017C55.2504 41.8117 54.9351 41.709 54.5244 41.709C54.1651 41.709 53.8644 41.786 53.6224 41.94C53.3804 42.0867 53.2411 42.2883 53.2044 42.545H52.2144C52.2804 42.0243 52.5261 41.61 52.9514 41.302C53.3767 40.994 53.9084 40.84 54.5464 40.84C55.2431 40.84 55.7931 41.0197 56.1964 41.379C56.5997 41.7383 56.8014 42.226 56.8014 42.842V47H55.8334V45.845H55.6684L55.8334 45.68C55.8334 46.12 55.6611 46.4683 55.3164 46.725C54.9791 46.9817 54.5281 47.11 53.9634 47.11ZM54.2054 46.329C54.6747 46.329 55.0597 46.2117 55.3604 45.977C55.6611 45.7423 55.8114 45.4417 55.8114 45.075V44.217H53.9634C53.6334 44.217 53.3731 44.3087 53.1824 44.492C52.9917 44.6753 52.8964 44.9247 52.8964 45.24C52.8964 45.5773 53.0101 45.845 53.2374 46.043C53.4721 46.2337 53.7947 46.329 54.2054 46.329ZM61.4391 47.11C60.9404 47.11 60.5408 46.978 60.2401 46.714C59.9394 46.4427 59.7891 46.076 59.7891 45.614L59.9871 45.845H59.7891V47H58.7991V38.97H59.7891V40.73L59.7671 42.105H59.9871L59.7891 42.336C59.7891 41.8813 59.9394 41.5183 60.2401 41.247C60.5481 40.9757 60.9478 40.84 61.4391 40.84C62.0478 40.84 62.5354 41.0417 62.9021 41.445C63.2688 41.8483 63.4521 42.3983 63.4521 43.095V44.866C63.4521 45.5553 63.2688 46.1017 62.9021 46.505C62.5354 46.9083 62.0478 47.11 61.4391 47.11ZM61.1091 46.252C61.5271 46.252 61.8571 46.1273 62.0991 45.878C62.3411 45.6287 62.4621 45.2693 62.4621 44.8V43.15C62.4621 42.6807 62.3411 42.3213 62.0991 42.072C61.8571 41.8227 61.5271 41.698 61.1091 41.698C60.7058 41.698 60.3831 41.8263 60.1411 42.083C59.9064 42.3397 59.7891 42.6953 59.7891 43.15V44.8C59.7891 45.2547 59.9064 45.6103 60.1411 45.867C60.3831 46.1237 60.7058 46.252 61.1091 46.252ZM68.5078 47C68.1558 47 67.8478 46.9303 67.5838 46.791C67.3198 46.6517 67.1145 46.4537 66.9678 46.197C66.8211 45.9403 66.7478 45.6397 66.7478 45.295V39.872H64.7128V38.97H67.7378V45.295C67.7378 45.5443 67.8075 45.7423 67.9468 45.889C68.0861 46.0283 68.2731 46.098 68.5078 46.098H70.4328V47H68.5078ZM74.2785 47.11C73.8018 47.11 73.3838 47.0147 73.0245 46.824C72.6725 46.6333 72.3975 46.3657 72.1995 46.021C72.0088 45.669 71.9135 45.262 71.9135 44.8V43.15C71.9135 42.6807 72.0088 42.2737 72.1995 41.929C72.3975 41.5843 72.6725 41.3167 73.0245 41.126C73.3838 40.9353 73.8018 40.84 74.2785 40.84C74.7552 40.84 75.1695 40.9353 75.5215 41.126C75.8808 41.3167 76.1558 41.5843 76.3465 41.929C76.5445 42.2737 76.6435 42.6807 76.6435 43.15V44.217H72.8815V44.8C72.8815 45.2767 73.0025 45.6433 73.2445 45.9C73.4865 46.1493 73.8312 46.274 74.2785 46.274C74.6598 46.274 74.9678 46.208 75.2025 46.076C75.4372 45.9367 75.5802 45.7313 75.6315 45.46H76.6215C76.5555 45.966 76.3062 46.3693 75.8735 46.67C75.4482 46.9633 74.9165 47.11 74.2785 47.11ZM75.6755 43.557V43.15C75.6755 42.6733 75.5545 42.3067 75.3125 42.05C75.0778 41.7933 74.7332 41.665 74.2785 41.665C73.8312 41.665 73.4865 41.7933 73.2445 42.05C73.0025 42.3067 72.8815 42.6733 72.8815 43.15V43.469H75.7525L75.6755 43.557ZM79.1142 43.81V42.93H82.6342V43.81H79.1142ZM87.4699 47.088C86.9859 47.088 86.5679 46.9963 86.2159 46.813C85.8639 46.6297 85.5889 46.3657 85.3909 46.021C85.2003 45.669 85.1049 45.2547 85.1049 44.778V43.172C85.1049 42.688 85.2003 42.2737 85.3909 41.929C85.5889 41.5843 85.8639 41.3203 86.2159 41.137C86.5679 40.9537 86.9859 40.862 87.4699 40.862C87.9539 40.862 88.3719 40.9537 88.7239 41.137C89.0759 41.3203 89.3473 41.5843 89.5379 41.929C89.7359 42.2737 89.8349 42.6843 89.8349 43.161V44.778C89.8349 45.2547 89.7359 45.669 89.5379 46.021C89.3473 46.3657 89.0759 46.6297 88.7239 46.813C88.3719 46.9963 87.9539 47.088 87.4699 47.088ZM87.4699 46.208C87.9026 46.208 88.2399 46.087 88.4819 45.845C88.7239 45.603 88.8449 45.2473 88.8449 44.778V43.172C88.8449 42.7027 88.7239 42.347 88.4819 42.105C88.2399 41.863 87.9026 41.742 87.4699 41.742C87.0446 41.742 86.7073 41.863 86.4579 42.105C86.2159 42.347 86.0949 42.7027 86.0949 43.172V44.778C86.0949 45.2473 86.2159 45.603 86.4579 45.845C86.7073 46.087 87.0446 46.208 87.4699 46.208ZM93.1856 47V42.457H91.4256V41.555H93.1856V40.51C93.1856 40.0333 93.336 39.6593 93.6366 39.388C93.9373 39.1093 94.3516 38.97 94.8796 38.97H96.6506V39.872H94.8796C94.6523 39.872 94.4763 39.927 94.3516 40.037C94.2343 40.1397 94.1756 40.2973 94.1756 40.51V41.555H96.6506V42.457H94.1756V47H93.1856ZM98.9013 43.81V42.93H102.421V43.81H98.9013ZM107.301 47.11C106.817 47.11 106.392 47.0183 106.025 46.835C105.666 46.6517 105.387 46.3877 105.189 46.043C104.991 45.691 104.892 45.2767 104.892 44.8V43.15C104.892 42.666 104.991 42.2517 105.189 41.907C105.387 41.5623 105.666 41.2983 106.025 41.115C106.392 40.9317 106.817 40.84 107.301 40.84C107.998 40.84 108.559 41.027 108.984 41.401C109.409 41.775 109.633 42.2847 109.655 42.93H108.665C108.643 42.5413 108.511 42.2443 108.269 42.039C108.034 41.8263 107.712 41.72 107.301 41.72C106.868 41.72 106.524 41.8447 106.267 42.094C106.01 42.336 105.882 42.6843 105.882 43.139V44.8C105.882 45.2547 106.01 45.6067 106.267 45.856C106.524 46.1053 106.868 46.23 107.301 46.23C107.712 46.23 108.034 46.1237 108.269 45.911C108.511 45.6983 108.643 45.4013 108.665 45.02H109.655C109.633 45.6653 109.409 46.175 108.984 46.549C108.559 46.923 107.998 47.11 107.301 47.11ZM113.853 47.088C113.369 47.088 112.951 46.9963 112.599 46.813C112.247 46.6297 111.972 46.3657 111.774 46.021C111.583 45.669 111.488 45.2547 111.488 44.778V43.172C111.488 42.688 111.583 42.2737 111.774 41.929C111.972 41.5843 112.247 41.3203 112.599 41.137C112.951 40.9537 113.369 40.862 113.853 40.862C114.337 40.862 114.755 40.9537 115.107 41.137C115.459 41.3203 115.73 41.5843 115.921 41.929C116.119 42.2737 116.218 42.6843 116.218 43.161V44.778C116.218 45.2547 116.119 45.669 115.921 46.021C115.73 46.3657 115.459 46.6297 115.107 46.813C114.755 46.9963 114.337 47.088 113.853 47.088ZM113.853 46.208C114.285 46.208 114.623 46.087 114.865 45.845C115.107 45.603 115.228 45.2473 115.228 44.778V43.172C115.228 42.7027 115.107 42.347 114.865 42.105C114.623 41.863 114.285 41.742 113.853 41.742C113.427 41.742 113.09 41.863 112.841 42.105C112.599 42.347 112.478 42.7027 112.478 43.172V44.778C112.478 45.2473 112.599 45.603 112.841 45.845C113.09 46.087 113.427 46.208 113.853 46.208ZM118.16 47V40.95H119.15V42.105H119.359L119.15 42.336C119.15 41.8593 119.293 41.4927 119.579 41.236C119.865 40.972 120.261 40.84 120.767 40.84C121.376 40.84 121.86 41.027 122.219 41.401C122.579 41.775 122.758 42.2847 122.758 42.93V47H121.768V43.04C121.768 42.6073 121.651 42.2773 121.416 42.05C121.189 41.8153 120.877 41.698 120.481 41.698C120.071 41.698 119.744 41.8227 119.502 42.072C119.268 42.3213 119.15 42.6807 119.15 43.15V47H118.16ZM127.704 47C127.183 47 126.776 46.8607 126.483 46.582C126.197 46.3033 126.054 45.911 126.054 45.405V41.852H124.349V40.95H126.054V39.245H127.044V40.95H129.464V41.852H127.044V45.405C127.044 45.867 127.264 46.098 127.704 46.098H129.354V47H127.704ZM133.64 47.11C133.163 47.11 132.745 47.0147 132.386 46.824C132.034 46.6333 131.759 46.3657 131.561 46.021C131.37 45.669 131.275 45.262 131.275 44.8V43.15C131.275 42.6807 131.37 42.2737 131.561 41.929C131.759 41.5843 132.034 41.3167 132.386 41.126C132.745 40.9353 133.163 40.84 133.64 40.84C134.117 40.84 134.531 40.9353 134.883 41.126C135.242 41.3167 135.517 41.5843 135.708 41.929C135.906 42.2737 136.005 42.6807 136.005 43.15V44.217H132.243V44.8C132.243 45.2767 132.364 45.6433 132.606 45.9C132.848 46.1493 133.193 46.274 133.64 46.274C134.021 46.274 134.329 46.208 134.564 46.076C134.799 45.9367 134.942 45.7313 134.993 45.46H135.983C135.917 45.966 135.668 46.3693 135.235 46.67C134.81 46.9633 134.278 47.11 133.64 47.11ZM135.037 43.557V43.15C135.037 42.6733 134.916 42.3067 134.674 42.05C134.439 41.7933 134.095 41.665 133.64 41.665C133.193 41.665 132.848 41.7933 132.606 42.05C132.364 42.3067 132.243 42.6733 132.243 43.15V43.469H135.114L135.037 43.557ZM137.948 47V40.95H138.938V42.105H139.147L138.938 42.336C138.938 41.8593 139.081 41.4927 139.367 41.236C139.653 40.972 140.049 40.84 140.555 40.84C141.163 40.84 141.647 41.027 142.007 41.401C142.366 41.775 142.546 42.2847 142.546 42.93V47H141.556V43.04C141.556 42.6073 141.438 42.2773 141.204 42.05C140.976 41.8153 140.665 41.698 140.269 41.698C139.858 41.698 139.532 41.8227 139.29 42.072C139.055 42.3213 138.938 42.6807 138.938 43.15V47H137.948ZM147.491 47C146.971 47 146.564 46.8607 146.27 46.582C145.984 46.3033 145.841 45.911 145.841 45.405V41.852H144.136V40.95H145.841V39.245H146.831V40.95H149.251V41.852H146.831V45.405C146.831 45.867 147.051 46.098 147.491 46.098H149.141V47H147.491ZM153.24 47.088C152.829 47.088 152.47 47.0257 152.162 46.901C151.861 46.769 151.619 46.5857 151.436 46.351C151.26 46.1163 151.154 45.8377 151.117 45.515H152.107C152.151 45.7277 152.268 45.8963 152.459 46.021C152.657 46.1457 152.917 46.208 153.24 46.208H153.702C154.091 46.208 154.38 46.131 154.571 45.977C154.762 45.8157 154.857 45.603 154.857 45.339C154.857 45.0823 154.769 44.8807 154.593 44.734C154.424 44.58 154.171 44.4773 153.834 44.426L153.02 44.294C152.426 44.1913 151.982 44.008 151.689 43.744C151.403 43.4727 151.26 43.0803 151.26 42.567C151.26 42.0243 151.432 41.6063 151.777 41.313C152.122 41.0123 152.639 40.862 153.328 40.862H153.746C154.325 40.862 154.791 40.9977 155.143 41.269C155.495 41.5403 155.708 41.907 155.781 42.369H154.791C154.747 42.1783 154.637 42.028 154.461 41.918C154.285 41.8007 154.047 41.742 153.746 41.742H153.328C152.954 41.742 152.679 41.8117 152.503 41.951C152.334 42.0903 152.25 42.2993 152.25 42.578C152.25 42.8273 152.323 43.0107 152.47 43.128C152.617 43.2453 152.848 43.3297 153.163 43.381L153.977 43.513C154.63 43.6157 155.103 43.8063 155.396 44.085C155.697 44.3637 155.847 44.767 155.847 45.295C155.847 45.8523 155.667 46.2923 155.308 46.615C154.956 46.9303 154.421 47.088 153.702 47.088H153.24ZM158.373 48.21V47.33H160.078V38.75H158.373V37.87H161.068V48.21H158.373Z" fill="black"/>
<path d="M38.913 72L39.32 69.8H38.385V69.085H39.452L39.848 66.885H38.77V66.17H39.98L40.387 63.97H41.157L40.75 66.17H42.51L42.917 63.97H43.687L43.28 66.17H44.215V66.885H43.148L42.752 69.085H43.83V69.8H42.62L42.213 72H41.443L41.85 69.8H40.09L39.683 72H38.913ZM40.222 69.085H41.982L42.378 66.885H40.618L40.222 69.085ZM52.3464 72V71.098H53.9854V64.872H52.3464V63.97H56.6364V64.872H54.9974V71.098H56.6364V72H52.3464ZM58.7991 72V65.95H59.7891V67.105H59.9981L59.7891 67.336C59.7891 66.8593 59.9321 66.4927 60.2181 66.236C60.5041 65.972 60.9001 65.84 61.4061 65.84C62.0148 65.84 62.4988 66.027 62.8581 66.401C63.2174 66.775 63.3971 67.2847 63.3971 67.93V72H62.4071V68.04C62.4071 67.6073 62.2898 67.2773 62.0551 67.05C61.8278 66.8153 61.5161 66.698 61.1201 66.698C60.7094 66.698 60.3831 66.8227 60.1411 67.072C59.9064 67.3213 59.7891 67.6807 59.7891 68.15V72H58.7991ZM68.3428 72C67.8221 72 67.4151 71.8607 67.1218 71.582C66.8358 71.3033 66.6928 70.911 66.6928 70.405V66.852H64.9878V65.95H66.6928V64.245H67.6828V65.95H70.1028V66.852H67.6828V70.405C67.6828 70.867 67.9028 71.098 68.3428 71.098H69.9928V72H68.3428ZM72.1995 72V65.95H73.1675V67.105H73.3985L73.0795 67.82C73.0795 67.1673 73.2188 66.676 73.4975 66.346C73.7835 66.0087 74.2052 65.84 74.7625 65.84C75.4005 65.84 75.9065 66.0417 76.2805 66.445C76.6618 66.841 76.8525 67.38 76.8525 68.062V68.425H75.8625V68.15C75.8625 67.6733 75.7452 67.3103 75.5105 67.061C75.2832 66.8043 74.9568 66.676 74.5315 66.676C74.1135 66.676 73.7835 66.8043 73.5415 67.061C73.3068 67.3177 73.1895 67.6807 73.1895 68.15V72H72.1995ZM80.8742 72.088C80.3902 72.088 79.9722 71.9963 79.6202 71.813C79.2682 71.6297 78.9932 71.3657 78.7952 71.021C78.6046 70.669 78.5092 70.2547 78.5092 69.778V68.172C78.5092 67.688 78.6046 67.2737 78.7952 66.929C78.9932 66.5843 79.2682 66.3203 79.6202 66.137C79.9722 65.9537 80.3902 65.862 80.8742 65.862C81.3582 65.862 81.7762 65.9537 82.1282 66.137C82.4802 66.3203 82.7516 66.5843 82.9422 66.929C83.1402 67.2737 83.2392 67.6843 83.2392 68.161V69.778C83.2392 70.2547 83.1402 70.669 82.9422 71.021C82.7516 71.3657 82.4802 71.6297 82.1282 71.813C81.7762 71.9963 81.3582 72.088 80.8742 72.088ZM80.8742 71.208C81.3069 71.208 81.6442 71.087 81.8862 70.845C82.1282 70.603 82.2492 70.2473 82.2492 69.778V68.172C82.2492 67.7027 82.1282 67.347 81.8862 67.105C81.6442 66.863 81.3069 66.742 80.8742 66.742C80.4489 66.742 80.1116 66.863 79.8622 67.105C79.6202 67.347 79.4992 67.7027 79.4992 68.172V69.778C79.4992 70.2473 79.6202 70.603 79.8622 70.845C80.1116 71.087 80.4489 71.208 80.8742 71.208ZM87.1179 72.11C86.5166 72.11 86.0289 71.9083 85.6549 71.505C85.2883 71.1017 85.1049 70.5553 85.1049 69.866V68.095C85.1049 67.3983 85.2883 66.8483 85.6549 66.445C86.0216 66.0417 86.5093 65.84 87.1179 65.84C87.6166 65.84 88.0163 65.9757 88.3169 66.247C88.6176 66.5183 88.7679 66.8813 88.7679 67.336L88.5699 67.105H88.7899L88.7679 65.73V63.97H89.7579V72H88.7679V70.845H88.5699L88.7679 70.614C88.7679 71.076 88.6176 71.4427 88.3169 71.714C88.0163 71.978 87.6166 72.11 87.1179 72.11ZM87.4479 71.252C87.8586 71.252 88.1813 71.1237 88.4159 70.867C88.6506 70.6103 88.7679 70.2547 88.7679 69.8V68.15C88.7679 67.6953 88.6506 67.3397 88.4159 67.083C88.1813 66.8263 87.8586 66.698 87.4479 66.698C87.0299 66.698 86.6999 66.8227 86.4579 67.072C86.2159 67.3213 86.0949 67.6807 86.0949 68.15V69.8C86.0949 70.2693 86.2159 70.6287 86.4579 70.878C86.6999 71.1273 87.0299 71.252 87.4479 71.252ZM94.0546 72.11C93.358 72.11 92.8006 71.9047 92.3826 71.494C91.9646 71.076 91.7556 70.5113 91.7556 69.8V65.95H92.7456V69.8C92.7456 70.2547 92.863 70.6103 93.0976 70.867C93.3323 71.1163 93.6513 71.241 94.0546 71.241C94.4653 71.241 94.788 71.1163 95.0226 70.867C95.2646 70.6103 95.3856 70.2547 95.3856 69.8V65.95H96.3756V69.8C96.3756 70.5113 96.163 71.076 95.7376 71.494C95.3123 71.9047 94.7513 72.11 94.0546 72.11ZM100.705 72.11C100.221 72.11 99.796 72.0183 99.4293 71.835C99.07 71.6517 98.7913 71.3877 98.5933 71.043C98.3953 70.691 98.2963 70.2767 98.2963 69.8V68.15C98.2963 67.666 98.3953 67.2517 98.5933 66.907C98.7913 66.5623 99.07 66.2983 99.4293 66.115C99.796 65.9317 100.221 65.84 100.705 65.84C101.402 65.84 101.963 66.027 102.388 66.401C102.814 66.775 103.037 67.2847 103.059 67.93H102.069C102.047 67.5413 101.915 67.2443 101.673 67.039C101.439 66.8263 101.116 66.72 100.705 66.72C100.273 66.72 99.928 66.8447 99.6713 67.094C99.4147 67.336 99.2863 67.6843 99.2863 68.139V69.8C99.2863 70.2547 99.4147 70.6067 99.6713 70.856C99.928 71.1053 100.273 71.23 100.705 71.23C101.116 71.23 101.439 71.1237 101.673 70.911C101.915 70.6983 102.047 70.4013 102.069 70.02H103.059C103.037 70.6653 102.814 71.175 102.388 71.549C101.963 71.923 101.402 72.11 100.705 72.11ZM107.917 72C107.396 72 106.989 71.8607 106.696 71.582C106.41 71.3033 106.267 70.911 106.267 70.405V66.852H104.562V65.95H106.267V64.245H107.257V65.95H109.677V66.852H107.257V70.405C107.257 70.867 107.477 71.098 107.917 71.098H109.567V72H107.917ZM111.488 72V71.098H113.633V66.852H111.763V65.95H114.623V71.098H116.658V72H111.488ZM114.018 64.861C113.776 64.861 113.585 64.7987 113.446 64.674C113.306 64.5493 113.237 64.3807 113.237 64.168C113.237 63.948 113.306 63.7757 113.446 63.651C113.585 63.519 113.776 63.453 114.018 63.453C114.26 63.453 114.45 63.519 114.59 63.651C114.729 63.7757 114.799 63.948 114.799 64.168C114.799 64.3807 114.729 64.5493 114.59 64.674C114.45 64.7987 114.26 64.861 114.018 64.861ZM120.448 72.088C119.964 72.088 119.546 71.9963 119.194 71.813C118.842 71.6297 118.567 71.3657 118.369 71.021C118.179 70.669 118.083 70.2547 118.083 69.778V68.172C118.083 67.688 118.179 67.2737 118.369 66.929C118.567 66.5843 118.842 66.3203 119.194 66.137C119.546 65.9537 119.964 65.862 120.448 65.862C120.932 65.862 121.35 65.9537 121.702 66.137C122.054 66.3203 122.326 66.5843 122.516 66.929C122.714 67.2737 122.813 67.6843 122.813 68.161V69.778C122.813 70.2547 122.714 70.669 122.516 71.021C122.326 71.3657 122.054 71.6297 121.702 71.813C121.35 71.9963 120.932 72.088 120.448 72.088ZM120.448 71.208C120.881 71.208 121.218 71.087 121.46 70.845C121.702 70.603 121.823 70.2473 121.823 69.778V68.172C121.823 67.7027 121.702 67.347 121.46 67.105C121.218 66.863 120.881 66.742 120.448 66.742C120.023 66.742 119.686 66.863 119.436 67.105C119.194 67.347 119.073 67.7027 119.073 68.172V69.778C119.073 70.2473 119.194 70.603 119.436 70.845C119.686 71.087 120.023 71.208 120.448 71.208ZM124.756 72V65.95H125.746V67.105H125.955L125.746 67.336C125.746 66.8593 125.889 66.4927 126.175 66.236C126.461 65.972 126.857 65.84 127.363 65.84C127.972 65.84 128.456 66.027 128.815 66.401C129.174 66.775 129.354 67.2847 129.354 67.93V72H128.364V68.04C128.364 67.6073 128.247 67.2773 128.012 67.05C127.785 66.8153 127.473 66.698 127.077 66.698C126.666 66.698 126.34 66.8227 126.098 67.072C125.863 67.3213 125.746 67.6807 125.746 68.15V72H124.756Z" fill="black"/>
<path d="M38.913 98L39.32 95.8H38.385V95.085H39.452L39.848 92.885H38.77V92.17H39.98L40.387 89.97H41.157L40.75 92.17H42.51L42.917 89.97H43.687L43.28 92.17H44.215V92.885H43.148L42.752 95.085H43.83V95.8H42.62L42.213 98H41.443L41.85 95.8H40.09L39.683 98H38.913ZM40.222 95.085H41.982L42.378 92.885H40.618L40.222 95.085ZM52.0274 98V89.97H53.3254L54.1614 92.566C54.2421 92.8007 54.3154 93.0353 54.3814 93.27C54.4474 93.4973 54.4951 93.6733 54.5244 93.798C54.5611 93.6733 54.6087 93.4973 54.6674 93.27C54.7261 93.0353 54.7921 92.797 54.8654 92.555L55.6574 89.97H56.9554V98H55.9874V95.085C55.9874 94.7623 55.9984 94.3957 56.0204 93.985C56.0424 93.5743 56.0717 93.1563 56.1084 92.731C56.1451 92.2983 56.1817 91.8877 56.2184 91.499C56.2624 91.103 56.2991 90.7583 56.3284 90.465L55.0304 94.48H53.9854L52.6764 90.465C52.7131 90.751 52.7497 91.0847 52.7864 91.466C52.8231 91.84 52.8561 92.2397 52.8854 92.665C52.9147 93.083 52.9404 93.501 52.9624 93.919C52.9844 94.337 52.9954 94.7257 52.9954 95.085V98H52.0274ZM61.0871 98.11C60.6104 98.11 60.1924 98.0147 59.8331 97.824C59.4811 97.6333 59.2061 97.3657 59.0081 97.021C58.8174 96.669 58.7221 96.262 58.7221 95.8V94.15C58.7221 93.6807 58.8174 93.2737 59.0081 92.929C59.2061 92.5843 59.4811 92.3167 59.8331 92.126C60.1924 91.9353 60.6104 91.84 61.0871 91.84C61.5638 91.84 61.9781 91.9353 62.3301 92.126C62.6894 92.3167 62.9644 92.5843 63.1551 92.929C63.3531 93.2737 63.4521 93.6807 63.4521 94.15V95.217H59.6901V95.8C59.6901 96.2767 59.8111 96.6433 60.0531 96.9C60.2951 97.1493 60.6398 97.274 61.0871 97.274C61.4684 97.274 61.7764 97.208 62.0111 97.076C62.2458 96.9367 62.3888 96.7313 62.4401 96.46H63.4301C63.3641 96.966 63.1148 97.3693 62.6821 97.67C62.2568 97.9633 61.7251 98.11 61.0871 98.11ZM62.4841 94.557V94.15C62.4841 93.6733 62.3631 93.3067 62.1211 93.05C61.8864 92.7933 61.5418 92.665 61.0871 92.665C60.6398 92.665 60.2951 92.7933 60.0531 93.05C59.8111 93.3067 59.6901 93.6733 59.6901 94.15V94.469H62.5611L62.4841 94.557ZM68.3428 98C67.8221 98 67.4151 97.8607 67.1218 97.582C66.8358 97.3033 66.6928 96.911 66.6928 96.405V92.852H64.9878V91.95H66.6928V90.245H67.6828V91.95H70.1028V92.852H67.6828V96.405C67.6828 96.867 67.9028 97.098 68.3428 97.098H69.9928V98H68.3428ZM71.9905 98V89.97H72.9805V91.95V93.105H73.1895L72.9805 93.336C72.9805 92.8593 73.1235 92.4927 73.4095 92.236C73.6955 91.972 74.0915 91.84 74.5975 91.84C75.2062 91.84 75.6902 92.027 76.0495 92.401C76.4088 92.775 76.5885 93.2847 76.5885 93.93V98H75.5985V94.04C75.5985 93.6073 75.4812 93.2737 75.2465 93.039C75.0192 92.797 74.7075 92.676 74.3115 92.676C73.9008 92.676 73.5745 92.8043 73.3325 93.061C73.0978 93.3177 72.9805 93.6807 72.9805 94.15V98H71.9905ZM80.8742 98.088C80.3902 98.088 79.9722 97.9963 79.6202 97.813C79.2682 97.6297 78.9932 97.3657 78.7952 97.021C78.6046 96.669 78.5092 96.2547 78.5092 95.778V94.172C78.5092 93.688 78.6046 93.2737 78.7952 92.929C78.9932 92.5843 79.2682 92.3203 79.6202 92.137C79.9722 91.9537 80.3902 91.862 80.8742 91.862C81.3582 91.862 81.7762 91.9537 82.1282 92.137C82.4802 92.3203 82.7516 92.5843 82.9422 92.929C83.1402 93.2737 83.2392 93.6843 83.2392 94.161V95.778C83.2392 96.2547 83.1402 96.669 82.9422 97.021C82.7516 97.3657 82.4802 97.6297 82.1282 97.813C81.7762 97.9963 81.3582 98.088 80.8742 98.088ZM80.8742 97.208C81.3069 97.208 81.6442 97.087 81.8862 96.845C82.1282 96.603 82.2492 96.2473 82.2492 95.778V94.172C82.2492 93.7027 82.1282 93.347 81.8862 93.105C81.6442 92.863 81.3069 92.742 80.8742 92.742C80.4489 92.742 80.1116 92.863 79.8622 93.105C79.6202 93.347 79.4992 93.7027 79.4992 94.172V95.778C79.4992 96.2473 79.6202 96.603 79.8622 96.845C80.1116 97.087 80.4489 97.208 80.8742 97.208ZM87.1179 98.11C86.5166 98.11 86.0289 97.9083 85.6549 97.505C85.2883 97.1017 85.1049 96.5553 85.1049 95.866V94.095C85.1049 93.3983 85.2883 92.8483 85.6549 92.445C86.0216 92.0417 86.5093 91.84 87.1179 91.84C87.6166 91.84 88.0163 91.9757 88.3169 92.247C88.6176 92.5183 88.7679 92.8813 88.7679 93.336L88.5699 93.105H88.7899L88.7679 91.73V89.97H89.7579V98H88.7679V96.845H88.5699L88.7679 96.614C88.7679 97.076 88.6176 97.4427 88.3169 97.714C88.0163 97.978 87.6166 98.11 87.1179 98.11ZM87.4479 97.252C87.8586 97.252 88.1813 97.1237 88.4159 96.867C88.6506 96.6103 88.7679 96.2547 88.7679 95.8V94.15C88.7679 93.6953 88.6506 93.3397 88.4159 93.083C88.1813 92.8263 87.8586 92.698 87.4479 92.698C87.0299 92.698 86.6999 92.8227 86.4579 93.072C86.2159 93.3213 86.0949 93.6807 86.0949 94.15V95.8C86.0949 96.2693 86.2159 96.6287 86.4579 96.878C86.6999 97.1273 87.0299 97.252 87.4479 97.252Z" fill="black"/>
<path d="M38.913 122L39.32 119.8H38.385V119.085H39.452L39.848 116.885H38.77V116.17H39.98L40.387 113.97H41.157L40.75 116.17H42.51L42.917 113.97H43.687L43.28 116.17H44.215V116.885H43.148L42.752 119.085H43.83V119.8H42.62L42.213 122H41.443L41.85 119.8H40.09L39.683 122H38.913ZM40.222 119.085H41.982L42.378 116.885H40.618L40.222 119.085ZM52.2034 122V113.97H54.2824C54.8031 113.97 55.2504 114.069 55.6244 114.267C56.0057 114.465 56.2991 114.744 56.5044 115.103C56.7171 115.462 56.8234 115.888 56.8234 116.379V119.58C56.8234 120.071 56.7171 120.5 56.5044 120.867C56.2991 121.226 56.0057 121.505 55.6244 121.703C55.2504 121.901 54.8031 122 54.2824 122H52.2034ZM53.1934 121.12H54.2824C54.7664 121.12 55.1441 120.984 55.4154 120.713C55.6941 120.442 55.8334 120.064 55.8334 119.58V116.379C55.8334 115.902 55.6941 115.528 55.4154 115.257C55.1441 114.986 54.7664 114.85 54.2824 114.85H53.1934V121.12ZM58.7221 122V121.098H60.8671V116.852H58.9971V115.95H61.8571V121.098H63.8921V122H58.7221ZM61.2521 114.861C61.0101 114.861 60.8194 114.799 60.6801 114.674C60.5408 114.549 60.4711 114.381 60.4711 114.168C60.4711 113.948 60.5408 113.776 60.6801 113.651C60.8194 113.519 61.0101 113.453 61.2521 113.453C61.4941 113.453 61.6848 113.519 61.8241 113.651C61.9634 113.776 62.0331 113.948 62.0331 114.168C62.0331 114.381 61.9634 114.549 61.8241 114.674C61.6848 114.799 61.4941 114.861 61.2521 114.861ZM67.4958 122.088C67.0851 122.088 66.7258 122.026 66.4178 121.901C66.1171 121.769 65.8751 121.586 65.6918 121.351C65.5158 121.116 65.4095 120.838 65.3728 120.515H66.3628C66.4068 120.728 66.5241 120.896 66.7148 121.021C66.9128 121.146 67.1731 121.208 67.4958 121.208H67.9578C68.3465 121.208 68.6361 121.131 68.8268 120.977C69.0175 120.816 69.1128 120.603 69.1128 120.339C69.1128 120.082 69.0248 119.881 68.8488 119.734C68.6801 119.58 68.4271 119.477 68.0898 119.426L67.2758 119.294C66.6818 119.191 66.2381 119.008 65.9448 118.744C65.6588 118.473 65.5158 118.08 65.5158 117.567C65.5158 117.024 65.6881 116.606 66.0328 116.313C66.3775 116.012 66.8945 115.862 67.5838 115.862H68.0018C68.5811 115.862 69.0468 115.998 69.3988 116.269C69.7508 116.54 69.9635 116.907 70.0368 117.369H69.0468C69.0028 117.178 68.8928 117.028 68.7168 116.918C68.5408 116.801 68.3025 116.742 68.0018 116.742H67.5838C67.2098 116.742 66.9348 116.812 66.7588 116.951C66.5901 117.09 66.5058 117.299 66.5058 117.578C66.5058 117.827 66.5791 118.011 66.7258 118.128C66.8725 118.245 67.1035 118.33 67.4188 118.381L68.2328 118.513C68.8855 118.616 69.3585 118.806 69.6518 119.085C69.9525 119.364 70.1028 119.767 70.1028 120.295C70.1028 120.852 69.9231 121.292 69.5638 121.615C69.2118 121.93 68.6765 122.088 67.9578 122.088H67.4958ZM74.3225 122.11C73.8385 122.11 73.4132 122.018 73.0465 121.835C72.6872 121.652 72.4085 121.388 72.2105 121.043C72.0125 120.691 71.9135 120.277 71.9135 119.8V118.15C71.9135 117.666 72.0125 117.252 72.2105 116.907C72.4085 116.562 72.6872 116.298 73.0465 116.115C73.4132 115.932 73.8385 115.84 74.3225 115.84C75.0192 115.84 75.5802 116.027 76.0055 116.401C76.4308 116.775 76.6545 117.285 76.6765 117.93H75.6865C75.6645 117.541 75.5325 117.244 75.2905 117.039C75.0558 116.826 74.7332 116.72 74.3225 116.72C73.8898 116.72 73.5452 116.845 73.2885 117.094C73.0318 117.336 72.9035 117.684 72.9035 118.139V119.8C72.9035 120.255 73.0318 120.607 73.2885 120.856C73.5452 121.105 73.8898 121.23 74.3225 121.23C74.7332 121.23 75.0558 121.124 75.2905 120.911C75.5325 120.698 75.6645 120.401 75.6865 120.02H76.6765C76.6545 120.665 76.4308 121.175 76.0055 121.549C75.5802 121.923 75.0192 122.11 74.3225 122.11ZM80.8632 122.11C80.1666 122.11 79.6092 121.905 79.1912 121.494C78.7732 121.076 78.5642 120.511 78.5642 119.8V115.95H79.5542V119.8C79.5542 120.255 79.6716 120.61 79.9062 120.867C80.1409 121.116 80.4599 121.241 80.8632 121.241C81.2739 121.241 81.5966 121.116 81.8312 120.867C82.0732 120.61 82.1942 120.255 82.1942 119.8V115.95H83.1842V119.8C83.1842 120.511 82.9716 121.076 82.5462 121.494C82.1209 121.905 81.5599 122.11 80.8632 122.11ZM87.2829 122.088C86.8723 122.088 86.5129 122.026 86.2049 121.901C85.9043 121.769 85.6623 121.586 85.4789 121.351C85.3029 121.116 85.1966 120.838 85.1599 120.515H86.1499C86.1939 120.728 86.3113 120.896 86.5019 121.021C86.6999 121.146 86.9603 121.208 87.2829 121.208H87.7449C88.1336 121.208 88.4233 121.131 88.6139 120.977C88.8046 120.816 88.8999 120.603 88.8999 120.339C88.8999 120.082 88.8119 119.881 88.6359 119.734C88.4673 119.58 88.2143 119.477 87.8769 119.426L87.0629 119.294C86.4689 119.191 86.0253 119.008 85.7319 118.744C85.4459 118.473 85.3029 118.08 85.3029 117.567C85.3029 117.024 85.4753 116.606 85.8199 116.313C86.1646 116.012 86.6816 115.862 87.3709 115.862H87.7889C88.3683 115.862 88.8339 115.998 89.1859 116.269C89.5379 116.54 89.7506 116.907 89.8239 117.369H88.8339C88.7899 117.178 88.6799 117.028 88.5039 116.918C88.3279 116.801 88.0896 116.742 87.7889 116.742H87.3709C86.9969 116.742 86.7219 116.812 86.5459 116.951C86.3773 117.09 86.2929 117.299 86.2929 117.578C86.2929 117.827 86.3663 118.011 86.5129 118.128C86.6596 118.245 86.8906 118.33 87.2059 118.381L88.0199 118.513C88.6726 118.616 89.1456 118.806 89.4389 119.085C89.7396 119.364 89.8899 119.767 89.8899 120.295C89.8899 120.852 89.7103 121.292 89.3509 121.615C88.9989 121.93 88.4636 122.088 87.7449 122.088H87.2829ZM93.8786 122.088C93.468 122.088 93.1086 122.026 92.8006 121.901C92.5 121.769 92.258 121.586 92.0746 121.351C91.8986 121.116 91.7923 120.838 91.7556 120.515H92.7456C92.7896 120.728 92.907 120.896 93.0976 121.021C93.2956 121.146 93.556 121.208 93.8786 121.208H94.3406C94.7293 121.208 95.019 121.131 95.2096 120.977C95.4003 120.816 95.4956 120.603 95.4956 120.339C95.4956 120.082 95.4076 119.881 95.2316 119.734C95.063 119.58 94.81 119.477 94.4726 119.426L93.6586 119.294C93.0646 119.191 92.621 119.008 92.3276 118.744C92.0416 118.473 91.8986 118.08 91.8986 117.567C91.8986 117.024 92.071 116.606 92.4156 116.313C92.7603 116.012 93.2773 115.862 93.9666 115.862H94.3846C94.964 115.862 95.4296 115.998 95.7816 116.269C96.1336 116.54 96.3463 116.907 96.4196 117.369H95.4296C95.3856 117.178 95.2756 117.028 95.0996 116.918C94.9236 116.801 94.6853 116.742 94.3846 116.742H93.9666C93.5926 116.742 93.3176 116.812 93.1416 116.951C92.973 117.09 92.8886 117.299 92.8886 117.578C92.8886 117.827 92.962 118.011 93.1086 118.128C93.2553 118.245 93.4863 118.33 93.8016 118.381L94.6156 118.513C95.2683 118.616 95.7413 118.806 96.0346 119.085C96.3353 119.364 96.4856 119.767 96.4856 120.295C96.4856 120.852 96.306 121.292 95.9466 121.615C95.5946 121.93 95.0593 122.088 94.3406 122.088H93.8786ZM98.2963 122V121.098H100.441V116.852H98.5713V115.95H101.431V121.098H103.466V122H98.2963ZM100.826 114.861C100.584 114.861 100.394 114.799 100.254 114.674C100.115 114.549 100.045 114.381 100.045 114.168C100.045 113.948 100.115 113.776 100.254 113.651C100.394 113.519 100.584 113.453 100.826 113.453C101.068 113.453 101.259 113.519 101.398 113.651C101.538 113.776 101.607 113.948 101.607 114.168C101.607 114.381 101.538 114.549 101.398 114.674C101.259 114.799 101.068 114.861 100.826 114.861ZM107.257 122.088C106.773 122.088 106.355 121.996 106.003 121.813C105.651 121.63 105.376 121.366 105.178 121.021C104.987 120.669 104.892 120.255 104.892 119.778V118.172C104.892 117.688 104.987 117.274 105.178 116.929C105.376 116.584 105.651 116.32 106.003 116.137C106.355 115.954 106.773 115.862 107.257 115.862C107.741 115.862 108.159 115.954 108.511 116.137C108.863 116.32 109.134 116.584 109.325 116.929C109.523 117.274 109.622 117.684 109.622 118.161V119.778C109.622 120.255 109.523 120.669 109.325 121.021C109.134 121.366 108.863 121.63 108.511 121.813C108.159 121.996 107.741 122.088 107.257 122.088ZM107.257 121.208C107.69 121.208 108.027 121.087 108.269 120.845C108.511 120.603 108.632 120.247 108.632 119.778V118.172C108.632 117.703 108.511 117.347 108.269 117.105C108.027 116.863 107.69 116.742 107.257 116.742C106.832 116.742 106.494 116.863 106.245 117.105C106.003 117.347 105.882 117.703 105.882 118.172V119.778C105.882 120.247 106.003 120.603 106.245 120.845C106.494 121.087 106.832 121.208 107.257 121.208ZM111.565 122V115.95H112.555V117.105H112.764L112.555 117.336C112.555 116.859 112.698 116.493 112.984 116.236C113.27 115.972 113.666 115.84 114.172 115.84C114.78 115.84 115.264 116.027 115.624 116.401C115.983 116.775 116.163 117.285 116.163 117.93V122H115.173V118.04C115.173 117.607 115.055 117.277 114.821 117.05C114.593 116.815 114.282 116.698 113.886 116.698C113.475 116.698 113.149 116.823 112.907 117.072C112.672 117.321 112.555 117.681 112.555 118.15V122H111.565Z" fill="black"/>
<circle cx="25.5" cy="43.5" r="7.5" fill="#B8D4E3"/>
<path d="M22.99 47V46.098H25.168V39.795L22.99 41.423V40.323L24.805 38.97H26.158V46.098H27.94V47H22.99Z" fill="black"/>
<circle cx="25.5" cy="68.5" r="7.5" fill="#F7A9A8"/>
<path d="M23.012 72V70.988L25.465 68.381C25.883 67.9337 26.1873 67.5377 26.378 67.193C26.5687 66.841 26.664 66.5037 26.664 66.181C26.664 65.7337 26.5393 65.3817 26.29 65.125C26.048 64.8683 25.7143 64.74 25.289 64.74C24.8197 64.74 24.4493 64.872 24.178 65.136C23.914 65.4 23.782 65.763 23.782 66.225H22.792C22.8067 65.741 22.9167 65.323 23.122 64.971C23.3347 64.6117 23.6243 64.3367 23.991 64.146C24.365 63.9553 24.7977 63.86 25.289 63.86C25.773 63.86 26.191 63.9553 26.543 64.146C26.9023 64.3293 27.1773 64.5933 27.368 64.938C27.5587 65.2827 27.654 65.6933 27.654 66.17C27.654 66.6247 27.533 67.0757 27.291 67.523C27.049 67.9703 26.653 68.48 26.103 69.052L24.123 71.098H27.786V72H23.012Z" fill="black"/>
<circle cx="25.5" cy="118.5" r="7.5" fill="#B488D3"/>
<path d="M26.51 122V120.24H22.88V118.689L26.059 113.97H27.137L23.87 118.898V119.338H26.51V117.38H27.5V122H26.51Z" fill="black"/>
<circle cx="25.5" cy="94.5" r="7.5" fill="#FED766"/>
<path d="M25.179 98.11C24.695 98.11 24.2697 98.0147 23.903 97.824C23.5437 97.626 23.265 97.3547 23.067 97.01C22.869 96.6653 22.77 96.262 22.77 95.8H23.76C23.76 96.2473 23.8847 96.5993 24.134 96.856C24.3907 97.1053 24.7427 97.23 25.19 97.23C25.6447 97.23 25.9967 97.098 26.246 96.834C26.4953 96.57 26.62 96.2253 26.62 95.8V95.228C26.62 94.7733 26.4953 94.4213 26.246 94.172C25.9967 93.9227 25.6447 93.798 25.19 93.798H24.365V92.808L26.356 90.872H23.1V89.97H27.357V90.96L25.212 93.039V92.918C25.9453 92.918 26.5283 93.127 26.961 93.545C27.3937 93.963 27.61 94.524 27.61 95.228V95.8C27.61 96.262 27.5073 96.6653 27.302 97.01C27.104 97.3547 26.8217 97.626 26.455 97.824C26.0883 98.0147 25.663 98.11 25.179 98.11Z" fill="black"/>
<circle cx="216.5" cy="116.5" r="7.5" fill="#B8D4E3"/>
<path d="M213.99 120V119.098H216.168V112.795L213.99 114.423V113.323L215.805 111.97H217.158V119.098H218.94V120H213.99Z" fill="black"/>
<circle cx="216.951" cy="41.5" r="7.5" fill="#F7A9A8"/>
<path d="M214.463 45V43.988L216.916 41.381C217.334 40.9337 217.638 40.5377 217.829 40.193C218.019 39.841 218.115 39.5037 218.115 39.181C218.115 38.7337 217.99 38.3817 217.741 38.125C217.499 37.8683 217.165 37.74 216.74 37.74C216.27 37.74 215.9 37.872 215.629 38.136C215.365 38.4 215.233 38.763 215.233 39.225H214.243C214.257 38.741 214.367 38.323 214.573 37.971C214.785 37.6117 215.075 37.3367 215.442 37.146C215.816 36.9553 216.248 36.86 216.74 36.86C217.224 36.86 217.642 36.9553 217.994 37.146C218.353 37.3293 218.628 37.5933 218.819 37.938C219.009 38.2827 219.105 38.6933 219.105 39.17C219.105 39.6247 218.984 40.0757 218.742 40.523C218.5 40.9703 218.104 41.48 217.554 42.052L215.574 44.098H219.237V45H214.463Z" fill="black"/>
<circle cx="216.5" cy="91.5" r="7.5" fill="#B488D3"/>
<path d="M217.51 95V93.24H213.88V91.689L217.059 86.97H218.137L214.87 91.898V92.338H217.51V90.38H218.5V95H217.51Z" fill="black"/>
<circle cx="216.951" cy="66.5" r="7.5" fill="#FED766"/>
<path d="M216.63 70.11C216.146 70.11 215.72 70.0147 215.354 69.824C214.994 69.626 214.716 69.3547 214.518 69.01C214.32 68.6653 214.221 68.262 214.221 67.8H215.211C215.211 68.2473 215.335 68.5993 215.585 68.856C215.841 69.1053 216.193 69.23 216.641 69.23C217.095 69.23 217.447 69.098 217.697 68.834C217.946 68.57 218.071 68.2253 218.071 67.8V67.228C218.071 66.7733 217.946 66.4213 217.697 66.172C217.447 65.9227 217.095 65.798 216.641 65.798H215.816V64.808L217.807 62.872H214.551V61.97H218.808V62.96L216.663 65.039V64.918C217.396 64.918 217.979 65.127 218.412 65.545C218.844 65.963 219.061 66.524 219.061 67.228V67.8C219.061 68.262 218.958 68.6653 218.753 69.01C218.555 69.3547 218.272 69.626 217.906 69.824C217.539 70.0147 217.114 70.11 216.63 70.11Z" fill="black"/>
<path d="M208.202 117L202.627 115.5L206.713 111.422L208.202 117ZM208.509 66.8949C195.958 76.6386 190.703 97.1444 205.397 113.483L204.653 114.151C189.526 97.3309 194.941 76.1619 207.895 66.1051L208.509 66.8949Z" fill="black"/>
<path d="M226.451 91.5L232.026 90.0002L227.939 85.9217L226.451 91.5ZM226.144 41.3949C238.695 51.1386 243.949 71.6444 229.256 87.9827L229.999 88.6514C245.127 71.8309 239.711 50.6619 226.757 40.6051L226.144 41.3949Z" fill="black"/>
<path d="M226.951 114.5L232.21 112.118L227.517 108.754L226.951 114.5ZM226.644 41.8949C233.256 47.0281 241.224 53.5806 243.906 64.1045C246.583 74.6099 244.023 89.2276 229.165 110.552L229.986 111.123C244.92 89.6892 247.655 74.767 244.875 63.8575C242.099 52.9666 233.858 46.2295 227.257 41.1051L226.644 41.8949Z" fill="black"/>
<path d="M217.451 57.5L220.337 52.5H214.564L217.451 57.5ZM216.951 50V53H217.951V50H216.951Z" fill="black"/>
<path d="M217.451 82.5L220.337 77.5H214.564L217.451 82.5ZM216.951 75V78H217.951V75H216.951Z" fill="black"/>
<path d="M217.451 107.5L220.337 102.5H214.564L217.451 107.5ZM216.951 100V103H217.951V100H216.951Z" fill="black"/>
<path d="M22.824 22.192C22.064 22.192 21.412 22.064 20.868 21.808C20.324 21.552 19.88 21.212 19.536 20.788C19.2 20.356 18.952 19.88 18.792 19.36C18.632 18.84 18.552 18.32 18.552 17.8C18.552 17.296 18.636 16.788 18.804 16.276C18.972 15.756 19.228 15.28 19.572 14.848C19.924 14.416 20.36 14.068 20.88 13.804C21.408 13.54 22.024 13.408 22.728 13.408C23.464 13.408 24.1 13.54 24.636 13.804C25.172 14.068 25.612 14.42 25.956 14.86C26.308 15.292 26.568 15.764 26.736 16.276C26.912 16.788 27 17.296 27 17.8C27 18.296 26.916 18.804 26.748 19.324C26.58 19.836 26.32 20.312 25.968 20.752C25.624 21.184 25.192 21.532 24.672 21.796C24.152 22.06 23.536 22.192 22.824 22.192ZM22.848 21.7C23.344 21.7 23.776 21.596 24.144 21.388C24.512 21.172 24.816 20.888 25.056 20.536C25.304 20.176 25.488 19.78 25.608 19.348C25.736 18.908 25.8 18.468 25.8 18.028C25.8 17.532 25.732 17.04 25.596 16.552C25.46 16.064 25.26 15.62 24.996 15.22C24.732 14.82 24.404 14.5 24.012 14.26C23.628 14.012 23.188 13.888 22.692 13.888C22.196 13.888 21.76 13.996 21.384 14.212C21.016 14.428 20.708 14.716 20.46 15.076C20.22 15.428 20.036 15.824 19.908 16.264C19.788 16.696 19.728 17.136 19.728 17.584C19.728 18.024 19.788 18.484 19.908 18.964C20.036 19.444 20.228 19.892 20.484 20.308C20.74 20.724 21.064 21.06 21.456 21.316C21.848 21.572 22.312 21.7 22.848 21.7ZM28.0553 21.64C28.3033 21.64 28.4753 21.58 28.5713 21.46C28.6673 21.332 28.7233 21.16 28.7393 20.944C28.7553 20.72 28.7633 20.464 28.7633 20.176V17.44C28.7633 17.312 28.7633 17.184 28.7633 17.056C28.7713 16.928 28.7873 16.796 28.8113 16.66C28.6673 16.668 28.5233 16.676 28.3793 16.684C28.2433 16.684 28.1033 16.688 27.9593 16.696V16.204H28.3313C28.6753 16.204 28.9113 16.172 29.0393 16.108C29.1753 16.036 29.2873 15.96 29.3753 15.88H29.7233C29.7393 16.008 29.7513 16.168 29.7593 16.36C29.7673 16.544 29.7753 16.78 29.7833 17.068C29.9033 16.868 30.0673 16.672 30.2753 16.48C30.4833 16.288 30.7153 16.128 30.9713 16C31.2353 15.872 31.5113 15.808 31.7993 15.808C32.0233 15.808 32.2193 15.868 32.3873 15.988C32.5553 16.108 32.6393 16.3 32.6393 16.564C32.6393 16.628 32.6193 16.708 32.5793 16.804C32.5393 16.892 32.4753 16.972 32.3873 17.044C32.2993 17.108 32.1833 17.14 32.0393 17.14C31.8633 17.132 31.7233 17.064 31.6193 16.936C31.5153 16.8 31.4753 16.644 31.4993 16.468C31.2993 16.46 31.0913 16.512 30.8753 16.624C30.6673 16.736 30.4713 16.892 30.2873 17.092C30.1033 17.284 29.9393 17.512 29.7953 17.776L29.8073 20.728C29.8073 20.888 29.8033 21.032 29.7953 21.16C29.7953 21.28 29.7833 21.408 29.7593 21.544C29.8873 21.536 30.0113 21.532 30.1313 21.532C30.2593 21.524 30.3873 21.516 30.5153 21.508V22H28.0553V21.64ZM33.2468 21.64C33.4948 21.64 33.6668 21.58 33.7628 21.46C33.8588 21.332 33.9148 21.16 33.9308 20.944C33.9468 20.72 33.9548 20.464 33.9548 20.176V17.44C33.9548 17.312 33.9588 17.192 33.9668 17.08C33.9748 16.96 33.9868 16.82 34.0028 16.66C33.8588 16.668 33.7148 16.676 33.5708 16.684C33.4348 16.692 33.2948 16.7 33.1508 16.708V16.204C33.5028 16.204 33.7748 16.188 33.9668 16.156C34.1588 16.124 34.3028 16.084 34.3988 16.036C34.5028 15.988 34.5828 15.936 34.6388 15.88H34.9868V20.728C34.9868 20.888 34.9828 21.032 34.9748 21.16C34.9748 21.28 34.9628 21.408 34.9388 21.544C35.0668 21.536 35.1908 21.532 35.3108 21.532C35.4388 21.524 35.5668 21.516 35.6948 21.508V22H33.2468V21.64ZM34.4108 14.692C34.2428 14.692 34.0948 14.624 33.9668 14.488C33.8388 14.352 33.7748 14.184 33.7748 13.984C33.7748 13.784 33.8388 13.616 33.9668 13.48C34.1028 13.336 34.2548 13.264 34.4228 13.264C34.6068 13.264 34.7588 13.336 34.8788 13.48C35.0068 13.616 35.0708 13.784 35.0708 13.984C35.0708 14.184 35.0028 14.352 34.8668 14.488C34.7388 14.624 34.5868 14.692 34.4108 14.692ZM39.5138 25.252C38.7938 25.252 38.2138 25.172 37.7738 25.012C37.3338 24.852 37.0138 24.648 36.8138 24.4C36.6138 24.152 36.5138 23.896 36.5138 23.632C36.5138 23.384 36.5698 23.164 36.6818 22.972C36.8018 22.788 36.9458 22.628 37.1138 22.492C37.2898 22.356 37.4578 22.256 37.6178 22.192C37.3618 22.104 37.1578 21.988 37.0058 21.844C36.8618 21.692 36.7898 21.492 36.7898 21.244C36.7898 20.964 36.9018 20.704 37.1258 20.464C37.3498 20.216 37.6378 20.064 37.9898 20.008C37.6218 19.832 37.3258 19.588 37.1018 19.276C36.8858 18.964 36.7778 18.6 36.7778 18.184C36.7778 17.704 36.9018 17.288 37.1498 16.936C37.3978 16.576 37.7138 16.3 38.0978 16.108C38.4898 15.908 38.8938 15.808 39.3098 15.808C39.5738 15.808 39.8378 15.848 40.1018 15.928C40.3658 16 40.6098 16.108 40.8338 16.252C40.9138 16.028 41.0258 15.828 41.1698 15.652C41.3218 15.476 41.4938 15.34 41.6858 15.244C41.8778 15.14 42.0778 15.088 42.2858 15.088C42.4938 15.088 42.6498 15.144 42.7538 15.256C42.8658 15.36 42.9218 15.504 42.9218 15.688C42.9218 15.744 42.9058 15.812 42.8737 15.892C42.8418 15.972 42.7858 16.04 42.7057 16.096C42.6338 16.152 42.5338 16.18 42.4058 16.18C42.2698 16.18 42.1578 16.14 42.0698 16.06C41.9818 15.98 41.9258 15.88 41.9018 15.76C41.7018 15.792 41.5458 15.888 41.4338 16.048C41.3218 16.2 41.2458 16.368 41.2058 16.552C41.3978 16.728 41.5498 16.94 41.6618 17.188C41.7818 17.436 41.8418 17.7 41.8418 17.98C41.8418 18.428 41.7218 18.828 41.4818 19.18C41.2498 19.532 40.9418 19.808 40.5578 20.008C40.1738 20.2 39.7578 20.296 39.3098 20.296C39.1578 20.296 39.0258 20.288 38.9138 20.272C38.8018 20.248 38.6658 20.236 38.5058 20.236C38.2098 20.236 37.9698 20.308 37.7858 20.452C37.6018 20.596 37.5378 20.768 37.5938 20.968C37.6578 21.16 37.8538 21.284 38.1818 21.34C38.5098 21.388 38.9498 21.424 39.5018 21.448C40.1178 21.472 40.6458 21.544 41.0858 21.664C41.5258 21.784 41.8618 21.968 42.0938 22.216C42.3338 22.472 42.4538 22.816 42.4538 23.248C42.4538 23.568 42.3658 23.852 42.1898 24.1C42.0218 24.356 41.7938 24.568 41.5058 24.736C41.2258 24.904 40.9098 25.032 40.5578 25.12C40.2138 25.208 39.8658 25.252 39.5138 25.252ZM39.5018 24.784C40.1898 24.784 40.7258 24.656 41.1098 24.4C41.4938 24.144 41.6858 23.844 41.6858 23.5C41.6858 23.204 41.5858 22.976 41.3858 22.816C41.1858 22.664 40.9138 22.556 40.5698 22.492C40.2258 22.436 39.8298 22.404 39.3818 22.396C39.1658 22.388 38.9538 22.376 38.7458 22.36C38.5378 22.352 38.3378 22.332 38.1458 22.3C37.9298 22.444 37.7618 22.62 37.6418 22.828C37.5218 23.036 37.4618 23.256 37.4618 23.488C37.4618 23.88 37.6458 24.192 38.0138 24.424C38.3898 24.664 38.8858 24.784 39.5018 24.784ZM39.3458 19.864C39.6418 19.864 39.8858 19.792 40.0778 19.648C40.2778 19.504 40.4258 19.308 40.5218 19.06C40.6258 18.812 40.6778 18.532 40.6778 18.22C40.6778 17.868 40.6258 17.54 40.5218 17.236C40.4178 16.932 40.2618 16.688 40.0538 16.504C39.8538 16.32 39.5978 16.228 39.2858 16.228C38.8538 16.228 38.5178 16.392 38.2778 16.72C38.0458 17.04 37.9298 17.44 37.9298 17.92C37.9298 18.304 37.9858 18.644 38.0978 18.94C38.2098 19.228 38.3698 19.456 38.5778 19.624C38.7938 19.784 39.0498 19.864 39.3458 19.864ZM43.5475 21.64C43.7955 21.64 43.9675 21.58 44.0635 21.46C44.1595 21.332 44.2155 21.16 44.2315 20.944C44.2475 20.72 44.2555 20.464 44.2555 20.176V17.44C44.2555 17.312 44.2595 17.192 44.2675 17.08C44.2755 16.96 44.2875 16.82 44.3035 16.66C44.1595 16.668 44.0155 16.676 43.8715 16.684C43.7355 16.692 43.5955 16.7 43.4515 16.708V16.204C43.8035 16.204 44.0755 16.188 44.2675 16.156C44.4595 16.124 44.6035 16.084 44.6995 16.036C44.8035 15.988 44.8835 15.936 44.9395 15.88H45.2875V20.728C45.2875 20.888 45.2835 21.032 45.2755 21.16C45.2755 21.28 45.2635 21.408 45.2395 21.544C45.3675 21.536 45.4915 21.532 45.6115 21.532C45.7395 21.524 45.8675 21.516 45.9955 21.508V22H43.5475V21.64ZM44.7115 14.692C44.5435 14.692 44.3955 14.624 44.2675 14.488C44.1395 14.352 44.0755 14.184 44.0755 13.984C44.0755 13.784 44.1395 13.616 44.2675 13.48C44.4035 13.336 44.5555 13.264 44.7235 13.264C44.9075 13.264 45.0595 13.336 45.1795 13.48C45.3075 13.616 45.3715 13.784 45.3715 13.984C45.3715 14.184 45.3035 14.352 45.1675 14.488C45.0395 14.624 44.8875 14.692 44.7115 14.692ZM46.9225 22V21.64C47.1705 21.64 47.3425 21.58 47.4385 21.46C47.5345 21.332 47.5905 21.16 47.6065 20.944C47.6225 20.72 47.6305 20.464 47.6305 20.176L47.6425 17.44C47.6425 17.312 47.6425 17.184 47.6425 17.056C47.6505 16.928 47.6665 16.796 47.6905 16.66C47.5465 16.668 47.4025 16.676 47.2585 16.684C47.1225 16.692 46.9825 16.7 46.8385 16.708V16.204C47.1905 16.204 47.4545 16.188 47.6305 16.156C47.8145 16.124 47.9505 16.084 48.0385 16.036C48.1265 15.988 48.1985 15.936 48.2545 15.88H48.6025C48.6105 15.936 48.6145 16 48.6145 16.072C48.6225 16.144 48.6305 16.224 48.6385 16.312C48.6465 16.4 48.6505 16.5 48.6505 16.612C48.8265 16.46 49.0185 16.324 49.2265 16.204C49.4425 16.084 49.6665 15.988 49.8985 15.916C50.1385 15.844 50.3745 15.808 50.6065 15.808C51.3025 15.808 51.8105 16.028 52.1305 16.468C52.4505 16.9 52.6105 17.576 52.6105 18.496V20.728C52.6105 20.888 52.6065 21.032 52.5985 21.16C52.5985 21.28 52.5865 21.408 52.5625 21.544C52.6905 21.536 52.8145 21.532 52.9345 21.532C53.0625 21.524 53.1905 21.516 53.3185 21.508V22H50.8705V21.64C51.1185 21.64 51.2905 21.58 51.3865 21.46C51.4825 21.332 51.5385 21.16 51.5545 20.944C51.5705 20.72 51.5785 20.464 51.5785 20.176V18.496C51.5705 17.808 51.4545 17.288 51.2305 16.936C51.0145 16.584 50.6705 16.412 50.1985 16.42C49.9105 16.428 49.6265 16.504 49.3465 16.648C49.0745 16.792 48.8465 16.976 48.6625 17.2C48.6705 17.264 48.6745 17.336 48.6745 17.416C48.6745 17.496 48.6745 17.58 48.6745 17.668L48.6625 20.728C48.6625 20.888 48.6585 21.032 48.6505 21.16C48.6505 21.28 48.6385 21.408 48.6145 21.544C48.7425 21.536 48.8665 21.532 48.9865 21.532C49.1145 21.524 49.2425 21.516 49.3705 21.508V22H46.9225ZM57.8596 22C57.8356 21.864 57.8196 21.744 57.8116 21.64C57.8036 21.536 57.7916 21.428 57.7756 21.316C57.5036 21.588 57.2076 21.804 56.8876 21.964C56.5756 22.116 56.2436 22.192 55.8916 22.192C55.2836 22.192 54.8316 22.056 54.5356 21.784C54.2396 21.504 54.0916 21.164 54.0916 20.764C54.0916 20.396 54.2036 20.08 54.4276 19.816C54.6596 19.544 54.9556 19.324 55.3156 19.156C55.6836 18.98 56.0796 18.852 56.5036 18.772C56.9356 18.684 57.3516 18.644 57.7516 18.652V17.908C57.7516 17.628 57.7276 17.364 57.6796 17.116C57.6316 16.868 57.5276 16.664 57.3676 16.504C57.2076 16.344 56.9516 16.26 56.5996 16.252C56.3676 16.244 56.1276 16.288 55.8796 16.384C55.6396 16.48 55.4636 16.644 55.3516 16.876C55.4156 16.94 55.4556 17.016 55.4716 17.104C55.4956 17.184 55.5076 17.26 55.5076 17.332C55.5076 17.428 55.4676 17.54 55.3876 17.668C55.3076 17.788 55.1676 17.844 54.9676 17.836C54.7996 17.836 54.6716 17.78 54.5836 17.668C54.4956 17.548 54.4516 17.408 54.4516 17.248C54.4516 16.976 54.5516 16.732 54.7516 16.516C54.9596 16.3 55.2436 16.128 55.6036 16C55.9636 15.872 56.3716 15.808 56.8276 15.808C57.4996 15.808 57.9956 15.988 58.3156 16.348C58.6356 16.7 58.7916 17.26 58.7836 18.028C58.7836 18.324 58.7836 18.624 58.7836 18.928C58.7836 19.224 58.7796 19.524 58.7716 19.828C58.7716 20.124 58.7716 20.424 58.7716 20.728C58.7716 20.856 58.7676 20.984 58.7596 21.112C58.7516 21.24 58.7396 21.384 58.7236 21.544C58.8676 21.536 59.0076 21.528 59.1436 21.52C59.2876 21.512 59.4316 21.504 59.5756 21.496V22H57.8596ZM57.7516 19.06C57.4796 19.068 57.1916 19.104 56.8876 19.168C56.5916 19.224 56.3156 19.312 56.0596 19.432C55.8116 19.552 55.6076 19.712 55.4476 19.912C55.2956 20.104 55.2236 20.34 55.2316 20.62C55.2476 20.916 55.3436 21.14 55.5196 21.292C55.7036 21.436 55.9196 21.508 56.1676 21.508C56.4956 21.508 56.7796 21.448 57.0196 21.328C57.2676 21.2 57.5116 21.024 57.7516 20.8C57.7436 20.712 57.7396 20.616 57.7396 20.512C57.7396 20.408 57.7396 20.3 57.7396 20.188C57.7396 20.148 57.7396 20.02 57.7396 19.804C57.7476 19.588 57.7516 19.34 57.7516 19.06ZM60.2791 21.64C60.5271 21.64 60.6991 21.58 60.7951 21.46C60.8911 21.332 60.9471 21.16 60.9631 20.944C60.9791 20.72 60.9871 20.464 60.9871 20.176V14.5C60.9871 14.372 60.9871 14.252 60.9871 14.14C60.9951 14.02 61.0071 13.88 61.0231 13.72C60.8791 13.728 60.7351 13.736 60.5911 13.744C60.4551 13.752 60.3151 13.76 60.1711 13.768V13.264C60.5231 13.264 60.7951 13.248 60.9871 13.216C61.1871 13.184 61.3351 13.144 61.4311 13.096C61.5351 13.048 61.6151 12.996 61.6711 12.94H62.0191L62.0311 20.728C62.0311 20.888 62.0271 21.032 62.0191 21.16C62.0111 21.28 61.9951 21.408 61.9711 21.544C62.0991 21.536 62.2231 21.532 62.3431 21.532C62.4711 21.524 62.5991 21.516 62.7271 21.508V22H60.2791V21.64ZM69.797 22.192C69.237 22.192 68.729 22.064 68.273 21.808C67.817 21.544 67.453 21.184 67.181 20.728C66.917 20.264 66.785 19.736 66.785 19.144C66.785 18.512 66.917 17.944 67.181 17.44C67.445 16.936 67.805 16.54 68.261 16.252C68.717 15.956 69.229 15.808 69.797 15.808C70.357 15.808 70.865 15.944 71.321 16.216C71.777 16.48 72.141 16.84 72.413 17.296C72.685 17.752 72.821 18.272 72.821 18.856C72.821 19.472 72.685 20.036 72.413 20.548C72.149 21.052 71.789 21.452 71.333 21.748C70.877 22.044 70.365 22.192 69.797 22.192ZM69.893 21.712C70.317 21.712 70.653 21.592 70.901 21.352C71.149 21.112 71.325 20.8 71.429 20.416C71.541 20.032 71.597 19.628 71.597 19.204C71.597 18.844 71.561 18.492 71.489 18.148C71.425 17.796 71.321 17.48 71.177 17.2C71.033 16.912 70.845 16.684 70.613 16.516C70.389 16.348 70.117 16.264 69.797 16.264C69.381 16.264 69.041 16.384 68.777 16.624C68.513 16.864 68.317 17.176 68.189 17.56C68.069 17.944 68.009 18.356 68.009 18.796C68.009 19.292 68.077 19.764 68.213 20.212C68.349 20.652 68.557 21.012 68.837 21.292C69.117 21.572 69.469 21.712 69.893 21.712ZM73.8405 21.64C74.0885 21.64 74.2605 21.58 74.3565 21.46C74.4525 21.332 74.5085 21.16 74.5245 20.944C74.5405 20.72 74.5485 20.464 74.5485 20.176V17.44C74.5485 17.312 74.5485 17.184 74.5485 17.056C74.5565 16.928 74.5725 16.796 74.5965 16.66C74.4525 16.668 74.3085 16.676 74.1645 16.684C74.0285 16.684 73.8885 16.688 73.7445 16.696V16.204H74.1165C74.4605 16.204 74.6965 16.172 74.8245 16.108C74.9605 16.036 75.0725 15.96 75.1605 15.88H75.5085C75.5245 16.008 75.5365 16.168 75.5445 16.36C75.5525 16.544 75.5605 16.78 75.5685 17.068C75.6885 16.868 75.8525 16.672 76.0605 16.48C76.2685 16.288 76.5005 16.128 76.7565 16C77.0205 15.872 77.2965 15.808 77.5845 15.808C77.8085 15.808 78.0045 15.868 78.1725 15.988C78.3405 16.108 78.4245 16.3 78.4245 16.564C78.4245 16.628 78.4045 16.708 78.3645 16.804C78.3245 16.892 78.2605 16.972 78.1725 17.044C78.0845 17.108 77.9685 17.14 77.8245 17.14C77.6485 17.132 77.5085 17.064 77.4045 16.936C77.3005 16.8 77.2605 16.644 77.2845 16.468C77.0845 16.46 76.8765 16.512 76.6605 16.624C76.4525 16.736 76.2565 16.892 76.0725 17.092C75.8885 17.284 75.7245 17.512 75.5805 17.776L75.5925 20.728C75.5925 20.888 75.5885 21.032 75.5805 21.16C75.5805 21.28 75.5685 21.408 75.5445 21.544C75.6725 21.536 75.7965 21.532 75.9165 21.532C76.0445 21.524 76.1725 21.516 76.3005 21.508V22H73.8405V21.64ZM81.5179 22.192C81.0299 22.192 80.5899 22.072 80.1979 21.832C79.8059 21.584 79.4939 21.232 79.2619 20.776C79.0379 20.32 78.9259 19.784 78.9259 19.168C78.9259 18.512 79.0579 17.932 79.3219 17.428C79.5859 16.924 79.9499 16.528 80.4139 16.24C80.8859 15.952 81.4179 15.808 82.0099 15.808C82.2739 15.808 82.5339 15.844 82.7899 15.916C83.0539 15.98 83.2619 16.056 83.4139 16.144V14.5C83.4139 14.372 83.4139 14.252 83.4139 14.14C83.4219 14.02 83.4339 13.88 83.4499 13.72C83.3059 13.728 83.1619 13.736 83.0179 13.744C82.8819 13.752 82.7419 13.76 82.5979 13.768V13.264C82.9499 13.264 83.2219 13.248 83.4139 13.216C83.6059 13.184 83.7499 13.144 83.8459 13.096C83.9499 13.048 84.0299 12.996 84.0859 12.94H84.4339V20.728C84.4339 20.856 84.4299 20.984 84.4219 21.112C84.4139 21.24 84.4019 21.384 84.3859 21.544C84.5299 21.536 84.6699 21.528 84.8059 21.52C84.9499 21.512 85.0939 21.504 85.2379 21.496V22H83.5219C83.4979 21.88 83.4779 21.772 83.4619 21.676C83.4539 21.572 83.4459 21.472 83.4379 21.376C83.2139 21.624 82.9379 21.824 82.6099 21.976C82.2819 22.12 81.9179 22.192 81.5179 22.192ZM81.9499 21.604C82.2139 21.604 82.4779 21.528 82.7419 21.376C83.0139 21.224 83.2379 21.036 83.4139 20.812C83.4059 20.716 83.4019 20.616 83.4019 20.512C83.4019 20.4 83.4019 20.28 83.4019 20.152L83.4139 16.696C83.2219 16.552 83.0099 16.448 82.7779 16.384C82.5539 16.312 82.3219 16.276 82.0819 16.276C81.6819 16.276 81.3339 16.392 81.0379 16.624C80.7419 16.856 80.5179 17.18 80.3659 17.596C80.2139 18.012 80.1459 18.5 80.1619 19.06C80.1779 19.548 80.2539 19.984 80.3899 20.368C80.5339 20.752 80.7339 21.056 80.9899 21.28C81.2539 21.496 81.5739 21.604 81.9499 21.604ZM89.0258 22.192C88.4738 22.192 87.9738 22.064 87.5258 21.808C87.0858 21.544 86.7378 21.176 86.4818 20.704C86.2258 20.224 86.0978 19.66 86.0978 19.012C86.0978 18.452 86.2218 17.928 86.4698 17.44C86.7258 16.952 87.0818 16.56 87.5378 16.264C87.9938 15.96 88.5218 15.808 89.1217 15.808C89.4578 15.808 89.7698 15.864 90.0578 15.976C90.3538 16.08 90.6138 16.244 90.8378 16.468C91.0618 16.684 91.2378 16.96 91.3658 17.296C91.4938 17.624 91.5578 18.012 91.5578 18.46L87.3338 18.532C87.3338 19.14 87.3978 19.676 87.5258 20.14C87.6618 20.596 87.8778 20.952 88.1738 21.208C88.4698 21.456 88.8498 21.58 89.3138 21.58C89.5618 21.58 89.8138 21.536 90.0698 21.448C90.3338 21.36 90.5778 21.24 90.8018 21.088C91.0258 20.936 91.2058 20.768 91.3418 20.584L91.6298 20.824C91.4138 21.16 91.1538 21.428 90.8498 21.628C90.5458 21.828 90.2338 21.972 89.9138 22.06C89.5938 22.148 89.2978 22.192 89.0258 22.192ZM87.3698 18.028H90.4298C90.4298 17.74 90.3858 17.464 90.2978 17.2C90.2178 16.928 90.0818 16.708 89.8898 16.54C89.6978 16.364 89.4458 16.276 89.1338 16.276C88.6698 16.276 88.2818 16.416 87.9698 16.696C87.6658 16.968 87.4658 17.412 87.3698 18.028ZM92.6257 21.64C92.8737 21.64 93.0457 21.58 93.1417 21.46C93.2377 21.332 93.2937 21.16 93.3097 20.944C93.3257 20.72 93.3337 20.464 93.3337 20.176V17.44C93.3337 17.312 93.3337 17.184 93.3337 17.056C93.3417 16.928 93.3577 16.796 93.3817 16.66C93.2377 16.668 93.0937 16.676 92.9497 16.684C92.8137 16.684 92.6737 16.688 92.5297 16.696V16.204H92.9017C93.2457 16.204 93.4817 16.172 93.6097 16.108C93.7457 16.036 93.8577 15.96 93.9457 15.88H94.2937C94.3097 16.008 94.3217 16.168 94.3297 16.36C94.3377 16.544 94.3457 16.78 94.3537 17.068C94.4737 16.868 94.6377 16.672 94.8457 16.48C95.0537 16.288 95.2857 16.128 95.5417 16C95.8057 15.872 96.0817 15.808 96.3697 15.808C96.5937 15.808 96.7897 15.868 96.9577 15.988C97.1257 16.108 97.2097 16.3 97.2097 16.564C97.2097 16.628 97.1897 16.708 97.1497 16.804C97.1097 16.892 97.0457 16.972 96.9577 17.044C96.8697 17.108 96.7537 17.14 96.6097 17.14C96.4337 17.132 96.2937 17.064 96.1897 16.936C96.0857 16.8 96.0457 16.644 96.0697 16.468C95.8697 16.46 95.6617 16.512 95.4457 16.624C95.2377 16.736 95.0417 16.892 94.8577 17.092C94.6737 17.284 94.5097 17.512 94.3657 17.776L94.3777 20.728C94.3777 20.888 94.3737 21.032 94.3657 21.16C94.3657 21.28 94.3537 21.408 94.3297 21.544C94.4577 21.536 94.5817 21.532 94.7017 21.532C94.8297 21.524 94.9577 21.516 95.0857 21.508V22H92.6257V21.64Z" fill="#777777"/>
<path d="M204.66 21.604C204.964 21.588 205.172 21.52 205.284 21.4C205.396 21.272 205.456 21.1 205.464 20.884C205.48 20.66 205.488 20.408 205.488 20.128V14.944C205.488 14.784 205.492 14.632 205.5 14.488C205.508 14.336 205.516 14.2 205.524 14.08C205.38 14.088 205.236 14.096 205.092 14.104C204.948 14.112 204.804 14.12 204.66 14.128V13.6L207.492 13.588C208.212 13.588 208.872 13.672 209.472 13.84C210.072 14.008 210.588 14.268 211.02 14.62C211.46 14.964 211.796 15.404 212.028 15.94C212.268 16.468 212.388 17.092 212.388 17.812C212.388 18.364 212.292 18.892 212.1 19.396C211.908 19.9 211.62 20.348 211.236 20.74C210.852 21.124 210.372 21.432 209.796 21.664C209.228 21.888 208.568 22 207.816 22H204.66V21.604ZM206.532 20.584C206.532 20.8 206.528 20.984 206.52 21.136C206.52 21.288 206.512 21.416 206.496 21.52C206.712 21.528 206.908 21.536 207.084 21.544C207.268 21.544 207.42 21.544 207.54 21.544C207.668 21.544 207.748 21.544 207.78 21.544C208.3 21.544 208.768 21.448 209.184 21.256C209.608 21.064 209.968 20.8 210.264 20.464C210.568 20.12 210.8 19.72 210.96 19.264C211.128 18.8 211.212 18.3 211.212 17.764C211.212 17.004 211.072 16.348 210.792 15.796C210.52 15.236 210.1 14.804 209.532 14.5C208.964 14.188 208.24 14.032 207.36 14.032C207.064 14.032 206.856 14.092 206.736 14.212C206.624 14.332 206.56 14.5 206.544 14.716C206.536 14.932 206.532 15.184 206.532 15.472V20.584ZM212.682 22V21.604C212.922 21.604 213.106 21.54 213.234 21.412C213.362 21.284 213.466 21.108 213.546 20.884C213.634 20.66 213.734 20.4 213.846 20.104L216.318 13.372H216.606L219.282 20.2C219.346 20.368 219.418 20.584 219.498 20.848C219.578 21.112 219.61 21.336 219.594 21.52C219.73 21.512 219.866 21.504 220.002 21.496C220.138 21.488 220.274 21.48 220.41 21.472V22H217.662V21.604C217.966 21.596 218.166 21.528 218.262 21.4C218.358 21.272 218.394 21.12 218.37 20.944C218.346 20.768 218.306 20.608 218.25 20.464L217.83 19.336L214.71 19.408L214.29 20.692C214.234 20.884 214.182 21.036 214.134 21.148C214.094 21.26 214.046 21.384 213.99 21.52C214.15 21.512 214.306 21.504 214.458 21.496C214.618 21.488 214.774 21.48 214.926 21.472V22H212.682ZM214.89 18.892H217.662L216.81 16.6C216.722 16.352 216.63 16.108 216.534 15.868C216.446 15.62 216.358 15.372 216.27 15.124H216.246C216.166 15.348 216.082 15.572 215.994 15.796C215.914 16.02 215.83 16.248 215.742 16.48L214.89 18.892ZM224.851 22.192C224.051 22.192 223.343 22.024 222.727 21.688C222.111 21.352 221.631 20.868 221.287 20.236C220.943 19.604 220.771 18.852 220.771 17.98C220.771 17.412 220.855 16.86 221.023 16.324C221.199 15.78 221.459 15.288 221.803 14.848C222.155 14.408 222.591 14.06 223.111 13.804C223.639 13.54 224.251 13.408 224.947 13.408C225.235 13.408 225.527 13.436 225.823 13.492C226.119 13.54 226.403 13.616 226.675 13.72C226.955 13.816 227.207 13.932 227.431 14.068L227.383 13.492H228.043V16.24H227.611C227.579 15.736 227.443 15.312 227.203 14.968C226.971 14.616 226.667 14.348 226.291 14.164C225.915 13.98 225.495 13.888 225.031 13.888C224.607 13.888 224.207 13.984 223.831 14.176C223.463 14.36 223.135 14.624 222.847 14.968C222.567 15.304 222.347 15.704 222.187 16.168C222.027 16.632 221.947 17.144 221.947 17.704C221.947 18.456 222.083 19.128 222.355 19.72C222.627 20.312 223.003 20.776 223.483 21.112C223.971 21.448 224.531 21.616 225.163 21.616C225.379 21.616 225.603 21.596 225.835 21.556C226.075 21.516 226.311 21.452 226.543 21.364C226.783 21.268 227.007 21.152 227.215 21.016V19.552C227.215 19.36 227.215 19.168 227.215 18.976C227.215 18.776 227.215 18.58 227.215 18.388C227.079 18.396 226.939 18.404 226.795 18.412C226.651 18.42 226.511 18.428 226.375 18.436V17.908H229.087V18.304C228.863 18.304 228.691 18.364 228.571 18.484C228.451 18.596 228.367 18.736 228.319 18.904C228.271 19.064 228.243 19.224 228.235 19.384C228.227 19.536 228.223 19.652 228.223 19.732V21.568H227.899C227.771 21.568 227.595 21.592 227.371 21.64C227.147 21.688 226.891 21.768 226.603 21.88C226.355 21.976 226.067 22.052 225.739 22.108C225.411 22.164 225.115 22.192 224.851 22.192Z" fill="#777777"/>
<path d="M274.864 22.12L272.14 15.736C271.964 15.328 271.84 15 271.768 14.752C271.696 14.496 271.648 14.28 271.624 14.104C271.512 14.112 271.4 14.116 271.288 14.116C271.176 14.116 271.064 14.12 270.952 14.128V13.6H273.736L273.724 14.008C273.324 14.032 273.084 14.156 273.004 14.38C272.924 14.596 272.964 14.904 273.124 15.304C273.316 15.776 273.5 16.232 273.676 16.672C273.852 17.112 274.048 17.588 274.264 18.1C274.456 18.548 274.64 18.98 274.816 19.396C275 19.804 275.14 20.144 275.236 20.416H275.26C275.348 20.136 275.436 19.868 275.524 19.612C275.62 19.356 275.732 19.052 275.86 18.7C276.1 18.028 276.3 17.46 276.46 16.996C276.628 16.532 276.772 16.136 276.892 15.808C277.012 15.48 277.112 15.2 277.192 14.968C277.264 14.76 277.328 14.584 277.384 14.44C277.44 14.296 277.492 14.176 277.54 14.08C277.388 14.088 277.236 14.096 277.084 14.104C276.932 14.112 276.776 14.12 276.616 14.128V13.6H279.052V13.996C278.7 14.012 278.428 14.104 278.236 14.272C278.052 14.44 277.884 14.74 277.732 15.172C277.716 15.212 277.696 15.268 277.672 15.34C277.648 15.404 277.608 15.512 277.552 15.664C277.496 15.816 277.416 16.04 277.312 16.336C277.208 16.624 277.064 17.016 276.88 17.512C276.704 18.008 276.476 18.632 276.196 19.384C275.924 20.136 275.592 21.048 275.2 22.12H274.864ZM282.723 22C282.699 21.864 282.683 21.744 282.675 21.64C282.667 21.536 282.655 21.428 282.639 21.316C282.367 21.588 282.071 21.804 281.751 21.964C281.439 22.116 281.107 22.192 280.755 22.192C280.147 22.192 279.695 22.056 279.399 21.784C279.103 21.504 278.955 21.164 278.955 20.764C278.955 20.396 279.067 20.08 279.291 19.816C279.523 19.544 279.819 19.324 280.179 19.156C280.547 18.98 280.943 18.852 281.367 18.772C281.799 18.684 282.215 18.644 282.615 18.652V17.908C282.615 17.628 282.591 17.364 282.543 17.116C282.495 16.868 282.391 16.664 282.231 16.504C282.071 16.344 281.815 16.26 281.463 16.252C281.231 16.244 280.991 16.288 280.743 16.384C280.503 16.48 280.327 16.644 280.215 16.876C280.279 16.94 280.319 17.016 280.335 17.104C280.359 17.184 280.371 17.26 280.371 17.332C280.371 17.428 280.331 17.54 280.251 17.668C280.171 17.788 280.031 17.844 279.831 17.836C279.663 17.836 279.535 17.78 279.447 17.668C279.359 17.548 279.315 17.408 279.315 17.248C279.315 16.976 279.415 16.732 279.615 16.516C279.823 16.3 280.107 16.128 280.467 16C280.827 15.872 281.235 15.808 281.691 15.808C282.363 15.808 282.859 15.988 283.179 16.348C283.499 16.7 283.655 17.26 283.647 18.028C283.647 18.324 283.647 18.624 283.647 18.928C283.647 19.224 283.643 19.524 283.635 19.828C283.635 20.124 283.635 20.424 283.635 20.728C283.635 20.856 283.631 20.984 283.623 21.112C283.615 21.24 283.603 21.384 283.587 21.544C283.731 21.536 283.871 21.528 284.007 21.52C284.151 21.512 284.295 21.504 284.439 21.496V22H282.723ZM282.615 19.06C282.343 19.068 282.055 19.104 281.751 19.168C281.455 19.224 281.179 19.312 280.923 19.432C280.675 19.552 280.471 19.712 280.311 19.912C280.159 20.104 280.087 20.34 280.095 20.62C280.111 20.916 280.207 21.14 280.383 21.292C280.567 21.436 280.783 21.508 281.031 21.508C281.359 21.508 281.643 21.448 281.883 21.328C282.131 21.2 282.375 21.024 282.615 20.8C282.607 20.712 282.603 20.616 282.603 20.512C282.603 20.408 282.603 20.3 282.603 20.188C282.603 20.148 282.603 20.02 282.603 19.804C282.611 19.588 282.615 19.34 282.615 19.06ZM285.262 21.64C285.51 21.64 285.682 21.58 285.778 21.46C285.874 21.332 285.93 21.16 285.946 20.944C285.962 20.72 285.97 20.464 285.97 20.176V17.44C285.97 17.312 285.97 17.184 285.97 17.056C285.978 16.928 285.994 16.796 286.018 16.66C285.874 16.668 285.73 16.676 285.586 16.684C285.45 16.684 285.31 16.688 285.166 16.696V16.204H285.538C285.882 16.204 286.118 16.172 286.246 16.108C286.382 16.036 286.494 15.96 286.582 15.88H286.93C286.946 16.008 286.958 16.168 286.966 16.36C286.974 16.544 286.982 16.78 286.99 17.068C287.11 16.868 287.274 16.672 287.482 16.48C287.69 16.288 287.922 16.128 288.178 16C288.442 15.872 288.718 15.808 289.006 15.808C289.23 15.808 289.426 15.868 289.594 15.988C289.762 16.108 289.846 16.3 289.846 16.564C289.846 16.628 289.826 16.708 289.786 16.804C289.746 16.892 289.682 16.972 289.594 17.044C289.506 17.108 289.39 17.14 289.246 17.14C289.07 17.132 288.93 17.064 288.826 16.936C288.722 16.8 288.682 16.644 288.706 16.468C288.506 16.46 288.298 16.512 288.082 16.624C287.874 16.736 287.678 16.892 287.494 17.092C287.31 17.284 287.146 17.512 287.002 17.776L287.014 20.728C287.014 20.888 287.01 21.032 287.002 21.16C287.002 21.28 286.99 21.408 286.966 21.544C287.094 21.536 287.218 21.532 287.338 21.532C287.466 21.524 287.594 21.516 287.722 21.508V22H285.262V21.64ZM290.454 21.64C290.702 21.64 290.874 21.58 290.97 21.46C291.066 21.332 291.122 21.16 291.138 20.944C291.154 20.72 291.162 20.464 291.162 20.176V17.44C291.162 17.312 291.166 17.192 291.174 17.08C291.182 16.96 291.194 16.82 291.21 16.66C291.066 16.668 290.922 16.676 290.778 16.684C290.642 16.692 290.502 16.7 290.358 16.708V16.204C290.71 16.204 290.982 16.188 291.174 16.156C291.366 16.124 291.51 16.084 291.606 16.036C291.71 15.988 291.79 15.936 291.846 15.88H292.194V20.728C292.194 20.888 292.19 21.032 292.182 21.16C292.182 21.28 292.17 21.408 292.146 21.544C292.274 21.536 292.398 21.532 292.518 21.532C292.646 21.524 292.774 21.516 292.902 21.508V22H290.454V21.64ZM291.618 14.692C291.45 14.692 291.302 14.624 291.174 14.488C291.046 14.352 290.982 14.184 290.982 13.984C290.982 13.784 291.046 13.616 291.174 13.48C291.31 13.336 291.462 13.264 291.63 13.264C291.814 13.264 291.966 13.336 292.086 13.48C292.214 13.616 292.278 13.784 292.278 13.984C292.278 14.184 292.21 14.352 292.074 14.488C291.946 14.624 291.794 14.692 291.618 14.692ZM297.477 22C297.453 21.864 297.437 21.744 297.429 21.64C297.421 21.536 297.409 21.428 297.393 21.316C297.121 21.588 296.825 21.804 296.505 21.964C296.193 22.116 295.861 22.192 295.509 22.192C294.901 22.192 294.449 22.056 294.153 21.784C293.857 21.504 293.709 21.164 293.709 20.764C293.709 20.396 293.821 20.08 294.045 19.816C294.277 19.544 294.573 19.324 294.933 19.156C295.301 18.98 295.697 18.852 296.121 18.772C296.553 18.684 296.969 18.644 297.369 18.652V17.908C297.369 17.628 297.345 17.364 297.297 17.116C297.249 16.868 297.145 16.664 296.985 16.504C296.825 16.344 296.569 16.26 296.217 16.252C295.985 16.244 295.745 16.288 295.497 16.384C295.257 16.48 295.081 16.644 294.969 16.876C295.033 16.94 295.073 17.016 295.089 17.104C295.113 17.184 295.125 17.26 295.125 17.332C295.125 17.428 295.085 17.54 295.005 17.668C294.925 17.788 294.785 17.844 294.585 17.836C294.417 17.836 294.289 17.78 294.201 17.668C294.113 17.548 294.069 17.408 294.069 17.248C294.069 16.976 294.169 16.732 294.369 16.516C294.577 16.3 294.861 16.128 295.221 16C295.581 15.872 295.989 15.808 296.445 15.808C297.117 15.808 297.613 15.988 297.933 16.348C298.253 16.7 298.409 17.26 298.401 18.028C298.401 18.324 298.401 18.624 298.401 18.928C298.401 19.224 298.397 19.524 298.389 19.828C298.389 20.124 298.389 20.424 298.389 20.728C298.389 20.856 298.385 20.984 298.377 21.112C298.369 21.24 298.357 21.384 298.341 21.544C298.485 21.536 298.625 21.528 298.761 21.52C298.905 21.512 299.049 21.504 299.193 21.496V22H297.477ZM297.369 19.06C297.097 19.068 296.809 19.104 296.505 19.168C296.209 19.224 295.933 19.312 295.677 19.432C295.429 19.552 295.225 19.712 295.065 19.912C294.913 20.104 294.841 20.34 294.849 20.62C294.865 20.916 294.961 21.14 295.137 21.292C295.321 21.436 295.537 21.508 295.785 21.508C296.113 21.508 296.397 21.448 296.637 21.328C296.885 21.2 297.129 21.024 297.369 20.8C297.361 20.712 297.357 20.616 297.357 20.512C297.357 20.408 297.357 20.3 297.357 20.188C297.357 20.148 297.357 20.02 297.357 19.804C297.365 19.588 297.369 19.34 297.369 19.06ZM300.4 14.5C300.4 14.372 300.4 14.252 300.4 14.14C300.408 14.02 300.42 13.88 300.436 13.72C300.292 13.728 300.148 13.736 300.004 13.744C299.868 13.752 299.728 13.76 299.584 13.768V13.264C299.936 13.264 300.208 13.248 300.4 13.216C300.6 13.184 300.748 13.144 300.844 13.096C300.948 13.048 301.028 12.996 301.084 12.94H301.432V16.516C301.656 16.292 301.92 16.12 302.224 16C302.536 15.872 302.876 15.808 303.244 15.808C303.756 15.808 304.216 15.932 304.624 16.18C305.04 16.428 305.368 16.78 305.608 17.236C305.848 17.692 305.968 18.232 305.968 18.856C305.968 19.536 305.82 20.128 305.524 20.632C305.228 21.128 304.844 21.512 304.372 21.784C303.9 22.056 303.392 22.192 302.848 22.192C302.576 22.192 302.276 22.14 301.948 22.036C301.628 21.94 301.34 21.748 301.084 21.46L300.796 22H300.376L300.4 14.5ZM301.432 20.116C301.432 20.54 301.5 20.868 301.636 21.1C301.772 21.324 301.948 21.48 302.164 21.568C302.38 21.656 302.608 21.7 302.848 21.7C303.232 21.7 303.564 21.592 303.844 21.376C304.124 21.16 304.34 20.864 304.492 20.488C304.652 20.104 304.732 19.66 304.732 19.156C304.732 18.612 304.664 18.136 304.528 17.728C304.392 17.312 304.188 16.988 303.916 16.756C303.644 16.516 303.3 16.396 302.884 16.396C302.62 16.396 302.356 16.46 302.092 16.588C301.836 16.708 301.616 16.872 301.432 17.08V20.116ZM306.881 21.64C307.129 21.64 307.301 21.58 307.397 21.46C307.493 21.332 307.549 21.16 307.565 20.944C307.581 20.72 307.589 20.464 307.589 20.176V14.5C307.589 14.372 307.589 14.252 307.589 14.14C307.597 14.02 307.609 13.88 307.625 13.72C307.481 13.728 307.337 13.736 307.193 13.744C307.057 13.752 306.917 13.76 306.773 13.768V13.264C307.125 13.264 307.397 13.248 307.589 13.216C307.789 13.184 307.937 13.144 308.033 13.096C308.137 13.048 308.217 12.996 308.273 12.94H308.621L308.633 20.728C308.633 20.888 308.629 21.032 308.621 21.16C308.613 21.28 308.597 21.408 308.573 21.544C308.701 21.536 308.825 21.532 308.945 21.532C309.073 21.524 309.201 21.516 309.329 21.508V22H306.881V21.64ZM313.174 22.192C312.622 22.192 312.122 22.064 311.674 21.808C311.234 21.544 310.886 21.176 310.63 20.704C310.374 20.224 310.246 19.66 310.246 19.012C310.246 18.452 310.37 17.928 310.618 17.44C310.874 16.952 311.23 16.56 311.686 16.264C312.142 15.96 312.67 15.808 313.27 15.808C313.606 15.808 313.918 15.864 314.206 15.976C314.502 16.08 314.762 16.244 314.986 16.468C315.21 16.684 315.386 16.96 315.514 17.296C315.642 17.624 315.706 18.012 315.706 18.46L311.482 18.532C311.482 19.14 311.546 19.676 311.674 20.14C311.81 20.596 312.026 20.952 312.322 21.208C312.618 21.456 312.998 21.58 313.462 21.58C313.71 21.58 313.962 21.536 314.218 21.448C314.482 21.36 314.726 21.24 314.95 21.088C315.174 20.936 315.354 20.768 315.49 20.584L315.778 20.824C315.562 21.16 315.302 21.428 314.998 21.628C314.694 21.828 314.382 21.972 314.062 22.06C313.742 22.148 313.446 22.192 313.174 22.192ZM311.518 18.028H314.578C314.578 17.74 314.534 17.464 314.446 17.2C314.366 16.928 314.23 16.708 314.038 16.54C313.846 16.364 313.594 16.276 313.282 16.276C312.818 16.276 312.43 16.416 312.118 16.696C311.814 16.968 311.614 17.412 311.518 18.028ZM323.574 22C323.55 21.864 323.534 21.744 323.526 21.64C323.518 21.536 323.506 21.428 323.49 21.316C323.218 21.588 322.922 21.804 322.602 21.964C322.29 22.116 321.958 22.192 321.606 22.192C320.998 22.192 320.546 22.056 320.25 21.784C319.954 21.504 319.806 21.164 319.806 20.764C319.806 20.396 319.918 20.08 320.142 19.816C320.374 19.544 320.67 19.324 321.03 19.156C321.398 18.98 321.794 18.852 322.218 18.772C322.65 18.684 323.066 18.644 323.466 18.652V17.908C323.466 17.628 323.442 17.364 323.394 17.116C323.346 16.868 323.242 16.664 323.082 16.504C322.922 16.344 322.666 16.26 322.314 16.252C322.082 16.244 321.842 16.288 321.594 16.384C321.354 16.48 321.178 16.644 321.066 16.876C321.13 16.94 321.17 17.016 321.186 17.104C321.21 17.184 321.222 17.26 321.222 17.332C321.222 17.428 321.182 17.54 321.102 17.668C321.022 17.788 320.882 17.844 320.682 17.836C320.514 17.836 320.386 17.78 320.298 17.668C320.21 17.548 320.166 17.408 320.166 17.248C320.166 16.976 320.266 16.732 320.466 16.516C320.674 16.3 320.958 16.128 321.318 16C321.678 15.872 322.086 15.808 322.542 15.808C323.214 15.808 323.71 15.988 324.03 16.348C324.35 16.7 324.506 17.26 324.498 18.028C324.498 18.324 324.498 18.624 324.498 18.928C324.498 19.224 324.494 19.524 324.486 19.828C324.486 20.124 324.486 20.424 324.486 20.728C324.486 20.856 324.482 20.984 324.474 21.112C324.466 21.24 324.454 21.384 324.438 21.544C324.582 21.536 324.722 21.528 324.858 21.52C325.002 21.512 325.146 21.504 325.29 21.496V22H323.574ZM323.466 19.06C323.194 19.068 322.906 19.104 322.602 19.168C322.306 19.224 322.03 19.312 321.774 19.432C321.526 19.552 321.322 19.712 321.162 19.912C321.01 20.104 320.938 20.34 320.946 20.62C320.962 20.916 321.058 21.14 321.234 21.292C321.418 21.436 321.634 21.508 321.882 21.508C322.21 21.508 322.494 21.448 322.734 21.328C322.982 21.2 323.226 21.024 323.466 20.8C323.458 20.712 323.454 20.616 323.454 20.512C323.454 20.408 323.454 20.3 323.454 20.188C323.454 20.148 323.454 20.02 323.454 19.804C323.462 19.588 323.466 19.34 323.466 19.06ZM329.042 22.192C328.506 22.192 328.01 22.072 327.554 21.832C327.106 21.584 326.746 21.232 326.474 20.776C326.21 20.312 326.078 19.756 326.078 19.108C326.078 18.692 326.154 18.288 326.306 17.896C326.458 17.504 326.67 17.152 326.942 16.84C327.222 16.52 327.554 16.268 327.938 16.084C328.322 15.9 328.746 15.808 329.21 15.808C329.658 15.808 330.046 15.876 330.374 16.012C330.71 16.148 330.97 16.328 331.154 16.552C331.338 16.776 331.43 17.02 331.43 17.284C331.43 17.46 331.382 17.612 331.286 17.74C331.19 17.86 331.05 17.92 330.866 17.92C330.666 17.928 330.522 17.868 330.434 17.74C330.354 17.604 330.314 17.484 330.314 17.38C330.314 17.3 330.326 17.22 330.35 17.14C330.374 17.052 330.422 16.972 330.494 16.9C330.43 16.708 330.318 16.568 330.158 16.48C329.998 16.384 329.83 16.324 329.654 16.3C329.486 16.268 329.346 16.252 329.234 16.252C328.69 16.252 328.23 16.472 327.854 16.912C327.486 17.344 327.302 17.976 327.302 18.808C327.302 19.344 327.386 19.82 327.554 20.236C327.73 20.652 327.974 20.98 328.286 21.22C328.598 21.452 328.958 21.568 329.366 21.568C329.742 21.568 330.102 21.468 330.446 21.268C330.79 21.068 331.058 20.824 331.25 20.536L331.562 20.776C331.354 21.112 331.102 21.384 330.806 21.592C330.518 21.8 330.218 21.952 329.906 22.048C329.602 22.144 329.314 22.192 329.042 22.192ZM335.37 22.192C334.834 22.192 334.338 22.072 333.882 21.832C333.434 21.584 333.074 21.232 332.802 20.776C332.538 20.312 332.406 19.756 332.406 19.108C332.406 18.692 332.482 18.288 332.634 17.896C332.786 17.504 332.998 17.152 333.27 16.84C333.55 16.52 333.882 16.268 334.266 16.084C334.65 15.9 335.074 15.808 335.538 15.808C335.986 15.808 336.374 15.876 336.702 16.012C337.038 16.148 337.298 16.328 337.482 16.552C337.666 16.776 337.758 17.02 337.758 17.284C337.758 17.46 337.71 17.612 337.614 17.74C337.518 17.86 337.378 17.92 337.194 17.92C336.994 17.928 336.85 17.868 336.762 17.74C336.682 17.604 336.642 17.484 336.642 17.38C336.642 17.3 336.654 17.22 336.678 17.14C336.702 17.052 336.75 16.972 336.822 16.9C336.758 16.708 336.646 16.568 336.486 16.48C336.326 16.384 336.158 16.324 335.982 16.3C335.814 16.268 335.674 16.252 335.562 16.252C335.018 16.252 334.558 16.472 334.182 16.912C333.814 17.344 333.63 17.976 333.63 18.808C333.63 19.344 333.714 19.82 333.882 20.236C334.058 20.652 334.302 20.98 334.614 21.22C334.926 21.452 335.286 21.568 335.694 21.568C336.07 21.568 336.43 21.468 336.774 21.268C337.118 21.068 337.386 20.824 337.578 20.536L337.89 20.776C337.682 21.112 337.43 21.384 337.134 21.592C336.846 21.8 336.546 21.952 336.234 22.048C335.93 22.144 335.642 22.192 335.37 22.192ZM341.674 22.192C341.122 22.192 340.622 22.064 340.174 21.808C339.734 21.544 339.386 21.176 339.13 20.704C338.874 20.224 338.746 19.66 338.746 19.012C338.746 18.452 338.87 17.928 339.118 17.44C339.374 16.952 339.73 16.56 340.186 16.264C340.642 15.96 341.17 15.808 341.77 15.808C342.106 15.808 342.418 15.864 342.706 15.976C343.002 16.08 343.262 16.244 343.486 16.468C343.71 16.684 343.886 16.96 344.014 17.296C344.142 17.624 344.206 18.012 344.206 18.46L339.982 18.532C339.982 19.14 340.046 19.676 340.174 20.14C340.31 20.596 340.526 20.952 340.822 21.208C341.118 21.456 341.498 21.58 341.962 21.58C342.21 21.58 342.462 21.536 342.718 21.448C342.982 21.36 343.226 21.24 343.45 21.088C343.674 20.936 343.854 20.768 343.99 20.584L344.278 20.824C344.062 21.16 343.802 21.428 343.498 21.628C343.194 21.828 342.882 21.972 342.562 22.06C342.242 22.148 341.946 22.192 341.674 22.192ZM340.018 18.028H343.078C343.078 17.74 343.034 17.464 342.946 17.2C342.866 16.928 342.73 16.708 342.538 16.54C342.346 16.364 342.094 16.276 341.782 16.276C341.318 16.276 340.93 16.416 340.618 16.696C340.314 16.968 340.114 17.412 340.018 18.028ZM347.734 22.192C347.334 22.192 346.978 22.136 346.666 22.024C346.354 21.92 346.098 21.8 345.898 21.664L345.946 22.084H345.442L345.37 20.02H345.742C345.758 20.348 345.85 20.644 346.018 20.908C346.186 21.164 346.402 21.364 346.666 21.508C346.93 21.652 347.214 21.724 347.518 21.724C347.726 21.724 347.93 21.692 348.13 21.628C348.33 21.556 348.498 21.452 348.634 21.316C348.77 21.172 348.838 20.992 348.838 20.776C348.838 20.552 348.77 20.368 348.634 20.224C348.506 20.072 348.334 19.94 348.118 19.828C347.902 19.716 347.67 19.612 347.422 19.516C347.182 19.42 346.942 19.32 346.702 19.216C346.462 19.112 346.238 18.988 346.03 18.844C345.83 18.7 345.67 18.524 345.55 18.316C345.43 18.108 345.37 17.852 345.37 17.548C345.37 17.38 345.402 17.196 345.466 16.996C345.53 16.796 345.638 16.608 345.79 16.432C345.942 16.248 346.15 16.1 346.414 15.988C346.678 15.868 347.014 15.808 347.422 15.808C347.638 15.808 347.878 15.844 348.142 15.916C348.406 15.988 348.662 16.124 348.91 16.324L348.886 15.868H349.39V17.968H349.006C348.99 17.688 348.926 17.42 348.814 17.164C348.702 16.9 348.538 16.684 348.322 16.516C348.106 16.34 347.826 16.252 347.482 16.252C347.114 16.252 346.826 16.344 346.618 16.528C346.41 16.712 346.306 16.924 346.306 17.164C346.306 17.412 346.382 17.62 346.534 17.788C346.694 17.948 346.898 18.088 347.146 18.208C347.394 18.328 347.658 18.444 347.938 18.556C348.242 18.684 348.538 18.824 348.826 18.976C349.114 19.128 349.35 19.32 349.534 19.552C349.718 19.776 349.81 20.068 349.81 20.428C349.81 20.828 349.706 21.16 349.498 21.424C349.298 21.688 349.038 21.88 348.718 22C348.406 22.128 348.078 22.192 347.734 22.192ZM353.289 22.192C352.889 22.192 352.533 22.136 352.221 22.024C351.909 21.92 351.653 21.8 351.453 21.664L351.501 22.084H350.997L350.925 20.02H351.297C351.313 20.348 351.405 20.644 351.573 20.908C351.741 21.164 351.957 21.364 352.221 21.508C352.485 21.652 352.769 21.724 353.073 21.724C353.281 21.724 353.485 21.692 353.685 21.628C353.885 21.556 354.053 21.452 354.189 21.316C354.325 21.172 354.393 20.992 354.393 20.776C354.393 20.552 354.325 20.368 354.189 20.224C354.061 20.072 353.889 19.94 353.673 19.828C353.457 19.716 353.225 19.612 352.977 19.516C352.737 19.42 352.497 19.32 352.257 19.216C352.017 19.112 351.793 18.988 351.585 18.844C351.385 18.7 351.225 18.524 351.105 18.316C350.985 18.108 350.925 17.852 350.925 17.548C350.925 17.38 350.957 17.196 351.021 16.996C351.085 16.796 351.193 16.608 351.345 16.432C351.497 16.248 351.705 16.1 351.969 15.988C352.233 15.868 352.569 15.808 352.977 15.808C353.193 15.808 353.433 15.844 353.697 15.916C353.961 15.988 354.217 16.124 354.465 16.324L354.441 15.868H354.945V17.968H354.561C354.545 17.688 354.481 17.42 354.369 17.164C354.257 16.9 354.093 16.684 353.877 16.516C353.661 16.34 353.381 16.252 353.037 16.252C352.669 16.252 352.381 16.344 352.173 16.528C351.965 16.712 351.861 16.924 351.861 17.164C351.861 17.412 351.937 17.62 352.089 17.788C352.249 17.948 352.453 18.088 352.701 18.208C352.949 18.328 353.213 18.444 353.493 18.556C353.797 18.684 354.093 18.824 354.381 18.976C354.669 19.128 354.905 19.32 355.089 19.552C355.273 19.776 355.365 20.068 355.365 20.428C355.365 20.828 355.261 21.16 355.053 21.424C354.853 21.688 354.593 21.88 354.273 22C353.961 22.128 353.633 22.192 353.289 22.192Z" fill="#777777"/>
<path d="M275.125 46C274.773 46 274.465 45.9303 274.201 45.791C273.937 45.6517 273.732 45.4537 273.585 45.197C273.438 44.9403 273.365 44.6397 273.365 44.295V38.872H271.33V37.97H274.355V44.295C274.355 44.5443 274.425 44.7423 274.564 44.889C274.703 45.0283 274.89 45.098 275.125 45.098H277.05V46H275.125ZM278.531 46V45.098H280.676V40.852H278.806V39.95H281.666V45.098H283.701V46H278.531ZM281.061 38.861C280.819 38.861 280.628 38.7987 280.489 38.674C280.349 38.5493 280.28 38.3807 280.28 38.168C280.28 37.948 280.349 37.7757 280.489 37.651C280.628 37.519 280.819 37.453 281.061 37.453C281.303 37.453 281.493 37.519 281.633 37.651C281.772 37.7757 281.842 37.948 281.842 38.168C281.842 38.3807 281.772 38.5493 281.633 38.674C281.493 38.7987 281.303 38.861 281.061 38.861ZM287.304 46.088C286.894 46.088 286.534 46.0257 286.226 45.901C285.926 45.769 285.684 45.5857 285.5 45.351C285.324 45.1163 285.218 44.8377 285.181 44.515H286.171C286.215 44.7277 286.333 44.8963 286.523 45.021C286.721 45.1457 286.982 45.208 287.304 45.208H287.766C288.155 45.208 288.445 45.131 288.635 44.977C288.826 44.8157 288.921 44.603 288.921 44.339C288.921 44.0823 288.833 43.8807 288.657 43.734C288.489 43.58 288.236 43.4773 287.898 43.426L287.084 43.294C286.49 43.1913 286.047 43.008 285.753 42.744C285.467 42.4727 285.324 42.0803 285.324 41.567C285.324 41.0243 285.497 40.6063 285.841 40.313C286.186 40.0123 286.703 39.862 287.392 39.862H287.81C288.39 39.862 288.855 39.9977 289.207 40.269C289.559 40.5403 289.772 40.907 289.845 41.369H288.855C288.811 41.1783 288.701 41.028 288.525 40.918C288.349 40.8007 288.111 40.742 287.81 40.742H287.392C287.018 40.742 286.743 40.8117 286.567 40.951C286.399 41.0903 286.314 41.2993 286.314 41.578C286.314 41.8273 286.388 42.0107 286.534 42.128C286.681 42.2453 286.912 42.3297 287.227 42.381L288.041 42.513C288.694 42.6157 289.167 42.8063 289.46 43.085C289.761 43.3637 289.911 43.767 289.911 44.295C289.911 44.8523 289.732 45.2923 289.372 45.615C289.02 45.9303 288.485 46.088 287.766 46.088H287.304ZM294.747 46C294.226 46 293.819 45.8607 293.526 45.582C293.24 45.3033 293.097 44.911 293.097 44.405V40.852H291.392V39.95H293.097V38.245H294.087V39.95H296.507V40.852H294.087V44.405C294.087 44.867 294.307 45.098 294.747 45.098H296.397V46H294.747ZM298.923 42.81V41.93H302.443V42.81H298.923ZM304.991 47.98V39.95H305.981V41.105H306.179L305.981 41.336C305.981 40.874 306.131 40.511 306.432 40.247C306.74 39.9757 307.143 39.84 307.642 39.84C308.25 39.84 308.734 40.0417 309.094 40.445C309.46 40.841 309.644 41.3873 309.644 42.084V43.855C309.644 44.317 309.559 44.7167 309.391 45.054C309.229 45.3913 308.998 45.6517 308.698 45.835C308.404 46.0183 308.052 46.11 307.642 46.11C307.15 46.11 306.751 45.9743 306.443 45.703C306.135 45.4317 305.981 45.0687 305.981 44.614L306.179 44.845H305.959L305.981 46.22V47.98H304.991ZM307.312 45.252C307.73 45.252 308.056 45.1273 308.291 44.878C308.533 44.6287 308.654 44.2693 308.654 43.8V42.15C308.654 41.6807 308.533 41.3213 308.291 41.072C308.056 40.8227 307.73 40.698 307.312 40.698C306.908 40.698 306.586 40.8263 306.344 41.083C306.102 41.3397 305.981 41.6953 305.981 42.15V43.8C305.981 44.2547 306.102 44.6103 306.344 44.867C306.586 45.1237 306.908 45.252 307.312 45.252ZM313.863 46.11C313.167 46.11 312.609 45.9047 312.191 45.494C311.773 45.076 311.564 44.5113 311.564 43.8V39.95H312.554V43.8C312.554 44.2547 312.672 44.6103 312.906 44.867C313.141 45.1163 313.46 45.241 313.863 45.241C314.274 45.241 314.597 45.1163 314.831 44.867C315.073 44.6103 315.194 44.2547 315.194 43.8V39.95H316.184V43.8C316.184 44.5113 315.972 45.076 315.546 45.494C315.121 45.9047 314.56 46.11 313.863 46.11ZM320.283 46.088C319.872 46.088 319.513 46.0257 319.205 45.901C318.904 45.769 318.662 45.5857 318.479 45.351C318.303 45.1163 318.197 44.8377 318.16 44.515H319.15C319.194 44.7277 319.311 44.8963 319.502 45.021C319.7 45.1457 319.96 45.208 320.283 45.208H320.745C321.134 45.208 321.423 45.131 321.614 44.977C321.805 44.8157 321.9 44.603 321.9 44.339C321.9 44.0823 321.812 43.8807 321.636 43.734C321.467 43.58 321.214 43.4773 320.877 43.426L320.063 43.294C319.469 43.1913 319.025 43.008 318.732 42.744C318.446 42.4727 318.303 42.0803 318.303 41.567C318.303 41.0243 318.475 40.6063 318.82 40.313C319.165 40.0123 319.682 39.862 320.371 39.862H320.789C321.368 39.862 321.834 39.9977 322.186 40.269C322.538 40.5403 322.751 40.907 322.824 41.369H321.834C321.79 41.1783 321.68 41.028 321.504 40.918C321.328 40.8007 321.09 40.742 320.789 40.742H320.371C319.997 40.742 319.722 40.8117 319.546 40.951C319.377 41.0903 319.293 41.2993 319.293 41.578C319.293 41.8273 319.366 42.0107 319.513 42.128C319.66 42.2453 319.891 42.3297 320.206 42.381L321.02 42.513C321.673 42.6157 322.146 42.8063 322.439 43.085C322.74 43.3637 322.89 43.767 322.89 44.295C322.89 44.8523 322.71 45.2923 322.351 45.615C321.999 45.9303 321.464 46.088 320.745 46.088H320.283ZM324.778 46V37.97H325.768V39.95V41.105H325.977L325.768 41.336C325.768 40.8593 325.911 40.4927 326.197 40.236C326.483 39.972 326.879 39.84 327.385 39.84C327.993 39.84 328.477 40.027 328.837 40.401C329.196 40.775 329.376 41.2847 329.376 41.93V46H328.386V42.04C328.386 41.6073 328.268 41.2737 328.034 41.039C327.806 40.797 327.495 40.676 327.099 40.676C326.688 40.676 326.362 40.8043 326.12 41.061C325.885 41.3177 325.768 41.6807 325.768 42.15V46H324.778Z" fill="black"/>
<path d="M275.125 72C274.773 72 274.465 71.9303 274.201 71.791C273.937 71.6517 273.732 71.4537 273.585 71.197C273.438 70.9403 273.365 70.6397 273.365 70.295V64.872H271.33V63.97H274.355V70.295C274.355 70.5443 274.425 70.7423 274.564 70.889C274.703 71.0283 274.89 71.098 275.125 71.098H277.05V72H275.125ZM278.531 72V71.098H280.676V66.852H278.806V65.95H281.666V71.098H283.701V72H278.531ZM281.061 64.861C280.819 64.861 280.628 64.7987 280.489 64.674C280.349 64.5493 280.28 64.3807 280.28 64.168C280.28 63.948 280.349 63.7757 280.489 63.651C280.628 63.519 280.819 63.453 281.061 63.453C281.303 63.453 281.493 63.519 281.633 63.651C281.772 63.7757 281.842 63.948 281.842 64.168C281.842 64.3807 281.772 64.5493 281.633 64.674C281.493 64.7987 281.303 64.861 281.061 64.861ZM287.304 72.088C286.894 72.088 286.534 72.0257 286.226 71.901C285.926 71.769 285.684 71.5857 285.5 71.351C285.324 71.1163 285.218 70.8377 285.181 70.515H286.171C286.215 70.7277 286.333 70.8963 286.523 71.021C286.721 71.1457 286.982 71.208 287.304 71.208H287.766C288.155 71.208 288.445 71.131 288.635 70.977C288.826 70.8157 288.921 70.603 288.921 70.339C288.921 70.0823 288.833 69.8807 288.657 69.734C288.489 69.58 288.236 69.4773 287.898 69.426L287.084 69.294C286.49 69.1913 286.047 69.008 285.753 68.744C285.467 68.4727 285.324 68.0803 285.324 67.567C285.324 67.0243 285.497 66.6063 285.841 66.313C286.186 66.0123 286.703 65.862 287.392 65.862H287.81C288.39 65.862 288.855 65.9977 289.207 66.269C289.559 66.5403 289.772 66.907 289.845 67.369H288.855C288.811 67.1783 288.701 67.028 288.525 66.918C288.349 66.8007 288.111 66.742 287.81 66.742H287.392C287.018 66.742 286.743 66.8117 286.567 66.951C286.399 67.0903 286.314 67.2993 286.314 67.578C286.314 67.8273 286.388 68.0107 286.534 68.128C286.681 68.2453 286.912 68.3297 287.227 68.381L288.041 68.513C288.694 68.6157 289.167 68.8063 289.46 69.085C289.761 69.3637 289.911 69.767 289.911 70.295C289.911 70.8523 289.732 71.2923 289.372 71.615C289.02 71.9303 288.485 72.088 287.766 72.088H287.304ZM294.747 72C294.226 72 293.819 71.8607 293.526 71.582C293.24 71.3033 293.097 70.911 293.097 70.405V66.852H291.392V65.95H293.097V64.245H294.087V65.95H296.507V66.852H294.087V70.405C294.087 70.867 294.307 71.098 294.747 71.098H296.397V72H294.747ZM298.923 68.81V67.93H302.443V68.81H298.923ZM304.991 73.98V65.95H305.981V67.105H306.179L305.981 67.336C305.981 66.874 306.131 66.511 306.432 66.247C306.74 65.9757 307.143 65.84 307.642 65.84C308.25 65.84 308.734 66.0417 309.094 66.445C309.46 66.841 309.644 67.3873 309.644 68.084V69.855C309.644 70.317 309.559 70.7167 309.391 71.054C309.229 71.3913 308.998 71.6517 308.698 71.835C308.404 72.0183 308.052 72.11 307.642 72.11C307.15 72.11 306.751 71.9743 306.443 71.703C306.135 71.4317 305.981 71.0687 305.981 70.614L306.179 70.845H305.959L305.981 72.22V73.98H304.991ZM307.312 71.252C307.73 71.252 308.056 71.1273 308.291 70.878C308.533 70.6287 308.654 70.2693 308.654 69.8V68.15C308.654 67.6807 308.533 67.3213 308.291 67.072C308.056 66.8227 307.73 66.698 307.312 66.698C306.908 66.698 306.586 66.8263 306.344 67.083C306.102 67.3397 305.981 67.6953 305.981 68.15V69.8C305.981 70.2547 306.102 70.6103 306.344 70.867C306.586 71.1237 306.908 71.252 307.312 71.252ZM313.863 72.11C313.167 72.11 312.609 71.9047 312.191 71.494C311.773 71.076 311.564 70.5113 311.564 69.8V65.95H312.554V69.8C312.554 70.2547 312.672 70.6103 312.906 70.867C313.141 71.1163 313.46 71.241 313.863 71.241C314.274 71.241 314.597 71.1163 314.831 70.867C315.073 70.6103 315.194 70.2547 315.194 69.8V65.95H316.184V69.8C316.184 70.5113 315.972 71.076 315.546 71.494C315.121 71.9047 314.56 72.11 313.863 72.11ZM320.283 72.088C319.872 72.088 319.513 72.0257 319.205 71.901C318.904 71.769 318.662 71.5857 318.479 71.351C318.303 71.1163 318.197 70.8377 318.16 70.515H319.15C319.194 70.7277 319.311 70.8963 319.502 71.021C319.7 71.1457 319.96 71.208 320.283 71.208H320.745C321.134 71.208 321.423 71.131 321.614 70.977C321.805 70.8157 321.9 70.603 321.9 70.339C321.9 70.0823 321.812 69.8807 321.636 69.734C321.467 69.58 321.214 69.4773 320.877 69.426L320.063 69.294C319.469 69.1913 319.025 69.008 318.732 68.744C318.446 68.4727 318.303 68.0803 318.303 67.567C318.303 67.0243 318.475 66.6063 318.82 66.313C319.165 66.0123 319.682 65.862 320.371 65.862H320.789C321.368 65.862 321.834 65.9977 322.186 66.269C322.538 66.5403 322.751 66.907 322.824 67.369H321.834C321.79 67.1783 321.68 67.028 321.504 66.918C321.328 66.8007 321.09 66.742 320.789 66.742H320.371C319.997 66.742 319.722 66.8117 319.546 66.951C319.377 67.0903 319.293 67.2993 319.293 67.578C319.293 67.8273 319.366 68.0107 319.513 68.128C319.66 68.2453 319.891 68.3297 320.206 68.381L321.02 68.513C321.673 68.6157 322.146 68.8063 322.439 69.085C322.74 69.3637 322.89 69.767 322.89 70.295C322.89 70.8523 322.71 71.2923 322.351 71.615C321.999 71.9303 321.464 72.088 320.745 72.088H320.283ZM324.778 72V63.97H325.768V65.95V67.105H325.977L325.768 67.336C325.768 66.8593 325.911 66.4927 326.197 66.236C326.483 65.972 326.879 65.84 327.385 65.84C327.993 65.84 328.477 66.027 328.837 66.401C329.196 66.775 329.376 67.2847 329.376 67.93V72H328.386V68.04C328.386 67.6073 328.268 67.2737 328.034 67.039C327.806 66.797 327.495 66.676 327.099 66.676C326.688 66.676 326.362 66.8043 326.12 67.061C325.885 67.3177 325.768 67.6807 325.768 68.15V72H324.778Z" fill="black"/>
<path d="M275.125 98C274.773 98 274.465 97.9303 274.201 97.791C273.937 97.6517 273.732 97.4537 273.585 97.197C273.438 96.9403 273.365 96.6397 273.365 96.295V90.872H271.33V89.97H274.355V96.295C274.355 96.5443 274.425 96.7423 274.564 96.889C274.703 97.0283 274.89 97.098 275.125 97.098H277.05V98H275.125ZM278.531 98V97.098H280.676V92.852H278.806V91.95H281.666V97.098H283.701V98H278.531ZM281.061 90.861C280.819 90.861 280.628 90.7987 280.489 90.674C280.349 90.5493 280.28 90.3807 280.28 90.168C280.28 89.948 280.349 89.7757 280.489 89.651C280.628 89.519 280.819 89.453 281.061 89.453C281.303 89.453 281.493 89.519 281.633 89.651C281.772 89.7757 281.842 89.948 281.842 90.168C281.842 90.3807 281.772 90.5493 281.633 90.674C281.493 90.7987 281.303 90.861 281.061 90.861ZM287.304 98.088C286.894 98.088 286.534 98.0257 286.226 97.901C285.926 97.769 285.684 97.5857 285.5 97.351C285.324 97.1163 285.218 96.8377 285.181 96.515H286.171C286.215 96.7277 286.333 96.8963 286.523 97.021C286.721 97.1457 286.982 97.208 287.304 97.208H287.766C288.155 97.208 288.445 97.131 288.635 96.977C288.826 96.8157 288.921 96.603 288.921 96.339C288.921 96.0823 288.833 95.8807 288.657 95.734C288.489 95.58 288.236 95.4773 287.898 95.426L287.084 95.294C286.49 95.1913 286.047 95.008 285.753 94.744C285.467 94.4727 285.324 94.0803 285.324 93.567C285.324 93.0243 285.497 92.6063 285.841 92.313C286.186 92.0123 286.703 91.862 287.392 91.862H287.81C288.39 91.862 288.855 91.9977 289.207 92.269C289.559 92.5403 289.772 92.907 289.845 93.369H288.855C288.811 93.1783 288.701 93.028 288.525 92.918C288.349 92.8007 288.111 92.742 287.81 92.742H287.392C287.018 92.742 286.743 92.8117 286.567 92.951C286.399 93.0903 286.314 93.2993 286.314 93.578C286.314 93.8273 286.388 94.0107 286.534 94.128C286.681 94.2453 286.912 94.3297 287.227 94.381L288.041 94.513C288.694 94.6157 289.167 94.8063 289.46 95.085C289.761 95.3637 289.911 95.767 289.911 96.295C289.911 96.8523 289.732 97.2923 289.372 97.615C289.02 97.9303 288.485 98.088 287.766 98.088H287.304ZM294.747 98C294.226 98 293.819 97.8607 293.526 97.582C293.24 97.3033 293.097 96.911 293.097 96.405V92.852H291.392V91.95H293.097V90.245H294.087V91.95H296.507V92.852H294.087V96.405C294.087 96.867 294.307 97.098 294.747 97.098H296.397V98H294.747ZM298.923 94.81V93.93H302.443V94.81H298.923ZM304.991 99.98V91.95H305.981V93.105H306.179L305.981 93.336C305.981 92.874 306.131 92.511 306.432 92.247C306.74 91.9757 307.143 91.84 307.642 91.84C308.25 91.84 308.734 92.0417 309.094 92.445C309.46 92.841 309.644 93.3873 309.644 94.084V95.855C309.644 96.317 309.559 96.7167 309.391 97.054C309.229 97.3913 308.998 97.6517 308.698 97.835C308.404 98.0183 308.052 98.11 307.642 98.11C307.15 98.11 306.751 97.9743 306.443 97.703C306.135 97.4317 305.981 97.0687 305.981 96.614L306.179 96.845H305.959L305.981 98.22V99.98H304.991ZM307.312 97.252C307.73 97.252 308.056 97.1273 308.291 96.878C308.533 96.6287 308.654 96.2693 308.654 95.8V94.15C308.654 93.6807 308.533 93.3213 308.291 93.072C308.056 92.8227 307.73 92.698 307.312 92.698C306.908 92.698 306.586 92.8263 306.344 93.083C306.102 93.3397 305.981 93.6953 305.981 94.15V95.8C305.981 96.2547 306.102 96.6103 306.344 96.867C306.586 97.1237 306.908 97.252 307.312 97.252ZM313.863 98.11C313.167 98.11 312.609 97.9047 312.191 97.494C311.773 97.076 311.564 96.5113 311.564 95.8V91.95H312.554V95.8C312.554 96.2547 312.672 96.6103 312.906 96.867C313.141 97.1163 313.46 97.241 313.863 97.241C314.274 97.241 314.597 97.1163 314.831 96.867C315.073 96.6103 315.194 96.2547 315.194 95.8V91.95H316.184V95.8C316.184 96.5113 315.972 97.076 315.546 97.494C315.121 97.9047 314.56 98.11 313.863 98.11ZM320.283 98.088C319.872 98.088 319.513 98.0257 319.205 97.901C318.904 97.769 318.662 97.5857 318.479 97.351C318.303 97.1163 318.197 96.8377 318.16 96.515H319.15C319.194 96.7277 319.311 96.8963 319.502 97.021C319.7 97.1457 319.96 97.208 320.283 97.208H320.745C321.134 97.208 321.423 97.131 321.614 96.977C321.805 96.8157 321.9 96.603 321.9 96.339C321.9 96.0823 321.812 95.8807 321.636 95.734C321.467 95.58 321.214 95.4773 320.877 95.426L320.063 95.294C319.469 95.1913 319.025 95.008 318.732 94.744C318.446 94.4727 318.303 94.0803 318.303 93.567C318.303 93.0243 318.475 92.6063 318.82 92.313C319.165 92.0123 319.682 91.862 320.371 91.862H320.789C321.368 91.862 321.834 91.9977 322.186 92.269C322.538 92.5403 322.751 92.907 322.824 93.369H321.834C321.79 93.1783 321.68 93.028 321.504 92.918C321.328 92.8007 321.09 92.742 320.789 92.742H320.371C319.997 92.742 319.722 92.8117 319.546 92.951C319.377 93.0903 319.293 93.2993 319.293 93.578C319.293 93.8273 319.366 94.0107 319.513 94.128C319.66 94.2453 319.891 94.3297 320.206 94.381L321.02 94.513C321.673 94.6157 322.146 94.8063 322.439 95.085C322.74 95.3637 322.89 95.767 322.89 96.295C322.89 96.8523 322.71 97.2923 322.351 97.615C321.999 97.9303 321.464 98.088 320.745 98.088H320.283ZM324.778 98V89.97H325.768V91.95V93.105H325.977L325.768 93.336C325.768 92.8593 325.911 92.4927 326.197 92.236C326.483 91.972 326.879 91.84 327.385 91.84C327.993 91.84 328.477 92.027 328.837 92.401C329.196 92.775 329.376 93.2847 329.376 93.93V98H328.386V94.04C328.386 93.6073 328.268 93.2737 328.034 93.039C327.806 92.797 327.495 92.676 327.099 92.676C326.688 92.676 326.362 92.8043 326.12 93.061C325.885 93.3177 325.768 93.6807 325.768 94.15V98H324.778Z" fill="black"/>
<path d="M276.125 122C275.773 122 275.465 121.93 275.201 121.791C274.937 121.652 274.732 121.454 274.585 121.197C274.438 120.94 274.365 120.64 274.365 120.295V114.872H272.33V113.97H275.355V120.295C275.355 120.544 275.425 120.742 275.564 120.889C275.703 121.028 275.89 121.098 276.125 121.098H278.05V122H276.125ZM279.531 122V121.098H281.676V116.852H279.806V115.95H282.666V121.098H284.701V122H279.531ZM282.061 114.861C281.819 114.861 281.628 114.799 281.489 114.674C281.349 114.549 281.28 114.381 281.28 114.168C281.28 113.948 281.349 113.776 281.489 113.651C281.628 113.519 281.819 113.453 282.061 113.453C282.303 113.453 282.493 113.519 282.633 113.651C282.772 113.776 282.842 113.948 282.842 114.168C282.842 114.381 282.772 114.549 282.633 114.674C282.493 114.799 282.303 114.861 282.061 114.861ZM288.304 122.088C287.894 122.088 287.534 122.026 287.226 121.901C286.926 121.769 286.684 121.586 286.5 121.351C286.324 121.116 286.218 120.838 286.181 120.515H287.171C287.215 120.728 287.333 120.896 287.523 121.021C287.721 121.146 287.982 121.208 288.304 121.208H288.766C289.155 121.208 289.445 121.131 289.635 120.977C289.826 120.816 289.921 120.603 289.921 120.339C289.921 120.082 289.833 119.881 289.657 119.734C289.489 119.58 289.236 119.477 288.898 119.426L288.084 119.294C287.49 119.191 287.047 119.008 286.753 118.744C286.467 118.473 286.324 118.08 286.324 117.567C286.324 117.024 286.497 116.606 286.841 116.313C287.186 116.012 287.703 115.862 288.392 115.862H288.81C289.39 115.862 289.855 115.998 290.207 116.269C290.559 116.54 290.772 116.907 290.845 117.369H289.855C289.811 117.178 289.701 117.028 289.525 116.918C289.349 116.801 289.111 116.742 288.81 116.742H288.392C288.018 116.742 287.743 116.812 287.567 116.951C287.399 117.09 287.314 117.299 287.314 117.578C287.314 117.827 287.388 118.011 287.534 118.128C287.681 118.245 287.912 118.33 288.227 118.381L289.041 118.513C289.694 118.616 290.167 118.806 290.46 119.085C290.761 119.364 290.911 119.767 290.911 120.295C290.911 120.852 290.732 121.292 290.372 121.615C290.02 121.93 289.485 122.088 288.766 122.088H288.304ZM295.747 122C295.226 122 294.819 121.861 294.526 121.582C294.24 121.303 294.097 120.911 294.097 120.405V116.852H292.392V115.95H294.097V114.245H295.087V115.95H297.507V116.852H295.087V120.405C295.087 120.867 295.307 121.098 295.747 121.098H297.397V122H295.747ZM299.923 118.81V117.93H303.443V118.81H299.923ZM306.2 122V115.95H307.168V117.105H307.399L307.08 117.82C307.08 117.167 307.219 116.676 307.498 116.346C307.784 116.009 308.205 115.84 308.763 115.84C309.401 115.84 309.907 116.042 310.281 116.445C310.662 116.841 310.853 117.38 310.853 118.062V118.425H309.863V118.15C309.863 117.673 309.745 117.31 309.511 117.061C309.283 116.804 308.957 116.676 308.532 116.676C308.114 116.676 307.784 116.804 307.542 117.061C307.307 117.318 307.19 117.681 307.19 118.15V122H306.2ZM314.874 122.11C314.398 122.11 313.98 122.015 313.62 121.824C313.268 121.633 312.993 121.366 312.795 121.021C312.605 120.669 312.509 120.262 312.509 119.8V118.15C312.509 117.681 312.605 117.274 312.795 116.929C312.993 116.584 313.268 116.317 313.62 116.126C313.98 115.935 314.398 115.84 314.874 115.84C315.351 115.84 315.765 115.935 316.117 116.126C316.477 116.317 316.752 116.584 316.942 116.929C317.14 117.274 317.239 117.681 317.239 118.15V119.217H313.477V119.8C313.477 120.277 313.598 120.643 313.84 120.9C314.082 121.149 314.427 121.274 314.874 121.274C315.256 121.274 315.564 121.208 315.798 121.076C316.033 120.937 316.176 120.731 316.227 120.46H317.217C317.151 120.966 316.902 121.369 316.469 121.67C316.044 121.963 315.512 122.11 314.874 122.11ZM316.271 118.557V118.15C316.271 117.673 316.15 117.307 315.908 117.05C315.674 116.793 315.329 116.665 314.874 116.665C314.427 116.665 314.082 116.793 313.84 117.05C313.598 117.307 313.477 117.673 313.477 118.15V118.469H316.348L316.271 118.557ZM320.942 122.11C320.304 122.11 319.802 121.949 319.435 121.626C319.068 121.296 318.885 120.852 318.885 120.295C318.885 119.73 319.068 119.287 319.435 118.964C319.802 118.641 320.297 118.48 320.92 118.48H322.79V117.875C322.79 117.501 322.676 117.215 322.449 117.017C322.229 116.812 321.914 116.709 321.503 116.709C321.144 116.709 320.843 116.786 320.601 116.94C320.359 117.087 320.22 117.288 320.183 117.545H319.193C319.259 117.024 319.505 116.61 319.93 116.302C320.355 115.994 320.887 115.84 321.525 115.84C322.222 115.84 322.772 116.02 323.175 116.379C323.578 116.738 323.78 117.226 323.78 117.842V122H322.812V120.845H322.647L322.812 120.68C322.812 121.12 322.64 121.468 322.295 121.725C321.958 121.982 321.507 122.11 320.942 122.11ZM321.184 121.329C321.653 121.329 322.038 121.212 322.339 120.977C322.64 120.742 322.79 120.442 322.79 120.075V119.217H320.942C320.612 119.217 320.352 119.309 320.161 119.492C319.97 119.675 319.875 119.925 319.875 120.24C319.875 120.577 319.989 120.845 320.216 121.043C320.451 121.234 320.773 121.329 321.184 121.329ZM327.714 122.11C327.112 122.11 326.625 121.908 326.251 121.505C325.884 121.102 325.701 120.555 325.701 119.866V118.095C325.701 117.398 325.884 116.848 326.251 116.445C326.617 116.042 327.105 115.84 327.714 115.84C328.212 115.84 328.612 115.976 328.913 116.247C329.213 116.518 329.364 116.881 329.364 117.336L329.166 117.105H329.386L329.364 115.73V113.97H330.354V122H329.364V120.845H329.166L329.364 120.614C329.364 121.076 329.213 121.443 328.913 121.714C328.612 121.978 328.212 122.11 327.714 122.11ZM328.044 121.252C328.454 121.252 328.777 121.124 329.012 120.867C329.246 120.61 329.364 120.255 329.364 119.8V118.15C329.364 117.695 329.246 117.34 329.012 117.083C328.777 116.826 328.454 116.698 328.044 116.698C327.626 116.698 327.296 116.823 327.054 117.072C326.812 117.321 326.691 117.681 326.691 118.15V119.8C326.691 120.269 326.812 120.629 327.054 120.878C327.296 121.127 327.626 121.252 328.044 121.252Z" fill="black"/>
<path d="M176 12V124.5" stroke="#777777" stroke-dasharray="2 2"/>
</svg>
