<svg width="354" height="64" viewBox="0 0 354 64" fill="none" xmlns="http://www.w3.org/2000/svg">
<rect width="354" height="64" fill="white"/>
<path d="M19.376 12.144C19.352 11.76 19.26 11.396 19.1 11.052C18.94 10.708 18.708 10.428 18.404 10.212C18.1 9.996 17.712 9.888 17.24 9.888C16.744 9.888 16.364 10.028 16.1 10.308C15.836 10.588 15.704 10.916 15.704 11.292C15.704 11.628 15.8 11.912 15.992 12.144C16.184 12.368 16.432 12.568 16.736 12.744C17.048 12.912 17.376 13.076 17.72 13.236C18.024 13.372 18.328 13.52 18.632 13.68C18.936 13.832 19.212 14.008 19.46 14.208C19.708 14.408 19.904 14.648 20.048 14.928C20.2 15.2 20.276 15.528 20.276 15.912C20.276 16.352 20.164 16.744 19.94 17.088C19.724 17.432 19.408 17.704 18.992 17.904C18.576 18.096 18.068 18.192 17.468 18.192C17.108 18.192 16.736 18.14 16.352 18.036C15.968 17.932 15.628 17.78 15.332 17.58L15.392 18.096H14.768L14.696 15.54H15.164C15.204 16.244 15.448 16.78 15.896 17.148C16.344 17.508 16.884 17.688 17.516 17.688C17.828 17.688 18.116 17.632 18.38 17.52C18.644 17.4 18.852 17.228 19.004 17.004C19.164 16.78 19.244 16.508 19.244 16.188C19.244 15.828 19.148 15.528 18.956 15.288C18.764 15.048 18.516 14.84 18.212 14.664C17.908 14.488 17.584 14.32 17.24 14.16C16.936 14.024 16.636 13.88 16.34 13.728C16.044 13.576 15.772 13.404 15.524 13.212C15.284 13.012 15.088 12.776 14.936 12.504C14.792 12.232 14.72 11.904 14.72 11.52C14.72 11.312 14.756 11.088 14.828 10.848C14.9 10.608 15.024 10.38 15.2 10.164C15.384 9.94 15.632 9.76 15.944 9.624C16.264 9.48 16.668 9.408 17.156 9.408C17.46 9.408 17.8 9.452 18.176 9.54C18.56 9.62 18.916 9.78 19.244 10.02L19.196 9.504H19.808V12.144H19.376ZM24.2406 18.192C23.6886 18.192 23.1886 18.064 22.7406 17.808C22.3006 17.544 21.9526 17.176 21.6966 16.704C21.4406 16.224 21.3126 15.66 21.3126 15.012C21.3126 14.452 21.4366 13.928 21.6846 13.44C21.9406 12.952 22.2966 12.56 22.7526 12.264C23.2086 11.96 23.7366 11.808 24.3366 11.808C24.6726 11.808 24.9846 11.864 25.2726 11.976C25.5686 12.08 25.8286 12.244 26.0526 12.468C26.2766 12.684 26.4526 12.96 26.5806 13.296C26.7086 13.624 26.7726 14.012 26.7726 14.46L22.5486 14.532C22.5486 15.14 22.6126 15.676 22.7406 16.14C22.8766 16.596 23.0926 16.952 23.3886 17.208C23.6846 17.456 24.0646 17.58 24.5286 17.58C24.7766 17.58 25.0286 17.536 25.2846 17.448C25.5486 17.36 25.7926 17.24 26.0166 17.088C26.2406 16.936 26.4206 16.768 26.5566 16.584L26.8446 16.824C26.6286 17.16 26.3686 17.428 26.0646 17.628C25.7606 17.828 25.4486 17.972 25.1286 18.06C24.8086 18.148 24.5126 18.192 24.2406 18.192ZM22.5846 14.028H25.6446C25.6446 13.74 25.6006 13.464 25.5126 13.2C25.4326 12.928 25.2966 12.708 25.1046 12.54C24.9126 12.364 24.6606 12.276 24.3486 12.276C23.8846 12.276 23.4966 12.416 23.1846 12.696C22.8806 12.968 22.6806 13.412 22.5846 14.028ZM30.0145 18.192C29.8305 18.192 29.6425 18.164 29.4505 18.108C29.2585 18.06 29.0785 17.96 28.9105 17.808C28.7505 17.656 28.6225 17.436 28.5265 17.148C28.4305 16.852 28.3825 16.464 28.3825 15.984L28.4065 12.504L27.4825 12.516V12C27.6905 11.992 27.9025 11.916 28.1185 11.772C28.3345 11.62 28.5265 11.416 28.6945 11.16C28.8705 10.904 28.9905 10.624 29.0545 10.32H29.4625V12H31.4785V12.468L29.4625 12.492L29.4385 15.828C29.4385 16.188 29.4665 16.496 29.5225 16.752C29.5865 17 29.6865 17.188 29.8225 17.316C29.9585 17.444 30.1345 17.508 30.3505 17.508C30.5745 17.508 30.7825 17.444 30.9745 17.316C31.1745 17.188 31.3505 17.012 31.5025 16.788L31.8265 17.052C31.6505 17.316 31.4745 17.524 31.2985 17.676C31.1305 17.828 30.9665 17.94 30.8065 18.012C30.6465 18.092 30.4985 18.14 30.3625 18.156C30.2265 18.18 30.1105 18.192 30.0145 18.192Z" fill="#777777"/>
<path d="M17.113 33.088C16.7023 33.088 16.343 33.0257 16.035 32.901C15.7343 32.769 15.4923 32.5857 15.309 32.351C15.133 32.1163 15.0267 31.8377 14.99 31.515H15.98C16.024 31.7277 16.1413 31.8963 16.332 32.021C16.53 32.1457 16.7903 32.208 17.113 32.208H17.575C17.9637 32.208 18.2533 32.131 18.444 31.977C18.6347 31.8157 18.73 31.603 18.73 31.339C18.73 31.0823 18.642 30.8807 18.466 30.734C18.2973 30.58 18.0443 30.4773 17.707 30.426L16.893 30.294C16.299 30.1913 15.8553 30.008 15.562 29.744C15.276 29.4727 15.133 29.0803 15.133 28.567C15.133 28.0243 15.3053 27.6063 15.65 27.313C15.9947 27.0123 16.5117 26.862 17.201 26.862H17.619C18.1983 26.862 18.664 26.9977 19.016 27.269C19.368 27.5403 19.5807 27.907 19.654 28.369H18.664C18.62 28.1783 18.51 28.028 18.334 27.918C18.158 27.8007 17.9197 27.742 17.619 27.742H17.201C16.827 27.742 16.552 27.8117 16.376 27.951C16.2073 28.0903 16.123 28.2993 16.123 28.578C16.123 28.8273 16.1963 29.0107 16.343 29.128C16.4897 29.2453 16.7207 29.3297 17.036 29.381L17.85 29.513C18.5027 29.6157 18.9757 29.8063 19.269 30.085C19.5697 30.3637 19.72 30.767 19.72 31.295C19.72 31.8523 19.5403 32.2923 19.181 32.615C18.829 32.9303 18.2937 33.088 17.575 33.088H17.113ZM23.8957 33.11C23.419 33.11 23.001 33.0147 22.6417 32.824C22.2897 32.6333 22.0147 32.3657 21.8167 32.021C21.626 31.669 21.5307 31.262 21.5307 30.8V29.15C21.5307 28.6807 21.626 28.2737 21.8167 27.929C22.0147 27.5843 22.2897 27.3167 22.6417 27.126C23.001 26.9353 23.419 26.84 23.8957 26.84C24.3724 26.84 24.7867 26.9353 25.1387 27.126C25.498 27.3167 25.773 27.5843 25.9637 27.929C26.1617 28.2737 26.2607 28.6807 26.2607 29.15V30.217H22.4987V30.8C22.4987 31.2767 22.6197 31.6433 22.8617 31.9C23.1037 32.1493 23.4484 32.274 23.8957 32.274C24.277 32.274 24.585 32.208 24.8197 32.076C25.0544 31.9367 25.1974 31.7313 25.2487 31.46H26.2387C26.1727 31.966 25.9234 32.3693 25.4907 32.67C25.0654 32.9633 24.5337 33.11 23.8957 33.11ZM25.2927 29.557V29.15C25.2927 28.6733 25.1717 28.3067 24.9297 28.05C24.695 27.7933 24.3504 27.665 23.8957 27.665C23.4484 27.665 23.1037 27.7933 22.8617 28.05C22.6197 28.3067 22.4987 28.6733 22.4987 29.15V29.469H25.3697L25.2927 29.557ZM31.1514 33C30.6307 33 30.2237 32.8607 29.9304 32.582C29.6444 32.3033 29.5014 31.911 29.5014 31.405V27.852H27.7964V26.95H29.5014V25.245H30.4914V26.95H32.9114V27.852H30.4914V31.405C30.4914 31.867 30.7114 32.098 31.1514 32.098H32.8014V33H31.1514ZM35.3271 29.81V28.93H38.8471V29.81H35.3271ZM43.1548 33.11C42.5168 33.11 42.0145 32.9487 41.6478 32.626C41.2811 32.296 41.0978 31.8523 41.0978 31.295C41.0978 30.7303 41.2811 30.2867 41.6478 29.964C42.0145 29.6413 42.5095 29.48 43.1328 29.48H45.0028V28.875C45.0028 28.501 44.8891 28.215 44.6618 28.017C44.4418 27.8117 44.1265 27.709 43.7158 27.709C43.3565 27.709 43.0558 27.786 42.8138 27.94C42.5718 28.0867 42.4325 28.2883 42.3958 28.545H41.4058C41.4718 28.0243 41.7175 27.61 42.1428 27.302C42.5681 26.994 43.0998 26.84 43.7378 26.84C44.4345 26.84 44.9845 27.0197 45.3878 27.379C45.7911 27.7383 45.9928 28.226 45.9928 28.842V33H45.0248V31.845H44.8598L45.0248 31.68C45.0248 32.12 44.8525 32.4683 44.5078 32.725C44.1705 32.9817 43.7195 33.11 43.1548 33.11ZM43.3968 32.329C43.8661 32.329 44.2511 32.2117 44.5518 31.977C44.8525 31.7423 45.0028 31.4417 45.0028 31.075V30.217H43.1548C42.8248 30.217 42.5645 30.3087 42.3738 30.492C42.1831 30.6753 42.0878 30.9247 42.0878 31.24C42.0878 31.5773 42.2015 31.845 42.4288 32.043C42.6635 32.2337 42.9861 32.329 43.3968 32.329ZM49.9265 33.11C49.3252 33.11 48.8375 32.9083 48.4635 32.505C48.0968 32.1017 47.9135 31.5553 47.9135 30.866V29.095C47.9135 28.3983 48.0968 27.8483 48.4635 27.445C48.8302 27.0417 49.3178 26.84 49.9265 26.84C50.4252 26.84 50.8248 26.9757 51.1255 27.247C51.4262 27.5183 51.5765 27.8813 51.5765 28.336L51.3785 28.105H51.5985L51.5765 26.73V24.97H52.5665V33H51.5765V31.845H51.3785L51.5765 31.614C51.5765 32.076 51.4262 32.4427 51.1255 32.714C50.8248 32.978 50.4252 33.11 49.9265 33.11ZM50.2565 32.252C50.6672 32.252 50.9898 32.1237 51.2245 31.867C51.4592 31.6103 51.5765 31.2547 51.5765 30.8V29.15C51.5765 28.6953 51.4592 28.3397 51.2245 28.083C50.9898 27.8263 50.6672 27.698 50.2565 27.698C49.8385 27.698 49.5085 27.8227 49.2665 28.072C49.0245 28.3213 48.9035 28.6807 48.9035 29.15V30.8C48.9035 31.2693 49.0245 31.6287 49.2665 31.878C49.5085 32.1273 49.8385 32.252 50.2565 32.252ZM56.5222 33.11C55.9209 33.11 55.4332 32.9083 55.0592 32.505C54.6926 32.1017 54.5092 31.5553 54.5092 30.866V29.095C54.5092 28.3983 54.6926 27.8483 55.0592 27.445C55.4259 27.0417 55.9136 26.84 56.5222 26.84C57.0209 26.84 57.4206 26.9757 57.7212 27.247C58.0219 27.5183 58.1722 27.8813 58.1722 28.336L57.9742 28.105H58.1942L58.1722 26.73V24.97H59.1622V33H58.1722V31.845H57.9742L58.1722 31.614C58.1722 32.076 58.0219 32.4427 57.7212 32.714C57.4206 32.978 57.0209 33.11 56.5222 33.11ZM56.8522 32.252C57.2629 32.252 57.5856 32.1237 57.8202 31.867C58.0549 31.6103 58.1722 31.2547 58.1722 30.8V29.15C58.1722 28.6953 58.0549 28.3397 57.8202 28.083C57.5856 27.8263 57.2629 27.698 56.8522 27.698C56.4342 27.698 56.1042 27.8227 55.8622 28.072C55.6202 28.3213 55.4992 28.6807 55.4992 29.15V30.8C55.4992 31.2693 55.6202 31.6287 55.8622 31.878C56.1042 32.1273 56.4342 32.252 56.8522 32.252Z" fill="black"/>
<path d="M17.113 51.088C16.7023 51.088 16.343 51.0257 16.035 50.901C15.7343 50.769 15.4923 50.5857 15.309 50.351C15.133 50.1163 15.0267 49.8377 14.99 49.515H15.98C16.024 49.7277 16.1413 49.8963 16.332 50.021C16.53 50.1457 16.7903 50.208 17.113 50.208H17.575C17.9637 50.208 18.2533 50.131 18.444 49.977C18.6347 49.8157 18.73 49.603 18.73 49.339C18.73 49.0823 18.642 48.8807 18.466 48.734C18.2973 48.58 18.0443 48.4773 17.707 48.426L16.893 48.294C16.299 48.1913 15.8553 48.008 15.562 47.744C15.276 47.4727 15.133 47.0803 15.133 46.567C15.133 46.0243 15.3053 45.6063 15.65 45.313C15.9947 45.0123 16.5117 44.862 17.201 44.862H17.619C18.1983 44.862 18.664 44.9977 19.016 45.269C19.368 45.5403 19.5807 45.907 19.654 46.369H18.664C18.62 46.1783 18.51 46.028 18.334 45.918C18.158 45.8007 17.9197 45.742 17.619 45.742H17.201C16.827 45.742 16.552 45.8117 16.376 45.951C16.2073 46.0903 16.123 46.2993 16.123 46.578C16.123 46.8273 16.1963 47.0107 16.343 47.128C16.4897 47.2453 16.7207 47.3297 17.036 47.381L17.85 47.513C18.5027 47.6157 18.9757 47.8063 19.269 48.085C19.5697 48.3637 19.72 48.767 19.72 49.295C19.72 49.8523 19.5403 50.2923 19.181 50.615C18.829 50.9303 18.2937 51.088 17.575 51.088H17.113ZM23.8957 51.11C23.419 51.11 23.001 51.0147 22.6417 50.824C22.2897 50.6333 22.0147 50.3657 21.8167 50.021C21.626 49.669 21.5307 49.262 21.5307 48.8V47.15C21.5307 46.6807 21.626 46.2737 21.8167 45.929C22.0147 45.5843 22.2897 45.3167 22.6417 45.126C23.001 44.9353 23.419 44.84 23.8957 44.84C24.3724 44.84 24.7867 44.9353 25.1387 45.126C25.498 45.3167 25.773 45.5843 25.9637 45.929C26.1617 46.2737 26.2607 46.6807 26.2607 47.15V48.217H22.4987V48.8C22.4987 49.2767 22.6197 49.6433 22.8617 49.9C23.1037 50.1493 23.4484 50.274 23.8957 50.274C24.277 50.274 24.585 50.208 24.8197 50.076C25.0544 49.9367 25.1974 49.7313 25.2487 49.46H26.2387C26.1727 49.966 25.9234 50.3693 25.4907 50.67C25.0654 50.9633 24.5337 51.11 23.8957 51.11ZM25.2927 47.557V47.15C25.2927 46.6733 25.1717 46.3067 24.9297 46.05C24.695 45.7933 24.3504 45.665 23.8957 45.665C23.4484 45.665 23.1037 45.7933 22.8617 46.05C22.6197 46.3067 22.4987 46.6733 22.4987 47.15V47.469H25.3697L25.2927 47.557ZM31.1514 51C30.6307 51 30.2237 50.8607 29.9304 50.582C29.6444 50.3033 29.5014 49.911 29.5014 49.405V45.852H27.7964V44.95H29.5014V43.245H30.4914V44.95H32.9114V45.852H30.4914V49.405C30.4914 49.867 30.7114 50.098 31.1514 50.098H32.8014V51H31.1514ZM35.3271 47.81V46.93H38.8471V47.81H35.3271ZM41.6038 51V44.95H42.5718V46.105H42.8028L42.4838 46.82C42.4838 46.1673 42.6231 45.676 42.9018 45.346C43.1878 45.0087 43.6095 44.84 44.1668 44.84C44.8048 44.84 45.3108 45.0417 45.6848 45.445C46.0661 45.841 46.2568 46.38 46.2568 47.062V47.425H45.2668V47.15C45.2668 46.6733 45.1495 46.3103 44.9148 46.061C44.6875 45.8043 44.3611 45.676 43.9358 45.676C43.5178 45.676 43.1878 45.8043 42.9458 46.061C42.7111 46.3177 42.5938 46.6807 42.5938 47.15V51H41.6038ZM50.2785 51.11C49.8018 51.11 49.3838 51.0147 49.0245 50.824C48.6725 50.6333 48.3975 50.3657 48.1995 50.021C48.0088 49.669 47.9135 49.262 47.9135 48.8V47.15C47.9135 46.6807 48.0088 46.2737 48.1995 45.929C48.3975 45.5843 48.6725 45.3167 49.0245 45.126C49.3838 44.9353 49.8018 44.84 50.2785 44.84C50.7552 44.84 51.1695 44.9353 51.5215 45.126C51.8808 45.3167 52.1558 45.5843 52.3465 45.929C52.5445 46.2737 52.6435 46.6807 52.6435 47.15V48.217H48.8815V48.8C48.8815 49.2767 49.0025 49.6433 49.2445 49.9C49.4865 50.1493 49.8312 50.274 50.2785 50.274C50.6598 50.274 50.9678 50.208 51.2025 50.076C51.4372 49.9367 51.5802 49.7313 51.6315 49.46H52.6215C52.5555 49.966 52.3062 50.3693 51.8735 50.67C51.4482 50.9633 50.9165 51.11 50.2785 51.11ZM51.6755 47.557V47.15C51.6755 46.6733 51.5545 46.3067 51.3125 46.05C51.0778 45.7933 50.7332 45.665 50.2785 45.665C49.8312 45.665 49.4865 45.7933 49.2445 46.05C49.0025 46.3067 48.8815 46.6733 48.8815 47.15V47.469H51.7525L51.6755 47.557ZM56.3462 51.11C55.7082 51.11 55.2059 50.9487 54.8392 50.626C54.4726 50.296 54.2892 49.8523 54.2892 49.295C54.2892 48.7303 54.4726 48.2867 54.8392 47.964C55.2059 47.6413 55.7009 47.48 56.3242 47.48H58.1942V46.875C58.1942 46.501 58.0806 46.215 57.8532 46.017C57.6332 45.8117 57.3179 45.709 56.9072 45.709C56.5479 45.709 56.2472 45.786 56.0052 45.94C55.7632 46.0867 55.6239 46.2883 55.5872 46.545H54.5972C54.6632 46.0243 54.9089 45.61 55.3342 45.302C55.7596 44.994 56.2912 44.84 56.9292 44.84C57.6259 44.84 58.1759 45.0197 58.5792 45.379C58.9826 45.7383 59.1842 46.226 59.1842 46.842V51H58.2162V49.845H58.0512L58.2162 49.68C58.2162 50.12 58.0439 50.4683 57.6992 50.725C57.3619 50.9817 56.9109 51.11 56.3462 51.11ZM56.5882 50.329C57.0576 50.329 57.4426 50.2117 57.7432 49.977C58.0439 49.7423 58.1942 49.4417 58.1942 49.075V48.217H56.3462C56.0162 48.217 55.7559 48.3087 55.5652 48.492C55.3746 48.6753 55.2792 48.9247 55.2792 49.24C55.2792 49.5773 55.3929 49.845 55.6202 50.043C55.8549 50.2337 56.1776 50.329 56.5882 50.329ZM63.1179 51.11C62.5166 51.11 62.0289 50.9083 61.6549 50.505C61.2883 50.1017 61.1049 49.5553 61.1049 48.866V47.095C61.1049 46.3983 61.2883 45.8483 61.6549 45.445C62.0216 45.0417 62.5093 44.84 63.1179 44.84C63.6166 44.84 64.0163 44.9757 64.3169 45.247C64.6176 45.5183 64.7679 45.8813 64.7679 46.336L64.5699 46.105H64.7899L64.7679 44.73V42.97H65.7579V51H64.7679V49.845H64.5699L64.7679 49.614C64.7679 50.076 64.6176 50.4427 64.3169 50.714C64.0163 50.978 63.6166 51.11 63.1179 51.11ZM63.4479 50.252C63.8586 50.252 64.1813 50.1237 64.4159 49.867C64.6506 49.6103 64.7679 49.2547 64.7679 48.8V47.15C64.7679 46.6953 64.6506 46.3397 64.4159 46.083C64.1813 45.8263 63.8586 45.698 63.4479 45.698C63.0299 45.698 62.6999 45.8227 62.4579 46.072C62.2159 46.3213 62.0949 46.6807 62.0949 47.15V48.8C62.0949 49.2693 62.2159 49.6287 62.4579 49.878C62.6999 50.1273 63.0299 50.252 63.4479 50.252Z" fill="black"/>
<path d="M86.66 18V17.604C86.964 17.588 87.172 17.52 87.284 17.4C87.396 17.272 87.456 17.1 87.464 16.884C87.48 16.66 87.488 16.408 87.488 16.128V10.944C87.488 10.784 87.492 10.632 87.5 10.488C87.508 10.336 87.516 10.2 87.524 10.08C87.38 10.088 87.236 10.096 87.092 10.104C86.948 10.112 86.804 10.12 86.66 10.128V9.6H89.36V9.996C89.064 10.004 88.856 10.072 88.736 10.2C88.624 10.328 88.56 10.5 88.544 10.716C88.536 10.932 88.532 11.184 88.532 11.472V16.62C88.532 16.836 88.528 17.02 88.52 17.172C88.52 17.324 88.512 17.452 88.496 17.556L90.74 17.52C91.244 17.512 91.624 17.352 91.88 17.04C92.144 16.728 92.276 16.22 92.276 15.516H92.684L92.612 18H86.66ZM93.4655 17.64C93.7135 17.64 93.8855 17.58 93.9815 17.46C94.0775 17.332 94.1335 17.16 94.1495 16.944C94.1655 16.72 94.1735 16.464 94.1735 16.176V13.44C94.1735 13.312 94.1775 13.192 94.1855 13.08C94.1935 12.96 94.2055 12.82 94.2215 12.66C94.0775 12.668 93.9335 12.676 93.7895 12.684C93.6535 12.692 93.5135 12.7 93.3695 12.708V12.204C93.7215 12.204 93.9935 12.188 94.1855 12.156C94.3775 12.124 94.5215 12.084 94.6175 12.036C94.7215 11.988 94.8015 11.936 94.8575 11.88H95.2055V16.728C95.2055 16.888 95.2015 17.032 95.1935 17.16C95.1935 17.28 95.1815 17.408 95.1575 17.544C95.2855 17.536 95.4095 17.532 95.5295 17.532C95.6575 17.524 95.7855 17.516 95.9135 17.508V18H93.4655V17.64ZM94.6295 10.692C94.4615 10.692 94.3135 10.624 94.1855 10.488C94.0575 10.352 93.9935 10.184 93.9935 9.984C93.9935 9.784 94.0575 9.616 94.1855 9.48C94.3215 9.336 94.4735 9.264 94.6415 9.264C94.8255 9.264 94.9775 9.336 95.0975 9.48C95.2255 9.616 95.2895 9.784 95.2895 9.984C95.2895 10.184 95.2215 10.352 95.0855 10.488C94.9575 10.624 94.8055 10.692 94.6295 10.692ZM99.3005 18.192C98.9005 18.192 98.5445 18.136 98.2325 18.024C97.9205 17.92 97.6645 17.8 97.4645 17.664L97.5125 18.084H97.0085L96.9365 16.02H97.3085C97.3245 16.348 97.4165 16.644 97.5845 16.908C97.7525 17.164 97.9685 17.364 98.2325 17.508C98.4965 17.652 98.7805 17.724 99.0845 17.724C99.2925 17.724 99.4965 17.692 99.6965 17.628C99.8965 17.556 100.065 17.452 100.201 17.316C100.337 17.172 100.405 16.992 100.405 16.776C100.405 16.552 100.337 16.368 100.201 16.224C100.073 16.072 99.9005 15.94 99.6845 15.828C99.4685 15.716 99.2365 15.612 98.9885 15.516C98.7485 15.42 98.5085 15.32 98.2685 15.216C98.0285 15.112 97.8045 14.988 97.5965 14.844C97.3965 14.7 97.2365 14.524 97.1165 14.316C96.9965 14.108 96.9365 13.852 96.9365 13.548C96.9365 13.38 96.9685 13.196 97.0325 12.996C97.0965 12.796 97.2045 12.608 97.3565 12.432C97.5085 12.248 97.7165 12.1 97.9805 11.988C98.2445 11.868 98.5805 11.808 98.9885 11.808C99.2045 11.808 99.4445 11.844 99.7085 11.916C99.9725 11.988 100.229 12.124 100.477 12.324L100.453 11.868H100.957V13.968H100.573C100.557 13.688 100.493 13.42 100.381 13.164C100.269 12.9 100.105 12.684 99.8885 12.516C99.6725 12.34 99.3925 12.252 99.0485 12.252C98.6805 12.252 98.3925 12.344 98.1845 12.528C97.9765 12.712 97.8725 12.924 97.8725 13.164C97.8725 13.412 97.9485 13.62 98.1005 13.788C98.2605 13.948 98.4645 14.088 98.7125 14.208C98.9605 14.328 99.2245 14.444 99.5045 14.556C99.8085 14.684 100.105 14.824 100.393 14.976C100.681 15.128 100.917 15.32 101.101 15.552C101.285 15.776 101.377 16.068 101.377 16.428C101.377 16.828 101.273 17.16 101.065 17.424C100.865 17.688 100.605 17.88 100.285 18C99.9725 18.128 99.6445 18.192 99.3005 18.192ZM104.651 18.192C104.467 18.192 104.279 18.164 104.087 18.108C103.895 18.06 103.715 17.96 103.547 17.808C103.387 17.656 103.259 17.436 103.163 17.148C103.067 16.852 103.019 16.464 103.019 15.984L103.043 12.504L102.119 12.516V12C102.327 11.992 102.539 11.916 102.755 11.772C102.971 11.62 103.163 11.416 103.331 11.16C103.507 10.904 103.627 10.624 103.691 10.32H104.099V12H106.115V12.468L104.099 12.492L104.075 15.828C104.075 16.188 104.103 16.496 104.159 16.752C104.223 17 104.323 17.188 104.459 17.316C104.595 17.444 104.771 17.508 104.987 17.508C105.211 17.508 105.419 17.444 105.611 17.316C105.811 17.188 105.987 17.012 106.139 16.788L106.463 17.052C106.287 17.316 106.111 17.524 105.935 17.676C105.767 17.828 105.603 17.94 105.443 18.012C105.283 18.092 105.135 18.14 104.999 18.156C104.863 18.18 104.747 18.192 104.651 18.192Z" fill="#777777"/>
<path d="M90.125 33C89.773 33 89.465 32.9303 89.201 32.791C88.937 32.6517 88.7317 32.4537 88.585 32.197C88.4383 31.9403 88.365 31.6397 88.365 31.295V25.872H86.33V24.97H89.355V31.295C89.355 31.5443 89.4247 31.7423 89.564 31.889C89.7033 32.0283 89.8903 32.098 90.125 32.098H92.05V33H90.125ZM93.5307 33V32.098H95.6757V27.852H93.8057V26.95H96.6657V32.098H98.7007V33H93.5307ZM96.0607 25.861C95.8187 25.861 95.628 25.7987 95.4887 25.674C95.3494 25.5493 95.2797 25.3807 95.2797 25.168C95.2797 24.948 95.3494 24.7757 95.4887 24.651C95.628 24.519 95.8187 24.453 96.0607 24.453C96.3027 24.453 96.4934 24.519 96.6327 24.651C96.772 24.7757 96.8417 24.948 96.8417 25.168C96.8417 25.3807 96.772 25.5493 96.6327 25.674C96.4934 25.7987 96.3027 25.861 96.0607 25.861ZM102.304 33.088C101.894 33.088 101.534 33.0257 101.226 32.901C100.926 32.769 100.684 32.5857 100.5 32.351C100.324 32.1163 100.218 31.8377 100.181 31.515H101.171C101.215 31.7277 101.333 31.8963 101.523 32.021C101.721 32.1457 101.982 32.208 102.304 32.208H102.766C103.155 32.208 103.445 32.131 103.635 31.977C103.826 31.8157 103.921 31.603 103.921 31.339C103.921 31.0823 103.833 30.8807 103.657 30.734C103.489 30.58 103.236 30.4773 102.898 30.426L102.084 30.294C101.49 30.1913 101.047 30.008 100.753 29.744C100.467 29.4727 100.324 29.0803 100.324 28.567C100.324 28.0243 100.497 27.6063 100.841 27.313C101.186 27.0123 101.703 26.862 102.392 26.862H102.81C103.39 26.862 103.855 26.9977 104.207 27.269C104.559 27.5403 104.772 27.907 104.845 28.369H103.855C103.811 28.1783 103.701 28.028 103.525 27.918C103.349 27.8007 103.111 27.742 102.81 27.742H102.392C102.018 27.742 101.743 27.8117 101.567 27.951C101.399 28.0903 101.314 28.2993 101.314 28.578C101.314 28.8273 101.388 29.0107 101.534 29.128C101.681 29.2453 101.912 29.3297 102.227 29.381L103.041 29.513C103.694 29.6157 104.167 29.8063 104.46 30.085C104.761 30.3637 104.911 30.767 104.911 31.295C104.911 31.8523 104.732 32.2923 104.372 32.615C104.02 32.9303 103.485 33.088 102.766 33.088H102.304ZM109.747 33C109.226 33 108.819 32.8607 108.526 32.582C108.24 32.3033 108.097 31.911 108.097 31.405V27.852H106.392V26.95H108.097V25.245H109.087V26.95H111.507V27.852H109.087V31.405C109.087 31.867 109.307 32.098 109.747 32.098H111.397V33H109.747ZM113.923 29.81V28.93H117.443V29.81H113.923ZM119.991 34.98V26.95H120.981V28.105H121.179L120.981 28.336C120.981 27.874 121.131 27.511 121.432 27.247C121.74 26.9757 122.143 26.84 122.642 26.84C123.25 26.84 123.734 27.0417 124.094 27.445C124.46 27.841 124.644 28.3873 124.644 29.084V30.855C124.644 31.317 124.559 31.7167 124.391 32.054C124.229 32.3913 123.998 32.6517 123.698 32.835C123.404 33.0183 123.052 33.11 122.642 33.11C122.15 33.11 121.751 32.9743 121.443 32.703C121.135 32.4317 120.981 32.0687 120.981 31.614L121.179 31.845H120.959L120.981 33.22V34.98H119.991ZM122.312 32.252C122.73 32.252 123.056 32.1273 123.291 31.878C123.533 31.6287 123.654 31.2693 123.654 30.8V29.15C123.654 28.6807 123.533 28.3213 123.291 28.072C123.056 27.8227 122.73 27.698 122.312 27.698C121.908 27.698 121.586 27.8263 121.344 28.083C121.102 28.3397 120.981 28.6953 120.981 29.15V30.8C120.981 31.2547 121.102 31.6103 121.344 31.867C121.586 32.1237 121.908 32.252 122.312 32.252ZM128.863 33.11C128.167 33.11 127.609 32.9047 127.191 32.494C126.773 32.076 126.564 31.5113 126.564 30.8V26.95H127.554V30.8C127.554 31.2547 127.672 31.6103 127.906 31.867C128.141 32.1163 128.46 32.241 128.863 32.241C129.274 32.241 129.597 32.1163 129.831 31.867C130.073 31.6103 130.194 31.2547 130.194 30.8V26.95H131.184V30.8C131.184 31.5113 130.972 32.076 130.546 32.494C130.121 32.9047 129.56 33.11 128.863 33.11ZM135.283 33.088C134.872 33.088 134.513 33.0257 134.205 32.901C133.904 32.769 133.662 32.5857 133.479 32.351C133.303 32.1163 133.197 31.8377 133.16 31.515H134.15C134.194 31.7277 134.311 31.8963 134.502 32.021C134.7 32.1457 134.96 32.208 135.283 32.208H135.745C136.134 32.208 136.423 32.131 136.614 31.977C136.805 31.8157 136.9 31.603 136.9 31.339C136.9 31.0823 136.812 30.8807 136.636 30.734C136.467 30.58 136.214 30.4773 135.877 30.426L135.063 30.294C134.469 30.1913 134.025 30.008 133.732 29.744C133.446 29.4727 133.303 29.0803 133.303 28.567C133.303 28.0243 133.475 27.6063 133.82 27.313C134.165 27.0123 134.682 26.862 135.371 26.862H135.789C136.368 26.862 136.834 26.9977 137.186 27.269C137.538 27.5403 137.751 27.907 137.824 28.369H136.834C136.79 28.1783 136.68 28.028 136.504 27.918C136.328 27.8007 136.09 27.742 135.789 27.742H135.371C134.997 27.742 134.722 27.8117 134.546 27.951C134.377 28.0903 134.293 28.2993 134.293 28.578C134.293 28.8273 134.366 29.0107 134.513 29.128C134.66 29.2453 134.891 29.3297 135.206 29.381L136.02 29.513C136.673 29.6157 137.146 29.8063 137.439 30.085C137.74 30.3637 137.89 30.767 137.89 31.295C137.89 31.8523 137.71 32.2923 137.351 32.615C136.999 32.9303 136.464 33.088 135.745 33.088H135.283ZM139.778 33V24.97H140.768V26.95V28.105H140.977L140.768 28.336C140.768 27.8593 140.911 27.4927 141.197 27.236C141.483 26.972 141.879 26.84 142.385 26.84C142.993 26.84 143.477 27.027 143.837 27.401C144.196 27.775 144.376 28.2847 144.376 28.93V33H143.386V29.04C143.386 28.6073 143.268 28.2737 143.034 28.039C142.806 27.797 142.495 27.676 142.099 27.676C141.688 27.676 141.362 27.8043 141.12 28.061C140.885 28.3177 140.768 28.6807 140.768 29.15V33H139.778Z" fill="black"/>
<path d="M90.125 51C89.773 51 89.465 50.9303 89.201 50.791C88.937 50.6517 88.7317 50.4537 88.585 50.197C88.4383 49.9403 88.365 49.6397 88.365 49.295V43.872H86.33V42.97H89.355V49.295C89.355 49.5443 89.4247 49.7423 89.564 49.889C89.7033 50.0283 89.8903 50.098 90.125 50.098H92.05V51H90.125ZM93.5307 51V50.098H95.6757V45.852H93.8057V44.95H96.6657V50.098H98.7007V51H93.5307ZM96.0607 43.861C95.8187 43.861 95.628 43.7987 95.4887 43.674C95.3494 43.5493 95.2797 43.3807 95.2797 43.168C95.2797 42.948 95.3494 42.7757 95.4887 42.651C95.628 42.519 95.8187 42.453 96.0607 42.453C96.3027 42.453 96.4934 42.519 96.6327 42.651C96.772 42.7757 96.8417 42.948 96.8417 43.168C96.8417 43.3807 96.772 43.5493 96.6327 43.674C96.4934 43.7987 96.3027 43.861 96.0607 43.861ZM102.304 51.088C101.894 51.088 101.534 51.0257 101.226 50.901C100.926 50.769 100.684 50.5857 100.5 50.351C100.324 50.1163 100.218 49.8377 100.181 49.515H101.171C101.215 49.7277 101.333 49.8963 101.523 50.021C101.721 50.1457 101.982 50.208 102.304 50.208H102.766C103.155 50.208 103.445 50.131 103.635 49.977C103.826 49.8157 103.921 49.603 103.921 49.339C103.921 49.0823 103.833 48.8807 103.657 48.734C103.489 48.58 103.236 48.4773 102.898 48.426L102.084 48.294C101.49 48.1913 101.047 48.008 100.753 47.744C100.467 47.4727 100.324 47.0803 100.324 46.567C100.324 46.0243 100.497 45.6063 100.841 45.313C101.186 45.0123 101.703 44.862 102.392 44.862H102.81C103.39 44.862 103.855 44.9977 104.207 45.269C104.559 45.5403 104.772 45.907 104.845 46.369H103.855C103.811 46.1783 103.701 46.028 103.525 45.918C103.349 45.8007 103.111 45.742 102.81 45.742H102.392C102.018 45.742 101.743 45.8117 101.567 45.951C101.399 46.0903 101.314 46.2993 101.314 46.578C101.314 46.8273 101.388 47.0107 101.534 47.128C101.681 47.2453 101.912 47.3297 102.227 47.381L103.041 47.513C103.694 47.6157 104.167 47.8063 104.46 48.085C104.761 48.3637 104.911 48.767 104.911 49.295C104.911 49.8523 104.732 50.2923 104.372 50.615C104.02 50.9303 103.485 51.088 102.766 51.088H102.304ZM109.747 51C109.226 51 108.819 50.8607 108.526 50.582C108.24 50.3033 108.097 49.911 108.097 49.405V45.852H106.392V44.95H108.097V43.245H109.087V44.95H111.507V45.852H109.087V49.405C109.087 49.867 109.307 50.098 109.747 50.098H111.397V51H109.747ZM113.923 47.81V46.93H117.443V47.81H113.923ZM120.2 51V44.95H121.168V46.105H121.399L121.08 46.82C121.08 46.1673 121.219 45.676 121.498 45.346C121.784 45.0087 122.205 44.84 122.763 44.84C123.401 44.84 123.907 45.0417 124.281 45.445C124.662 45.841 124.853 46.38 124.853 47.062V47.425H123.863V47.15C123.863 46.6733 123.745 46.3103 123.511 46.061C123.283 45.8043 122.957 45.676 122.532 45.676C122.114 45.676 121.784 45.8043 121.542 46.061C121.307 46.3177 121.19 46.6807 121.19 47.15V51H120.2ZM128.874 51.11C128.398 51.11 127.98 51.0147 127.62 50.824C127.268 50.6333 126.993 50.3657 126.795 50.021C126.605 49.669 126.509 49.262 126.509 48.8V47.15C126.509 46.6807 126.605 46.2737 126.795 45.929C126.993 45.5843 127.268 45.3167 127.62 45.126C127.98 44.9353 128.398 44.84 128.874 44.84C129.351 44.84 129.765 44.9353 130.117 45.126C130.477 45.3167 130.752 45.5843 130.942 45.929C131.14 46.2737 131.239 46.6807 131.239 47.15V48.217H127.477V48.8C127.477 49.2767 127.598 49.6433 127.84 49.9C128.082 50.1493 128.427 50.274 128.874 50.274C129.256 50.274 129.564 50.208 129.798 50.076C130.033 49.9367 130.176 49.7313 130.227 49.46H131.217C131.151 49.966 130.902 50.3693 130.469 50.67C130.044 50.9633 129.512 51.11 128.874 51.11ZM130.271 47.557V47.15C130.271 46.6733 130.15 46.3067 129.908 46.05C129.674 45.7933 129.329 45.665 128.874 45.665C128.427 45.665 128.082 45.7933 127.84 46.05C127.598 46.3067 127.477 46.6733 127.477 47.15V47.469H130.348L130.271 47.557ZM134.942 51.11C134.304 51.11 133.802 50.9487 133.435 50.626C133.068 50.296 132.885 49.8523 132.885 49.295C132.885 48.7303 133.068 48.2867 133.435 47.964C133.802 47.6413 134.297 47.48 134.92 47.48H136.79V46.875C136.79 46.501 136.676 46.215 136.449 46.017C136.229 45.8117 135.914 45.709 135.503 45.709C135.144 45.709 134.843 45.786 134.601 45.94C134.359 46.0867 134.22 46.2883 134.183 46.545H133.193C133.259 46.0243 133.505 45.61 133.93 45.302C134.355 44.994 134.887 44.84 135.525 44.84C136.222 44.84 136.772 45.0197 137.175 45.379C137.578 45.7383 137.78 46.226 137.78 46.842V51H136.812V49.845H136.647L136.812 49.68C136.812 50.12 136.64 50.4683 136.295 50.725C135.958 50.9817 135.507 51.11 134.942 51.11ZM135.184 50.329C135.653 50.329 136.038 50.2117 136.339 49.977C136.64 49.7423 136.79 49.4417 136.79 49.075V48.217H134.942C134.612 48.217 134.352 48.3087 134.161 48.492C133.97 48.6753 133.875 48.9247 133.875 49.24C133.875 49.5773 133.989 49.845 134.216 50.043C134.451 50.2337 134.773 50.329 135.184 50.329ZM141.714 51.11C141.112 51.11 140.625 50.9083 140.251 50.505C139.884 50.1017 139.701 49.5553 139.701 48.866V47.095C139.701 46.3983 139.884 45.8483 140.251 45.445C140.617 45.0417 141.105 44.84 141.714 44.84C142.212 44.84 142.612 44.9757 142.913 45.247C143.213 45.5183 143.364 45.8813 143.364 46.336L143.166 46.105H143.386L143.364 44.73V42.97H144.354V51H143.364V49.845H143.166L143.364 49.614C143.364 50.076 143.213 50.4427 142.913 50.714C142.612 50.978 142.212 51.11 141.714 51.11ZM142.044 50.252C142.454 50.252 142.777 50.1237 143.012 49.867C143.246 49.6103 143.364 49.2547 143.364 48.8V47.15C143.364 46.6953 143.246 46.3397 143.012 46.083C142.777 45.8263 142.454 45.698 142.044 45.698C141.626 45.698 141.296 45.8227 141.054 46.072C140.812 46.3213 140.691 46.6807 140.691 47.15V48.8C140.691 49.2693 140.812 49.6287 141.054 49.878C141.296 50.1273 141.626 50.252 142.044 50.252Z" fill="black"/>
<path d="M177.296 12.276C177.216 11.524 176.952 10.94 176.504 10.524C176.064 10.108 175.496 9.9 174.8 9.9C174.376 9.9 173.976 9.992 173.6 10.176C173.232 10.352 172.908 10.608 172.628 10.944C172.348 11.28 172.128 11.684 171.968 12.156C171.808 12.628 171.728 13.16 171.728 13.752C171.728 14.504 171.872 15.168 172.16 15.744C172.448 16.32 172.836 16.768 173.324 17.088C173.812 17.408 174.352 17.568 174.944 17.568C175.464 17.568 175.976 17.452 176.48 17.22C176.984 16.98 177.396 16.636 177.716 16.188L178.028 16.44C177.684 16.912 177.312 17.276 176.912 17.532C176.512 17.788 176.112 17.96 175.712 18.048C175.32 18.144 174.96 18.192 174.632 18.192C174.032 18.192 173.48 18.084 172.976 17.868C172.48 17.652 172.048 17.352 171.68 16.968C171.32 16.576 171.04 16.124 170.84 15.612C170.648 15.092 170.552 14.532 170.552 13.932C170.552 13.364 170.636 12.812 170.804 12.276C170.98 11.74 171.24 11.256 171.584 10.824C171.928 10.392 172.36 10.048 172.88 9.792C173.408 9.536 174.02 9.408 174.716 9.408C175.164 9.408 175.588 9.468 175.988 9.588C176.388 9.708 176.772 9.892 177.14 10.14L177.08 9.492H177.728V12.276H177.296ZM181.895 18.192C181.335 18.192 180.827 18.064 180.371 17.808C179.915 17.544 179.551 17.184 179.279 16.728C179.015 16.264 178.883 15.736 178.883 15.144C178.883 14.512 179.015 13.944 179.279 13.44C179.543 12.936 179.903 12.54 180.359 12.252C180.815 11.956 181.327 11.808 181.895 11.808C182.455 11.808 182.963 11.944 183.419 12.216C183.875 12.48 184.239 12.84 184.511 13.296C184.783 13.752 184.919 14.272 184.919 14.856C184.919 15.472 184.783 16.036 184.511 16.548C184.247 17.052 183.887 17.452 183.431 17.748C182.975 18.044 182.463 18.192 181.895 18.192ZM181.991 17.712C182.415 17.712 182.751 17.592 182.999 17.352C183.247 17.112 183.423 16.8 183.527 16.416C183.639 16.032 183.695 15.628 183.695 15.204C183.695 14.844 183.659 14.492 183.587 14.148C183.523 13.796 183.419 13.48 183.275 13.2C183.131 12.912 182.943 12.684 182.711 12.516C182.487 12.348 182.215 12.264 181.895 12.264C181.479 12.264 181.139 12.384 180.875 12.624C180.611 12.864 180.415 13.176 180.287 13.56C180.167 13.944 180.107 14.356 180.107 14.796C180.107 15.292 180.175 15.764 180.311 16.212C180.447 16.652 180.655 17.012 180.935 17.292C181.215 17.572 181.567 17.712 181.991 17.712ZM185.938 18V17.64C186.186 17.64 186.358 17.58 186.454 17.46C186.55 17.332 186.606 17.16 186.622 16.944C186.638 16.72 186.646 16.464 186.646 16.176L186.658 13.44C186.658 13.312 186.658 13.184 186.658 13.056C186.666 12.928 186.682 12.796 186.706 12.66C186.562 12.668 186.418 12.676 186.274 12.684C186.138 12.692 185.998 12.7 185.854 12.708V12.204C186.206 12.204 186.47 12.188 186.646 12.156C186.83 12.124 186.966 12.084 187.054 12.036C187.142 11.988 187.214 11.936 187.27 11.88H187.618C187.626 11.936 187.63 12 187.63 12.072C187.638 12.144 187.646 12.224 187.654 12.312C187.662 12.4 187.666 12.5 187.666 12.612C187.842 12.46 188.034 12.324 188.242 12.204C188.458 12.084 188.682 11.988 188.914 11.916C189.154 11.844 189.39 11.808 189.622 11.808C190.318 11.808 190.826 12.028 191.146 12.468C191.466 12.9 191.626 13.576 191.626 14.496V16.728C191.626 16.888 191.622 17.032 191.614 17.16C191.614 17.28 191.602 17.408 191.578 17.544C191.706 17.536 191.83 17.532 191.95 17.532C192.078 17.524 192.206 17.516 192.334 17.508V18H189.886V17.64C190.134 17.64 190.306 17.58 190.402 17.46C190.498 17.332 190.554 17.16 190.57 16.944C190.586 16.72 190.594 16.464 190.594 16.176V14.496C190.586 13.808 190.47 13.288 190.246 12.936C190.03 12.584 189.686 12.412 189.214 12.42C188.926 12.428 188.642 12.504 188.362 12.648C188.09 12.792 187.862 12.976 187.678 13.2C187.686 13.264 187.69 13.336 187.69 13.416C187.69 13.496 187.69 13.58 187.69 13.668L187.678 16.728C187.678 16.888 187.674 17.032 187.666 17.16C187.666 17.28 187.654 17.408 187.63 17.544C187.758 17.536 187.882 17.532 188.002 17.532C188.13 17.524 188.258 17.516 188.386 17.508V18H185.938ZM195.687 18.192C195.287 18.192 194.931 18.136 194.619 18.024C194.307 17.92 194.051 17.8 193.851 17.664L193.899 18.084H193.395L193.323 16.02H193.695C193.711 16.348 193.803 16.644 193.971 16.908C194.139 17.164 194.355 17.364 194.619 17.508C194.883 17.652 195.167 17.724 195.471 17.724C195.679 17.724 195.883 17.692 196.083 17.628C196.283 17.556 196.451 17.452 196.587 17.316C196.723 17.172 196.791 16.992 196.791 16.776C196.791 16.552 196.723 16.368 196.587 16.224C196.459 16.072 196.287 15.94 196.071 15.828C195.855 15.716 195.623 15.612 195.375 15.516C195.135 15.42 194.895 15.32 194.655 15.216C194.415 15.112 194.191 14.988 193.983 14.844C193.783 14.7 193.623 14.524 193.503 14.316C193.383 14.108 193.323 13.852 193.323 13.548C193.323 13.38 193.355 13.196 193.419 12.996C193.483 12.796 193.591 12.608 193.743 12.432C193.895 12.248 194.103 12.1 194.367 11.988C194.631 11.868 194.967 11.808 195.375 11.808C195.591 11.808 195.831 11.844 196.095 11.916C196.359 11.988 196.615 12.124 196.863 12.324L196.839 11.868H197.343V13.968H196.959C196.943 13.688 196.879 13.42 196.767 13.164C196.655 12.9 196.491 12.684 196.275 12.516C196.059 12.34 195.779 12.252 195.435 12.252C195.067 12.252 194.779 12.344 194.571 12.528C194.363 12.712 194.259 12.924 194.259 13.164C194.259 13.412 194.335 13.62 194.487 13.788C194.647 13.948 194.851 14.088 195.099 14.208C195.347 14.328 195.611 14.444 195.891 14.556C196.195 14.684 196.491 14.824 196.779 14.976C197.067 15.128 197.303 15.32 197.487 15.552C197.671 15.776 197.763 16.068 197.763 16.428C197.763 16.828 197.659 17.16 197.451 17.424C197.251 17.688 196.991 17.88 196.671 18C196.359 18.128 196.031 18.192 195.687 18.192ZM201.038 18.192C200.854 18.192 200.666 18.164 200.474 18.108C200.282 18.06 200.102 17.96 199.934 17.808C199.774 17.656 199.646 17.436 199.55 17.148C199.454 16.852 199.406 16.464 199.406 15.984L199.43 12.504L198.506 12.516V12C198.714 11.992 198.926 11.916 199.142 11.772C199.358 11.62 199.55 11.416 199.718 11.16C199.894 10.904 200.014 10.624 200.078 10.32H200.486V12H202.502V12.468L200.486 12.492L200.462 15.828C200.462 16.188 200.49 16.496 200.546 16.752C200.61 17 200.71 17.188 200.846 17.316C200.982 17.444 201.158 17.508 201.374 17.508C201.598 17.508 201.806 17.444 201.998 17.316C202.198 17.188 202.374 17.012 202.526 16.788L202.85 17.052C202.674 17.316 202.498 17.524 202.322 17.676C202.154 17.828 201.99 17.94 201.83 18.012C201.67 18.092 201.522 18.14 201.386 18.156C201.25 18.18 201.134 18.192 201.038 18.192ZM207.071 18C207.047 17.864 207.031 17.744 207.023 17.64C207.015 17.536 207.003 17.428 206.987 17.316C206.715 17.588 206.419 17.804 206.099 17.964C205.787 18.116 205.455 18.192 205.103 18.192C204.495 18.192 204.043 18.056 203.747 17.784C203.451 17.504 203.303 17.164 203.303 16.764C203.303 16.396 203.415 16.08 203.639 15.816C203.871 15.544 204.167 15.324 204.527 15.156C204.895 14.98 205.291 14.852 205.715 14.772C206.147 14.684 206.563 14.644 206.963 14.652V13.908C206.963 13.628 206.939 13.364 206.891 13.116C206.843 12.868 206.739 12.664 206.579 12.504C206.419 12.344 206.163 12.26 205.811 12.252C205.579 12.244 205.339 12.288 205.091 12.384C204.851 12.48 204.675 12.644 204.563 12.876C204.627 12.94 204.667 13.016 204.683 13.104C204.707 13.184 204.719 13.26 204.719 13.332C204.719 13.428 204.679 13.54 204.599 13.668C204.519 13.788 204.379 13.844 204.179 13.836C204.011 13.836 203.883 13.78 203.795 13.668C203.707 13.548 203.663 13.408 203.663 13.248C203.663 12.976 203.763 12.732 203.963 12.516C204.171 12.3 204.455 12.128 204.815 12C205.175 11.872 205.583 11.808 206.039 11.808C206.711 11.808 207.207 11.988 207.527 12.348C207.847 12.7 208.003 13.26 207.995 14.028C207.995 14.324 207.995 14.624 207.995 14.928C207.995 15.224 207.991 15.524 207.983 15.828C207.983 16.124 207.983 16.424 207.983 16.728C207.983 16.856 207.979 16.984 207.971 17.112C207.963 17.24 207.951 17.384 207.935 17.544C208.079 17.536 208.219 17.528 208.355 17.52C208.499 17.512 208.643 17.504 208.787 17.496V18H207.071ZM206.963 15.06C206.691 15.068 206.403 15.104 206.099 15.168C205.803 15.224 205.527 15.312 205.271 15.432C205.023 15.552 204.819 15.712 204.659 15.912C204.507 16.104 204.435 16.34 204.443 16.62C204.459 16.916 204.555 17.14 204.731 17.292C204.915 17.436 205.131 17.508 205.379 17.508C205.707 17.508 205.991 17.448 206.231 17.328C206.479 17.2 206.723 17.024 206.963 16.8C206.955 16.712 206.951 16.616 206.951 16.512C206.951 16.408 206.951 16.3 206.951 16.188C206.951 16.148 206.951 16.02 206.951 15.804C206.959 15.588 206.963 15.34 206.963 15.06ZM209.61 18V17.64C209.858 17.64 210.03 17.58 210.126 17.46C210.222 17.332 210.278 17.16 210.294 16.944C210.31 16.72 210.318 16.464 210.318 16.176L210.33 13.44C210.33 13.312 210.33 13.184 210.33 13.056C210.338 12.928 210.354 12.796 210.378 12.66C210.234 12.668 210.09 12.676 209.946 12.684C209.81 12.692 209.67 12.7 209.526 12.708V12.204C209.878 12.204 210.142 12.188 210.318 12.156C210.502 12.124 210.638 12.084 210.726 12.036C210.814 11.988 210.886 11.936 210.942 11.88H211.29C211.298 11.936 211.302 12 211.302 12.072C211.31 12.144 211.318 12.224 211.326 12.312C211.334 12.4 211.338 12.5 211.338 12.612C211.514 12.46 211.706 12.324 211.914 12.204C212.13 12.084 212.354 11.988 212.586 11.916C212.826 11.844 213.062 11.808 213.294 11.808C213.99 11.808 214.498 12.028 214.818 12.468C215.138 12.9 215.298 13.576 215.298 14.496V16.728C215.298 16.888 215.294 17.032 215.286 17.16C215.286 17.28 215.274 17.408 215.25 17.544C215.378 17.536 215.502 17.532 215.622 17.532C215.75 17.524 215.878 17.516 216.006 17.508V18H213.558V17.64C213.806 17.64 213.978 17.58 214.074 17.46C214.17 17.332 214.226 17.16 214.242 16.944C214.258 16.72 214.266 16.464 214.266 16.176V14.496C214.258 13.808 214.142 13.288 213.918 12.936C213.702 12.584 213.358 12.412 212.886 12.42C212.598 12.428 212.314 12.504 212.034 12.648C211.762 12.792 211.534 12.976 211.35 13.2C211.358 13.264 211.362 13.336 211.362 13.416C211.362 13.496 211.362 13.58 211.362 13.668L211.35 16.728C211.35 16.888 211.346 17.032 211.338 17.16C211.338 17.28 211.326 17.408 211.302 17.544C211.43 17.536 211.554 17.532 211.674 17.532C211.802 17.524 211.93 17.516 212.058 17.508V18H209.61ZM219.05 18.192C218.866 18.192 218.678 18.164 218.486 18.108C218.294 18.06 218.114 17.96 217.946 17.808C217.786 17.656 217.658 17.436 217.562 17.148C217.466 16.852 217.418 16.464 217.418 15.984L217.442 12.504L216.518 12.516V12C216.726 11.992 216.938 11.916 217.154 11.772C217.37 11.62 217.562 11.416 217.73 11.16C217.906 10.904 218.026 10.624 218.09 10.32H218.498V12H220.514V12.468L218.498 12.492L218.474 15.828C218.474 16.188 218.502 16.496 218.558 16.752C218.622 17 218.722 17.188 218.858 17.316C218.994 17.444 219.17 17.508 219.386 17.508C219.61 17.508 219.818 17.444 220.01 17.316C220.21 17.188 220.386 17.012 220.538 16.788L220.862 17.052C220.686 17.316 220.51 17.524 220.334 17.676C220.166 17.828 220.002 17.94 219.842 18.012C219.682 18.092 219.534 18.14 219.398 18.156C219.262 18.18 219.146 18.192 219.05 18.192Z" fill="#777777"/>
<path d="M173.344 33.11C172.86 33.11 172.435 33.0183 172.068 32.835C171.709 32.6517 171.43 32.3877 171.232 32.043C171.034 31.691 170.935 31.2767 170.935 30.8V29.15C170.935 28.666 171.034 28.2517 171.232 27.907C171.43 27.5623 171.709 27.2983 172.068 27.115C172.435 26.9317 172.86 26.84 173.344 26.84C174.041 26.84 174.602 27.027 175.027 27.401C175.452 27.775 175.676 28.2847 175.698 28.93H174.708C174.686 28.5413 174.554 28.2443 174.312 28.039C174.077 27.8263 173.755 27.72 173.344 27.72C172.911 27.72 172.567 27.8447 172.31 28.094C172.053 28.336 171.925 28.6843 171.925 29.139V30.8C171.925 31.2547 172.053 31.6067 172.31 31.856C172.567 32.1053 172.911 32.23 173.344 32.23C173.755 32.23 174.077 32.1237 174.312 31.911C174.554 31.6983 174.686 31.4013 174.708 31.02H175.698C175.676 31.6653 175.452 32.175 175.027 32.549C174.602 32.923 174.041 33.11 173.344 33.11ZM179.896 33.088C179.412 33.088 178.994 32.9963 178.642 32.813C178.29 32.6297 178.015 32.3657 177.817 32.021C177.626 31.669 177.531 31.2547 177.531 30.778V29.172C177.531 28.688 177.626 28.2737 177.817 27.929C178.015 27.5843 178.29 27.3203 178.642 27.137C178.994 26.9537 179.412 26.862 179.896 26.862C180.38 26.862 180.798 26.9537 181.15 27.137C181.502 27.3203 181.773 27.5843 181.964 27.929C182.162 28.2737 182.261 28.6843 182.261 29.161V30.778C182.261 31.2547 182.162 31.669 181.964 32.021C181.773 32.3657 181.502 32.6297 181.15 32.813C180.798 32.9963 180.38 33.088 179.896 33.088ZM179.896 32.208C180.328 32.208 180.666 32.087 180.908 31.845C181.15 31.603 181.271 31.2473 181.271 30.778V29.172C181.271 28.7027 181.15 28.347 180.908 28.105C180.666 27.863 180.328 27.742 179.896 27.742C179.47 27.742 179.133 27.863 178.884 28.105C178.642 28.347 178.521 28.7027 178.521 29.172V30.778C178.521 31.2473 178.642 31.603 178.884 31.845C179.133 32.087 179.47 32.208 179.896 32.208ZM184.203 33V26.95H185.193V28.105H185.402L185.193 28.336C185.193 27.8593 185.336 27.4927 185.622 27.236C185.908 26.972 186.304 26.84 186.81 26.84C187.419 26.84 187.903 27.027 188.262 27.401C188.622 27.775 188.801 28.2847 188.801 28.93V33H187.811V29.04C187.811 28.6073 187.694 28.2773 187.459 28.05C187.232 27.8153 186.92 27.698 186.524 27.698C186.114 27.698 185.787 27.8227 185.545 28.072C185.311 28.3213 185.193 28.6807 185.193 29.15V33H184.203ZM192.9 33.088C192.489 33.088 192.13 33.0257 191.822 32.901C191.521 32.769 191.279 32.5857 191.096 32.351C190.92 32.1163 190.814 31.8377 190.777 31.515H191.767C191.811 31.7277 191.928 31.8963 192.119 32.021C192.317 32.1457 192.577 32.208 192.9 32.208H193.362C193.751 32.208 194.04 32.131 194.231 31.977C194.422 31.8157 194.517 31.603 194.517 31.339C194.517 31.0823 194.429 30.8807 194.253 30.734C194.084 30.58 193.831 30.4773 193.494 30.426L192.68 30.294C192.086 30.1913 191.642 30.008 191.349 29.744C191.063 29.4727 190.92 29.0803 190.92 28.567C190.92 28.0243 191.092 27.6063 191.437 27.313C191.782 27.0123 192.299 26.862 192.988 26.862H193.406C193.985 26.862 194.451 26.9977 194.803 27.269C195.155 27.5403 195.368 27.907 195.441 28.369H194.451C194.407 28.1783 194.297 28.028 194.121 27.918C193.945 27.8007 193.707 27.742 193.406 27.742H192.988C192.614 27.742 192.339 27.8117 192.163 27.951C191.994 28.0903 191.91 28.2993 191.91 28.578C191.91 28.8273 191.983 29.0107 192.13 29.128C192.277 29.2453 192.508 29.3297 192.823 29.381L193.637 29.513C194.29 29.6157 194.763 29.8063 195.056 30.085C195.357 30.3637 195.507 30.767 195.507 31.295C195.507 31.8523 195.327 32.2923 194.968 32.615C194.616 32.9303 194.081 33.088 193.362 33.088H192.9ZM200.343 33C199.822 33 199.415 32.8607 199.122 32.582C198.836 32.3033 198.693 31.911 198.693 31.405V27.852H196.988V26.95H198.693V25.245H199.683V26.95H202.103V27.852H199.683V31.405C199.683 31.867 199.903 32.098 200.343 32.098H201.993V33H200.343ZM204.519 29.81V28.93H208.039V29.81H204.519ZM212.522 33.11C211.921 33.11 211.433 32.9083 211.059 32.505C210.693 32.1017 210.509 31.5553 210.509 30.866V29.095C210.509 28.3983 210.693 27.8483 211.059 27.445C211.426 27.0417 211.914 26.84 212.522 26.84C213.021 26.84 213.421 26.9757 213.721 27.247C214.022 27.5183 214.172 27.8813 214.172 28.336L213.974 28.105H214.194L214.172 26.73V24.97H215.162V33H214.172V31.845H213.974L214.172 31.614C214.172 32.076 214.022 32.4427 213.721 32.714C213.421 32.978 213.021 33.11 212.522 33.11ZM212.852 32.252C213.263 32.252 213.586 32.1237 213.82 31.867C214.055 31.6103 214.172 31.2547 214.172 30.8V29.15C214.172 28.6953 214.055 28.3397 213.82 28.083C213.586 27.8263 213.263 27.698 212.852 27.698C212.434 27.698 212.104 27.8227 211.862 28.072C211.62 28.3213 211.499 28.6807 211.499 29.15V30.8C211.499 31.2693 211.62 31.6287 211.862 31.878C212.104 32.1273 212.434 32.252 212.852 32.252ZM219.47 33.11C218.993 33.11 218.575 33.0147 218.216 32.824C217.864 32.6333 217.589 32.3657 217.391 32.021C217.2 31.669 217.105 31.262 217.105 30.8V29.15C217.105 28.6807 217.2 28.2737 217.391 27.929C217.589 27.5843 217.864 27.3167 218.216 27.126C218.575 26.9353 218.993 26.84 219.47 26.84C219.947 26.84 220.361 26.9353 220.713 27.126C221.072 27.3167 221.347 27.5843 221.538 27.929C221.736 28.2737 221.835 28.6807 221.835 29.15V30.217H218.073V30.8C218.073 31.2767 218.194 31.6433 218.436 31.9C218.678 32.1493 219.023 32.274 219.47 32.274C219.851 32.274 220.159 32.208 220.394 32.076C220.629 31.9367 220.772 31.7313 220.823 31.46H221.813C221.747 31.966 221.498 32.3693 221.065 32.67C220.64 32.9633 220.108 33.11 219.47 33.11ZM220.867 29.557V29.15C220.867 28.6733 220.746 28.3067 220.504 28.05C220.269 27.7933 219.925 27.665 219.47 27.665C219.023 27.665 218.678 27.7933 218.436 28.05C218.194 28.3067 218.073 28.6733 218.073 29.15V29.469H220.944L220.867 29.557ZM226.11 33.11C225.626 33.11 225.2 33.0183 224.834 32.835C224.474 32.6517 224.196 32.3877 223.998 32.043C223.8 31.691 223.701 31.2767 223.701 30.8V29.15C223.701 28.666 223.8 28.2517 223.998 27.907C224.196 27.5623 224.474 27.2983 224.834 27.115C225.2 26.9317 225.626 26.84 226.11 26.84C226.806 26.84 227.367 27.027 227.793 27.401C228.218 27.775 228.442 28.2847 228.464 28.93H227.474C227.452 28.5413 227.32 28.2443 227.078 28.039C226.843 27.8263 226.52 27.72 226.11 27.72C225.677 27.72 225.332 27.8447 225.076 28.094C224.819 28.336 224.691 28.6843 224.691 29.139V30.8C224.691 31.2547 224.819 31.6067 225.076 31.856C225.332 32.1053 225.677 32.23 226.11 32.23C226.52 32.23 226.843 32.1237 227.078 31.911C227.32 31.6983 227.452 31.4013 227.474 31.02H228.464C228.442 31.6653 228.218 32.175 227.793 32.549C227.367 32.923 226.806 33.11 226.11 33.11ZM233.486 33C233.134 33 232.826 32.9303 232.562 32.791C232.298 32.6517 232.093 32.4537 231.946 32.197C231.8 31.9403 231.726 31.6397 231.726 31.295V25.872H229.691V24.97H232.716V31.295C232.716 31.5443 232.786 31.7423 232.925 31.889C233.065 32.0283 233.252 32.098 233.486 32.098H235.411V33H233.486Z" fill="black"/>
<path d="M173.344 51.11C172.86 51.11 172.435 51.0183 172.068 50.835C171.709 50.6517 171.43 50.3877 171.232 50.043C171.034 49.691 170.935 49.2767 170.935 48.8V47.15C170.935 46.666 171.034 46.2517 171.232 45.907C171.43 45.5623 171.709 45.2983 172.068 45.115C172.435 44.9317 172.86 44.84 173.344 44.84C174.041 44.84 174.602 45.027 175.027 45.401C175.452 45.775 175.676 46.2847 175.698 46.93H174.708C174.686 46.5413 174.554 46.2443 174.312 46.039C174.077 45.8263 173.755 45.72 173.344 45.72C172.911 45.72 172.567 45.8447 172.31 46.094C172.053 46.336 171.925 46.6843 171.925 47.139V48.8C171.925 49.2547 172.053 49.6067 172.31 49.856C172.567 50.1053 172.911 50.23 173.344 50.23C173.755 50.23 174.077 50.1237 174.312 49.911C174.554 49.6983 174.686 49.4013 174.708 49.02H175.698C175.676 49.6653 175.452 50.175 175.027 50.549C174.602 50.923 174.041 51.11 173.344 51.11ZM179.896 51.088C179.412 51.088 178.994 50.9963 178.642 50.813C178.29 50.6297 178.015 50.3657 177.817 50.021C177.626 49.669 177.531 49.2547 177.531 48.778V47.172C177.531 46.688 177.626 46.2737 177.817 45.929C178.015 45.5843 178.29 45.3203 178.642 45.137C178.994 44.9537 179.412 44.862 179.896 44.862C180.38 44.862 180.798 44.9537 181.15 45.137C181.502 45.3203 181.773 45.5843 181.964 45.929C182.162 46.2737 182.261 46.6843 182.261 47.161V48.778C182.261 49.2547 182.162 49.669 181.964 50.021C181.773 50.3657 181.502 50.6297 181.15 50.813C180.798 50.9963 180.38 51.088 179.896 51.088ZM179.896 50.208C180.328 50.208 180.666 50.087 180.908 49.845C181.15 49.603 181.271 49.2473 181.271 48.778V47.172C181.271 46.7027 181.15 46.347 180.908 46.105C180.666 45.863 180.328 45.742 179.896 45.742C179.47 45.742 179.133 45.863 178.884 46.105C178.642 46.347 178.521 46.7027 178.521 47.172V48.778C178.521 49.2473 178.642 49.603 178.884 49.845C179.133 50.087 179.47 50.208 179.896 50.208ZM184.203 51V44.95H185.193V46.105H185.402L185.193 46.336C185.193 45.8593 185.336 45.4927 185.622 45.236C185.908 44.972 186.304 44.84 186.81 44.84C187.419 44.84 187.903 45.027 188.262 45.401C188.622 45.775 188.801 46.2847 188.801 46.93V51H187.811V47.04C187.811 46.6073 187.694 46.2773 187.459 46.05C187.232 45.8153 186.92 45.698 186.524 45.698C186.114 45.698 185.787 45.8227 185.545 46.072C185.311 46.3213 185.193 46.6807 185.193 47.15V51H184.203ZM192.9 51.088C192.489 51.088 192.13 51.0257 191.822 50.901C191.521 50.769 191.279 50.5857 191.096 50.351C190.92 50.1163 190.814 49.8377 190.777 49.515H191.767C191.811 49.7277 191.928 49.8963 192.119 50.021C192.317 50.1457 192.577 50.208 192.9 50.208H193.362C193.751 50.208 194.04 50.131 194.231 49.977C194.422 49.8157 194.517 49.603 194.517 49.339C194.517 49.0823 194.429 48.8807 194.253 48.734C194.084 48.58 193.831 48.4773 193.494 48.426L192.68 48.294C192.086 48.1913 191.642 48.008 191.349 47.744C191.063 47.4727 190.92 47.0803 190.92 46.567C190.92 46.0243 191.092 45.6063 191.437 45.313C191.782 45.0123 192.299 44.862 192.988 44.862H193.406C193.985 44.862 194.451 44.9977 194.803 45.269C195.155 45.5403 195.368 45.907 195.441 46.369H194.451C194.407 46.1783 194.297 46.028 194.121 45.918C193.945 45.8007 193.707 45.742 193.406 45.742H192.988C192.614 45.742 192.339 45.8117 192.163 45.951C191.994 46.0903 191.91 46.2993 191.91 46.578C191.91 46.8273 191.983 47.0107 192.13 47.128C192.277 47.2453 192.508 47.3297 192.823 47.381L193.637 47.513C194.29 47.6157 194.763 47.8063 195.056 48.085C195.357 48.3637 195.507 48.767 195.507 49.295C195.507 49.8523 195.327 50.2923 194.968 50.615C194.616 50.9303 194.081 51.088 193.362 51.088H192.9ZM200.343 51C199.822 51 199.415 50.8607 199.122 50.582C198.836 50.3033 198.693 49.911 198.693 49.405V45.852H196.988V44.95H198.693V43.245H199.683V44.95H202.103V45.852H199.683V49.405C199.683 49.867 199.903 50.098 200.343 50.098H201.993V51H200.343ZM204.519 47.81V46.93H208.039V47.81H204.519ZM210.795 51V44.95H211.763V46.105H211.994L211.675 46.82C211.675 46.1673 211.815 45.676 212.093 45.346C212.379 45.0087 212.801 44.84 213.358 44.84C213.996 44.84 214.502 45.0417 214.876 45.445C215.258 45.841 215.448 46.38 215.448 47.062V47.425H214.458V47.15C214.458 46.6733 214.341 46.3103 214.106 46.061C213.879 45.8043 213.553 45.676 213.127 45.676C212.709 45.676 212.379 45.8043 212.137 46.061C211.903 46.3177 211.785 46.6807 211.785 47.15V51H210.795ZM219.47 51.11C218.993 51.11 218.575 51.0147 218.216 50.824C217.864 50.6333 217.589 50.3657 217.391 50.021C217.2 49.669 217.105 49.262 217.105 48.8V47.15C217.105 46.6807 217.2 46.2737 217.391 45.929C217.589 45.5843 217.864 45.3167 218.216 45.126C218.575 44.9353 218.993 44.84 219.47 44.84C219.947 44.84 220.361 44.9353 220.713 45.126C221.072 45.3167 221.347 45.5843 221.538 45.929C221.736 46.2737 221.835 46.6807 221.835 47.15V48.217H218.073V48.8C218.073 49.2767 218.194 49.6433 218.436 49.9C218.678 50.1493 219.023 50.274 219.47 50.274C219.851 50.274 220.159 50.208 220.394 50.076C220.629 49.9367 220.772 49.7313 220.823 49.46H221.813C221.747 49.966 221.498 50.3693 221.065 50.67C220.64 50.9633 220.108 51.11 219.47 51.11ZM220.867 47.557V47.15C220.867 46.6733 220.746 46.3067 220.504 46.05C220.269 45.7933 219.925 45.665 219.47 45.665C219.023 45.665 218.678 45.7933 218.436 46.05C218.194 46.3067 218.073 46.6733 218.073 47.15V47.469H220.944L220.867 47.557ZM225.538 51.11C224.9 51.11 224.397 50.9487 224.031 50.626C223.664 50.296 223.481 49.8523 223.481 49.295C223.481 48.7303 223.664 48.2867 224.031 47.964C224.397 47.6413 224.892 47.48 225.516 47.48H227.386V46.875C227.386 46.501 227.272 46.215 227.045 46.017C226.825 45.8117 226.509 45.709 226.099 45.709C225.739 45.709 225.439 45.786 225.197 45.94C224.955 46.0867 224.815 46.2883 224.779 46.545H223.789C223.855 46.0243 224.1 45.61 224.526 45.302C224.951 44.994 225.483 44.84 226.121 44.84C226.817 44.84 227.367 45.0197 227.771 45.379C228.174 45.7383 228.376 46.226 228.376 46.842V51H227.408V49.845H227.243L227.408 49.68C227.408 50.12 227.235 50.4683 226.891 50.725C226.553 50.9817 226.102 51.11 225.538 51.11ZM225.78 50.329C226.249 50.329 226.634 50.2117 226.935 49.977C227.235 49.7423 227.386 49.4417 227.386 49.075V48.217H225.538C225.208 48.217 224.947 48.3087 224.757 48.492C224.566 48.6753 224.471 48.9247 224.471 49.24C224.471 49.5773 224.584 49.845 224.812 50.043C225.046 50.2337 225.369 50.329 225.78 50.329ZM232.309 51.11C231.708 51.11 231.22 50.9083 230.846 50.505C230.48 50.1017 230.296 49.5553 230.296 48.866V47.095C230.296 46.3983 230.48 45.8483 230.846 45.445C231.213 45.0417 231.701 44.84 232.309 44.84C232.808 44.84 233.208 44.9757 233.508 45.247C233.809 45.5183 233.959 45.8813 233.959 46.336L233.761 46.105H233.981L233.959 44.73V42.97H234.949V51H233.959V49.845H233.761L233.959 49.614C233.959 50.076 233.809 50.4427 233.508 50.714C233.208 50.978 232.808 51.11 232.309 51.11ZM232.639 50.252C233.05 50.252 233.373 50.1237 233.607 49.867C233.842 49.6103 233.959 49.2547 233.959 48.8V47.15C233.959 46.6953 233.842 46.3397 233.607 46.083C233.373 45.8263 233.05 45.698 232.639 45.698C232.221 45.698 231.891 45.8227 231.649 46.072C231.407 46.3213 231.286 46.6807 231.286 47.15V48.8C231.286 49.2693 231.407 49.6287 231.649 49.878C231.891 50.1273 232.221 50.252 232.639 50.252Z" fill="black"/>
<path d="M263.296 12.276C263.216 11.524 262.952 10.94 262.504 10.524C262.064 10.108 261.496 9.9 260.8 9.9C260.376 9.9 259.976 9.992 259.6 10.176C259.232 10.352 258.908 10.608 258.628 10.944C258.348 11.28 258.128 11.684 257.968 12.156C257.808 12.628 257.728 13.16 257.728 13.752C257.728 14.504 257.872 15.168 258.16 15.744C258.448 16.32 258.836 16.768 259.324 17.088C259.812 17.408 260.352 17.568 260.944 17.568C261.464 17.568 261.976 17.452 262.48 17.22C262.984 16.98 263.396 16.636 263.716 16.188L264.028 16.44C263.684 16.912 263.312 17.276 262.912 17.532C262.512 17.788 262.112 17.96 261.712 18.048C261.32 18.144 260.96 18.192 260.632 18.192C260.032 18.192 259.48 18.084 258.976 17.868C258.48 17.652 258.048 17.352 257.68 16.968C257.32 16.576 257.04 16.124 256.84 15.612C256.648 15.092 256.552 14.532 256.552 13.932C256.552 13.364 256.636 12.812 256.804 12.276C256.98 11.74 257.24 11.256 257.584 10.824C257.928 10.392 258.36 10.048 258.88 9.792C259.408 9.536 260.02 9.408 260.716 9.408C261.164 9.408 261.588 9.468 261.988 9.588C262.388 9.708 262.772 9.892 263.14 10.14L263.08 9.492H263.728V12.276H263.296ZM267.895 18.192C267.335 18.192 266.827 18.064 266.371 17.808C265.915 17.544 265.551 17.184 265.279 16.728C265.015 16.264 264.883 15.736 264.883 15.144C264.883 14.512 265.015 13.944 265.279 13.44C265.543 12.936 265.903 12.54 266.359 12.252C266.815 11.956 267.327 11.808 267.895 11.808C268.455 11.808 268.963 11.944 269.419 12.216C269.875 12.48 270.239 12.84 270.511 13.296C270.783 13.752 270.919 14.272 270.919 14.856C270.919 15.472 270.783 16.036 270.511 16.548C270.247 17.052 269.887 17.452 269.431 17.748C268.975 18.044 268.463 18.192 267.895 18.192ZM267.991 17.712C268.415 17.712 268.751 17.592 268.999 17.352C269.247 17.112 269.423 16.8 269.527 16.416C269.639 16.032 269.695 15.628 269.695 15.204C269.695 14.844 269.659 14.492 269.587 14.148C269.523 13.796 269.419 13.48 269.275 13.2C269.131 12.912 268.943 12.684 268.711 12.516C268.487 12.348 268.215 12.264 267.895 12.264C267.479 12.264 267.139 12.384 266.875 12.624C266.611 12.864 266.415 13.176 266.287 13.56C266.167 13.944 266.107 14.356 266.107 14.796C266.107 15.292 266.175 15.764 266.311 16.212C266.447 16.652 266.655 17.012 266.935 17.292C267.215 17.572 267.567 17.712 267.991 17.712ZM274.47 18.192C274.038 18.192 273.674 18.112 273.378 17.952C273.09 17.792 272.87 17.52 272.718 17.136C272.574 16.752 272.502 16.232 272.502 15.576V13.44C272.502 13.312 272.502 13.184 272.502 13.056C272.51 12.928 272.526 12.796 272.55 12.66C272.414 12.668 272.274 12.676 272.13 12.684C271.994 12.684 271.858 12.688 271.722 12.696V12.204H272.094C272.438 12.204 272.686 12.172 272.838 12.108C272.998 12.036 273.122 11.96 273.21 11.88H273.558V15.54C273.558 16.228 273.654 16.744 273.846 17.088C274.046 17.424 274.382 17.588 274.854 17.58C275.158 17.572 275.446 17.48 275.718 17.304C275.998 17.12 276.222 16.904 276.39 16.656V13.572C276.39 13.38 276.394 13.216 276.402 13.08C276.41 12.936 276.426 12.796 276.45 12.66C276.306 12.668 276.162 12.676 276.018 12.684C275.874 12.684 275.73 12.688 275.586 12.696V12.204H275.958C276.302 12.204 276.55 12.172 276.702 12.108C276.862 12.036 276.986 11.96 277.074 11.88H277.422L277.41 16.416C277.41 16.544 277.406 16.724 277.398 16.956C277.39 17.188 277.378 17.384 277.362 17.544C277.506 17.536 277.65 17.528 277.794 17.52C277.938 17.512 278.082 17.504 278.226 17.496V18H276.51C276.486 17.864 276.466 17.736 276.45 17.616C276.442 17.496 276.434 17.384 276.426 17.28C276.178 17.528 275.878 17.744 275.526 17.928C275.174 18.104 274.822 18.192 274.47 18.192ZM279.098 18V17.64C279.346 17.64 279.518 17.58 279.614 17.46C279.71 17.332 279.766 17.16 279.782 16.944C279.798 16.72 279.806 16.464 279.806 16.176L279.818 13.44C279.818 13.312 279.818 13.184 279.818 13.056C279.826 12.928 279.842 12.796 279.866 12.66C279.722 12.668 279.578 12.676 279.434 12.684C279.298 12.692 279.158 12.7 279.014 12.708V12.204C279.366 12.204 279.63 12.188 279.806 12.156C279.99 12.124 280.126 12.084 280.214 12.036C280.302 11.988 280.374 11.936 280.43 11.88H280.778C280.786 11.936 280.79 12 280.79 12.072C280.798 12.144 280.806 12.224 280.814 12.312C280.822 12.4 280.826 12.5 280.826 12.612C281.002 12.46 281.194 12.324 281.402 12.204C281.618 12.084 281.842 11.988 282.074 11.916C282.314 11.844 282.55 11.808 282.782 11.808C283.478 11.808 283.986 12.028 284.306 12.468C284.626 12.9 284.786 13.576 284.786 14.496V16.728C284.786 16.888 284.782 17.032 284.774 17.16C284.774 17.28 284.762 17.408 284.738 17.544C284.866 17.536 284.99 17.532 285.11 17.532C285.238 17.524 285.366 17.516 285.494 17.508V18H283.046V17.64C283.294 17.64 283.466 17.58 283.562 17.46C283.658 17.332 283.714 17.16 283.73 16.944C283.746 16.72 283.754 16.464 283.754 16.176V14.496C283.746 13.808 283.63 13.288 283.406 12.936C283.19 12.584 282.846 12.412 282.374 12.42C282.086 12.428 281.802 12.504 281.522 12.648C281.25 12.792 281.022 12.976 280.838 13.2C280.846 13.264 280.85 13.336 280.85 13.416C280.85 13.496 280.85 13.58 280.85 13.668L280.838 16.728C280.838 16.888 280.834 17.032 280.826 17.16C280.826 17.28 280.814 17.408 280.79 17.544C280.918 17.536 281.042 17.532 281.162 17.532C281.29 17.524 281.418 17.516 281.546 17.508V18H279.098ZM288.538 18.192C288.354 18.192 288.166 18.164 287.974 18.108C287.782 18.06 287.602 17.96 287.434 17.808C287.274 17.656 287.146 17.436 287.05 17.148C286.954 16.852 286.906 16.464 286.906 15.984L286.93 12.504L286.006 12.516V12C286.214 11.992 286.426 11.916 286.642 11.772C286.858 11.62 287.05 11.416 287.218 11.16C287.394 10.904 287.514 10.624 287.578 10.32H287.986V12H290.002V12.468L287.986 12.492L287.962 15.828C287.962 16.188 287.99 16.496 288.046 16.752C288.11 17 288.21 17.188 288.346 17.316C288.482 17.444 288.658 17.508 288.874 17.508C289.098 17.508 289.306 17.444 289.498 17.316C289.698 17.188 289.874 17.012 290.026 16.788L290.35 17.052C290.174 17.316 289.998 17.524 289.822 17.676C289.654 17.828 289.49 17.94 289.33 18.012C289.17 18.092 289.022 18.14 288.886 18.156C288.75 18.18 288.634 18.192 288.538 18.192ZM293.827 18.192C293.275 18.192 292.775 18.064 292.327 17.808C291.887 17.544 291.539 17.176 291.283 16.704C291.027 16.224 290.899 15.66 290.899 15.012C290.899 14.452 291.023 13.928 291.271 13.44C291.527 12.952 291.883 12.56 292.339 12.264C292.795 11.96 293.323 11.808 293.923 11.808C294.259 11.808 294.571 11.864 294.859 11.976C295.155 12.08 295.415 12.244 295.639 12.468C295.863 12.684 296.039 12.96 296.167 13.296C296.295 13.624 296.359 14.012 296.359 14.46L292.135 14.532C292.135 15.14 292.199 15.676 292.327 16.14C292.463 16.596 292.679 16.952 292.975 17.208C293.271 17.456 293.651 17.58 294.115 17.58C294.363 17.58 294.615 17.536 294.871 17.448C295.135 17.36 295.379 17.24 295.603 17.088C295.827 16.936 296.007 16.768 296.143 16.584L296.431 16.824C296.215 17.16 295.955 17.428 295.651 17.628C295.347 17.828 295.035 17.972 294.715 18.06C294.395 18.148 294.099 18.192 293.827 18.192ZM292.171 14.028H295.231C295.231 13.74 295.187 13.464 295.099 13.2C295.019 12.928 294.883 12.708 294.691 12.54C294.499 12.364 294.247 12.276 293.935 12.276C293.471 12.276 293.083 12.416 292.771 12.696C292.467 12.968 292.267 13.412 292.171 14.028ZM297.426 17.64C297.674 17.64 297.846 17.58 297.942 17.46C298.038 17.332 298.094 17.16 298.11 16.944C298.126 16.72 298.134 16.464 298.134 16.176V13.44C298.134 13.312 298.134 13.184 298.134 13.056C298.142 12.928 298.158 12.796 298.182 12.66C298.038 12.668 297.894 12.676 297.75 12.684C297.614 12.684 297.474 12.688 297.33 12.696V12.204H297.702C298.046 12.204 298.282 12.172 298.41 12.108C298.546 12.036 298.658 11.96 298.746 11.88H299.094C299.11 12.008 299.122 12.168 299.13 12.36C299.138 12.544 299.146 12.78 299.154 13.068C299.274 12.868 299.438 12.672 299.646 12.48C299.854 12.288 300.086 12.128 300.342 12C300.606 11.872 300.882 11.808 301.17 11.808C301.394 11.808 301.59 11.868 301.758 11.988C301.926 12.108 302.01 12.3 302.01 12.564C302.01 12.628 301.99 12.708 301.95 12.804C301.91 12.892 301.846 12.972 301.758 13.044C301.67 13.108 301.554 13.14 301.41 13.14C301.234 13.132 301.094 13.064 300.99 12.936C300.886 12.8 300.846 12.644 300.87 12.468C300.67 12.46 300.462 12.512 300.246 12.624C300.038 12.736 299.842 12.892 299.658 13.092C299.474 13.284 299.31 13.512 299.166 13.776L299.178 16.728C299.178 16.888 299.174 17.032 299.166 17.16C299.166 17.28 299.154 17.408 299.13 17.544C299.258 17.536 299.382 17.532 299.502 17.532C299.63 17.524 299.758 17.516 299.886 17.508V18H297.426V17.64Z" fill="#777777"/>
<path d="M259.344 34.11C258.86 34.11 258.435 34.0183 258.068 33.835C257.709 33.6517 257.43 33.3877 257.232 33.043C257.034 32.691 256.935 32.2767 256.935 31.8V30.15C256.935 29.666 257.034 29.2517 257.232 28.907C257.43 28.5623 257.709 28.2983 258.068 28.115C258.435 27.9317 258.86 27.84 259.344 27.84C260.041 27.84 260.602 28.027 261.027 28.401C261.452 28.775 261.676 29.2847 261.698 29.93H260.708C260.686 29.5413 260.554 29.2443 260.312 29.039C260.077 28.8263 259.755 28.72 259.344 28.72C258.911 28.72 258.567 28.8447 258.31 29.094C258.053 29.336 257.925 29.6843 257.925 30.139V31.8C257.925 32.2547 258.053 32.6067 258.31 32.856C258.567 33.1053 258.911 33.23 259.344 33.23C259.755 33.23 260.077 33.1237 260.312 32.911C260.554 32.6983 260.686 32.4013 260.708 32.02H261.698C261.676 32.6653 261.452 33.175 261.027 33.549C260.602 33.923 260.041 34.11 259.344 34.11ZM265.896 34.088C265.412 34.088 264.994 33.9963 264.642 33.813C264.29 33.6297 264.015 33.3657 263.817 33.021C263.626 32.669 263.531 32.2547 263.531 31.778V30.172C263.531 29.688 263.626 29.2737 263.817 28.929C264.015 28.5843 264.29 28.3203 264.642 28.137C264.994 27.9537 265.412 27.862 265.896 27.862C266.38 27.862 266.798 27.9537 267.15 28.137C267.502 28.3203 267.773 28.5843 267.964 28.929C268.162 29.2737 268.261 29.6843 268.261 30.161V31.778C268.261 32.2547 268.162 32.669 267.964 33.021C267.773 33.3657 267.502 33.6297 267.15 33.813C266.798 33.9963 266.38 34.088 265.896 34.088ZM265.896 33.208C266.328 33.208 266.666 33.087 266.908 32.845C267.15 32.603 267.271 32.2473 267.271 31.778V30.172C267.271 29.7027 267.15 29.347 266.908 29.105C266.666 28.863 266.328 28.742 265.896 28.742C265.47 28.742 265.133 28.863 264.884 29.105C264.642 29.347 264.521 29.7027 264.521 30.172V31.778C264.521 32.2473 264.642 32.603 264.884 32.845C265.133 33.087 265.47 33.208 265.896 33.208ZM272.48 34.11C271.784 34.11 271.226 33.9047 270.808 33.494C270.39 33.076 270.181 32.5113 270.181 31.8V27.95H271.171V31.8C271.171 32.2547 271.289 32.6103 271.523 32.867C271.758 33.1163 272.077 33.241 272.48 33.241C272.891 33.241 273.214 33.1163 273.448 32.867C273.69 32.6103 273.811 32.2547 273.811 31.8V27.95H274.801V31.8C274.801 32.5113 274.589 33.076 274.163 33.494C273.738 33.9047 273.177 34.11 272.48 34.11ZM276.799 34V27.95H277.789V29.105H277.998L277.789 29.336C277.789 28.8593 277.932 28.4927 278.218 28.236C278.504 27.972 278.9 27.84 279.406 27.84C280.015 27.84 280.499 28.027 280.858 28.401C281.217 28.775 281.397 29.2847 281.397 29.93V34H280.407V30.04C280.407 29.6073 280.29 29.2773 280.055 29.05C279.828 28.8153 279.516 28.698 279.12 28.698C278.709 28.698 278.383 28.8227 278.141 29.072C277.906 29.3213 277.789 29.6807 277.789 30.15V34H276.799ZM286.343 34C285.822 34 285.415 33.8607 285.122 33.582C284.836 33.3033 284.693 32.911 284.693 32.405V28.852H282.988V27.95H284.693V26.245H285.683V27.95H288.103V28.852H285.683V32.405C285.683 32.867 285.903 33.098 286.343 33.098H287.993V34H286.343ZM292.279 34.11C291.802 34.11 291.384 34.0147 291.025 33.824C290.673 33.6333 290.398 33.3657 290.2 33.021C290.009 32.669 289.914 32.262 289.914 31.8V30.15C289.914 29.6807 290.009 29.2737 290.2 28.929C290.398 28.5843 290.673 28.3167 291.025 28.126C291.384 27.9353 291.802 27.84 292.279 27.84C292.755 27.84 293.17 27.9353 293.522 28.126C293.881 28.3167 294.156 28.5843 294.347 28.929C294.545 29.2737 294.644 29.6807 294.644 30.15V31.217H290.882V31.8C290.882 32.2767 291.003 32.6433 291.245 32.9C291.487 33.1493 291.831 33.274 292.279 33.274C292.66 33.274 292.968 33.208 293.203 33.076C293.437 32.9367 293.58 32.7313 293.632 32.46H294.622C294.556 32.966 294.306 33.3693 293.874 33.67C293.448 33.9633 292.917 34.11 292.279 34.11ZM293.676 30.557V30.15C293.676 29.6733 293.555 29.3067 293.313 29.05C293.078 28.7933 292.733 28.665 292.279 28.665C291.831 28.665 291.487 28.7933 291.245 29.05C291.003 29.3067 290.882 29.6733 290.882 30.15V30.469H293.753L293.676 30.557ZM296.795 34V27.95H297.763V29.105H297.994L297.675 29.82C297.675 29.1673 297.815 28.676 298.093 28.346C298.379 28.0087 298.801 27.84 299.358 27.84C299.996 27.84 300.502 28.0417 300.876 28.445C301.258 28.841 301.448 29.38 301.448 30.062V30.425H300.458V30.15C300.458 29.6733 300.341 29.3103 300.106 29.061C299.879 28.8043 299.553 28.676 299.127 28.676C298.709 28.676 298.379 28.8043 298.137 29.061C297.903 29.3177 297.785 29.6807 297.785 30.15V34H296.795ZM303.71 30.81V29.93H307.23V30.81H303.71ZM309.701 34V33.098H311.846V28.852H309.976V27.95H312.836V33.098H314.871V34H309.701ZM312.231 26.861C311.989 26.861 311.798 26.7987 311.659 26.674C311.519 26.5493 311.45 26.3807 311.45 26.168C311.45 25.948 311.519 25.7757 311.659 25.651C311.798 25.519 311.989 25.453 312.231 25.453C312.473 25.453 312.663 25.519 312.803 25.651C312.942 25.7757 313.012 25.948 313.012 26.168C313.012 26.3807 312.942 26.5493 312.803 26.674C312.663 26.7987 312.473 26.861 312.231 26.861ZM316.373 34V27.95H317.363V29.105H317.572L317.363 29.336C317.363 28.8593 317.506 28.4927 317.792 28.236C318.078 27.972 318.474 27.84 318.98 27.84C319.589 27.84 320.073 28.027 320.432 28.401C320.792 28.775 320.971 29.2847 320.971 29.93V34H319.981V30.04C319.981 29.6073 319.864 29.2773 319.629 29.05C319.402 28.8153 319.09 28.698 318.694 28.698C318.284 28.698 317.957 28.8227 317.715 29.072C317.481 29.3213 317.363 29.6807 317.363 30.15V34H316.373ZM325.301 34.11C324.817 34.11 324.392 34.0183 324.025 33.835C323.666 33.6517 323.387 33.3877 323.189 33.043C322.991 32.691 322.892 32.2767 322.892 31.8V30.15C322.892 29.666 322.991 29.2517 323.189 28.907C323.387 28.5623 323.666 28.2983 324.025 28.115C324.392 27.9317 324.817 27.84 325.301 27.84C325.998 27.84 326.559 28.027 326.984 28.401C327.409 28.775 327.633 29.2847 327.655 29.93H326.665C326.643 29.5413 326.511 29.2443 326.269 29.039C326.034 28.8263 325.712 28.72 325.301 28.72C324.868 28.72 324.524 28.8447 324.267 29.094C324.01 29.336 323.882 29.6843 323.882 30.139V31.8C323.882 32.2547 324.01 32.6067 324.267 32.856C324.524 33.1053 324.868 33.23 325.301 33.23C325.712 33.23 326.034 33.1237 326.269 32.911C326.511 32.6983 326.643 32.4013 326.665 32.02H327.655C327.633 32.6653 327.409 33.175 326.984 33.549C326.559 33.923 325.998 34.11 325.301 34.11Z" fill="black"/>
<path d="M259.344 50.11C258.86 50.11 258.435 50.0183 258.068 49.835C257.709 49.6517 257.43 49.3877 257.232 49.043C257.034 48.691 256.935 48.2767 256.935 47.8V46.15C256.935 45.666 257.034 45.2517 257.232 44.907C257.43 44.5623 257.709 44.2983 258.068 44.115C258.435 43.9317 258.86 43.84 259.344 43.84C260.041 43.84 260.602 44.027 261.027 44.401C261.452 44.775 261.676 45.2847 261.698 45.93H260.708C260.686 45.5413 260.554 45.2443 260.312 45.039C260.077 44.8263 259.755 44.72 259.344 44.72C258.911 44.72 258.567 44.8447 258.31 45.094C258.053 45.336 257.925 45.6843 257.925 46.139V47.8C257.925 48.2547 258.053 48.6067 258.31 48.856C258.567 49.1053 258.911 49.23 259.344 49.23C259.755 49.23 260.077 49.1237 260.312 48.911C260.554 48.6983 260.686 48.4013 260.708 48.02H261.698C261.676 48.6653 261.452 49.175 261.027 49.549C260.602 49.923 260.041 50.11 259.344 50.11ZM265.896 50.088C265.412 50.088 264.994 49.9963 264.642 49.813C264.29 49.6297 264.015 49.3657 263.817 49.021C263.626 48.669 263.531 48.2547 263.531 47.778V46.172C263.531 45.688 263.626 45.2737 263.817 44.929C264.015 44.5843 264.29 44.3203 264.642 44.137C264.994 43.9537 265.412 43.862 265.896 43.862C266.38 43.862 266.798 43.9537 267.15 44.137C267.502 44.3203 267.773 44.5843 267.964 44.929C268.162 45.2737 268.261 45.6843 268.261 46.161V47.778C268.261 48.2547 268.162 48.669 267.964 49.021C267.773 49.3657 267.502 49.6297 267.15 49.813C266.798 49.9963 266.38 50.088 265.896 50.088ZM265.896 49.208C266.328 49.208 266.666 49.087 266.908 48.845C267.15 48.603 267.271 48.2473 267.271 47.778V46.172C267.271 45.7027 267.15 45.347 266.908 45.105C266.666 44.863 266.328 44.742 265.896 44.742C265.47 44.742 265.133 44.863 264.884 45.105C264.642 45.347 264.521 45.7027 264.521 46.172V47.778C264.521 48.2473 264.642 48.603 264.884 48.845C265.133 49.087 265.47 49.208 265.896 49.208ZM272.48 50.11C271.784 50.11 271.226 49.9047 270.808 49.494C270.39 49.076 270.181 48.5113 270.181 47.8V43.95H271.171V47.8C271.171 48.2547 271.289 48.6103 271.523 48.867C271.758 49.1163 272.077 49.241 272.48 49.241C272.891 49.241 273.214 49.1163 273.448 48.867C273.69 48.6103 273.811 48.2547 273.811 47.8V43.95H274.801V47.8C274.801 48.5113 274.589 49.076 274.163 49.494C273.738 49.9047 273.177 50.11 272.48 50.11ZM276.799 50V43.95H277.789V45.105H277.998L277.789 45.336C277.789 44.8593 277.932 44.4927 278.218 44.236C278.504 43.972 278.9 43.84 279.406 43.84C280.015 43.84 280.499 44.027 280.858 44.401C281.217 44.775 281.397 45.2847 281.397 45.93V50H280.407V46.04C280.407 45.6073 280.29 45.2773 280.055 45.05C279.828 44.8153 279.516 44.698 279.12 44.698C278.709 44.698 278.383 44.8227 278.141 45.072C277.906 45.3213 277.789 45.6807 277.789 46.15V50H276.799ZM286.343 50C285.822 50 285.415 49.8607 285.122 49.582C284.836 49.3033 284.693 48.911 284.693 48.405V44.852H282.988V43.95H284.693V42.245H285.683V43.95H288.103V44.852H285.683V48.405C285.683 48.867 285.903 49.098 286.343 49.098H287.993V50H286.343ZM292.279 50.11C291.802 50.11 291.384 50.0147 291.025 49.824C290.673 49.6333 290.398 49.3657 290.2 49.021C290.009 48.669 289.914 48.262 289.914 47.8V46.15C289.914 45.6807 290.009 45.2737 290.2 44.929C290.398 44.5843 290.673 44.3167 291.025 44.126C291.384 43.9353 291.802 43.84 292.279 43.84C292.755 43.84 293.17 43.9353 293.522 44.126C293.881 44.3167 294.156 44.5843 294.347 44.929C294.545 45.2737 294.644 45.6807 294.644 46.15V47.217H290.882V47.8C290.882 48.2767 291.003 48.6433 291.245 48.9C291.487 49.1493 291.831 49.274 292.279 49.274C292.66 49.274 292.968 49.208 293.203 49.076C293.437 48.9367 293.58 48.7313 293.632 48.46H294.622C294.556 48.966 294.306 49.3693 293.874 49.67C293.448 49.9633 292.917 50.11 292.279 50.11ZM293.676 46.557V46.15C293.676 45.6733 293.555 45.3067 293.313 45.05C293.078 44.7933 292.733 44.665 292.279 44.665C291.831 44.665 291.487 44.7933 291.245 45.05C291.003 45.3067 290.882 45.6733 290.882 46.15V46.469H293.753L293.676 46.557ZM296.795 50V43.95H297.763V45.105H297.994L297.675 45.82C297.675 45.1673 297.815 44.676 298.093 44.346C298.379 44.0087 298.801 43.84 299.358 43.84C299.996 43.84 300.502 44.0417 300.876 44.445C301.258 44.841 301.448 45.38 301.448 46.062V46.425H300.458V46.15C300.458 45.6733 300.341 45.3103 300.106 45.061C299.879 44.8043 299.553 44.676 299.127 44.676C298.709 44.676 298.379 44.8043 298.137 45.061C297.903 45.3177 297.785 45.6807 297.785 46.15V50H296.795ZM303.71 46.81V45.93H307.23V46.81H303.71ZM309.987 50V43.95H310.955V45.105H311.186L310.867 45.82C310.867 45.1673 311.006 44.676 311.285 44.346C311.571 44.0087 311.992 43.84 312.55 43.84C313.188 43.84 313.694 44.0417 314.068 44.445C314.449 44.841 314.64 45.38 314.64 46.062V46.425H313.65V46.15C313.65 45.6733 313.532 45.3103 313.298 45.061C313.07 44.8043 312.744 44.676 312.319 44.676C311.901 44.676 311.571 44.8043 311.329 45.061C311.094 45.3177 310.977 45.6807 310.977 46.15V50H309.987ZM318.661 50.11C318.185 50.11 317.767 50.0147 317.407 49.824C317.055 49.6333 316.78 49.3657 316.582 49.021C316.392 48.669 316.296 48.262 316.296 47.8V46.15C316.296 45.6807 316.392 45.2737 316.582 44.929C316.78 44.5843 317.055 44.3167 317.407 44.126C317.767 43.9353 318.185 43.84 318.661 43.84C319.138 43.84 319.552 43.9353 319.904 44.126C320.264 44.3167 320.539 44.5843 320.729 44.929C320.927 45.2737 321.026 45.6807 321.026 46.15V47.217H317.264V47.8C317.264 48.2767 317.385 48.6433 317.627 48.9C317.869 49.1493 318.214 49.274 318.661 49.274C319.043 49.274 319.351 49.208 319.585 49.076C319.82 48.9367 319.963 48.7313 320.014 48.46H321.004C320.938 48.966 320.689 49.3693 320.256 49.67C319.831 49.9633 319.299 50.11 318.661 50.11ZM320.058 46.557V46.15C320.058 45.6733 319.937 45.3067 319.695 45.05C319.461 44.7933 319.116 44.665 318.661 44.665C318.214 44.665 317.869 44.7933 317.627 45.05C317.385 45.3067 317.264 45.6733 317.264 46.15V46.469H320.135L320.058 46.557ZM324.729 50.11C324.091 50.11 323.589 49.9487 323.222 49.626C322.855 49.296 322.672 48.8523 322.672 48.295C322.672 47.7303 322.855 47.2867 323.222 46.964C323.589 46.6413 324.084 46.48 324.707 46.48H326.577V45.875C326.577 45.501 326.463 45.215 326.236 45.017C326.016 44.8117 325.701 44.709 325.29 44.709C324.931 44.709 324.63 44.786 324.388 44.94C324.146 45.0867 324.007 45.2883 323.97 45.545H322.98C323.046 45.0243 323.292 44.61 323.717 44.302C324.142 43.994 324.674 43.84 325.312 43.84C326.009 43.84 326.559 44.0197 326.962 44.379C327.365 44.7383 327.567 45.226 327.567 45.842V50H326.599V48.845H326.434L326.599 48.68C326.599 49.12 326.427 49.4683 326.082 49.725C325.745 49.9817 325.294 50.11 324.729 50.11ZM324.971 49.329C325.44 49.329 325.825 49.2117 326.126 48.977C326.427 48.7423 326.577 48.4417 326.577 48.075V47.217H324.729C324.399 47.217 324.139 47.3087 323.948 47.492C323.757 47.6753 323.662 47.9247 323.662 48.24C323.662 48.5773 323.776 48.845 324.003 49.043C324.238 49.2337 324.56 49.329 324.971 49.329ZM331.501 50.11C330.899 50.11 330.412 49.9083 330.038 49.505C329.671 49.1017 329.488 48.5553 329.488 47.866V46.095C329.488 45.3983 329.671 44.8483 330.038 44.445C330.404 44.0417 330.892 43.84 331.501 43.84C331.999 43.84 332.399 43.9757 332.7 44.247C333 44.5183 333.151 44.8813 333.151 45.336L332.953 45.105H333.173L333.151 43.73V41.97H334.141V50H333.151V48.845H332.953L333.151 48.614C333.151 49.076 333 49.4427 332.7 49.714C332.399 49.978 331.999 50.11 331.501 50.11ZM331.831 49.252C332.241 49.252 332.564 49.1237 332.799 48.867C333.033 48.6103 333.151 48.2547 333.151 47.8V46.15C333.151 45.6953 333.033 45.3397 332.799 45.083C332.564 44.8263 332.241 44.698 331.831 44.698C331.413 44.698 331.083 44.8227 330.841 45.072C330.599 45.3213 330.478 45.6807 330.478 46.15V47.8C330.478 48.2693 330.599 48.6287 330.841 48.878C331.083 49.1273 331.413 49.252 331.831 49.252Z" fill="black"/>
</svg>
