<svg width="251" height="64" viewBox="0 0 251 64" fill="none" xmlns="http://www.w3.org/2000/svg">
<rect width="251" height="64" fill="white"/>
<path d="M17.376 13.144C17.352 12.76 17.26 12.396 17.1 12.052C16.94 11.708 16.708 11.428 16.404 11.212C16.1 10.996 15.712 10.888 15.24 10.888C14.744 10.888 14.364 11.028 14.1 11.308C13.836 11.588 13.704 11.916 13.704 12.292C13.704 12.628 13.8 12.912 13.992 13.144C14.184 13.368 14.432 13.568 14.736 13.744C15.048 13.912 15.376 14.076 15.72 14.236C16.024 14.372 16.328 14.52 16.632 14.68C16.936 14.832 17.212 15.008 17.46 15.208C17.708 15.408 17.904 15.648 18.048 15.928C18.2 16.2 18.276 16.528 18.276 16.912C18.276 17.352 18.164 17.744 17.94 18.088C17.724 18.432 17.408 18.704 16.992 18.904C16.576 19.096 16.068 19.192 15.468 19.192C15.108 19.192 14.736 19.14 14.352 19.036C13.968 18.932 13.628 18.78 13.332 18.58L13.392 19.096H12.768L12.696 16.54H13.164C13.204 17.244 13.448 17.78 13.896 18.148C14.344 18.508 14.884 18.688 15.516 18.688C15.828 18.688 16.116 18.632 16.38 18.52C16.644 18.4 16.852 18.228 17.004 18.004C17.164 17.78 17.244 17.508 17.244 17.188C17.244 16.828 17.148 16.528 16.956 16.288C16.764 16.048 16.516 15.84 16.212 15.664C15.908 15.488 15.584 15.32 15.24 15.16C14.936 15.024 14.636 14.88 14.34 14.728C14.044 14.576 13.772 14.404 13.524 14.212C13.284 14.012 13.088 13.776 12.936 13.504C12.792 13.232 12.72 12.904 12.72 12.52C12.72 12.312 12.756 12.088 12.828 11.848C12.9 11.608 13.024 11.38 13.2 11.164C13.384 10.94 13.632 10.76 13.944 10.624C14.264 10.48 14.668 10.408 15.156 10.408C15.46 10.408 15.8 10.452 16.176 10.54C16.56 10.62 16.916 10.78 17.244 11.02L17.196 10.504H17.808V13.144H17.376ZM22.2406 19.192C21.6886 19.192 21.1886 19.064 20.7406 18.808C20.3006 18.544 19.9526 18.176 19.6966 17.704C19.4406 17.224 19.3126 16.66 19.3126 16.012C19.3126 15.452 19.4366 14.928 19.6846 14.44C19.9406 13.952 20.2966 13.56 20.7526 13.264C21.2086 12.96 21.7366 12.808 22.3366 12.808C22.6726 12.808 22.9846 12.864 23.2726 12.976C23.5686 13.08 23.8286 13.244 24.0526 13.468C24.2766 13.684 24.4526 13.96 24.5806 14.296C24.7086 14.624 24.7726 15.012 24.7726 15.46L20.5486 15.532C20.5486 16.14 20.6126 16.676 20.7406 17.14C20.8766 17.596 21.0926 17.952 21.3886 18.208C21.6846 18.456 22.0646 18.58 22.5286 18.58C22.7766 18.58 23.0286 18.536 23.2846 18.448C23.5486 18.36 23.7926 18.24 24.0166 18.088C24.2406 17.936 24.4206 17.768 24.5566 17.584L24.8446 17.824C24.6286 18.16 24.3686 18.428 24.0646 18.628C23.7606 18.828 23.4486 18.972 23.1286 19.06C22.8086 19.148 22.5126 19.192 22.2406 19.192ZM20.5846 15.028H23.6446C23.6446 14.74 23.6006 14.464 23.5126 14.2C23.4326 13.928 23.2966 13.708 23.1046 13.54C22.9126 13.364 22.6606 13.276 22.3486 13.276C21.8846 13.276 21.4966 13.416 21.1846 13.696C20.8806 13.968 20.6806 14.412 20.5846 15.028ZM28.0145 19.192C27.8305 19.192 27.6425 19.164 27.4505 19.108C27.2585 19.06 27.0785 18.96 26.9105 18.808C26.7505 18.656 26.6225 18.436 26.5265 18.148C26.4305 17.852 26.3825 17.464 26.3825 16.984L26.4065 13.504L25.4825 13.516V13C25.6905 12.992 25.9025 12.916 26.1185 12.772C26.3345 12.62 26.5265 12.416 26.6945 12.16C26.8705 11.904 26.9905 11.624 27.0545 11.32H27.4625V13H29.4785V13.468L27.4625 13.492L27.4385 16.828C27.4385 17.188 27.4665 17.496 27.5225 17.752C27.5865 18 27.6865 18.188 27.8225 18.316C27.9585 18.444 28.1345 18.508 28.3505 18.508C28.5745 18.508 28.7825 18.444 28.9745 18.316C29.1745 18.188 29.3505 18.012 29.5025 17.788L29.8265 18.052C29.6505 18.316 29.4745 18.524 29.2985 18.676C29.1305 18.828 28.9665 18.94 28.8065 19.012C28.6465 19.092 28.4985 19.14 28.3625 19.156C28.2265 19.18 28.1105 19.192 28.0145 19.192Z" fill="#777777"/>
<path d="M15.113 34.088C14.7023 34.088 14.343 34.0257 14.035 33.901C13.7343 33.769 13.4923 33.5857 13.309 33.351C13.133 33.1163 13.0267 32.8377 12.99 32.515H13.98C14.024 32.7277 14.1413 32.8963 14.332 33.021C14.53 33.1457 14.7903 33.208 15.113 33.208H15.575C15.9637 33.208 16.2533 33.131 16.444 32.977C16.6347 32.8157 16.73 32.603 16.73 32.339C16.73 32.0823 16.642 31.8807 16.466 31.734C16.2973 31.58 16.0443 31.4773 15.707 31.426L14.893 31.294C14.299 31.1913 13.8553 31.008 13.562 30.744C13.276 30.4727 13.133 30.0803 13.133 29.567C13.133 29.0243 13.3053 28.6063 13.65 28.313C13.9947 28.0123 14.5117 27.862 15.201 27.862H15.619C16.1983 27.862 16.664 27.9977 17.016 28.269C17.368 28.5403 17.5807 28.907 17.654 29.369H16.664C16.62 29.1783 16.51 29.028 16.334 28.918C16.158 28.8007 15.9197 28.742 15.619 28.742H15.201C14.827 28.742 14.552 28.8117 14.376 28.951C14.2073 29.0903 14.123 29.2993 14.123 29.578C14.123 29.8273 14.1963 30.0107 14.343 30.128C14.4897 30.2453 14.7207 30.3297 15.036 30.381L15.85 30.513C16.5027 30.6157 16.9757 30.8063 17.269 31.085C17.5697 31.3637 17.72 31.767 17.72 32.295C17.72 32.8523 17.5403 33.2923 17.181 33.615C16.829 33.9303 16.2937 34.088 15.575 34.088H15.113ZM21.8957 34.11C21.419 34.11 21.001 34.0147 20.6417 33.824C20.2897 33.6333 20.0147 33.3657 19.8167 33.021C19.626 32.669 19.5307 32.262 19.5307 31.8V30.15C19.5307 29.6807 19.626 29.2737 19.8167 28.929C20.0147 28.5843 20.2897 28.3167 20.6417 28.126C21.001 27.9353 21.419 27.84 21.8957 27.84C22.3724 27.84 22.7867 27.9353 23.1387 28.126C23.498 28.3167 23.773 28.5843 23.9637 28.929C24.1617 29.2737 24.2607 29.6807 24.2607 30.15V31.217H20.4987V31.8C20.4987 32.2767 20.6197 32.6433 20.8617 32.9C21.1037 33.1493 21.4484 33.274 21.8957 33.274C22.277 33.274 22.585 33.208 22.8197 33.076C23.0544 32.9367 23.1974 32.7313 23.2487 32.46H24.2387C24.1727 32.966 23.9234 33.3693 23.4907 33.67C23.0654 33.9633 22.5337 34.11 21.8957 34.11ZM23.2927 30.557V30.15C23.2927 29.6733 23.1717 29.3067 22.9297 29.05C22.695 28.7933 22.3504 28.665 21.8957 28.665C21.4484 28.665 21.1037 28.7933 20.8617 29.05C20.6197 29.3067 20.4987 29.6733 20.4987 30.15V30.469H23.3697L23.2927 30.557ZM29.1514 34C28.6307 34 28.2237 33.8607 27.9304 33.582C27.6444 33.3033 27.5014 32.911 27.5014 32.405V28.852H25.7964V27.95H27.5014V26.245H28.4914V27.95H30.9114V28.852H28.4914V32.405C28.4914 32.867 28.7114 33.098 29.1514 33.098H30.8014V34H29.1514ZM33.3271 30.81V29.93H36.8471V30.81H33.3271ZM41.1548 34.11C40.5168 34.11 40.0145 33.9487 39.6478 33.626C39.2811 33.296 39.0978 32.8523 39.0978 32.295C39.0978 31.7303 39.2811 31.2867 39.6478 30.964C40.0145 30.6413 40.5095 30.48 41.1328 30.48H43.0028V29.875C43.0028 29.501 42.8891 29.215 42.6618 29.017C42.4418 28.8117 42.1265 28.709 41.7158 28.709C41.3565 28.709 41.0558 28.786 40.8138 28.94C40.5718 29.0867 40.4325 29.2883 40.3958 29.545H39.4058C39.4718 29.0243 39.7175 28.61 40.1428 28.302C40.5681 27.994 41.0998 27.84 41.7378 27.84C42.4345 27.84 42.9845 28.0197 43.3878 28.379C43.7911 28.7383 43.9928 29.226 43.9928 29.842V34H43.0248V32.845H42.8598L43.0248 32.68C43.0248 33.12 42.8525 33.4683 42.5078 33.725C42.1705 33.9817 41.7195 34.11 41.1548 34.11ZM41.3968 33.329C41.8661 33.329 42.2511 33.2117 42.5518 32.977C42.8525 32.7423 43.0028 32.4417 43.0028 32.075V31.217H41.1548C40.8248 31.217 40.5645 31.3087 40.3738 31.492C40.1831 31.6753 40.0878 31.9247 40.0878 32.24C40.0878 32.5773 40.2015 32.845 40.4288 33.043C40.6635 33.2337 40.9861 33.329 41.3968 33.329ZM47.9265 34.11C47.3252 34.11 46.8375 33.9083 46.4635 33.505C46.0968 33.1017 45.9135 32.5553 45.9135 31.866V30.095C45.9135 29.3983 46.0968 28.8483 46.4635 28.445C46.8302 28.0417 47.3178 27.84 47.9265 27.84C48.4252 27.84 48.8248 27.9757 49.1255 28.247C49.4262 28.5183 49.5765 28.8813 49.5765 29.336L49.3785 29.105H49.5985L49.5765 27.73V25.97H50.5665V34H49.5765V32.845H49.3785L49.5765 32.614C49.5765 33.076 49.4262 33.4427 49.1255 33.714C48.8248 33.978 48.4252 34.11 47.9265 34.11ZM48.2565 33.252C48.6672 33.252 48.9898 33.1237 49.2245 32.867C49.4592 32.6103 49.5765 32.2547 49.5765 31.8V30.15C49.5765 29.6953 49.4592 29.3397 49.2245 29.083C48.9898 28.8263 48.6672 28.698 48.2565 28.698C47.8385 28.698 47.5085 28.8227 47.2665 29.072C47.0245 29.3213 46.9035 29.6807 46.9035 30.15V31.8C46.9035 32.2693 47.0245 32.6287 47.2665 32.878C47.5085 33.1273 47.8385 33.252 48.2565 33.252ZM54.5222 34.11C53.9209 34.11 53.4332 33.9083 53.0592 33.505C52.6926 33.1017 52.5092 32.5553 52.5092 31.866V30.095C52.5092 29.3983 52.6926 28.8483 53.0592 28.445C53.4259 28.0417 53.9136 27.84 54.5222 27.84C55.0209 27.84 55.4206 27.9757 55.7212 28.247C56.0219 28.5183 56.1722 28.8813 56.1722 29.336L55.9742 29.105H56.1942L56.1722 27.73V25.97H57.1622V34H56.1722V32.845H55.9742L56.1722 32.614C56.1722 33.076 56.0219 33.4427 55.7212 33.714C55.4206 33.978 55.0209 34.11 54.5222 34.11ZM54.8522 33.252C55.2629 33.252 55.5856 33.1237 55.8202 32.867C56.0549 32.6103 56.1722 32.2547 56.1722 31.8V30.15C56.1722 29.6953 56.0549 29.3397 55.8202 29.083C55.5856 28.8263 55.2629 28.698 54.8522 28.698C54.4342 28.698 54.1042 28.8227 53.8622 29.072C53.6202 29.3213 53.4992 29.6807 53.4992 30.15V31.8C53.4992 32.2693 53.6202 32.6287 53.8622 32.878C54.1042 33.1273 54.4342 33.252 54.8522 33.252Z" fill="black"/>
<path d="M15.113 52.088C14.7023 52.088 14.343 52.0257 14.035 51.901C13.7343 51.769 13.4923 51.5857 13.309 51.351C13.133 51.1163 13.0267 50.8377 12.99 50.515H13.98C14.024 50.7277 14.1413 50.8963 14.332 51.021C14.53 51.1457 14.7903 51.208 15.113 51.208H15.575C15.9637 51.208 16.2533 51.131 16.444 50.977C16.6347 50.8157 16.73 50.603 16.73 50.339C16.73 50.0823 16.642 49.8807 16.466 49.734C16.2973 49.58 16.0443 49.4773 15.707 49.426L14.893 49.294C14.299 49.1913 13.8553 49.008 13.562 48.744C13.276 48.4727 13.133 48.0803 13.133 47.567C13.133 47.0243 13.3053 46.6063 13.65 46.313C13.9947 46.0123 14.5117 45.862 15.201 45.862H15.619C16.1983 45.862 16.664 45.9977 17.016 46.269C17.368 46.5403 17.5807 46.907 17.654 47.369H16.664C16.62 47.1783 16.51 47.028 16.334 46.918C16.158 46.8007 15.9197 46.742 15.619 46.742H15.201C14.827 46.742 14.552 46.8117 14.376 46.951C14.2073 47.0903 14.123 47.2993 14.123 47.578C14.123 47.8273 14.1963 48.0107 14.343 48.128C14.4897 48.2453 14.7207 48.3297 15.036 48.381L15.85 48.513C16.5027 48.6157 16.9757 48.8063 17.269 49.085C17.5697 49.3637 17.72 49.767 17.72 50.295C17.72 50.8523 17.5403 51.2923 17.181 51.615C16.829 51.9303 16.2937 52.088 15.575 52.088H15.113ZM21.8957 52.11C21.419 52.11 21.001 52.0147 20.6417 51.824C20.2897 51.6333 20.0147 51.3657 19.8167 51.021C19.626 50.669 19.5307 50.262 19.5307 49.8V48.15C19.5307 47.6807 19.626 47.2737 19.8167 46.929C20.0147 46.5843 20.2897 46.3167 20.6417 46.126C21.001 45.9353 21.419 45.84 21.8957 45.84C22.3724 45.84 22.7867 45.9353 23.1387 46.126C23.498 46.3167 23.773 46.5843 23.9637 46.929C24.1617 47.2737 24.2607 47.6807 24.2607 48.15V49.217H20.4987V49.8C20.4987 50.2767 20.6197 50.6433 20.8617 50.9C21.1037 51.1493 21.4484 51.274 21.8957 51.274C22.277 51.274 22.585 51.208 22.8197 51.076C23.0544 50.9367 23.1974 50.7313 23.2487 50.46H24.2387C24.1727 50.966 23.9234 51.3693 23.4907 51.67C23.0654 51.9633 22.5337 52.11 21.8957 52.11ZM23.2927 48.557V48.15C23.2927 47.6733 23.1717 47.3067 22.9297 47.05C22.695 46.7933 22.3504 46.665 21.8957 46.665C21.4484 46.665 21.1037 46.7933 20.8617 47.05C20.6197 47.3067 20.4987 47.6733 20.4987 48.15V48.469H23.3697L23.2927 48.557ZM29.1514 52C28.6307 52 28.2237 51.8607 27.9304 51.582C27.6444 51.3033 27.5014 50.911 27.5014 50.405V46.852H25.7964V45.95H27.5014V44.245H28.4914V45.95H30.9114V46.852H28.4914V50.405C28.4914 50.867 28.7114 51.098 29.1514 51.098H30.8014V52H29.1514ZM33.3271 48.81V47.93H36.8471V48.81H33.3271ZM39.6038 52V45.95H40.5718V47.105H40.8028L40.4838 47.82C40.4838 47.1673 40.6231 46.676 40.9018 46.346C41.1878 46.0087 41.6095 45.84 42.1668 45.84C42.8048 45.84 43.3108 46.0417 43.6848 46.445C44.0661 46.841 44.2568 47.38 44.2568 48.062V48.425H43.2668V48.15C43.2668 47.6733 43.1495 47.3103 42.9148 47.061C42.6875 46.8043 42.3611 46.676 41.9358 46.676C41.5178 46.676 41.1878 46.8043 40.9458 47.061C40.7111 47.3177 40.5938 47.6807 40.5938 48.15V52H39.6038ZM48.2785 52.11C47.8018 52.11 47.3838 52.0147 47.0245 51.824C46.6725 51.6333 46.3975 51.3657 46.1995 51.021C46.0088 50.669 45.9135 50.262 45.9135 49.8V48.15C45.9135 47.6807 46.0088 47.2737 46.1995 46.929C46.3975 46.5843 46.6725 46.3167 47.0245 46.126C47.3838 45.9353 47.8018 45.84 48.2785 45.84C48.7552 45.84 49.1695 45.9353 49.5215 46.126C49.8808 46.3167 50.1558 46.5843 50.3465 46.929C50.5445 47.2737 50.6435 47.6807 50.6435 48.15V49.217H46.8815V49.8C46.8815 50.2767 47.0025 50.6433 47.2445 50.9C47.4865 51.1493 47.8312 51.274 48.2785 51.274C48.6598 51.274 48.9678 51.208 49.2025 51.076C49.4372 50.9367 49.5802 50.7313 49.6315 50.46H50.6215C50.5555 50.966 50.3062 51.3693 49.8735 51.67C49.4482 51.9633 48.9165 52.11 48.2785 52.11ZM49.6755 48.557V48.15C49.6755 47.6733 49.5545 47.3067 49.3125 47.05C49.0778 46.7933 48.7332 46.665 48.2785 46.665C47.8312 46.665 47.4865 46.7933 47.2445 47.05C47.0025 47.3067 46.8815 47.6733 46.8815 48.15V48.469H49.7525L49.6755 48.557ZM54.3462 52.11C53.7082 52.11 53.2059 51.9487 52.8392 51.626C52.4726 51.296 52.2892 50.8523 52.2892 50.295C52.2892 49.7303 52.4726 49.2867 52.8392 48.964C53.2059 48.6413 53.7009 48.48 54.3242 48.48H56.1942V47.875C56.1942 47.501 56.0806 47.215 55.8532 47.017C55.6332 46.8117 55.3179 46.709 54.9072 46.709C54.5479 46.709 54.2472 46.786 54.0052 46.94C53.7632 47.0867 53.6239 47.2883 53.5872 47.545H52.5972C52.6632 47.0243 52.9089 46.61 53.3342 46.302C53.7596 45.994 54.2912 45.84 54.9292 45.84C55.6259 45.84 56.1759 46.0197 56.5792 46.379C56.9826 46.7383 57.1842 47.226 57.1842 47.842V52H56.2162V50.845H56.0512L56.2162 50.68C56.2162 51.12 56.0439 51.4683 55.6992 51.725C55.3619 51.9817 54.9109 52.11 54.3462 52.11ZM54.5882 51.329C55.0576 51.329 55.4426 51.2117 55.7432 50.977C56.0439 50.7423 56.1942 50.4417 56.1942 50.075V49.217H54.3462C54.0162 49.217 53.7559 49.3087 53.5652 49.492C53.3746 49.6753 53.2792 49.9247 53.2792 50.24C53.2792 50.5773 53.3929 50.845 53.6202 51.043C53.8549 51.2337 54.1776 51.329 54.5882 51.329ZM61.1179 52.11C60.5166 52.11 60.0289 51.9083 59.6549 51.505C59.2883 51.1017 59.1049 50.5553 59.1049 49.866V48.095C59.1049 47.3983 59.2883 46.8483 59.6549 46.445C60.0216 46.0417 60.5093 45.84 61.1179 45.84C61.6166 45.84 62.0163 45.9757 62.3169 46.247C62.6176 46.5183 62.7679 46.8813 62.7679 47.336L62.5699 47.105H62.7899L62.7679 45.73V43.97H63.7579V52H62.7679V50.845H62.5699L62.7679 50.614C62.7679 51.076 62.6176 51.4427 62.3169 51.714C62.0163 51.978 61.6166 52.11 61.1179 52.11ZM61.4479 51.252C61.8586 51.252 62.1813 51.1237 62.4159 50.867C62.6506 50.6103 62.7679 50.2547 62.7679 49.8V48.15C62.7679 47.6953 62.6506 47.3397 62.4159 47.083C62.1813 46.8263 61.8586 46.698 61.4479 46.698C61.0299 46.698 60.6999 46.8227 60.4579 47.072C60.2159 47.3213 60.0949 47.6807 60.0949 48.15V49.8C60.0949 50.2693 60.2159 50.6287 60.4579 50.878C60.6999 51.1273 61.0299 51.252 61.4479 51.252Z" fill="black"/>
<path d="M84.66 19V18.604C84.964 18.588 85.172 18.52 85.284 18.4C85.396 18.272 85.456 18.1 85.464 17.884C85.48 17.66 85.488 17.408 85.488 17.128V11.944C85.488 11.784 85.492 11.632 85.5 11.488C85.508 11.336 85.516 11.2 85.524 11.08C85.38 11.088 85.236 11.096 85.092 11.104C84.948 11.112 84.804 11.12 84.66 11.128V10.6H87.36V10.996C87.064 11.004 86.856 11.072 86.736 11.2C86.624 11.328 86.56 11.5 86.544 11.716C86.536 11.932 86.532 12.184 86.532 12.472V17.62C86.532 17.836 86.528 18.02 86.52 18.172C86.52 18.324 86.512 18.452 86.496 18.556L88.74 18.52C89.244 18.512 89.624 18.352 89.88 18.04C90.144 17.728 90.276 17.22 90.276 16.516H90.684L90.612 19H84.66ZM91.4655 18.64C91.7135 18.64 91.8855 18.58 91.9815 18.46C92.0775 18.332 92.1335 18.16 92.1495 17.944C92.1655 17.72 92.1735 17.464 92.1735 17.176V14.44C92.1735 14.312 92.1775 14.192 92.1855 14.08C92.1935 13.96 92.2055 13.82 92.2215 13.66C92.0775 13.668 91.9335 13.676 91.7895 13.684C91.6535 13.692 91.5135 13.7 91.3695 13.708V13.204C91.7215 13.204 91.9935 13.188 92.1855 13.156C92.3775 13.124 92.5215 13.084 92.6175 13.036C92.7215 12.988 92.8015 12.936 92.8575 12.88H93.2055V17.728C93.2055 17.888 93.2015 18.032 93.1935 18.16C93.1935 18.28 93.1815 18.408 93.1575 18.544C93.2855 18.536 93.4095 18.532 93.5295 18.532C93.6575 18.524 93.7855 18.516 93.9135 18.508V19H91.4655V18.64ZM92.6295 11.692C92.4615 11.692 92.3135 11.624 92.1855 11.488C92.0575 11.352 91.9935 11.184 91.9935 10.984C91.9935 10.784 92.0575 10.616 92.1855 10.48C92.3215 10.336 92.4735 10.264 92.6415 10.264C92.8255 10.264 92.9775 10.336 93.0975 10.48C93.2255 10.616 93.2895 10.784 93.2895 10.984C93.2895 11.184 93.2215 11.352 93.0855 11.488C92.9575 11.624 92.8055 11.692 92.6295 11.692ZM97.3005 19.192C96.9005 19.192 96.5445 19.136 96.2325 19.024C95.9205 18.92 95.6645 18.8 95.4645 18.664L95.5125 19.084H95.0085L94.9365 17.02H95.3085C95.3245 17.348 95.4165 17.644 95.5845 17.908C95.7525 18.164 95.9685 18.364 96.2325 18.508C96.4965 18.652 96.7805 18.724 97.0845 18.724C97.2925 18.724 97.4965 18.692 97.6965 18.628C97.8965 18.556 98.0645 18.452 98.2005 18.316C98.3365 18.172 98.4045 17.992 98.4045 17.776C98.4045 17.552 98.3365 17.368 98.2005 17.224C98.0725 17.072 97.9005 16.94 97.6845 16.828C97.4685 16.716 97.2365 16.612 96.9885 16.516C96.7485 16.42 96.5085 16.32 96.2685 16.216C96.0285 16.112 95.8045 15.988 95.5965 15.844C95.3965 15.7 95.2365 15.524 95.1165 15.316C94.9965 15.108 94.9365 14.852 94.9365 14.548C94.9365 14.38 94.9685 14.196 95.0325 13.996C95.0965 13.796 95.2045 13.608 95.3565 13.432C95.5085 13.248 95.7165 13.1 95.9805 12.988C96.2445 12.868 96.5805 12.808 96.9885 12.808C97.2045 12.808 97.4445 12.844 97.7085 12.916C97.9725 12.988 98.2285 13.124 98.4765 13.324L98.4525 12.868H98.9565V14.968H98.5725C98.5565 14.688 98.4925 14.42 98.3805 14.164C98.2685 13.9 98.1045 13.684 97.8885 13.516C97.6725 13.34 97.3925 13.252 97.0485 13.252C96.6805 13.252 96.3925 13.344 96.1845 13.528C95.9765 13.712 95.8725 13.924 95.8725 14.164C95.8725 14.412 95.9485 14.62 96.1005 14.788C96.2605 14.948 96.4645 15.088 96.7125 15.208C96.9605 15.328 97.2245 15.444 97.5045 15.556C97.8085 15.684 98.1045 15.824 98.3925 15.976C98.6805 16.128 98.9165 16.32 99.1005 16.552C99.2845 16.776 99.3765 17.068 99.3765 17.428C99.3765 17.828 99.2725 18.16 99.0645 18.424C98.8645 18.688 98.6045 18.88 98.2845 19C97.9725 19.128 97.6445 19.192 97.3005 19.192ZM102.651 19.192C102.467 19.192 102.279 19.164 102.087 19.108C101.895 19.06 101.715 18.96 101.547 18.808C101.387 18.656 101.259 18.436 101.163 18.148C101.067 17.852 101.019 17.464 101.019 16.984L101.043 13.504L100.119 13.516V13C100.327 12.992 100.539 12.916 100.755 12.772C100.971 12.62 101.163 12.416 101.331 12.16C101.507 11.904 101.627 11.624 101.691 11.32H102.099V13H104.115V13.468L102.099 13.492L102.075 16.828C102.075 17.188 102.103 17.496 102.159 17.752C102.223 18 102.323 18.188 102.459 18.316C102.595 18.444 102.771 18.508 102.987 18.508C103.211 18.508 103.419 18.444 103.611 18.316C103.811 18.188 103.987 18.012 104.139 17.788L104.463 18.052C104.287 18.316 104.111 18.524 103.935 18.676C103.767 18.828 103.603 18.94 103.443 19.012C103.283 19.092 103.135 19.14 102.999 19.156C102.863 19.18 102.747 19.192 102.651 19.192Z" fill="#777777"/>
<path d="M88.125 34C87.773 34 87.465 33.9303 87.201 33.791C86.937 33.6517 86.7317 33.4537 86.585 33.197C86.4383 32.9403 86.365 32.6397 86.365 32.295V26.872H84.33V25.97H87.355V32.295C87.355 32.5443 87.4247 32.7423 87.564 32.889C87.7033 33.0283 87.8903 33.098 88.125 33.098H90.05V34H88.125ZM91.5307 34V33.098H93.6757V28.852H91.8057V27.95H94.6657V33.098H96.7007V34H91.5307ZM94.0607 26.861C93.8187 26.861 93.628 26.7987 93.4887 26.674C93.3494 26.5493 93.2797 26.3807 93.2797 26.168C93.2797 25.948 93.3494 25.7757 93.4887 25.651C93.628 25.519 93.8187 25.453 94.0607 25.453C94.3027 25.453 94.4934 25.519 94.6327 25.651C94.772 25.7757 94.8417 25.948 94.8417 26.168C94.8417 26.3807 94.772 26.5493 94.6327 26.674C94.4934 26.7987 94.3027 26.861 94.0607 26.861ZM100.304 34.088C99.8937 34.088 99.5344 34.0257 99.2264 33.901C98.9257 33.769 98.6837 33.5857 98.5004 33.351C98.3244 33.1163 98.2181 32.8377 98.1814 32.515H99.1714C99.2154 32.7277 99.3327 32.8963 99.5234 33.021C99.7214 33.1457 99.9817 33.208 100.304 33.208H100.766C101.155 33.208 101.445 33.131 101.635 32.977C101.826 32.8157 101.921 32.603 101.921 32.339C101.921 32.0823 101.833 31.8807 101.657 31.734C101.489 31.58 101.236 31.4773 100.898 31.426L100.084 31.294C99.4904 31.1913 99.0467 31.008 98.7534 30.744C98.4674 30.4727 98.3244 30.0803 98.3244 29.567C98.3244 29.0243 98.4967 28.6063 98.8414 28.313C99.1861 28.0123 99.7031 27.862 100.392 27.862H100.81C101.39 27.862 101.855 27.9977 102.207 28.269C102.559 28.5403 102.772 28.907 102.845 29.369H101.855C101.811 29.1783 101.701 29.028 101.525 28.918C101.349 28.8007 101.111 28.742 100.81 28.742H100.392C100.018 28.742 99.7434 28.8117 99.5674 28.951C99.3987 29.0903 99.3144 29.2993 99.3144 29.578C99.3144 29.8273 99.3877 30.0107 99.5344 30.128C99.6811 30.2453 99.9121 30.3297 100.227 30.381L101.041 30.513C101.694 30.6157 102.167 30.8063 102.46 31.085C102.761 31.3637 102.911 31.767 102.911 32.295C102.911 32.8523 102.732 33.2923 102.372 33.615C102.02 33.9303 101.485 34.088 100.766 34.088H100.304ZM107.747 34C107.226 34 106.819 33.8607 106.526 33.582C106.24 33.3033 106.097 32.911 106.097 32.405V28.852H104.392V27.95H106.097V26.245H107.087V27.95H109.507V28.852H107.087V32.405C107.087 32.867 107.307 33.098 107.747 33.098H109.397V34H107.747ZM111.923 30.81V29.93H115.443V30.81H111.923ZM117.991 35.98V27.95H118.981V29.105H119.179L118.981 29.336C118.981 28.874 119.131 28.511 119.432 28.247C119.74 27.9757 120.143 27.84 120.642 27.84C121.25 27.84 121.734 28.0417 122.094 28.445C122.46 28.841 122.644 29.3873 122.644 30.084V31.855C122.644 32.317 122.559 32.7167 122.391 33.054C122.229 33.3913 121.998 33.6517 121.698 33.835C121.404 34.0183 121.052 34.11 120.642 34.11C120.15 34.11 119.751 33.9743 119.443 33.703C119.135 33.4317 118.981 33.0687 118.981 32.614L119.179 32.845H118.959L118.981 34.22V35.98H117.991ZM120.312 33.252C120.73 33.252 121.056 33.1273 121.291 32.878C121.533 32.6287 121.654 32.2693 121.654 31.8V30.15C121.654 29.6807 121.533 29.3213 121.291 29.072C121.056 28.8227 120.73 28.698 120.312 28.698C119.908 28.698 119.586 28.8263 119.344 29.083C119.102 29.3397 118.981 29.6953 118.981 30.15V31.8C118.981 32.2547 119.102 32.6103 119.344 32.867C119.586 33.1237 119.908 33.252 120.312 33.252ZM126.863 34.11C126.167 34.11 125.609 33.9047 125.191 33.494C124.773 33.076 124.564 32.5113 124.564 31.8V27.95H125.554V31.8C125.554 32.2547 125.672 32.6103 125.906 32.867C126.141 33.1163 126.46 33.241 126.863 33.241C127.274 33.241 127.597 33.1163 127.831 32.867C128.073 32.6103 128.194 32.2547 128.194 31.8V27.95H129.184V31.8C129.184 32.5113 128.972 33.076 128.546 33.494C128.121 33.9047 127.56 34.11 126.863 34.11ZM133.283 34.088C132.872 34.088 132.513 34.0257 132.205 33.901C131.904 33.769 131.662 33.5857 131.479 33.351C131.303 33.1163 131.197 32.8377 131.16 32.515H132.15C132.194 32.7277 132.311 32.8963 132.502 33.021C132.7 33.1457 132.96 33.208 133.283 33.208H133.745C134.134 33.208 134.423 33.131 134.614 32.977C134.805 32.8157 134.9 32.603 134.9 32.339C134.9 32.0823 134.812 31.8807 134.636 31.734C134.467 31.58 134.214 31.4773 133.877 31.426L133.063 31.294C132.469 31.1913 132.025 31.008 131.732 30.744C131.446 30.4727 131.303 30.0803 131.303 29.567C131.303 29.0243 131.475 28.6063 131.82 28.313C132.165 28.0123 132.682 27.862 133.371 27.862H133.789C134.368 27.862 134.834 27.9977 135.186 28.269C135.538 28.5403 135.751 28.907 135.824 29.369H134.834C134.79 29.1783 134.68 29.028 134.504 28.918C134.328 28.8007 134.09 28.742 133.789 28.742H133.371C132.997 28.742 132.722 28.8117 132.546 28.951C132.377 29.0903 132.293 29.2993 132.293 29.578C132.293 29.8273 132.366 30.0107 132.513 30.128C132.66 30.2453 132.891 30.3297 133.206 30.381L134.02 30.513C134.673 30.6157 135.146 30.8063 135.439 31.085C135.74 31.3637 135.89 31.767 135.89 32.295C135.89 32.8523 135.71 33.2923 135.351 33.615C134.999 33.9303 134.464 34.088 133.745 34.088H133.283ZM137.778 34V25.97H138.768V27.95V29.105H138.977L138.768 29.336C138.768 28.8593 138.911 28.4927 139.197 28.236C139.483 27.972 139.879 27.84 140.385 27.84C140.993 27.84 141.477 28.027 141.837 28.401C142.196 28.775 142.376 29.2847 142.376 29.93V34H141.386V30.04C141.386 29.6073 141.268 29.2737 141.034 29.039C140.806 28.797 140.495 28.676 140.099 28.676C139.688 28.676 139.362 28.8043 139.12 29.061C138.885 29.3177 138.768 29.6807 138.768 30.15V34H137.778Z" fill="black"/>
<path d="M88.125 52C87.773 52 87.465 51.9303 87.201 51.791C86.937 51.6517 86.7317 51.4537 86.585 51.197C86.4383 50.9403 86.365 50.6397 86.365 50.295V44.872H84.33V43.97H87.355V50.295C87.355 50.5443 87.4247 50.7423 87.564 50.889C87.7033 51.0283 87.8903 51.098 88.125 51.098H90.05V52H88.125ZM91.5307 52V51.098H93.6757V46.852H91.8057V45.95H94.6657V51.098H96.7007V52H91.5307ZM94.0607 44.861C93.8187 44.861 93.628 44.7987 93.4887 44.674C93.3494 44.5493 93.2797 44.3807 93.2797 44.168C93.2797 43.948 93.3494 43.7757 93.4887 43.651C93.628 43.519 93.8187 43.453 94.0607 43.453C94.3027 43.453 94.4934 43.519 94.6327 43.651C94.772 43.7757 94.8417 43.948 94.8417 44.168C94.8417 44.3807 94.772 44.5493 94.6327 44.674C94.4934 44.7987 94.3027 44.861 94.0607 44.861ZM100.304 52.088C99.8937 52.088 99.5344 52.0257 99.2264 51.901C98.9257 51.769 98.6837 51.5857 98.5004 51.351C98.3244 51.1163 98.2181 50.8377 98.1814 50.515H99.1714C99.2154 50.7277 99.3327 50.8963 99.5234 51.021C99.7214 51.1457 99.9817 51.208 100.304 51.208H100.766C101.155 51.208 101.445 51.131 101.635 50.977C101.826 50.8157 101.921 50.603 101.921 50.339C101.921 50.0823 101.833 49.8807 101.657 49.734C101.489 49.58 101.236 49.4773 100.898 49.426L100.084 49.294C99.4904 49.1913 99.0467 49.008 98.7534 48.744C98.4674 48.4727 98.3244 48.0803 98.3244 47.567C98.3244 47.0243 98.4967 46.6063 98.8414 46.313C99.1861 46.0123 99.7031 45.862 100.392 45.862H100.81C101.39 45.862 101.855 45.9977 102.207 46.269C102.559 46.5403 102.772 46.907 102.845 47.369H101.855C101.811 47.1783 101.701 47.028 101.525 46.918C101.349 46.8007 101.111 46.742 100.81 46.742H100.392C100.018 46.742 99.7434 46.8117 99.5674 46.951C99.3987 47.0903 99.3144 47.2993 99.3144 47.578C99.3144 47.8273 99.3877 48.0107 99.5344 48.128C99.6811 48.2453 99.9121 48.3297 100.227 48.381L101.041 48.513C101.694 48.6157 102.167 48.8063 102.46 49.085C102.761 49.3637 102.911 49.767 102.911 50.295C102.911 50.8523 102.732 51.2923 102.372 51.615C102.02 51.9303 101.485 52.088 100.766 52.088H100.304ZM107.747 52C107.226 52 106.819 51.8607 106.526 51.582C106.24 51.3033 106.097 50.911 106.097 50.405V46.852H104.392V45.95H106.097V44.245H107.087V45.95H109.507V46.852H107.087V50.405C107.087 50.867 107.307 51.098 107.747 51.098H109.397V52H107.747ZM111.923 48.81V47.93H115.443V48.81H111.923ZM118.2 52V45.95H119.168V47.105H119.399L119.08 47.82C119.08 47.1673 119.219 46.676 119.498 46.346C119.784 46.0087 120.205 45.84 120.763 45.84C121.401 45.84 121.907 46.0417 122.281 46.445C122.662 46.841 122.853 47.38 122.853 48.062V48.425H121.863V48.15C121.863 47.6733 121.745 47.3103 121.511 47.061C121.283 46.8043 120.957 46.676 120.532 46.676C120.114 46.676 119.784 46.8043 119.542 47.061C119.307 47.3177 119.19 47.6807 119.19 48.15V52H118.2ZM126.874 52.11C126.398 52.11 125.98 52.0147 125.62 51.824C125.268 51.6333 124.993 51.3657 124.795 51.021C124.605 50.669 124.509 50.262 124.509 49.8V48.15C124.509 47.6807 124.605 47.2737 124.795 46.929C124.993 46.5843 125.268 46.3167 125.62 46.126C125.98 45.9353 126.398 45.84 126.874 45.84C127.351 45.84 127.765 45.9353 128.117 46.126C128.477 46.3167 128.752 46.5843 128.942 46.929C129.14 47.2737 129.239 47.6807 129.239 48.15V49.217H125.477V49.8C125.477 50.2767 125.598 50.6433 125.84 50.9C126.082 51.1493 126.427 51.274 126.874 51.274C127.256 51.274 127.564 51.208 127.798 51.076C128.033 50.9367 128.176 50.7313 128.227 50.46H129.217C129.151 50.966 128.902 51.3693 128.469 51.67C128.044 51.9633 127.512 52.11 126.874 52.11ZM128.271 48.557V48.15C128.271 47.6733 128.15 47.3067 127.908 47.05C127.674 46.7933 127.329 46.665 126.874 46.665C126.427 46.665 126.082 46.7933 125.84 47.05C125.598 47.3067 125.477 47.6733 125.477 48.15V48.469H128.348L128.271 48.557ZM132.942 52.11C132.304 52.11 131.802 51.9487 131.435 51.626C131.068 51.296 130.885 50.8523 130.885 50.295C130.885 49.7303 131.068 49.2867 131.435 48.964C131.802 48.6413 132.297 48.48 132.92 48.48H134.79V47.875C134.79 47.501 134.676 47.215 134.449 47.017C134.229 46.8117 133.914 46.709 133.503 46.709C133.144 46.709 132.843 46.786 132.601 46.94C132.359 47.0867 132.22 47.2883 132.183 47.545H131.193C131.259 47.0243 131.505 46.61 131.93 46.302C132.355 45.994 132.887 45.84 133.525 45.84C134.222 45.84 134.772 46.0197 135.175 46.379C135.578 46.7383 135.78 47.226 135.78 47.842V52H134.812V50.845H134.647L134.812 50.68C134.812 51.12 134.64 51.4683 134.295 51.725C133.958 51.9817 133.507 52.11 132.942 52.11ZM133.184 51.329C133.653 51.329 134.038 51.2117 134.339 50.977C134.64 50.7423 134.79 50.4417 134.79 50.075V49.217H132.942C132.612 49.217 132.352 49.3087 132.161 49.492C131.97 49.6753 131.875 49.9247 131.875 50.24C131.875 50.5773 131.989 50.845 132.216 51.043C132.451 51.2337 132.773 51.329 133.184 51.329ZM139.714 52.11C139.112 52.11 138.625 51.9083 138.251 51.505C137.884 51.1017 137.701 50.5553 137.701 49.866V48.095C137.701 47.3983 137.884 46.8483 138.251 46.445C138.617 46.0417 139.105 45.84 139.714 45.84C140.212 45.84 140.612 45.9757 140.913 46.247C141.213 46.5183 141.364 46.8813 141.364 47.336L141.166 47.105H141.386L141.364 45.73V43.97H142.354V52H141.364V50.845H141.166L141.364 50.614C141.364 51.076 141.213 51.4427 140.913 51.714C140.612 51.978 140.212 52.11 139.714 52.11ZM140.044 51.252C140.454 51.252 140.777 51.1237 141.012 50.867C141.246 50.6103 141.364 50.2547 141.364 49.8V48.15C141.364 47.6953 141.246 47.3397 141.012 47.083C140.777 46.8263 140.454 46.698 140.044 46.698C139.626 46.698 139.296 46.8227 139.054 47.072C138.812 47.3213 138.691 47.6807 138.691 48.15V49.8C138.691 50.2693 138.812 50.6287 139.054 50.878C139.296 51.1273 139.626 51.252 140.044 51.252Z" fill="black"/>
<path d="M175.296 13.276C175.216 12.524 174.952 11.94 174.504 11.524C174.064 11.108 173.496 10.9 172.8 10.9C172.376 10.9 171.976 10.992 171.6 11.176C171.232 11.352 170.908 11.608 170.628 11.944C170.348 12.28 170.128 12.684 169.968 13.156C169.808 13.628 169.728 14.16 169.728 14.752C169.728 15.504 169.872 16.168 170.16 16.744C170.448 17.32 170.836 17.768 171.324 18.088C171.812 18.408 172.352 18.568 172.944 18.568C173.464 18.568 173.976 18.452 174.48 18.22C174.984 17.98 175.396 17.636 175.716 17.188L176.028 17.44C175.684 17.912 175.312 18.276 174.912 18.532C174.512 18.788 174.112 18.96 173.712 19.048C173.32 19.144 172.96 19.192 172.632 19.192C172.032 19.192 171.48 19.084 170.976 18.868C170.48 18.652 170.048 18.352 169.68 17.968C169.32 17.576 169.04 17.124 168.84 16.612C168.648 16.092 168.552 15.532 168.552 14.932C168.552 14.364 168.636 13.812 168.804 13.276C168.98 12.74 169.24 12.256 169.584 11.824C169.928 11.392 170.36 11.048 170.88 10.792C171.408 10.536 172.02 10.408 172.716 10.408C173.164 10.408 173.588 10.468 173.988 10.588C174.388 10.708 174.772 10.892 175.14 11.14L175.08 10.492H175.728V13.276H175.296ZM179.895 19.192C179.335 19.192 178.827 19.064 178.371 18.808C177.915 18.544 177.551 18.184 177.279 17.728C177.015 17.264 176.883 16.736 176.883 16.144C176.883 15.512 177.015 14.944 177.279 14.44C177.543 13.936 177.903 13.54 178.359 13.252C178.815 12.956 179.327 12.808 179.895 12.808C180.455 12.808 180.963 12.944 181.419 13.216C181.875 13.48 182.239 13.84 182.511 14.296C182.783 14.752 182.919 15.272 182.919 15.856C182.919 16.472 182.783 17.036 182.511 17.548C182.247 18.052 181.887 18.452 181.431 18.748C180.975 19.044 180.463 19.192 179.895 19.192ZM179.991 18.712C180.415 18.712 180.751 18.592 180.999 18.352C181.247 18.112 181.423 17.8 181.527 17.416C181.639 17.032 181.695 16.628 181.695 16.204C181.695 15.844 181.659 15.492 181.587 15.148C181.523 14.796 181.419 14.48 181.275 14.2C181.131 13.912 180.943 13.684 180.711 13.516C180.487 13.348 180.215 13.264 179.895 13.264C179.479 13.264 179.139 13.384 178.875 13.624C178.611 13.864 178.415 14.176 178.287 14.56C178.167 14.944 178.107 15.356 178.107 15.796C178.107 16.292 178.175 16.764 178.311 17.212C178.447 17.652 178.655 18.012 178.935 18.292C179.215 18.572 179.567 18.712 179.991 18.712ZM183.938 19V18.64C184.186 18.64 184.358 18.58 184.454 18.46C184.55 18.332 184.606 18.16 184.622 17.944C184.638 17.72 184.646 17.464 184.646 17.176L184.658 14.44C184.658 14.312 184.658 14.184 184.658 14.056C184.666 13.928 184.682 13.796 184.706 13.66C184.562 13.668 184.418 13.676 184.274 13.684C184.138 13.692 183.998 13.7 183.854 13.708V13.204C184.206 13.204 184.47 13.188 184.646 13.156C184.83 13.124 184.966 13.084 185.054 13.036C185.142 12.988 185.214 12.936 185.27 12.88H185.618C185.626 12.936 185.63 13 185.63 13.072C185.638 13.144 185.646 13.224 185.654 13.312C185.662 13.4 185.666 13.5 185.666 13.612C185.842 13.46 186.034 13.324 186.242 13.204C186.458 13.084 186.682 12.988 186.914 12.916C187.154 12.844 187.39 12.808 187.622 12.808C188.318 12.808 188.826 13.028 189.146 13.468C189.466 13.9 189.626 14.576 189.626 15.496V17.728C189.626 17.888 189.622 18.032 189.614 18.16C189.614 18.28 189.602 18.408 189.578 18.544C189.706 18.536 189.83 18.532 189.95 18.532C190.078 18.524 190.206 18.516 190.334 18.508V19H187.886V18.64C188.134 18.64 188.306 18.58 188.402 18.46C188.498 18.332 188.554 18.16 188.57 17.944C188.586 17.72 188.594 17.464 188.594 17.176V15.496C188.586 14.808 188.47 14.288 188.246 13.936C188.03 13.584 187.686 13.412 187.214 13.42C186.926 13.428 186.642 13.504 186.362 13.648C186.09 13.792 185.862 13.976 185.678 14.2C185.686 14.264 185.69 14.336 185.69 14.416C185.69 14.496 185.69 14.58 185.69 14.668L185.678 17.728C185.678 17.888 185.674 18.032 185.666 18.16C185.666 18.28 185.654 18.408 185.63 18.544C185.758 18.536 185.882 18.532 186.002 18.532C186.13 18.524 186.258 18.516 186.386 18.508V19H183.938ZM193.687 19.192C193.287 19.192 192.931 19.136 192.619 19.024C192.307 18.92 192.051 18.8 191.851 18.664L191.899 19.084H191.395L191.323 17.02H191.695C191.711 17.348 191.803 17.644 191.971 17.908C192.139 18.164 192.355 18.364 192.619 18.508C192.883 18.652 193.167 18.724 193.471 18.724C193.679 18.724 193.883 18.692 194.083 18.628C194.283 18.556 194.451 18.452 194.587 18.316C194.723 18.172 194.791 17.992 194.791 17.776C194.791 17.552 194.723 17.368 194.587 17.224C194.459 17.072 194.287 16.94 194.071 16.828C193.855 16.716 193.623 16.612 193.375 16.516C193.135 16.42 192.895 16.32 192.655 16.216C192.415 16.112 192.191 15.988 191.983 15.844C191.783 15.7 191.623 15.524 191.503 15.316C191.383 15.108 191.323 14.852 191.323 14.548C191.323 14.38 191.355 14.196 191.419 13.996C191.483 13.796 191.591 13.608 191.743 13.432C191.895 13.248 192.103 13.1 192.367 12.988C192.631 12.868 192.967 12.808 193.375 12.808C193.591 12.808 193.831 12.844 194.095 12.916C194.359 12.988 194.615 13.124 194.863 13.324L194.839 12.868H195.343V14.968H194.959C194.943 14.688 194.879 14.42 194.767 14.164C194.655 13.9 194.491 13.684 194.275 13.516C194.059 13.34 193.779 13.252 193.435 13.252C193.067 13.252 192.779 13.344 192.571 13.528C192.363 13.712 192.259 13.924 192.259 14.164C192.259 14.412 192.335 14.62 192.487 14.788C192.647 14.948 192.851 15.088 193.099 15.208C193.347 15.328 193.611 15.444 193.891 15.556C194.195 15.684 194.491 15.824 194.779 15.976C195.067 16.128 195.303 16.32 195.487 16.552C195.671 16.776 195.763 17.068 195.763 17.428C195.763 17.828 195.659 18.16 195.451 18.424C195.251 18.688 194.991 18.88 194.671 19C194.359 19.128 194.031 19.192 193.687 19.192ZM199.038 19.192C198.854 19.192 198.666 19.164 198.474 19.108C198.282 19.06 198.102 18.96 197.934 18.808C197.774 18.656 197.646 18.436 197.55 18.148C197.454 17.852 197.406 17.464 197.406 16.984L197.43 13.504L196.506 13.516V13C196.714 12.992 196.926 12.916 197.142 12.772C197.358 12.62 197.55 12.416 197.718 12.16C197.894 11.904 198.014 11.624 198.078 11.32H198.486V13H200.502V13.468L198.486 13.492L198.462 16.828C198.462 17.188 198.49 17.496 198.546 17.752C198.61 18 198.71 18.188 198.846 18.316C198.982 18.444 199.158 18.508 199.374 18.508C199.598 18.508 199.806 18.444 199.998 18.316C200.198 18.188 200.374 18.012 200.526 17.788L200.85 18.052C200.674 18.316 200.498 18.524 200.322 18.676C200.154 18.828 199.99 18.94 199.83 19.012C199.67 19.092 199.522 19.14 199.386 19.156C199.25 19.18 199.134 19.192 199.038 19.192ZM205.071 19C205.047 18.864 205.031 18.744 205.023 18.64C205.015 18.536 205.003 18.428 204.987 18.316C204.715 18.588 204.419 18.804 204.099 18.964C203.787 19.116 203.455 19.192 203.103 19.192C202.495 19.192 202.043 19.056 201.747 18.784C201.451 18.504 201.303 18.164 201.303 17.764C201.303 17.396 201.415 17.08 201.639 16.816C201.871 16.544 202.167 16.324 202.527 16.156C202.895 15.98 203.291 15.852 203.715 15.772C204.147 15.684 204.563 15.644 204.963 15.652V14.908C204.963 14.628 204.939 14.364 204.891 14.116C204.843 13.868 204.739 13.664 204.579 13.504C204.419 13.344 204.163 13.26 203.811 13.252C203.579 13.244 203.339 13.288 203.091 13.384C202.851 13.48 202.675 13.644 202.563 13.876C202.627 13.94 202.667 14.016 202.683 14.104C202.707 14.184 202.719 14.26 202.719 14.332C202.719 14.428 202.679 14.54 202.599 14.668C202.519 14.788 202.379 14.844 202.179 14.836C202.011 14.836 201.883 14.78 201.795 14.668C201.707 14.548 201.663 14.408 201.663 14.248C201.663 13.976 201.763 13.732 201.963 13.516C202.171 13.3 202.455 13.128 202.815 13C203.175 12.872 203.583 12.808 204.039 12.808C204.711 12.808 205.207 12.988 205.527 13.348C205.847 13.7 206.003 14.26 205.995 15.028C205.995 15.324 205.995 15.624 205.995 15.928C205.995 16.224 205.991 16.524 205.983 16.828C205.983 17.124 205.983 17.424 205.983 17.728C205.983 17.856 205.979 17.984 205.971 18.112C205.963 18.24 205.951 18.384 205.935 18.544C206.079 18.536 206.219 18.528 206.355 18.52C206.499 18.512 206.643 18.504 206.787 18.496V19H205.071ZM204.963 16.06C204.691 16.068 204.403 16.104 204.099 16.168C203.803 16.224 203.527 16.312 203.271 16.432C203.023 16.552 202.819 16.712 202.659 16.912C202.507 17.104 202.435 17.34 202.443 17.62C202.459 17.916 202.555 18.14 202.731 18.292C202.915 18.436 203.131 18.508 203.379 18.508C203.707 18.508 203.991 18.448 204.231 18.328C204.479 18.2 204.723 18.024 204.963 17.8C204.955 17.712 204.951 17.616 204.951 17.512C204.951 17.408 204.951 17.3 204.951 17.188C204.951 17.148 204.951 17.02 204.951 16.804C204.959 16.588 204.963 16.34 204.963 16.06ZM207.61 19V18.64C207.858 18.64 208.03 18.58 208.126 18.46C208.222 18.332 208.278 18.16 208.294 17.944C208.31 17.72 208.318 17.464 208.318 17.176L208.33 14.44C208.33 14.312 208.33 14.184 208.33 14.056C208.338 13.928 208.354 13.796 208.378 13.66C208.234 13.668 208.09 13.676 207.946 13.684C207.81 13.692 207.67 13.7 207.526 13.708V13.204C207.878 13.204 208.142 13.188 208.318 13.156C208.502 13.124 208.638 13.084 208.726 13.036C208.814 12.988 208.886 12.936 208.942 12.88H209.29C209.298 12.936 209.302 13 209.302 13.072C209.31 13.144 209.318 13.224 209.326 13.312C209.334 13.4 209.338 13.5 209.338 13.612C209.514 13.46 209.706 13.324 209.914 13.204C210.13 13.084 210.354 12.988 210.586 12.916C210.826 12.844 211.062 12.808 211.294 12.808C211.99 12.808 212.498 13.028 212.818 13.468C213.138 13.9 213.298 14.576 213.298 15.496V17.728C213.298 17.888 213.294 18.032 213.286 18.16C213.286 18.28 213.274 18.408 213.25 18.544C213.378 18.536 213.502 18.532 213.622 18.532C213.75 18.524 213.878 18.516 214.006 18.508V19H211.558V18.64C211.806 18.64 211.978 18.58 212.074 18.46C212.17 18.332 212.226 18.16 212.242 17.944C212.258 17.72 212.266 17.464 212.266 17.176V15.496C212.258 14.808 212.142 14.288 211.918 13.936C211.702 13.584 211.358 13.412 210.886 13.42C210.598 13.428 210.314 13.504 210.034 13.648C209.762 13.792 209.534 13.976 209.35 14.2C209.358 14.264 209.362 14.336 209.362 14.416C209.362 14.496 209.362 14.58 209.362 14.668L209.35 17.728C209.35 17.888 209.346 18.032 209.338 18.16C209.338 18.28 209.326 18.408 209.302 18.544C209.43 18.536 209.554 18.532 209.674 18.532C209.802 18.524 209.93 18.516 210.058 18.508V19H207.61ZM217.05 19.192C216.866 19.192 216.678 19.164 216.486 19.108C216.294 19.06 216.114 18.96 215.946 18.808C215.786 18.656 215.658 18.436 215.562 18.148C215.466 17.852 215.418 17.464 215.418 16.984L215.442 13.504L214.518 13.516V13C214.726 12.992 214.938 12.916 215.154 12.772C215.37 12.62 215.562 12.416 215.73 12.16C215.906 11.904 216.026 11.624 216.09 11.32H216.498V13H218.514V13.468L216.498 13.492L216.474 16.828C216.474 17.188 216.502 17.496 216.558 17.752C216.622 18 216.722 18.188 216.858 18.316C216.994 18.444 217.17 18.508 217.386 18.508C217.61 18.508 217.818 18.444 218.01 18.316C218.21 18.188 218.386 18.012 218.538 17.788L218.862 18.052C218.686 18.316 218.51 18.524 218.334 18.676C218.166 18.828 218.002 18.94 217.842 19.012C217.682 19.092 217.534 19.14 217.398 19.156C217.262 19.18 217.146 19.192 217.05 19.192Z" fill="#777777"/>
<path d="M171.344 34.11C170.86 34.11 170.435 34.0183 170.068 33.835C169.709 33.6517 169.43 33.3877 169.232 33.043C169.034 32.691 168.935 32.2767 168.935 31.8V30.15C168.935 29.666 169.034 29.2517 169.232 28.907C169.43 28.5623 169.709 28.2983 170.068 28.115C170.435 27.9317 170.86 27.84 171.344 27.84C172.041 27.84 172.602 28.027 173.027 28.401C173.452 28.775 173.676 29.2847 173.698 29.93H172.708C172.686 29.5413 172.554 29.2443 172.312 29.039C172.077 28.8263 171.755 28.72 171.344 28.72C170.911 28.72 170.567 28.8447 170.31 29.094C170.053 29.336 169.925 29.6843 169.925 30.139V31.8C169.925 32.2547 170.053 32.6067 170.31 32.856C170.567 33.1053 170.911 33.23 171.344 33.23C171.755 33.23 172.077 33.1237 172.312 32.911C172.554 32.6983 172.686 32.4013 172.708 32.02H173.698C173.676 32.6653 173.452 33.175 173.027 33.549C172.602 33.923 172.041 34.11 171.344 34.11ZM177.896 34.088C177.412 34.088 176.994 33.9963 176.642 33.813C176.29 33.6297 176.015 33.3657 175.817 33.021C175.626 32.669 175.531 32.2547 175.531 31.778V30.172C175.531 29.688 175.626 29.2737 175.817 28.929C176.015 28.5843 176.29 28.3203 176.642 28.137C176.994 27.9537 177.412 27.862 177.896 27.862C178.38 27.862 178.798 27.9537 179.15 28.137C179.502 28.3203 179.773 28.5843 179.964 28.929C180.162 29.2737 180.261 29.6843 180.261 30.161V31.778C180.261 32.2547 180.162 32.669 179.964 33.021C179.773 33.3657 179.502 33.6297 179.15 33.813C178.798 33.9963 178.38 34.088 177.896 34.088ZM177.896 33.208C178.328 33.208 178.666 33.087 178.908 32.845C179.15 32.603 179.271 32.2473 179.271 31.778V30.172C179.271 29.7027 179.15 29.347 178.908 29.105C178.666 28.863 178.328 28.742 177.896 28.742C177.47 28.742 177.133 28.863 176.884 29.105C176.642 29.347 176.521 29.7027 176.521 30.172V31.778C176.521 32.2473 176.642 32.603 176.884 32.845C177.133 33.087 177.47 33.208 177.896 33.208ZM182.203 34V27.95H183.193V29.105H183.402L183.193 29.336C183.193 28.8593 183.336 28.4927 183.622 28.236C183.908 27.972 184.304 27.84 184.81 27.84C185.419 27.84 185.903 28.027 186.262 28.401C186.622 28.775 186.801 29.2847 186.801 29.93V34H185.811V30.04C185.811 29.6073 185.694 29.2773 185.459 29.05C185.232 28.8153 184.92 28.698 184.524 28.698C184.114 28.698 183.787 28.8227 183.545 29.072C183.311 29.3213 183.193 29.6807 183.193 30.15V34H182.203ZM190.9 34.088C190.489 34.088 190.13 34.0257 189.822 33.901C189.521 33.769 189.279 33.5857 189.096 33.351C188.92 33.1163 188.814 32.8377 188.777 32.515H189.767C189.811 32.7277 189.928 32.8963 190.119 33.021C190.317 33.1457 190.577 33.208 190.9 33.208H191.362C191.751 33.208 192.04 33.131 192.231 32.977C192.422 32.8157 192.517 32.603 192.517 32.339C192.517 32.0823 192.429 31.8807 192.253 31.734C192.084 31.58 191.831 31.4773 191.494 31.426L190.68 31.294C190.086 31.1913 189.642 31.008 189.349 30.744C189.063 30.4727 188.92 30.0803 188.92 29.567C188.92 29.0243 189.092 28.6063 189.437 28.313C189.782 28.0123 190.299 27.862 190.988 27.862H191.406C191.985 27.862 192.451 27.9977 192.803 28.269C193.155 28.5403 193.368 28.907 193.441 29.369H192.451C192.407 29.1783 192.297 29.028 192.121 28.918C191.945 28.8007 191.707 28.742 191.406 28.742H190.988C190.614 28.742 190.339 28.8117 190.163 28.951C189.994 29.0903 189.91 29.2993 189.91 29.578C189.91 29.8273 189.983 30.0107 190.13 30.128C190.277 30.2453 190.508 30.3297 190.823 30.381L191.637 30.513C192.29 30.6157 192.763 30.8063 193.056 31.085C193.357 31.3637 193.507 31.767 193.507 32.295C193.507 32.8523 193.327 33.2923 192.968 33.615C192.616 33.9303 192.081 34.088 191.362 34.088H190.9ZM198.343 34C197.822 34 197.415 33.8607 197.122 33.582C196.836 33.3033 196.693 32.911 196.693 32.405V28.852H194.988V27.95H196.693V26.245H197.683V27.95H200.103V28.852H197.683V32.405C197.683 32.867 197.903 33.098 198.343 33.098H199.993V34H198.343ZM202.519 30.81V29.93H206.039V30.81H202.519ZM210.522 34.11C209.921 34.11 209.433 33.9083 209.059 33.505C208.693 33.1017 208.509 32.5553 208.509 31.866V30.095C208.509 29.3983 208.693 28.8483 209.059 28.445C209.426 28.0417 209.914 27.84 210.522 27.84C211.021 27.84 211.421 27.9757 211.721 28.247C212.022 28.5183 212.172 28.8813 212.172 29.336L211.974 29.105H212.194L212.172 27.73V25.97H213.162V34H212.172V32.845H211.974L212.172 32.614C212.172 33.076 212.022 33.4427 211.721 33.714C211.421 33.978 211.021 34.11 210.522 34.11ZM210.852 33.252C211.263 33.252 211.586 33.1237 211.82 32.867C212.055 32.6103 212.172 32.2547 212.172 31.8V30.15C212.172 29.6953 212.055 29.3397 211.82 29.083C211.586 28.8263 211.263 28.698 210.852 28.698C210.434 28.698 210.104 28.8227 209.862 29.072C209.62 29.3213 209.499 29.6807 209.499 30.15V31.8C209.499 32.2693 209.62 32.6287 209.862 32.878C210.104 33.1273 210.434 33.252 210.852 33.252ZM217.47 34.11C216.993 34.11 216.575 34.0147 216.216 33.824C215.864 33.6333 215.589 33.3657 215.391 33.021C215.2 32.669 215.105 32.262 215.105 31.8V30.15C215.105 29.6807 215.2 29.2737 215.391 28.929C215.589 28.5843 215.864 28.3167 216.216 28.126C216.575 27.9353 216.993 27.84 217.47 27.84C217.947 27.84 218.361 27.9353 218.713 28.126C219.072 28.3167 219.347 28.5843 219.538 28.929C219.736 29.2737 219.835 29.6807 219.835 30.15V31.217H216.073V31.8C216.073 32.2767 216.194 32.6433 216.436 32.9C216.678 33.1493 217.023 33.274 217.47 33.274C217.851 33.274 218.159 33.208 218.394 33.076C218.629 32.9367 218.772 32.7313 218.823 32.46H219.813C219.747 32.966 219.498 33.3693 219.065 33.67C218.64 33.9633 218.108 34.11 217.47 34.11ZM218.867 30.557V30.15C218.867 29.6733 218.746 29.3067 218.504 29.05C218.269 28.7933 217.925 28.665 217.47 28.665C217.023 28.665 216.678 28.7933 216.436 29.05C216.194 29.3067 216.073 29.6733 216.073 30.15V30.469H218.944L218.867 30.557ZM224.11 34.11C223.626 34.11 223.2 34.0183 222.834 33.835C222.474 33.6517 222.196 33.3877 221.998 33.043C221.8 32.691 221.701 32.2767 221.701 31.8V30.15C221.701 29.666 221.8 29.2517 221.998 28.907C222.196 28.5623 222.474 28.2983 222.834 28.115C223.2 27.9317 223.626 27.84 224.11 27.84C224.806 27.84 225.367 28.027 225.793 28.401C226.218 28.775 226.442 29.2847 226.464 29.93H225.474C225.452 29.5413 225.32 29.2443 225.078 29.039C224.843 28.8263 224.52 28.72 224.11 28.72C223.677 28.72 223.332 28.8447 223.076 29.094C222.819 29.336 222.691 29.6843 222.691 30.139V31.8C222.691 32.2547 222.819 32.6067 223.076 32.856C223.332 33.1053 223.677 33.23 224.11 33.23C224.52 33.23 224.843 33.1237 225.078 32.911C225.32 32.6983 225.452 32.4013 225.474 32.02H226.464C226.442 32.6653 226.218 33.175 225.793 33.549C225.367 33.923 224.806 34.11 224.11 34.11ZM231.486 34C231.134 34 230.826 33.9303 230.562 33.791C230.298 33.6517 230.093 33.4537 229.946 33.197C229.8 32.9403 229.726 32.6397 229.726 32.295V26.872H227.691V25.97H230.716V32.295C230.716 32.5443 230.786 32.7423 230.925 32.889C231.065 33.0283 231.252 33.098 231.486 33.098H233.411V34H231.486Z" fill="black"/>
<path d="M171.344 52.11C170.86 52.11 170.435 52.0183 170.068 51.835C169.709 51.6517 169.43 51.3877 169.232 51.043C169.034 50.691 168.935 50.2767 168.935 49.8V48.15C168.935 47.666 169.034 47.2517 169.232 46.907C169.43 46.5623 169.709 46.2983 170.068 46.115C170.435 45.9317 170.86 45.84 171.344 45.84C172.041 45.84 172.602 46.027 173.027 46.401C173.452 46.775 173.676 47.2847 173.698 47.93H172.708C172.686 47.5413 172.554 47.2443 172.312 47.039C172.077 46.8263 171.755 46.72 171.344 46.72C170.911 46.72 170.567 46.8447 170.31 47.094C170.053 47.336 169.925 47.6843 169.925 48.139V49.8C169.925 50.2547 170.053 50.6067 170.31 50.856C170.567 51.1053 170.911 51.23 171.344 51.23C171.755 51.23 172.077 51.1237 172.312 50.911C172.554 50.6983 172.686 50.4013 172.708 50.02H173.698C173.676 50.6653 173.452 51.175 173.027 51.549C172.602 51.923 172.041 52.11 171.344 52.11ZM177.896 52.088C177.412 52.088 176.994 51.9963 176.642 51.813C176.29 51.6297 176.015 51.3657 175.817 51.021C175.626 50.669 175.531 50.2547 175.531 49.778V48.172C175.531 47.688 175.626 47.2737 175.817 46.929C176.015 46.5843 176.29 46.3203 176.642 46.137C176.994 45.9537 177.412 45.862 177.896 45.862C178.38 45.862 178.798 45.9537 179.15 46.137C179.502 46.3203 179.773 46.5843 179.964 46.929C180.162 47.2737 180.261 47.6843 180.261 48.161V49.778C180.261 50.2547 180.162 50.669 179.964 51.021C179.773 51.3657 179.502 51.6297 179.15 51.813C178.798 51.9963 178.38 52.088 177.896 52.088ZM177.896 51.208C178.328 51.208 178.666 51.087 178.908 50.845C179.15 50.603 179.271 50.2473 179.271 49.778V48.172C179.271 47.7027 179.15 47.347 178.908 47.105C178.666 46.863 178.328 46.742 177.896 46.742C177.47 46.742 177.133 46.863 176.884 47.105C176.642 47.347 176.521 47.7027 176.521 48.172V49.778C176.521 50.2473 176.642 50.603 176.884 50.845C177.133 51.087 177.47 51.208 177.896 51.208ZM182.203 52V45.95H183.193V47.105H183.402L183.193 47.336C183.193 46.8593 183.336 46.4927 183.622 46.236C183.908 45.972 184.304 45.84 184.81 45.84C185.419 45.84 185.903 46.027 186.262 46.401C186.622 46.775 186.801 47.2847 186.801 47.93V52H185.811V48.04C185.811 47.6073 185.694 47.2773 185.459 47.05C185.232 46.8153 184.92 46.698 184.524 46.698C184.114 46.698 183.787 46.8227 183.545 47.072C183.311 47.3213 183.193 47.6807 183.193 48.15V52H182.203ZM190.9 52.088C190.489 52.088 190.13 52.0257 189.822 51.901C189.521 51.769 189.279 51.5857 189.096 51.351C188.92 51.1163 188.814 50.8377 188.777 50.515H189.767C189.811 50.7277 189.928 50.8963 190.119 51.021C190.317 51.1457 190.577 51.208 190.9 51.208H191.362C191.751 51.208 192.04 51.131 192.231 50.977C192.422 50.8157 192.517 50.603 192.517 50.339C192.517 50.0823 192.429 49.8807 192.253 49.734C192.084 49.58 191.831 49.4773 191.494 49.426L190.68 49.294C190.086 49.1913 189.642 49.008 189.349 48.744C189.063 48.4727 188.92 48.0803 188.92 47.567C188.92 47.0243 189.092 46.6063 189.437 46.313C189.782 46.0123 190.299 45.862 190.988 45.862H191.406C191.985 45.862 192.451 45.9977 192.803 46.269C193.155 46.5403 193.368 46.907 193.441 47.369H192.451C192.407 47.1783 192.297 47.028 192.121 46.918C191.945 46.8007 191.707 46.742 191.406 46.742H190.988C190.614 46.742 190.339 46.8117 190.163 46.951C189.994 47.0903 189.91 47.2993 189.91 47.578C189.91 47.8273 189.983 48.0107 190.13 48.128C190.277 48.2453 190.508 48.3297 190.823 48.381L191.637 48.513C192.29 48.6157 192.763 48.8063 193.056 49.085C193.357 49.3637 193.507 49.767 193.507 50.295C193.507 50.8523 193.327 51.2923 192.968 51.615C192.616 51.9303 192.081 52.088 191.362 52.088H190.9ZM198.343 52C197.822 52 197.415 51.8607 197.122 51.582C196.836 51.3033 196.693 50.911 196.693 50.405V46.852H194.988V45.95H196.693V44.245H197.683V45.95H200.103V46.852H197.683V50.405C197.683 50.867 197.903 51.098 198.343 51.098H199.993V52H198.343ZM202.519 48.81V47.93H206.039V48.81H202.519ZM208.795 52V45.95H209.763V47.105H209.994L209.675 47.82C209.675 47.1673 209.815 46.676 210.093 46.346C210.379 46.0087 210.801 45.84 211.358 45.84C211.996 45.84 212.502 46.0417 212.876 46.445C213.258 46.841 213.448 47.38 213.448 48.062V48.425H212.458V48.15C212.458 47.6733 212.341 47.3103 212.106 47.061C211.879 46.8043 211.553 46.676 211.127 46.676C210.709 46.676 210.379 46.8043 210.137 47.061C209.903 47.3177 209.785 47.6807 209.785 48.15V52H208.795ZM217.47 52.11C216.993 52.11 216.575 52.0147 216.216 51.824C215.864 51.6333 215.589 51.3657 215.391 51.021C215.2 50.669 215.105 50.262 215.105 49.8V48.15C215.105 47.6807 215.2 47.2737 215.391 46.929C215.589 46.5843 215.864 46.3167 216.216 46.126C216.575 45.9353 216.993 45.84 217.47 45.84C217.947 45.84 218.361 45.9353 218.713 46.126C219.072 46.3167 219.347 46.5843 219.538 46.929C219.736 47.2737 219.835 47.6807 219.835 48.15V49.217H216.073V49.8C216.073 50.2767 216.194 50.6433 216.436 50.9C216.678 51.1493 217.023 51.274 217.47 51.274C217.851 51.274 218.159 51.208 218.394 51.076C218.629 50.9367 218.772 50.7313 218.823 50.46H219.813C219.747 50.966 219.498 51.3693 219.065 51.67C218.64 51.9633 218.108 52.11 217.47 52.11ZM218.867 48.557V48.15C218.867 47.6733 218.746 47.3067 218.504 47.05C218.269 46.7933 217.925 46.665 217.47 46.665C217.023 46.665 216.678 46.7933 216.436 47.05C216.194 47.3067 216.073 47.6733 216.073 48.15V48.469H218.944L218.867 48.557ZM223.538 52.11C222.9 52.11 222.397 51.9487 222.031 51.626C221.664 51.296 221.481 50.8523 221.481 50.295C221.481 49.7303 221.664 49.2867 222.031 48.964C222.397 48.6413 222.892 48.48 223.516 48.48H225.386V47.875C225.386 47.501 225.272 47.215 225.045 47.017C224.825 46.8117 224.509 46.709 224.099 46.709C223.739 46.709 223.439 46.786 223.197 46.94C222.955 47.0867 222.815 47.2883 222.779 47.545H221.789C221.855 47.0243 222.1 46.61 222.526 46.302C222.951 45.994 223.483 45.84 224.121 45.84C224.817 45.84 225.367 46.0197 225.771 46.379C226.174 46.7383 226.376 47.226 226.376 47.842V52H225.408V50.845H225.243L225.408 50.68C225.408 51.12 225.235 51.4683 224.891 51.725C224.553 51.9817 224.102 52.11 223.538 52.11ZM223.78 51.329C224.249 51.329 224.634 51.2117 224.935 50.977C225.235 50.7423 225.386 50.4417 225.386 50.075V49.217H223.538C223.208 49.217 222.947 49.3087 222.757 49.492C222.566 49.6753 222.471 49.9247 222.471 50.24C222.471 50.5773 222.584 50.845 222.812 51.043C223.046 51.2337 223.369 51.329 223.78 51.329ZM230.309 52.11C229.708 52.11 229.22 51.9083 228.846 51.505C228.48 51.1017 228.296 50.5553 228.296 49.866V48.095C228.296 47.3983 228.48 46.8483 228.846 46.445C229.213 46.0417 229.701 45.84 230.309 45.84C230.808 45.84 231.208 45.9757 231.508 46.247C231.809 46.5183 231.959 46.8813 231.959 47.336L231.761 47.105H231.981L231.959 45.73V43.97H232.949V52H231.959V50.845H231.761L231.959 50.614C231.959 51.076 231.809 51.4427 231.508 51.714C231.208 51.978 230.808 52.11 230.309 52.11ZM230.639 51.252C231.05 51.252 231.373 51.1237 231.607 50.867C231.842 50.6103 231.959 50.2547 231.959 49.8V48.15C231.959 47.6953 231.842 47.3397 231.607 47.083C231.373 46.8263 231.05 46.698 230.639 46.698C230.221 46.698 229.891 46.8227 229.649 47.072C229.407 47.3213 229.286 47.6807 229.286 48.15V49.8C229.286 50.2693 229.407 50.6287 229.649 50.878C229.891 51.1273 230.221 51.252 230.639 51.252Z" fill="black"/>
</svg>
